<svg width="752" height="623" viewBox="0 0 752 623" fill="none" xmlns="http://www.w3.org/2000/svg">
<ellipse cx="375.93" cy="556.5" rx="375.836" ry="66.5" fill="black" fill-opacity="0.07"/>
<path d="M500.199 76.0957H587.867C587.867 76.0957 580.115 61.9877 557.548 64.041C535.996 66.0024 534.9 57.101 523.943 56.005C512.983 54.909 503.851 63.3104 500.199 76.0957Z" fill="#DADBD8"/>
<path d="M271.052 307.854C271.052 307.854 262.27 312.606 275.057 330.948C287.843 349.292 296.163 358.098 296.163 358.098C296.163 358.098 298.58 362.433 294.823 363.676C291.065 364.92 282.388 364.734 281.321 369.69C280.213 374.829 284.404 378.956 292.169 382.012C299.934 385.068 316.7 392.386 318.214 393.054C319.7 393.712 321.367 395.653 318.943 396.91C316.519 398.166 297.697 402.792 300.427 411.593C303.156 420.392 326.187 425.352 328.695 425.941C331.202 426.533 331.91 427.462 331.896 428.797C331.883 430.13 325.41 431.089 320.11 432.622C314.81 434.158 308.935 436.866 310.935 441.812C312.935 446.757 327.41 455.73 359.379 454.475L374.155 452.922L380.447 439.39C392.147 409.612 388.434 392.993 384.422 389.477C380.41 385.961 375.919 390.62 372.726 395.12C369.534 399.62 366.5 405.418 365.236 404.993C363.972 404.566 363.327 403.592 363.594 401.03C363.86 398.468 366.751 375.086 359.339 369.614C351.926 364.144 341.367 380.397 339.383 382.273C337.399 384.149 336.114 381.936 335.983 380.317C335.85 378.668 334.451 360.426 334.119 352.088C333.787 343.75 331.268 338.436 326.051 337.79C321.02 337.169 318.34 345.424 315.931 348.564C313.522 351.704 310.223 347.996 310.223 347.996C310.223 347.996 304.643 337.241 291.524 319.133C278.407 301.026 270.881 307.964 270.881 307.964" fill="#E7E8E5"/>
<path d="M375.393 456.277C365.812 442.941 349.18 418.952 334.795 398.431C320.415 377.916 307.377 359.353 297.865 345.969C293.109 339.295 289.258 333.887 286.583 330.132C285.26 328.273 284.23 326.824 283.518 325.823C283.18 325.339 282.918 324.964 282.73 324.696C282.555 324.44 282.475 324.301 282.475 324.301C282.475 324.301 282.58 324.421 282.768 324.667C282.965 324.931 283.239 325.296 283.593 325.768C284.321 326.757 285.376 328.189 286.728 330.027C289.447 333.727 293.342 339.109 298.13 345.78C307.712 359.116 320.792 377.651 335.172 398.165C349.559 418.688 366.145 442.705 375.659 456.089" fill="#DADBD8"/>
<path d="M293.448 370.437C293.455 370.405 293.834 370.457 294.514 370.581C295.194 370.7 296.172 370.901 297.379 371.163C299.791 371.688 303.104 372.499 306.744 373.46C310.33 374.421 313.572 375.291 316.052 375.955C317.172 376.248 318.116 376.495 318.876 376.693C319.544 376.864 319.911 376.973 319.904 377.004C319.898 377.036 319.519 376.987 318.838 376.869C318.158 376.747 317.178 376.545 315.975 376.272C313.567 375.721 310.266 374.868 306.627 373.907C303.035 372.972 299.788 372.127 297.304 371.48C296.182 371.193 295.236 370.951 294.475 370.756C293.808 370.58 293.442 370.468 293.448 370.437Z" fill="#DADBD8"/>
<path d="M320.78 375.928C320.656 375.9 322.027 368.997 323.843 360.508C325.66 352.018 327.232 345.16 327.358 345.185C327.482 345.213 326.111 352.114 324.295 360.606C322.478 369.093 320.904 375.953 320.78 375.928Z" fill="#DADBD8"/>
<path d="M341.447 408.433C341.42 408.417 341.588 408.064 341.919 407.442C342.298 406.738 342.771 405.86 343.334 404.817C344.524 402.6 346.155 399.53 347.831 396.078C349.515 392.629 350.93 389.453 351.936 387.148C352.411 386.061 352.81 385.148 353.131 384.416C353.416 383.772 353.588 383.421 353.618 383.433C353.647 383.444 353.532 383.817 353.298 384.482C353.062 385.148 352.706 386.102 352.238 387.273C351.307 389.616 349.934 392.821 348.246 396.28C346.564 399.742 344.883 402.796 343.618 404.977C342.98 406.064 342.455 406.94 342.075 407.532C341.696 408.128 341.475 408.448 341.447 408.433Z" fill="#DADBD8"/>
<path d="M315.632 408.906C315.631 408.876 315.99 408.833 316.64 408.785C317.388 408.742 318.308 408.689 319.392 408.626C321.716 408.512 324.928 408.385 328.476 408.274C332.027 408.164 335.242 408.089 337.568 408.058C338.655 408.053 339.575 408.05 340.324 408.046C340.976 408.053 341.338 408.072 341.338 408.105C341.339 408.136 340.98 408.177 340.331 408.225C339.582 408.269 338.663 408.322 337.579 408.385C335.254 408.498 332.042 408.625 328.492 408.736C324.943 408.846 321.728 408.922 319.402 408.952C318.315 408.957 317.395 408.962 316.644 408.965C315.994 408.958 315.634 408.94 315.632 408.906Z" fill="#DADBD8"/>
<path d="M330.231 439.922C330.23 439.89 330.69 439.84 331.522 439.779C332.44 439.722 333.626 439.65 335.048 439.562C338.027 439.399 342.143 439.206 346.69 439.019C351.238 438.834 355.355 438.692 358.338 438.611C359.762 438.583 360.948 438.559 361.868 438.542C362.703 438.535 363.166 438.547 363.167 438.578C363.168 438.61 362.708 438.66 361.876 438.72C360.958 438.776 359.774 438.85 358.35 438.939C355.372 439.102 351.256 439.295 346.707 439.48C342.16 439.666 338.043 439.808 335.06 439.887C333.636 439.916 332.45 439.942 331.53 439.959C330.695 439.966 330.232 439.954 330.231 439.922Z" fill="#DADBD8"/>
<path d="M362.369 438.388C362.341 438.374 362.545 437.922 362.936 437.118C363.368 436.243 363.931 435.103 364.609 433.726C366.019 430.86 367.949 426.895 369.957 422.458C371.973 418.022 373.692 413.959 374.915 411.008C375.504 409.592 375.992 408.418 376.367 407.516C376.713 406.692 376.919 406.242 376.948 406.254C376.977 406.266 376.829 406.736 376.533 407.58C376.239 408.426 375.793 409.639 375.217 411.131C374.071 414.114 372.396 418.204 370.377 422.648C368.365 427.094 366.385 431.044 364.9 433.875C364.153 435.287 363.537 436.426 363.095 437.203C362.655 437.98 362.397 438.403 362.369 438.388Z" fill="#DADBD8"/>
<path d="M486.363 241.617C470.488 223.821 472.015 198.13 478.02 176.133C479.023 172.462 479.541 168.463 482.069 165.633C484.601 162.802 489.235 161.557 492.179 163.901C494.621 165.846 495.061 169.327 495.973 172.335C497.185 176.339 499.545 179.971 502.691 182.683C504.757 184.465 507.497 185.903 510.127 185.171C513.737 184.166 515.159 179.845 516.008 176.157C517.591 169.285 519.173 162.414 520.755 155.543C521.604 151.857 522.484 148.095 524.456 144.873C526.428 141.65 529.728 139.003 533.461 138.851C537.197 138.701 541.049 141.746 540.935 145.525C540.888 147.097 540.213 148.581 539.953 150.133C539.693 151.686 540.005 153.545 541.356 154.314C542.724 155.094 544.444 154.399 545.799 153.582C550.48 150.766 554.192 146.587 557.729 142.397C561.268 138.205 564.761 133.883 569.168 130.646C573.576 127.409 579.108 125.326 584.449 126.277C589.793 127.227 594.639 131.811 594.745 137.303C594.852 142.809 590.577 147.357 586.287 150.778C579.923 155.854 572.835 159.995 565.315 163.034C563.959 163.583 562.491 164.175 561.723 165.434C560.343 167.698 562.091 170.687 564.324 172.069C566.851 173.633 569.895 174.051 572.685 175.07C575.476 176.087 578.285 178.091 578.729 181.061C579.345 185.181 575.265 188.379 571.557 190.229C564.131 193.934 556.083 196.343 547.875 197.321C544.932 197.67 541.876 197.865 539.241 199.249C536.607 200.635 534.504 203.633 535.211 206.537C535.915 209.446 539.105 211.078 542.067 211.222C545.027 211.369 547.931 210.43 550.876 210.051C556.388 209.339 562.837 211.235 565.043 216.375C566.492 219.754 565.731 223.801 563.843 226.971C561.955 230.142 559.071 232.577 556.107 234.747C545.744 242.341 533.551 247.541 520.849 248.829C508.151 250.119 497.015 248.645 486.363 241.617Z" fill="#F3F2F1"/>
<path d="M489.578 243.756C492.462 235.163 489.446 239.476 495.38 229.072C501.294 218.655 508.724 207.773 516.887 196.659C518.938 193.888 520.963 191.151 522.96 188.452C524.959 185.763 526.943 183.096 529.044 180.608C533.224 175.611 537.624 171.127 541.935 167C546.243 162.869 550.484 159.108 554.474 155.62C558.472 152.137 562.262 148.963 565.838 146.217C572.978 140.696 579.251 136.933 583.663 134.525C585.868 133.315 587.608 132.432 588.796 131.849C589.367 131.575 589.815 131.357 590.152 131.195C590.459 131.051 590.618 130.983 590.623 130.995C590.63 131.005 590.48 131.095 590.183 131.259C589.854 131.437 589.416 131.673 588.859 131.975C587.694 132.599 585.974 133.52 583.791 134.765C579.427 137.244 573.216 141.057 566.136 146.611C562.588 149.375 558.827 152.564 554.85 156.059C550.88 159.565 546.66 163.337 542.374 167.469C538.087 171.599 533.714 176.077 529.563 181.051C527.478 183.528 525.515 186.175 523.512 188.871C521.516 191.568 519.494 194.305 517.444 197.076C509.288 208.181 501.862 219.025 495.934 229.393C489.988 239.748 492.976 235.373 490.043 243.916" fill="#DADBD8"/>
<path d="M529.243 180.629C529.196 180.625 529.203 180.036 529.256 178.973C529.303 177.909 529.423 176.374 529.599 174.48C529.947 170.692 530.606 165.474 531.352 159.728C532.103 153.977 532.684 148.766 532.974 144.984C533.123 143.092 533.23 141.56 533.288 140.5C533.355 139.44 533.414 138.853 533.462 138.853C533.51 138.854 533.543 139.441 533.559 140.505C533.583 141.57 533.552 143.11 533.463 145.012C533.3 148.817 532.792 154.057 532.043 159.813C531.29 165.484 530.61 170.612 530.088 174.532C529.864 176.304 529.676 177.797 529.526 178.996C529.39 180.05 529.292 180.633 529.243 180.629Z" fill="#DADBD8"/>
<path d="M578.671 182.993C578.66 183.04 577.968 182.958 576.727 182.772C575.488 182.592 573.695 182.322 571.469 182.061C567.024 181.501 560.855 180.945 554.023 180.628C547.187 180.324 540.991 180.31 536.508 180.432C534.265 180.476 532.451 180.56 531.197 180.61C529.944 180.666 529.248 180.676 529.243 180.628C529.239 180.578 529.928 180.478 531.18 180.337C532.431 180.204 534.245 180.042 536.493 179.934C540.984 179.686 547.203 179.62 554.059 179.924C560.911 180.244 567.096 180.88 571.539 181.568C573.763 181.893 575.549 182.238 576.779 182.502C578.004 182.773 578.677 182.944 578.671 182.993Z" fill="#DADBD8"/>
<path d="M496.168 228.34C496.144 228.345 496.08 228.12 495.98 227.686C495.871 227.172 495.738 226.544 495.576 225.782C495.232 224.128 494.799 221.72 494.3 218.738C493.302 212.774 492.18 204.494 491.067 195.341C489.952 186.182 488.91 177.904 488.038 171.928C487.604 169.022 487.247 166.63 486.983 164.854C486.872 164.082 486.782 163.448 486.707 162.926C486.651 162.485 486.632 162.25 486.656 162.245C486.68 162.242 486.743 162.466 486.844 162.901C486.952 163.414 487.087 164.042 487.248 164.804C487.592 166.458 488.026 168.866 488.523 171.848C489.523 177.81 490.643 186.092 491.758 195.249C492.872 204.404 493.914 212.682 494.787 218.658C495.222 221.564 495.576 223.956 495.842 225.732C495.952 226.502 496.044 227.138 496.118 227.66C496.172 228.102 496.191 228.336 496.168 228.34Z" fill="#DADBD8"/>
<path d="M563.864 222.966C563.866 222.99 563.628 223.028 563.179 223.076C562.648 223.124 561.998 223.184 561.208 223.256C559.391 223.402 556.939 223.602 553.955 223.842C547.832 224.34 539.383 225.124 530.047 226.002C520.708 226.882 512.243 227.589 506.108 227.96C503.04 228.145 500.556 228.272 498.838 228.322C498.046 228.342 497.391 228.357 496.86 228.37C496.407 228.374 496.17 228.362 496.168 228.338C496.168 228.314 496.403 228.278 496.852 228.228C497.383 228.181 498.034 228.122 498.824 228.05C500.642 227.902 503.092 227.705 506.075 227.462C512.199 226.966 520.65 226.182 529.988 225.302C539.324 224.422 547.787 223.716 553.923 223.346C556.992 223.16 559.475 223.034 561.194 222.982C561.987 222.964 562.64 222.946 563.172 222.934C563.624 222.932 563.863 222.941 563.864 222.966Z" fill="#DADBD8"/>
<path d="M616.375 358.661C616.39 358.667 616.314 358.879 616.154 359.283C615.971 359.727 615.728 360.316 615.423 361.06C614.746 362.656 613.787 364.915 612.578 367.763C610.071 373.56 606.531 381.753 602.304 391.532L602.242 391.676L602.086 391.703C592.608 393.268 581.554 395.095 569.792 397.037C566.108 397.64 562.492 398.231 558.967 398.807L558.475 398.887L558.598 398.404C561.228 388.019 563.652 378.455 565.711 370.332L565.863 370.643C557.979 367.119 551.472 364.212 546.887 362.161C544.66 361.147 542.9 360.345 541.651 359.776C541.084 359.508 540.632 359.296 540.287 359.132C539.98 358.983 539.826 358.9 539.832 358.887C539.838 358.875 540.003 358.933 540.32 359.057C540.674 359.203 541.135 359.391 541.716 359.629C542.979 360.167 544.758 360.924 547.01 361.881C551.618 363.88 558.156 366.716 566.079 370.152L566.287 370.241L566.231 370.463C564.207 378.595 561.822 388.167 559.231 398.564L558.862 398.163C562.386 397.583 566.002 396.989 569.686 396.384C581.45 394.469 592.51 392.671 601.991 391.129L601.772 391.299C606.09 381.559 609.706 373.4 612.264 367.625C613.536 364.805 614.546 362.568 615.258 360.989C615.598 360.259 615.867 359.68 616.068 359.247C616.256 358.853 616.36 358.655 616.375 358.661Z" fill="#DADBD8"/>
<path d="M562.752 394.993L561.87 397.317L563.283 399.361L560.8 399.239L559.292 401.217L558.642 398.818L556.295 397.995L558.376 396.633L558.434 394.149L560.371 395.706L562.752 394.993Z" fill="#DADBD8"/>
<path d="M540.579 357.322L540.139 358.478L540.843 359.495L539.608 359.435L538.857 360.418L538.533 359.223L537.367 358.815L538.401 358.138L538.431 356.902L539.393 357.677L540.579 357.322Z" fill="#DADBD8"/>
<path d="M603.206 390.079L602.767 391.234L603.47 392.251L602.235 392.191L601.486 393.174L601.162 391.982L599.995 391.571L601.03 390.894L601.059 389.659L602.022 390.434L603.206 390.079Z" fill="#DADBD8"/>
<path d="M567.066 369.282L566.627 370.439L567.331 371.455L566.096 371.394L565.346 372.379L565.022 371.184L563.855 370.775L564.89 370.099L564.918 368.862L565.883 369.636L567.066 369.282Z" fill="#DADBD8"/>
<path d="M617.878 357.504L617.439 358.662L618.142 359.678L616.907 359.618L616.158 360.602L615.834 359.407L614.667 358.998L615.702 358.322L615.73 357.084L616.694 357.859L617.878 357.504Z" fill="#DADBD8"/>
<path d="M213.75 454.533H283.551C283.551 454.533 277.378 443.3 259.411 444.936C242.252 446.496 241.379 439.409 232.654 438.537C223.929 437.664 216.659 444.353 213.75 454.533Z" fill="#DADBD8"/>
<path d="M227.609 179.715H297.409C297.409 179.715 291.237 168.483 273.27 170.118C256.111 171.679 255.239 164.591 246.513 163.719C237.789 162.847 230.517 169.536 227.609 179.715Z" fill="#F3F2F1"/>
<path d="M582.115 228.256H639.464C639.464 228.256 634.392 219.027 619.631 220.371C605.533 221.653 604.816 215.831 597.648 215.113C590.479 214.396 584.504 219.892 582.115 228.256Z" fill="#F3F2F1"/>
<path d="M467.6 341.451C470.448 319.96 455.339 302.231 436.459 291.576C417.579 280.923 395.678 277.356 374.826 271.431C355.159 265.843 335.599 257.691 321.032 243.344C306.466 228.997 297.727 207.431 302.963 187.667C304.279 182.705 306.628 177.72 310.89 174.859C315.151 171.996 321.656 172.069 324.835 176.1C331.604 184.684 318.414 200.06 326.674 207.221C328.568 208.865 331.178 209.471 333.139 211.035C338.363 215.2 336.671 223.297 337.408 229.937C338.867 243.068 351.18 252.188 363.274 257.508C379.471 264.635 397.019 267.984 414.203 272.208C431.387 276.432 448.714 281.753 463.03 292.155C477.346 302.555 489.766 318.837 489.667 336.533C489.639 341.479 489.01 347.559 485.906 351.408C482.803 355.259 478.85 356.057 474.376 353.952C469.902 351.847 466.771 348.591 467.6 341.451Z" fill="#F03D5F"/>
<path d="M478.98 355.092C477.523 355.092 475.983 354.709 474.376 353.953C470.391 352.078 467.471 349.29 467.467 343.658C467.466 342.968 467.51 342.233 467.6 341.452C467.834 339.689 467.947 337.952 467.946 336.241C467.943 317.1 453.791 301.358 436.459 291.577C417.579 280.924 395.678 277.357 374.826 271.432C367.146 269.25 359.48 266.676 352.124 263.496L371.178 260.67C385.1 265.734 399.78 268.664 414.203 272.209C431.387 276.433 448.714 281.754 463.03 292.156C473.347 299.652 482.68 310.204 487.052 322.137C488.491 331.745 488.978 339.788 488.74 345.261C488.174 347.553 487.283 349.701 485.906 351.409C483.918 353.877 481.58 355.092 478.98 355.092ZM343.051 259.157C335.008 254.902 327.524 249.738 321.032 243.345C309.367 231.857 301.44 215.738 301.434 199.624C301.431 195.614 301.92 191.605 302.963 187.668C304.279 182.706 306.628 177.721 310.89 174.86C312.815 173.566 315.2 172.872 317.53 172.872C320.352 172.872 323.094 173.892 324.835 176.101C326.323 177.986 326.846 180.201 326.846 182.584C326.844 188.272 323.855 194.92 323.852 200.364C323.851 203.021 324.56 205.39 326.674 207.222C328.568 208.866 331.178 209.472 333.139 211.036C338.363 215.201 336.671 223.298 337.408 229.938C337.982 235.093 340.227 239.63 343.475 243.561C342.835 244.452 342.284 245.418 341.839 246.452C341.011 248.373 340.59 250.433 340.587 252.505C340.587 253.482 340.679 254.461 340.866 255.429L343.051 259.157Z" fill="#FBCBD7"/>
<path d="M376.263 170.621C375.582 162.662 381.512 155.73 388.256 152.014C395.002 148.298 402.724 146.789 409.678 143.493C426.942 135.308 437.918 116.048 438.728 96.2931C439.539 76.5371 430.976 56.7931 417.578 42.2825C412.134 36.3865 405.436 30.2092 405.356 22.1651C405.272 13.7718 413.414 7.15712 421.546 7.26378C429.676 7.36911 437.17 12.8131 442.039 19.6598C446.906 26.5078 449.6 34.6678 452.222 42.6798C450.352 39.3305 454.188 35.1811 457.884 35.5385C461.58 35.8971 464.498 38.9785 466.779 42.0505C476.575 55.2385 481.423 72.1838 480.071 88.5064C478.722 104.83 471.183 120.365 459.406 131.1C446.252 143.09 428.844 148.716 411.974 154.038C400.234 157.744 388.494 161.448 376.754 165.153L376.263 170.621Z" fill="#F03D5F"/>
<path d="M376.263 170.621C376.227 170.201 376.209 169.785 376.209 169.37C376.209 168.044 376.389 166.75 376.723 165.5L376.263 170.621Z" fill="#FBCBD7"/>
<path d="M376.723 165.498L376.754 165.151C376.778 165.143 376.802 165.135 376.826 165.129C376.79 165.251 376.755 165.374 376.723 165.498Z" fill="#FBCBD7"/>
<path d="M376.826 165.129C378.458 159.537 383.122 154.842 388.256 152.013C395.002 148.297 402.724 146.788 409.678 143.492C426.942 135.306 437.918 116.046 438.728 96.2916C438.764 95.4222 438.782 94.5542 438.782 93.6862C438.776 74.8102 430.387 56.1529 417.578 42.2809C412.134 36.3849 405.436 30.2076 405.356 22.1636C405.356 22.1223 405.356 22.0822 405.356 22.0409C405.351 13.7729 413.324 7.26094 421.351 7.26094C421.416 7.26094 421.48 7.26091 421.546 7.26225C429.676 7.36758 437.17 12.8116 442.039 19.6583C446.62 26.1063 449.276 33.7142 451.759 41.2689C451.742 41.1209 451.732 40.9729 451.732 40.8249C451.728 38.1236 454.551 35.5156 457.434 35.5156C457.583 35.5156 457.734 35.5223 457.884 35.5369C461.58 35.8956 464.498 38.9769 466.779 42.0489C475.504 53.7943 480.303 68.5196 480.294 83.1329C480.292 84.9276 480.219 86.7196 480.071 88.5049C478.722 104.829 471.183 120.364 459.406 131.098C446.252 143.089 428.844 148.714 411.974 154.037C400.258 157.734 388.542 161.432 376.826 165.129Z" fill="#FBCBD7"/>
<path d="M366.466 3.35562C362.966 4.82762 361.046 9.25962 362.366 12.8196C363.684 16.3796 368.03 18.489 371.643 17.325C375.256 16.1623 377.554 11.9129 376.547 8.25158C375.54 4.59025 371.395 2.11292 367.694 2.95959L366.466 3.35562Z" fill="#F03D5F"/>
<path d="M369.557 17.6465C366.505 17.6465 363.437 15.7119 362.365 12.8199C362.081 12.0545 361.948 11.2492 361.947 10.4425C361.944 7.49185 363.717 4.51186 366.465 3.35586L367.693 2.95983C368.187 2.8465 368.687 2.79317 369.187 2.79317C372.443 2.79317 375.673 5.07849 376.547 8.25182C376.708 8.83849 376.784 9.43981 376.784 10.0411C376.784 13.1945 374.677 16.3479 371.643 17.3252C370.965 17.5439 370.261 17.6465 369.557 17.6465Z" fill="#FBCBD7"/>
<path d="M409.895 517.112C405.576 508.163 409.339 497.005 416.219 489.831C423.096 482.659 432.491 478.564 441.586 474.559C461.658 465.718 482.908 455.181 493.115 435.767C496.559 429.219 498.519 422.015 500.455 414.877C504.203 401.057 507.715 385.366 500.18 373.19C498.014 369.689 494.754 366.573 490.7 365.854C486.083 365.034 481.336 367.577 478.491 371.303C475.646 375.03 474.424 379.75 473.835 384.401C472.716 393.251 473.644 402.251 472.714 411.122C471.782 419.994 468.538 429.27 461.22 434.371C452.334 440.566 439.654 439.175 431.023 445.721C424.055 451.006 421.403 460.173 415.952 467.012C411.372 472.762 404.962 476.691 399.09 481.112C393.218 485.535 387.538 490.931 385.543 498.005C383.471 505.354 386.062 513.806 391.899 518.73C397.735 523.655 406.502 524.787 413.398 521.507L409.895 517.112Z" fill="#F03D5F"/>
<path d="M391.03 517.947C387.078 514.16 384.838 508.673 384.836 503.205C384.836 501.45 385.066 499.698 385.543 498.004C387.51 491.032 393.054 485.69 398.835 481.305L407.487 499.433L408.398 504.915C408.206 506.025 408.092 507.138 408.063 508.249C407.13 509.182 406.139 510.046 405.108 510.841C403.519 512.087 401.84 513.185 400.1 514.125C397.167 515.75 394.1 516.985 391.03 517.947ZM423.011 484.126C420.392 477.513 417.395 469.785 416.199 466.698C421.418 459.981 424.092 451.153 430.763 445.921L430.819 445.942C430.819 445.942 429.947 463.133 431.978 469.248C432.052 469.862 432.318 471.021 433.272 471.262L446.812 439.732C451.911 438.546 456.995 437.316 461.22 434.37C468.538 429.269 471.782 419.993 472.714 411.121C473.644 402.25 472.716 393.25 473.835 384.4C474.424 379.749 475.646 375.029 478.491 371.302C480.974 368.049 484.906 365.698 488.936 365.698C489.523 365.698 490.114 365.749 490.7 365.853C494.754 366.572 498.014 369.688 500.18 373.189C503.44 378.457 504.632 384.382 504.632 390.529C504.632 398.592 502.582 407.034 500.455 414.876C498.519 422.014 496.559 429.218 493.115 435.766C482.908 455.18 461.658 465.717 441.586 474.558C435.219 477.362 428.704 480.21 423.011 484.126Z" fill="#FBCBD7"/>
<path d="M276.391 65.1328C269.323 59.8901 265.008 51.1235 265.166 42.3235C265.323 33.5235 269.947 24.9168 277.198 19.9288C281.298 17.1088 286.16 15.3822 289.805 11.9955C293.046 8.98351 295.154 4.80482 298.782 2.27149C303.287 -0.875175 309.826 -0.736488 314.195 2.59818C318.563 5.93418 320.42 12.2048 318.571 17.3808C316.899 22.0595 312.699 25.4795 310.944 30.1275C309.055 35.1328 310.271 40.7368 309.57 46.0408C308.707 52.5555 304.75 58.5942 299.118 61.9822C293.486 65.3728 286.299 66.0421 280.137 63.7541L276.391 65.1328Z" fill="#F03D5F"/>
<path d="M276.391 65.1328C269.447 59.9808 265.161 51.4301 265.162 42.7875C265.162 42.6328 265.163 42.4781 265.166 42.3235C265.323 33.5235 269.947 24.9168 277.198 19.9288C281.297 17.1088 286.159 15.3822 289.805 11.9955C293.046 8.98351 295.154 4.80482 298.781 2.27149C300.953 0.754158 303.599 0.000846863 306.244 0.000846863C309.087 0.000846863 311.931 0.871513 314.195 2.59818C317.428 5.06751 319.285 9.14484 319.283 13.1955C319.281 14.6182 319.051 16.0355 318.571 17.3808C316.899 22.0595 312.699 25.4795 310.944 30.1275C309.925 32.8261 309.809 35.6968 309.809 38.6035C309.808 39.4555 309.819 40.3115 309.819 41.1661C309.819 42.8021 309.781 44.4355 309.569 46.0408C308.707 52.5555 304.749 58.5942 299.117 61.9822C297.308 63.0715 295.337 63.8808 293.291 64.4008V36.5475L285.097 21.5195L276.904 36.5475V64.9448L276.391 65.1328Z" fill="#FBCBD7"/>
<path d="M286.073 77.5449H284.122C280.136 77.5449 276.904 74.3142 276.904 70.3276V36.5476H293.291V70.3276C293.291 74.3142 290.06 77.5449 286.073 77.5449Z" fill="#F03D5F"/>
<path d="M276.904 36.5469L285.097 21.5189L293.291 36.5469H276.904Z" fill="#F8A58D"/>
<path d="M281.852 27.4714C281.852 27.4714 284.34 31.214 288.343 27.4714L285.097 21.5193L281.852 27.4714Z" fill="#F03D5F"/>
<path d="M293.517 68.6817C293.517 68.8643 289.787 69.0137 285.188 69.0137C280.587 69.0137 276.859 68.8643 276.859 68.6817C276.859 68.499 280.587 68.351 285.188 68.351C289.787 68.351 293.517 68.499 293.517 68.6817Z" fill="#17282F"/>
<path d="M293.35 66.17C293.35 66.354 289.695 66.502 285.188 66.502C280.679 66.502 277.026 66.354 277.026 66.17C277.026 65.9886 280.679 65.8393 285.188 65.8393C289.695 65.8393 293.35 65.9886 293.35 66.17Z" fill="#17282F"/>
<path d="M281.714 36.7879C281.897 36.7879 282.045 43.3292 282.045 51.3959C282.045 59.4639 281.897 66.0039 281.714 66.0039C281.531 66.0039 281.383 59.4639 281.383 51.3959C281.383 43.3292 281.531 36.7879 281.714 36.7879Z" fill="#FAFAF9"/>
<path d="M288.343 36.7879C288.526 36.7879 288.674 43.3292 288.674 51.3959C288.674 59.4639 288.526 66.0039 288.343 66.0039C288.16 66.0039 288.012 59.4639 288.012 51.3959C288.012 43.3292 288.16 36.7879 288.343 36.7879Z" fill="#FAFAF9"/>
<path d="M419.271 498.281L493.717 501.467L495.513 505.804L446.723 585L358.64 582.433L419.271 498.281Z" fill="#17282F"/>
<path d="M355.298 574.714L443.911 579.773L490.194 507.948L457.695 510.59L375.438 539.556L355.298 574.714Z" fill="#DADBD8"/>
<path d="M342.854 569.388L424.226 570.67C420.844 560.262 428.816 545.6 439.755 540.667C447.006 537.398 460.651 533.165 467.69 529.553C481.066 522.69 493.155 509.695 492.098 498.545L458.678 497.481L416.022 495.831C412.455 506.413 404.827 513.345 393.227 517.514C382.848 521.246 371.035 521.237 360.911 525.477C344.616 532.302 336.786 554.414 342.854 569.388Z" fill="#E7E8E5"/>
<path d="M342.854 569.387C342.854 569.387 342.776 569.214 342.648 568.862C342.516 568.493 342.332 567.971 342.091 567.291C341.807 566.61 341.642 565.711 341.398 564.658C341.106 563.61 341.008 562.359 340.838 560.952C340.631 558.136 340.66 554.618 341.482 550.609C342.31 546.614 343.884 542.114 346.7 537.694C347.431 536.607 348.134 535.459 349.043 534.422C349.484 533.893 349.898 533.331 350.375 532.814C350.871 532.311 351.372 531.803 351.879 531.29C352.366 530.757 352.927 530.29 353.506 529.83C354.082 529.37 354.64 528.871 355.248 528.428C356.526 527.626 357.762 526.69 359.21 526.064C364.848 523.221 371.586 522.022 378.599 520.752C382.116 520.112 385.738 519.442 389.374 518.442C392.994 517.416 396.639 516.045 400.1 514.126C401.84 513.186 403.519 512.088 405.108 510.842C406.707 509.61 408.207 508.211 409.551 506.647C412.284 503.554 414.344 499.795 415.732 495.734L415.807 495.518L416.035 495.526C427.363 495.958 439.252 496.411 451.575 496.882C463.898 497.366 476.662 497.7 489.726 498.138C490.527 498.163 491.328 498.188 492.108 498.214L492.402 498.223L492.427 498.514C492.652 501.091 492.182 503.655 491.351 506.035C490.972 507.246 490.392 508.366 489.86 509.502C489.232 510.586 488.646 511.693 487.915 512.702C485.14 516.845 481.586 520.312 477.835 523.359C474.051 526.383 469.946 528.894 465.67 530.875C461.376 532.805 457.03 534.379 452.774 535.952C448.518 537.527 444.31 539.019 440.314 540.758C438.354 541.671 436.471 542.712 434.839 544.081C433.974 544.698 433.252 545.479 432.463 546.17C431.767 546.957 430.992 547.669 430.374 548.507C427.746 551.731 425.771 555.385 424.683 559.203C423.531 562.994 423.402 567.005 424.482 570.587L424.591 570.947L424.22 570.942C399.572 570.503 379.238 570.143 365.042 569.891C357.967 569.748 352.426 569.635 348.631 569.558C346.756 569.511 345.319 569.476 344.326 569.451C343.354 569.423 342.854 569.387 342.854 569.387C342.854 569.387 343.355 569.367 344.327 569.369C345.32 569.375 346.759 569.386 348.634 569.397C352.428 569.439 357.971 569.502 365.047 569.582C379.244 569.778 399.58 570.059 424.228 570.4L423.967 570.755C422.838 567.043 422.971 562.918 424.138 559.046C425.242 555.145 427.244 551.424 429.915 548.134C430.546 547.279 431.332 546.55 432.042 545.749C432.846 545.04 433.582 544.243 434.466 543.61C436.126 542.211 438.067 541.131 440.066 540.199C444.095 538.439 448.302 536.942 452.556 535.362C456.808 533.783 461.148 532.207 465.402 530.29C469.622 528.331 473.687 525.84 477.427 522.848C481.135 519.834 484.646 516.403 487.37 512.333C488.088 511.34 488.66 510.258 489.276 509.197C489.792 508.087 490.36 506.993 490.727 505.818C491.534 503.505 491.982 501.036 491.768 498.576L492.087 498.876C491.307 498.851 490.506 498.826 489.704 498.799C476.639 498.362 463.876 498.023 451.552 497.53C439.228 497.047 427.339 496.581 416.01 496.136L416.312 495.93C414.895 500.055 412.788 503.887 409.996 507.035C408.623 508.626 407.094 510.051 405.463 511.299C403.846 512.563 402.138 513.674 400.374 514.623C396.862 516.561 393.178 517.936 389.518 518.964C385.848 519.963 382.21 520.627 378.69 521.257C371.671 522.505 364.974 523.683 359.41 526.464C357.98 527.074 356.76 527.993 355.499 528.775C354.896 529.21 354.346 529.699 353.775 530.151C353.203 530.603 352.647 531.059 352.164 531.586C351.66 532.091 351.164 532.59 350.672 533.083C350.198 533.593 349.786 534.147 349.348 534.666C348.443 535.688 347.743 536.823 347.015 537.893C344.203 542.255 342.614 546.71 341.764 550.666C340.92 554.642 340.86 558.135 341.034 560.938C341.19 562.335 341.27 563.582 341.546 564.627C341.772 565.678 341.92 566.578 342.188 567.262C342.408 567.946 342.576 568.471 342.696 568.843C342.808 569.2 342.854 569.387 342.854 569.387Z" fill="#17282F"/>
<path d="M438.882 497.151C438.823 497.132 438.988 496.628 439.064 495.696C439.136 494.772 439.075 493.384 438.426 491.852C437.798 490.339 436.552 488.66 434.579 487.73C432.636 486.794 430.068 486.6 427.723 487.485C425.359 488.352 423.655 490.277 422.77 492.253C421.846 494.241 421.722 496.292 421.986 497.92C422.252 499.564 422.875 500.799 423.376 501.582C423.882 502.375 424.256 502.748 424.215 502.788C424.192 502.813 423.751 502.499 423.166 501.729C422.583 500.968 421.866 499.717 421.524 498.002C421.186 496.306 421.264 494.127 422.212 492.002C423.118 489.896 424.931 487.805 427.49 486.865C430.015 485.913 432.764 486.142 434.847 487.182C436.967 488.223 438.258 490.063 438.86 491.678C439.488 493.318 439.474 494.777 439.322 495.725C439.24 496.202 439.146 496.565 439.05 496.8C438.959 497.039 438.903 497.159 438.882 497.151Z" fill="#17282F"/>
<path d="M451.635 497.151C451.575 497.132 451.74 496.628 451.817 495.696C451.889 494.772 451.828 493.384 451.179 491.852C450.552 490.339 449.304 488.661 447.332 487.73C445.389 486.794 442.823 486.6 440.475 487.485C438.112 488.352 436.408 490.277 435.521 492.253C434.599 494.241 434.473 496.292 434.739 497.92C435.004 499.564 435.627 500.799 436.129 501.582C436.633 502.375 437.009 502.748 436.968 502.788C436.947 502.813 436.504 502.499 435.917 501.729C435.336 500.968 434.617 499.717 434.279 498.002C433.939 496.306 434.017 494.127 434.964 492.002C435.871 489.896 437.683 487.805 440.241 486.865C442.768 485.913 445.517 486.142 447.6 487.182C449.721 488.223 451.011 490.063 451.615 491.678C452.24 493.318 452.227 494.777 452.073 495.725C451.995 496.202 451.897 496.565 451.801 496.8C451.713 497.039 451.656 497.159 451.635 497.151Z" fill="#17282F"/>
<path d="M461.322 497.812C461.262 497.797 461.398 497.284 461.422 496.349C461.442 495.422 461.3 494.041 460.566 492.549C459.854 491.073 458.514 489.469 456.492 488.652C454.5 487.828 451.926 487.776 449.632 488.793C447.322 489.793 445.73 491.812 444.956 493.833C444.148 495.873 444.139 497.927 444.496 499.537C444.855 501.163 445.547 502.361 446.092 503.114C446.64 503.877 447.036 504.228 446.998 504.272C446.976 504.297 446.518 504.009 445.89 503.275C445.264 502.548 444.478 501.337 444.04 499.646C443.607 497.972 443.56 495.79 444.387 493.616C445.172 491.463 446.863 489.272 449.364 488.188C451.834 487.096 454.591 487.168 456.728 488.089C458.904 489.008 460.298 490.772 460.991 492.351C461.71 493.952 461.779 495.41 461.679 496.365C461.626 496.845 461.551 497.213 461.468 497.453C461.392 497.696 461.343 497.818 461.322 497.812Z" fill="#17282F"/>
<path d="M471.706 498.402C471.644 498.392 471.754 497.873 471.728 496.937C471.699 496.01 471.486 494.638 470.672 493.186C469.884 491.752 468.46 490.22 466.398 489.51C464.366 488.793 461.792 488.88 459.556 490.017C457.302 491.137 455.819 493.237 455.154 495.297C454.454 497.376 454.555 499.428 454.996 501.017C455.44 502.621 456.194 503.78 456.779 504.505C457.366 505.235 457.782 505.566 457.743 505.611C457.726 505.638 457.251 505.376 456.584 504.674C455.922 503.981 455.072 502.816 454.547 501.15C454.024 499.499 453.863 497.325 454.572 495.11C455.243 492.917 456.816 490.641 459.256 489.426C461.664 488.204 464.422 488.13 466.606 488.937C468.827 489.74 470.311 491.428 471.087 492.966C471.89 494.529 472.035 495.981 471.987 496.94C471.959 497.421 471.903 497.793 471.835 498.038C471.772 498.282 471.727 498.408 471.706 498.402Z" fill="#17282F"/>
<path d="M482.111 498.161C482.05 498.15 482.144 497.628 482.092 496.694C482.036 495.769 481.784 494.402 480.932 492.976C480.103 491.562 478.638 490.07 476.556 489.421C474.503 488.761 471.934 488.918 469.73 490.118C467.507 491.3 466.086 493.442 465.478 495.521C464.838 497.617 464.995 499.665 465.48 501.242C465.97 502.834 466.756 503.971 467.36 504.678C467.968 505.393 468.392 505.712 468.356 505.758C468.338 505.785 467.858 505.535 467.171 504.854C466.491 504.179 465.608 503.038 465.035 501.388C464.467 499.754 464.244 497.583 464.892 495.35C465.502 493.14 467.008 490.819 469.414 489.536C471.786 488.246 474.54 488.095 476.746 488.84C478.99 489.581 480.52 491.224 481.338 492.743C482.184 494.281 482.372 495.728 482.35 496.688C482.338 497.17 482.291 497.545 482.228 497.79C482.172 498.038 482.132 498.164 482.111 498.161Z" fill="#17282F"/>
<path d="M490.879 499.327C490.817 499.315 490.933 498.797 490.919 497.862C490.899 496.934 490.703 495.559 489.907 494.099C489.135 492.655 487.729 491.107 485.676 490.373C483.652 489.631 481.077 489.687 478.828 490.798C476.56 491.891 475.053 493.974 474.364 496.026C473.639 498.097 473.716 500.149 474.137 501.743C474.564 503.354 475.304 504.52 475.88 505.253C476.459 505.991 476.869 506.327 476.832 506.371C476.813 506.397 476.343 506.129 475.684 505.42C475.029 504.718 474.193 503.543 473.687 501.871C473.184 500.217 473.051 498.039 473.785 495.832C474.481 493.649 476.081 491.389 478.536 490.205C480.956 489.009 483.716 488.968 485.889 489.801C488.101 490.63 489.565 492.334 490.323 493.885C491.108 495.454 491.236 496.907 491.176 497.866C491.144 498.347 491.083 498.718 491.011 498.962C490.945 499.209 490.9 499.331 490.879 499.327Z" fill="#17282F"/>
<path d="M529.227 226.193C525.724 226.094 522.007 226.219 518.202 226.691C495.226 229.538 478.107 249.273 478.152 272.423C478.167 279.163 478.886 286.709 481.003 294.219C487.412 316.961 489.391 337.01 488.651 346.771L510.114 358.309C510.114 358.309 520.05 344.034 529.647 337.875C539.243 331.718 571.196 315.258 583.846 298.334C592.002 287.425 593.567 265.035 574.128 245.454C562.251 233.49 546.078 226.667 529.227 226.193Z" fill="#F03D5F"/>
<path d="M478.492 371.609L497.882 382.087L485.26 398.115L472.336 392.241L478.492 371.609Z" fill="#33535F"/>
<path d="M479.434 372.253C479.262 372.191 481.186 366.436 483.73 359.4C486.276 352.363 488.479 346.711 488.651 346.772C488.823 346.833 486.898 352.588 484.352 359.625C481.808 366.661 479.606 372.316 479.434 372.253Z" fill="#17282F"/>
<path d="M496.659 381.298C496.501 381.206 499.539 375.77 503.443 369.158C507.348 362.544 510.64 357.26 510.797 357.352C510.955 357.446 507.919 362.882 504.012 369.495C500.109 376.107 496.816 381.391 496.659 381.298Z" fill="#17282F"/>
<path d="M505.803 355.994C505.803 355.994 497.908 352.329 495.559 350.486L505.803 355.993V355.994ZM495.558 350.49C495.558 350.49 495.558 350.489 495.559 350.486C495.558 350.489 495.558 350.49 495.558 350.49Z" fill="#8C8F8F"/>
<path d="M551.244 230.584C546.475 228.756 541.487 227.476 536.387 226.781C536.429 226.78 536.472 226.78 536.515 226.78C540.915 226.78 546.477 228.597 551.244 230.584Z" fill="#858889"/>
<path d="M505.803 355.992L495.559 350.486C495.618 350.266 497.82 340.674 498.436 336.168C502.843 303.9 503.556 276.227 519.434 247.791C524.152 239.339 534.822 226.852 535.691 226.803C535.92 226.79 536.151 226.783 536.387 226.782C541.487 227.476 546.475 228.756 551.244 230.584C556.991 232.98 561.58 235.623 561.58 235.623C570.967 255.113 561.206 272.059 551.062 291.167C540.919 310.276 528.056 324.384 516.208 342.486C513.26 346.988 505.862 355.923 505.803 355.992Z" fill="#9C2438"/>
<path d="M583.93 301.197C583.914 301.201 583.819 300.992 583.652 300.581C583.472 300.176 583.27 299.553 582.91 298.779C582.211 297.228 581.066 294.996 579.164 292.476C577.254 289.981 574.592 287.16 570.928 284.792C567.323 282.369 562.68 280.451 557.419 279.792L557.29 279.775L557.214 279.672C554.747 276.347 551.919 272.913 548.551 269.728C545.19 266.553 541.254 263.629 536.726 261.587C532.207 259.571 527.339 258.676 522.75 258.921C518.156 259.153 513.85 260.613 510.516 262.999L510.324 263.136L510.146 262.98C506.16 259.475 501.386 257.663 497.083 257.175C492.751 256.675 488.907 257.472 485.976 258.591C483.023 259.715 480.942 261.144 479.596 262.181C478.926 262.705 478.426 263.132 478.1 263.432C477.771 263.727 477.594 263.875 477.582 263.863C477.57 263.852 477.724 263.681 478.034 263.361C478.338 263.039 478.82 262.587 479.479 262.035C480.795 260.943 482.87 259.448 485.847 258.259C488.8 257.077 492.708 256.215 497.138 256.684C501.535 257.141 506.431 258.956 510.54 262.533L510.17 262.515C513.587 260.041 518.014 258.525 522.714 258.277C527.414 258.016 532.382 258.923 536.996 260.983C541.611 263.064 545.603 266.04 548.995 269.26C552.392 272.491 555.228 275.961 557.694 279.32L557.488 279.2C562.856 279.9 567.563 281.888 571.2 284.381C574.896 286.819 577.559 289.709 579.448 292.264C581.331 294.841 582.435 297.121 583.083 298.705C583.418 299.496 583.592 300.133 583.742 300.551C583.882 300.972 583.946 301.192 583.93 301.197Z" fill="#17282F"/>
<path d="M544.032 329.53C543.901 329.576 543.927 327.59 542.181 324.866C541.3 323.544 539.984 322.041 538.06 320.91C536.183 319.746 533.669 318.965 530.957 319.228L530.689 319.253L530.648 318.988C530.219 316.229 529.076 313.297 527.127 310.697C525.188 308.11 522.473 305.803 519.165 304.516C516.448 303.435 513.556 303.053 510.839 303.24C508.116 303.434 505.579 304.208 503.424 305.333L503.22 305.441L503.063 305.273C500.917 302.975 498.148 301.684 495.609 301.236C493.06 300.72 490.736 300.98 488.927 301.445C485.257 302.444 483.695 304.217 483.621 304.079C483.612 304.067 483.708 303.968 483.907 303.789C484.112 303.62 484.392 303.332 484.816 303.036C485.651 302.432 486.977 301.648 488.832 301.102C490.673 300.573 493.059 300.259 495.699 300.749C498.327 301.173 501.227 302.472 503.504 304.87L503.143 304.809C505.36 303.623 507.981 302.808 510.792 302.597C513.599 302.393 516.592 302.777 519.409 303.9C522.845 305.237 525.651 307.637 527.639 310.318C529.639 313.013 530.795 316.052 531.209 318.904L530.899 318.664C533.768 318.416 536.38 319.277 538.304 320.516C540.275 321.722 541.597 323.304 542.461 324.689C543.32 326.096 543.7 327.346 543.883 328.201C543.976 328.628 543.991 328.966 544.02 329.189C544.044 329.413 544.048 329.529 544.032 329.53Z" fill="#17282F"/>
<path d="M494.133 387.133C494.084 387.172 493.923 386.869 493.421 386.663C492.921 386.453 492.115 386.425 491.155 386.731C490.663 386.863 490.105 387.044 489.44 387.045C488.772 387.057 488.033 386.733 487.523 386.2C486.493 385.128 486.103 383.579 485.129 382.509C484.647 381.987 484.016 381.716 483.343 381.756C482.671 381.783 481.996 382.005 481.323 382.161C480.653 382.321 479.945 382.421 479.289 382.269C478.643 382.131 478.112 381.809 477.701 381.456C476.879 380.735 476.519 379.885 476.425 379.301C476.325 378.709 476.42 378.383 476.453 378.387C476.509 378.387 476.507 378.711 476.675 379.239C476.835 379.761 477.231 380.496 477.999 381.093C478.379 381.385 478.855 381.639 479.397 381.729C479.933 381.835 480.536 381.739 481.176 381.568C481.819 381.408 482.507 381.155 483.317 381.108C484.132 381.036 485.04 381.412 485.612 382.053C486.739 383.337 487.092 384.861 487.963 385.776C488.384 386.225 488.909 386.477 489.453 386.496C490.001 386.519 490.54 386.383 491.043 386.276C492.059 386.012 493.005 386.108 493.536 386.432C494.079 386.753 494.163 387.132 494.133 387.133Z" fill="#17282F"/>
<path d="M496.356 384.023C496.271 384.184 492.035 382.092 486.898 379.352C481.759 376.609 477.664 374.259 477.75 374.097C477.836 373.936 482.07 376.027 487.21 378.768C492.346 381.508 496.443 383.861 496.356 384.023Z" fill="#17282F"/>
<path d="M492.504 388.913C492.516 388.964 492.235 389.047 491.767 389.264C491.529 389.369 491.259 389.529 490.891 389.677C490.52 389.832 490.043 389.888 489.555 389.853C488.585 389.785 487.392 389.483 486.359 388.621C485.845 388.203 485.412 387.589 485.14 386.945C484.855 386.313 484.631 385.663 484.203 385.2C483.316 384.252 481.881 384.151 480.691 384.193C479.467 384.239 478.261 384.275 477.319 383.871C476.389 383.483 475.826 382.823 475.615 382.308C475.396 381.785 475.475 381.464 475.506 381.468C475.563 381.461 475.583 381.764 475.844 382.191C476.098 382.612 476.644 383.143 477.487 383.433C478.321 383.733 479.417 383.665 480.668 383.584C481.884 383.52 483.527 383.541 484.691 384.753C485.243 385.363 485.467 386.088 485.733 386.681C485.984 387.289 486.32 387.775 486.759 388.161C487.632 388.935 488.711 389.271 489.597 389.387C490.496 389.552 491.142 389.175 491.675 389.023C492.196 388.871 492.499 388.875 492.504 388.913Z" fill="#17282F"/>
<path d="M346.116 264.385L379.644 259.413L363.614 236.703L355.018 237.211C349.231 237.553 344.132 241.127 341.839 246.45C340.62 249.277 340.282 252.405 340.866 255.427L346.116 264.385Z" fill="#F03D5F"/>
<path d="M346.116 264.385L340.866 255.427C340.679 254.459 340.587 253.481 340.587 252.503C340.59 250.431 341.011 248.371 341.839 246.45C344.132 241.127 349.231 237.553 355.018 237.211L363.614 236.703L379.644 259.413L371.178 260.669L352.124 263.494L346.116 264.385Z" fill="#9C2438"/>
<path d="M490.14 301.539C490.486 302.498 490.863 303.637 491.244 304.997C491.572 306.163 491.687 307.378 491.607 308.587C491.506 310.053 491.295 311.997 490.85 313.023C490.298 314.294 491.579 315.575 492.667 314.941C493.752 314.303 495.358 310.837 495.259 306.375C495.16 301.913 499.712 307.261 501.406 309.179C503.1 311.099 508.619 316.791 509.622 316.738C511.092 316.661 511.28 315.071 509.543 313.194C507.784 311.293 502.996 305.319 504.054 304.473C505.094 303.641 513.583 313.529 513.583 313.529C513.583 313.529 515.056 315.937 516.31 314.999C518.571 313.311 508.774 303.463 507.816 302.549C507.152 301.913 508.268 300.953 508.946 301.673C509.642 302.415 517.183 311.734 519.503 310.037C521.282 308.734 511.516 301.862 511.027 299.058C510.536 296.257 517.902 305.023 519.551 303.71C520.164 303.219 520.555 302.77 515.598 298.346C513.192 296.198 504.047 289.798 504.047 289.798L476.527 211.003L455.276 223.174L490.14 301.539Z" fill="#F8A58D"/>
<path d="M326.32 152.527L295.569 115.827L295.567 115.828C295.169 114.567 294.689 113.336 294.062 112.17C292.526 109.307 289.983 106.811 286.808 106.118C284.859 105.691 282.625 105.895 281.096 104.614C280.411 104.04 279.955 103.223 279.238 102.692C278.522 102.159 277.327 102.056 276.869 102.823C276.542 103.368 276.75 104.067 276.997 104.652C278.138 107.362 280.003 109.755 282.335 111.544C279.451 112.42 275.334 113.744 275.334 113.744C275.334 113.744 268.833 106.692 265.503 106.714C262.173 106.736 268.194 113.012 268.194 113.012C268.194 113.012 262.862 108.084 261.208 109.474C259.555 110.862 263.792 114.52 263.792 114.52C262.446 113.8 260.973 113.058 259.466 113.308C257.961 113.558 256.665 115.335 257.476 116.628C257.786 117.124 258.319 117.43 258.83 117.714C261.558 119.235 264.286 120.755 267.015 122.275C268.385 123.039 269.823 123.823 271.39 123.871C275.542 123.999 278.7 121.428 282.852 121.539C282.852 121.539 306.042 170.354 308.387 172.871C310.732 175.388 361.676 178.816 361.676 178.816L391.162 153.412L326.32 152.527Z" fill="#F8A58D"/>
<path d="M418.684 418.428L450.088 432.106L433.272 471.264C429.628 469.428 430.819 445.944 430.819 445.944L410.337 438.006L418.684 418.428Z" fill="#F03D5F"/>
<path d="M435.483 435.719C435.12 435.719 434.771 435.616 434.524 435.388C433.896 434.811 433.767 433.517 434.433 432.983C434.753 432.66 435.213 432.487 435.669 432.487C436.009 432.487 436.347 432.583 436.621 432.784C437.312 433.288 437.483 434.383 436.961 435.06C436.645 435.472 436.045 435.719 435.483 435.719Z" fill="#F89DB4"/>
<path d="M433.272 471.264C432.318 471.022 432.052 469.864 431.978 469.249C432.32 470.281 432.746 470.998 433.272 471.264L446.812 439.733L433.272 471.264Z" fill="#FDE8ED"/>
<path d="M433.272 471.264C432.746 470.998 432.32 470.281 431.978 469.249C431.95 469.018 431.948 468.864 431.948 468.864L446.87 430.85L450.088 432.106L446.812 439.733L433.272 471.264Z" fill="#F89DB4"/>
<path d="M430.347 446.492C430.541 446.568 431.039 445.649 432.057 444.972C433.059 444.269 434.095 444.14 434.095 443.932C434.133 443.738 432.868 443.533 431.649 444.374C430.423 445.204 430.155 446.457 430.347 446.492Z" fill="#17282F"/>
<path d="M430.282 451.329C430.448 451.452 431.13 450.764 432.218 450.461C433.295 450.128 434.24 450.339 434.314 450.145C434.422 449.979 433.359 449.365 432.012 449.767C430.666 450.156 430.102 451.247 430.282 451.329Z" fill="#17282F"/>
<path d="M434.196 455.774C434.312 455.616 433.47 454.94 432.212 454.981C430.954 455.014 430.154 455.738 430.279 455.887C430.39 456.063 431.2 455.723 432.234 455.706C433.266 455.663 434.096 455.954 434.196 455.774Z" fill="#17282F"/>
<path d="M425.881 444.165C426.089 444.16 426.203 443.169 426.74 442.12C427.256 441.06 427.98 440.376 427.859 440.205C427.768 440.035 426.708 440.552 426.092 441.796C425.467 443.036 425.689 444.195 425.881 444.165Z" fill="#17282F"/>
<path d="M421.635 441.237C421.713 441.274 422.156 440.568 422.467 439.272C422.62 438.625 422.728 437.833 422.719 436.949C422.712 436.506 422.676 436.044 422.604 435.566C422.565 435.336 422.541 435.072 422.396 434.776C422.288 434.478 421.833 434.141 421.417 434.252C421.031 434.324 420.748 434.621 420.62 434.901C420.488 435.186 420.445 435.445 420.407 435.681C420.325 436.162 420.293 436.633 420.301 437.08C420.32 437.974 420.489 438.768 420.712 439.397C421.163 440.668 421.743 441.284 421.809 441.234C421.908 441.174 421.501 440.477 421.203 439.253C421.056 438.644 420.951 437.901 420.968 437.081C420.98 436.67 421.021 436.242 421.105 435.806C421.173 435.344 421.323 434.99 421.553 434.964C421.64 434.954 421.671 434.961 421.753 435.101C421.828 435.238 421.865 435.453 421.904 435.681C421.981 436.124 422.028 436.557 422.052 436.972C422.096 437.8 422.048 438.552 421.963 439.178C421.795 440.436 421.529 441.196 421.635 441.237Z" fill="#17282F"/>
<path d="M422.016 441.108C422.075 441.053 421.554 440.378 420.344 439.776C419.744 439.48 418.972 439.224 418.082 439.121C417.638 439.073 417.166 439.064 416.676 439.109C416.191 439.173 415.554 439.23 415.15 439.936C414.968 440.317 415.132 440.769 415.344 440.99C415.555 441.233 415.771 441.356 415.978 441.5C416.403 441.769 416.856 441.952 417.298 442.068C418.184 442.304 419.024 442.26 419.683 442.101C421.027 441.772 421.598 441.072 421.54 441.028C421.471 440.922 420.816 441.432 419.59 441.598C418.986 441.68 418.24 441.664 417.48 441.426C417.102 441.309 416.719 441.138 416.363 440.904C415.972 440.664 415.704 440.364 415.814 440.225C415.894 440.03 416.35 439.833 416.75 439.816C417.187 439.766 417.615 439.76 418.022 439.786C418.835 439.845 419.559 440.029 420.142 440.246C421.315 440.686 421.943 441.198 422.016 441.108Z" fill="#17282F"/>
<path d="M394.499 472.22L407.487 499.433L411.555 523.918C411.847 525.682 413.574 526.83 415.315 526.418C416.29 526.187 417.088 525.508 417.463 524.578C419.85 518.666 428.526 496.875 427.463 494.938C426.234 492.693 415.668 465.323 415.668 465.323L394.499 472.22Z" fill="#F03D5F"/>
<path d="M427.562 495.965C427.548 495.963 427.534 495.963 427.52 495.963C427.53 495.875 427.538 495.792 427.543 495.713C427.551 495.797 427.558 495.881 427.562 495.965Z" fill="white"/>
<path d="M415.315 526.418C416.29 526.187 417.088 525.508 417.463 524.578C419.544 519.423 426.407 502.196 427.426 496.584C427.466 496.585 427.507 496.586 427.547 496.587C427.52 496.878 427.466 497.166 427.384 497.449C426.559 500.286 424.115 508.07 417.547 524.542C417.166 525.499 416.324 526.208 415.315 526.418Z" fill="#F6F6F4"/>
<path d="M427.547 496.588C427.507 496.587 427.466 496.585 427.426 496.584C427.467 496.357 427.499 496.151 427.52 495.964C427.534 495.964 427.548 495.964 427.562 495.965C427.57 496.172 427.566 496.382 427.547 496.588Z" fill="#9BA6A6"/>
<path d="M427.295 494.6C427.132 494.256 426.907 493.739 426.629 493.082V493.081L427.153 494.247C427.205 494.363 427.252 494.48 427.295 494.6Z" fill="white"/>
<path d="M415.315 526.418L426.63 493.082C426.907 493.738 427.132 494.255 427.295 494.599C427.423 494.961 427.507 495.335 427.543 495.713C427.538 495.791 427.53 495.875 427.52 495.963C427.499 496.15 427.467 496.356 427.426 496.584C426.407 502.196 419.544 519.423 417.463 524.578C417.088 525.508 416.29 526.187 415.315 526.418Z" fill="#F89DB4"/>
<path d="M418.458 489.451C418.131 489.451 417.806 489.366 417.531 489.185C416.815 488.71 416.555 487.678 416.915 486.903C417.122 486.281 417.872 485.923 418.583 485.923C418.864 485.923 419.14 485.98 419.372 486.099C420.19 486.516 420.44 487.898 419.951 488.675C419.638 489.175 419.044 489.451 418.458 489.451Z" fill="#F89DB4"/>
<path d="M416.199 511.575C416.077 511.721 414.809 510.56 412.825 510.521C410.843 510.422 409.499 511.493 409.388 511.338C409.333 511.281 409.584 510.911 410.188 510.531C410.783 510.151 411.755 509.823 412.848 509.86C413.944 509.898 414.89 510.293 415.456 510.715C416.031 511.135 416.257 511.523 416.199 511.575Z" fill="#17282F"/>
<path d="M415.895 516.14C415.819 516.317 414.534 515.82 412.928 516.052C411.318 516.248 410.208 517.064 410.087 516.913C409.944 516.809 411.004 515.63 412.84 515.396C414.672 515.141 416.004 516.001 415.895 516.14Z" fill="#17282F"/>
<path d="M417.724 505.217C417.654 505.405 415.68 504.63 413.154 504.773C410.622 504.875 408.734 505.835 408.646 505.655C408.535 505.529 410.407 504.227 413.12 504.11C415.834 503.966 417.822 505.079 417.724 505.217Z" fill="#17282F"/>
<path d="M414.466 496.615C414.467 496.814 412.663 496.862 410.654 497.678C408.632 498.469 407.29 499.675 407.155 499.531C407.018 499.431 408.238 497.918 410.408 497.063C412.568 496.19 414.496 496.448 414.466 496.615Z" fill="#17282F"/>
<path d="M410.855 488.53C410.841 488.727 408.901 488.497 406.856 489.532C404.788 490.52 403.785 492.196 403.621 492.087C403.551 492.049 403.696 491.569 404.165 490.917C404.629 490.269 405.457 489.484 406.564 488.937C407.672 488.394 408.8 488.218 409.599 488.247C410.4 488.273 410.869 488.451 410.855 488.53Z" fill="#17282F"/>
<path d="M406.215 487.973C406.18 487.99 405.951 487.648 405.71 486.949C405.471 486.256 405.224 485.19 405.312 483.854C405.379 483.209 405.392 482.414 405.999 481.706C406.298 481.351 406.898 481.166 407.388 481.384C407.871 481.594 408.175 481.997 408.382 482.431C409.138 484.188 408.398 486.552 406.547 487.684C404.672 488.787 402.382 488.464 400.923 487.308C400.576 486.995 400.243 486.568 400.247 486.008C400.247 485.444 400.722 485.007 401.146 484.897C402.018 484.654 402.744 484.891 403.382 485.026C404.671 485.361 405.618 485.899 406.219 486.319C406.823 486.742 407.094 487.049 407.067 487.079C407.004 487.194 405.766 486.04 403.275 485.481C402.66 485.371 401.935 485.208 401.323 485.418C401.023 485.518 400.828 485.743 400.831 486.02C400.824 486.288 401.038 486.608 401.324 486.848C402.538 487.784 404.634 488.075 406.204 487.118C407.774 486.179 408.42 484.102 407.826 482.68C407.676 482.34 407.434 482.04 407.163 481.92C406.895 481.803 406.6 481.871 406.392 482.087C405.954 482.544 405.855 483.281 405.779 483.895C405.527 486.436 406.348 487.945 406.215 487.973Z" fill="#17282F"/>
<path d="M361.722 347.131L365.876 328.581C364.998 340.375 364.195 352.679 363.62 364.48C361.62 359.025 360.939 352.965 361.722 347.131ZM438.263 421.752L402.655 397.783L414.439 282.059L380.71 262.361L349.864 255.215C349.864 255.215 336.983 282.013 331.254 299.168C319.071 335.656 310.519 348.731 312.472 375.179C313.091 383.549 344.003 404.489 363.523 416.121C363.791 418.792 364.134 421.125 364.559 423.051C371.23 453.206 391.591 493.311 391.591 493.311L422.536 478.924L412.551 444.728L422.95 450.793L438.263 421.752Z" fill="#17282F"/>
<path d="M391.591 493.31C391.58 493.314 391.499 493.149 391.351 492.822C391.195 492.465 390.981 491.981 390.709 491.363C390.149 490.04 389.345 488.144 388.317 485.718C386.261 480.808 383.319 473.689 379.777 464.854C376.255 456.012 372.061 445.48 367.837 433.616C366.785 430.649 365.753 427.59 364.785 424.434C364.356 422.834 363.817 421.26 363.535 419.566C363.455 419.149 363.36 418.73 363.291 418.31L363.143 417.049C363.049 416.205 362.955 415.356 362.86 414.504C362.497 411.097 362.197 407.62 361.973 404.086C361.861 402.321 361.765 400.54 361.696 398.745C361.632 396.958 361.551 395.132 361.655 393.317C362.177 378.774 363.4 364.992 364.405 352.445C365.453 339.912 366.397 328.621 367.191 319.128C367.959 309.642 368.496 301.961 368.8 296.649C368.967 293.995 369.059 291.93 369.12 290.532C369.157 289.856 369.185 289.329 369.207 288.94C369.229 288.581 369.248 288.397 369.259 288.397C369.271 288.397 369.276 288.583 369.275 288.941C369.269 289.331 369.263 289.86 369.253 290.536C369.235 291.937 369.184 294.003 369.059 296.662C368.832 301.982 368.367 309.672 367.659 319.164C366.904 328.662 366.008 339.956 365.013 352.496C364.043 365.037 362.837 378.834 362.316 393.329C362.213 395.141 362.295 396.925 362.357 398.718C362.425 400.508 362.52 402.284 362.631 404.046C362.851 407.569 363.147 411.037 363.504 414.437C363.597 415.286 363.691 416.132 363.784 416.974L363.929 418.233C363.997 418.646 364.089 419.049 364.168 419.456C364.433 421.085 364.971 422.672 365.391 424.253C366.348 427.394 367.371 430.449 368.413 433.414C372.599 445.272 376.748 455.82 380.213 464.681C383.725 473.497 386.573 480.645 388.556 485.62C389.535 488.066 390.3 489.978 390.833 491.31C391.079 491.941 391.272 492.433 391.413 492.796C391.541 493.132 391.601 493.305 391.591 493.31Z" fill="#33535F"/>
<path d="M367.79 284.489C367.762 284.523 367.478 284.294 366.978 283.83C366.515 283.342 365.951 282.522 365.474 281.411C364.514 279.182 364.028 275.857 363.955 272.23C363.888 268.591 364.158 265.315 364.396 262.957C364.643 260.598 364.842 259.147 364.931 259.153C365.024 259.159 364.99 260.629 364.863 262.993C364.744 265.357 364.551 268.619 364.616 272.215C364.69 275.802 365.095 279.054 365.908 281.239C366.314 282.329 366.79 283.143 367.175 283.663C367.594 284.155 367.819 284.453 367.79 284.489Z" fill="#33535F"/>
<path d="M354.474 256.945C354.54 256.932 354.862 258.158 354.738 260.184C354.627 262.189 353.944 265.013 352.186 267.594C350.426 270.176 348.048 271.844 346.222 272.681C344.383 273.536 343.123 273.686 343.112 273.618C343.08 273.509 344.282 273.198 346.01 272.264C347.731 271.345 349.958 269.688 351.639 267.221C353.318 264.754 354.046 262.077 354.272 260.14C354.51 258.189 354.36 256.956 354.474 256.945Z" fill="#33535F"/>
<path d="M409.806 324.226C409.818 324.228 409.815 324.348 409.799 324.58C409.776 324.849 409.747 325.188 409.712 325.609C409.616 326.561 409.484 327.882 409.315 329.558C408.936 333.04 408.396 337.986 407.734 344.078C406.34 356.374 404.427 373.278 402.314 391.95C401.496 401.298 402.312 410.296 404.066 418.222C404.934 422.194 406.082 425.885 407.29 429.297C408.488 432.716 409.604 435.901 410.624 438.816C412.631 444.606 414.262 449.308 415.408 452.614C415.947 454.213 416.371 455.47 416.676 456.378C416.806 456.779 416.908 457.105 416.991 457.362C417.059 457.585 417.088 457.701 417.076 457.705C417.066 457.709 417.015 457.601 416.927 457.385C416.83 457.133 416.706 456.817 416.551 456.422C416.218 455.525 415.754 454.279 415.166 452.701C413.971 449.412 412.274 444.733 410.183 438.973C409.139 436.066 407.998 432.888 406.774 429.48C405.539 426.066 404.359 422.349 403.471 418.356C401.671 410.381 400.83 401.314 401.654 391.894C403.736 373.17 405.804 356.281 407.268 344.03C408.019 337.948 408.63 333.008 409.059 329.534C409.28 327.862 409.454 326.546 409.579 325.596C409.642 325.177 409.691 324.841 409.731 324.573C409.77 324.342 409.794 324.225 409.806 324.226Z" fill="#33535F"/>
<path d="M349.864 254.993L355.327 241.036L367.79 259.621L351.172 255.466" fill="#F8A58D"/>
<path d="M480.294 213.037L465.502 179.874C463.732 174.542 460.415 173.716 457.636 170.621L420.58 149.721C393.574 138.66 378.87 175.757 378.87 175.757L354.323 231.746C325.456 241.316 345.895 263.485 345.895 263.485C345.895 263.485 338.043 249.836 345.766 244.913C353.851 239.756 362.815 253.34 371.427 266.242C381.594 281.476 414.635 291.369 414.635 291.369C418.5 287.286 417.419 273.034 420.446 265.385C421.403 262.96 444.284 209.964 444.284 209.964L453.154 231.452C453.154 231.452 464.523 218.122 470.032 216.004C475.543 213.885 480.294 213.037 480.294 213.037Z" fill="#F03D5F"/>
<path d="M414.635 236.603C414.656 236.637 414.268 236.933 413.512 237.386C412.759 237.841 411.619 238.425 410.141 238.983C407.211 240.113 402.775 240.989 397.964 240.247C393.152 239.505 389.187 237.33 386.732 235.37C385.492 234.391 384.581 233.493 384 232.83C383.417 232.17 383.136 231.773 383.167 231.746C383.257 231.659 384.504 233.166 387.015 234.997C389.496 236.827 393.388 238.87 398.064 239.593C402.74 240.314 407.067 239.539 409.985 238.542C412.931 237.554 414.573 236.493 414.635 236.603Z" fill="#17282F"/>
<path d="M353.224 184.018L376.094 186.176L412.678 147.506L391.162 146.768L352.846 150.549C352.846 150.549 356.239 166.52 353.224 184.018Z" fill="#F03D5F"/>
<path d="M384.987 163.643C385.007 163.654 384.911 163.896 384.707 164.352C384.467 164.868 384.163 165.522 383.79 166.326C382.951 168.116 381.8 170.572 380.396 173.571C377.552 179.699 373.779 188.235 369.69 197.7C365.599 207.168 361.879 215.736 359.066 221.884C357.663 224.96 356.504 227.438 355.671 229.136C355.276 229.93 354.955 230.575 354.702 231.084C354.474 231.527 354.343 231.755 354.323 231.746C354.302 231.736 354.392 231.49 354.58 231.028C354.804 230.504 355.087 229.843 355.436 229.027C356.227 227.215 357.312 224.73 358.639 221.694C361.342 215.414 365.019 206.875 369.082 197.438C373.172 187.97 377.018 179.454 379.972 173.371C381.446 170.328 382.671 167.882 383.559 166.211C383.978 165.428 384.319 164.794 384.588 164.291C384.831 163.856 384.967 163.632 384.987 163.643Z" fill="#17282F"/>
<path d="M454.784 174.888C454.848 175 453.431 175.74 451.496 177.386C450.52 178.2 449.464 179.286 448.406 180.582C447.376 181.901 446.36 183.442 445.504 185.177C444.674 186.922 444.092 188.674 443.695 190.301C443.335 191.936 443.135 193.437 443.102 194.706C443.006 197.246 443.304 198.817 443.176 198.836C443.132 198.845 443.035 198.458 442.898 197.748C442.823 197.393 442.75 196.957 442.72 196.442C442.683 195.93 442.606 195.346 442.632 194.697C442.608 193.4 442.762 191.853 443.099 190.168C443.474 188.492 444.055 186.682 444.91 184.888C445.787 183.106 446.848 181.529 447.932 180.197C449.046 178.888 450.164 177.808 451.199 177.024C451.691 176.601 452.198 176.3 452.622 176.01C453.044 175.716 453.434 175.504 453.758 175.342C454.4 175.01 454.763 174.848 454.784 174.888Z" fill="#17282F"/>
<path d="M461.174 121.78L439.72 161.882C436.218 168.43 428.247 171.154 421.47 168.121C414.007 164.782 410.92 155.828 414.742 148.6C416.766 144.774 418.444 141.652 418.444 141.652C418.444 141.652 409.115 135.606 413.478 125.528C417.37 116.536 431.659 91.1556 434.692 85.7889L452.775 93.8809C462.931 99.1569 466.728 111.774 461.174 121.78Z" fill="#F8A58D"/>
<path d="M418.492 141.5C418.492 141.5 424.596 144.851 433.222 143.635C433.222 143.635 426.904 149.465 417.306 144.087L418.492 141.5Z" fill="#F68260"/>
<path d="M425.383 109.435C425.016 110.179 425.346 111.101 426.115 111.497C426.886 111.892 427.804 111.611 428.17 110.867C428.535 110.123 428.206 109.2 427.438 108.804C426.668 108.409 425.747 108.692 425.383 109.435Z" fill="#17282F"/>
<path d="M425.464 108.16C425.559 108.425 427.002 108.108 428.54 108.802C430.087 109.472 430.863 110.77 431.115 110.657C431.234 110.61 431.204 110.193 430.872 109.613C430.547 109.04 429.876 108.324 428.915 107.898C427.952 107.474 426.988 107.466 426.362 107.62C425.726 107.772 425.414 108.037 425.464 108.16Z" fill="#17282F"/>
<path d="M439.794 116.524C439.428 117.268 439.758 118.19 440.527 118.585C441.295 118.98 442.216 118.7 442.58 117.956C442.946 117.212 442.616 116.288 441.848 115.894C441.079 115.497 440.159 115.78 439.794 116.524Z" fill="#17282F"/>
<path d="M440.476 115.222C440.57 115.489 442.015 115.172 443.554 115.865C445.099 116.536 445.875 117.833 446.127 117.72C446.246 117.673 446.218 117.256 445.884 116.677C445.559 116.102 444.888 115.386 443.927 114.961C442.964 114.537 442 114.529 441.375 114.682C440.739 114.834 440.427 115.1 440.476 115.222Z" fill="#17282F"/>
<path d="M429.775 124.144C429.82 124.06 428.937 123.466 427.473 122.573C427.099 122.357 426.761 122.112 426.816 121.813C426.849 121.488 427.204 121.138 427.6 120.765C428.395 119.98 429.228 119.154 430.104 118.29C433.627 114.75 436.365 111.766 436.223 111.625C436.077 111.485 433.105 114.241 429.581 117.784C428.723 118.661 427.901 119.496 427.119 120.297C426.771 120.677 426.287 121.07 426.224 121.75C426.197 122.09 426.392 122.433 426.613 122.614C426.832 122.804 427.051 122.908 427.239 123.006C428.764 123.789 429.728 124.229 429.775 124.144Z" fill="#17282F"/>
<path d="M433.831 127.238C433.587 127.112 432.835 128.782 430.874 129.329C428.911 129.88 427.214 128.894 427.096 129.122C427.026 129.217 427.347 129.625 428.091 129.981C428.818 130.337 430.002 130.582 431.202 130.248C432.399 129.912 433.21 129.108 433.574 128.448C433.95 127.778 433.948 127.28 433.831 127.238Z" fill="#17282F"/>
<path d="M442.78 109.007C442.744 109.495 444.371 109.984 446.08 111.011C447.811 112.003 449.032 113.185 449.44 112.917C449.627 112.783 449.55 112.275 449.142 111.607C448.738 110.94 447.979 110.139 446.948 109.532C445.916 108.928 444.846 108.656 444.067 108.63C443.284 108.6 442.803 108.779 442.78 109.007Z" fill="#17282F"/>
<path d="M428.026 103.955C428.14 104.426 429.363 104.538 430.647 105.091C431.95 105.601 432.898 106.381 433.311 106.126C433.499 105.997 433.486 105.571 433.162 105.029C432.844 104.49 432.187 103.873 431.298 103.506C430.408 103.142 429.507 103.119 428.903 103.278C428.291 103.437 427.982 103.73 428.026 103.955Z" fill="#17282F"/>
<path d="M454.428 127.791C454.632 127.792 462.226 128.835 458.942 135.59C455.656 142.344 449.552 137.654 449.635 137.454C449.718 137.254 454.428 127.791 454.428 127.791Z" fill="#F8A58D"/>
<path d="M452.943 135.897C452.983 135.891 453.02 136.037 453.175 136.225C453.325 136.408 453.628 136.632 454.045 136.671C454.887 136.756 456.039 135.916 456.664 134.715C456.98 134.108 457.135 133.46 457.153 132.869C457.187 132.275 457.036 131.773 456.708 131.536C456.391 131.279 456.031 131.37 455.856 131.52C455.673 131.665 455.651 131.821 455.611 131.815C455.583 131.823 455.52 131.632 455.711 131.379C455.803 131.259 455.959 131.137 456.181 131.085C456.408 131.032 456.679 131.08 456.916 131.229C457.419 131.518 457.655 132.225 457.636 132.875C457.644 133.54 457.483 134.274 457.128 134.956C456.423 136.296 455.107 137.231 453.993 137.037C453.456 136.931 453.129 136.595 453.004 136.336C452.876 136.067 452.913 135.899 452.943 135.897Z" fill="#F68260"/>
<path d="M458.344 129.263C457.412 128.545 455.172 128.699 454.29 129.479C453.406 130.258 452.812 131.323 451.93 132.103C451.047 132.883 449.647 133.319 448.711 132.605C448.064 132.11 447.851 131.203 447.982 130.401C448.114 129.599 448.528 128.875 448.951 128.182C450.787 125.162 452.88 122.29 454.45 119.125C456.022 115.959 457.06 112.405 456.598 108.902C456.134 105.398 453.93 101.989 450.598 100.807C448.392 100.026 445.942 100.263 443.692 99.6126C441.027 98.8406 438.771 96.7686 437.776 94.178C437.65 93.846 436.894 92.662 436.894 92.662C436.968 92.4953 437.767 91.1353 438.563 90.866C444.499 88.862 452.548 91.1633 457.467 95.0406C462.388 98.9166 465.834 105.157 465.892 111.421C465.954 117.685 462.011 124.595 458.344 129.263Z" fill="#17282F"/>
<path d="M458.41 128.586C460.286 125.395 463.332 123.082 465.656 120.201C467.98 117.319 469.578 113.259 467.923 109.949C467.358 108.817 466.452 107.869 465.98 106.695C465.504 105.515 465.504 104.209 465.322 102.95C464.758 99.0606 462.299 95.4913 458.866 93.5766C456.492 92.254 453.754 91.71 451.347 90.446C447.538 88.4433 444.751 84.7326 440.748 83.1486C439.42 82.6233 437.866 82.3686 436.596 83.0233C435.326 83.6779 434.644 85.5193 435.57 86.6073C435.406 85.33 433.75 84.6286 432.576 85.1606C431.402 85.6913 430.802 87.0873 430.882 88.3726C430.96 89.6593 431.598 90.8433 432.336 91.8993C434.766 95.3806 438.483 97.9406 442.602 98.97L451.806 98.2526L459.351 103.845L464.936 112.734L454.808 125.89L458.41 128.586Z" fill="#17282F"/>
<path d="M400.827 76.1206C399.668 58.2073 384.207 44.622 366.292 45.7793C348.379 46.9366 334.795 62.398 335.952 80.3126C336.789 93.2833 345.128 103.978 356.464 108.458C356.712 112.301 356.992 116.641 356.992 116.641L385.423 114.803C385.423 114.803 385.297 110.199 385.096 106.095C395.193 100.034 401.637 88.6833 400.827 76.1206Z" fill="#F03D5F"/>
<path d="M375.134 115.334C375.134 115.334 375.128 115.198 375.14 114.933C375.152 114.652 375.172 114.26 375.196 113.754C375.255 112.718 375.34 111.19 375.502 109.226C375.664 107.264 375.892 104.86 376.336 102.093C376.791 99.3318 377.452 96.1878 378.696 92.8758C379.318 91.2211 380.052 89.5198 381.05 87.8491C381.564 87.0305 382.223 86.2225 383.139 85.7145C384.052 85.2025 385.234 85.1251 386.226 85.6158C386.715 85.8598 387.147 86.2931 387.335 86.8331C387.542 87.3624 387.527 87.9824 387.307 88.5064C386.871 89.5651 385.962 90.3411 384.942 90.8278C382.847 91.7158 380.366 91.6864 378.167 90.7864C375.959 89.8878 374.12 87.9998 373.236 85.6691C372.81 84.5104 372.535 83.2291 372.803 81.9411C373.028 80.6624 374.179 79.4584 375.606 79.4958C376.311 79.5011 376.979 79.9411 377.33 80.5331C377.695 81.1211 377.824 81.8358 377.72 82.5171C377.495 83.8905 376.584 84.9651 375.647 85.8864C373.714 87.7091 370.988 88.8278 368.228 88.5691C365.487 88.3104 362.934 86.6731 361.654 84.2984C360.988 83.1331 360.754 81.6811 361.18 80.3838C361.396 79.7425 361.854 79.1291 362.511 78.8571C363.155 78.5598 363.911 78.6318 364.52 78.9118C365.136 79.1878 365.654 79.6744 365.98 80.2464C366.319 80.8158 366.5 81.4531 366.596 82.0838C366.77 83.3491 366.671 84.6238 366.343 85.8224C365.704 88.2251 364.152 90.3171 362.122 91.5571C360.102 92.8091 357.69 93.2625 355.47 92.9145C354.374 92.7451 353.24 92.3838 352.45 91.5544C351.676 90.7424 351.387 89.3998 352.067 88.4411C352.407 87.9798 352.946 87.7091 353.479 87.6344C354.016 87.5624 354.559 87.6358 355.046 87.8344C356.04 88.2478 356.686 89.1038 357.175 89.9331C358.104 91.6384 358.87 93.3064 359.638 94.8958C362.654 101.266 364.843 106.534 366.316 110.188C367.052 112.014 367.602 113.441 367.971 114.41C368.147 114.885 368.283 115.253 368.382 115.517C368.472 115.766 368.508 115.898 368.508 115.898C368.508 115.898 368.447 115.776 368.343 115.532C368.236 115.272 368.087 114.908 367.896 114.441C367.495 113.465 366.916 112.054 366.172 110.245C364.655 106.613 362.428 101.365 359.383 95.0185C358.612 93.4411 357.827 91.7558 356.911 90.0891C356.435 89.2864 355.808 88.4904 354.926 88.1318C354.071 87.7771 352.908 87.8558 352.335 88.6358C351.772 89.4118 352.008 90.6118 352.698 91.3185C353.403 92.0598 354.464 92.4091 355.524 92.5678C357.659 92.8971 359.988 92.4544 361.928 91.2451C363.875 90.0504 365.363 88.0371 365.975 85.7238C366.288 84.5718 366.38 83.3411 366.214 82.1411C366.051 80.9611 365.475 79.7531 364.359 79.2678C363.824 79.0264 363.196 78.9718 362.668 79.2171C362.13 79.4411 361.748 79.9425 361.554 80.5131C361.174 81.6771 361.374 83.0144 362.004 84.1104C363.212 86.3571 365.658 87.9291 368.266 88.1718C370.892 88.4184 373.515 87.3491 375.375 85.5971C376.282 84.7131 377.138 83.6718 377.33 82.4571C377.422 81.8651 377.306 81.2411 376.996 80.7411C376.695 80.2384 376.166 79.8958 375.591 79.8864C375.019 79.8664 374.44 80.1185 374.012 80.5118C373.576 80.8998 373.307 81.4464 373.182 82.0238C372.934 83.1904 373.184 84.4251 373.594 85.5344C374.436 87.7691 376.198 89.5838 378.308 90.4465C380.407 91.3185 382.82 91.3424 384.792 90.5091C385.75 90.0624 386.606 89.3185 386.988 88.3838C387.399 87.4518 386.962 86.3238 386.074 85.9104C385.204 85.4731 384.115 85.5318 383.292 85.9944C382.447 86.4584 381.814 87.2185 381.31 88.0145C380.33 89.6411 379.583 91.3411 378.96 92.9758C377.71 96.2558 377.031 99.3811 376.556 102.129C376.094 104.884 375.842 107.281 375.656 109.241C375.492 111.19 375.364 112.709 375.276 113.76C375.235 114.264 375.203 114.654 375.18 114.936C375.156 115.2 375.134 115.334 375.134 115.334Z" fill="#17282F"/>
<path d="M383.575 120.21L359.165 121.787C358.153 121.852 357.28 121.086 357.215 120.074C357.149 119.062 357.916 118.188 358.928 118.123L383.337 116.546C384.349 116.48 385.223 117.247 385.288 118.259C385.353 119.271 384.587 120.144 383.575 120.21Z" fill="#17282F"/>
<path d="M383.678 121.81L359.268 123.387C358.256 123.453 357.49 124.326 357.555 125.337C357.62 126.35 358.494 127.117 359.504 127.05L362.184 126.878L366.176 133.414C366.634 134.162 367.467 134.594 368.34 134.538L377.063 133.974C377.947 133.917 378.723 133.371 379.075 132.558L382.094 125.591L383.915 125.474C384.927 125.409 385.694 124.535 385.628 123.523C385.563 122.511 384.69 121.745 383.678 121.81Z" fill="#17282F"/>
<path d="M344.639 90.168C344.367 90.168 343.845 89.7373 343.177 88.8826C342.415 87.9106 341.517 86.3506 340.753 84.2626C339.985 82.18 339.419 79.5466 339.358 76.572C339.291 73.604 339.782 70.2946 341.022 67.048L346.215 58.896C348.265 56.7413 350.46 55.18 352.431 54.1586C354.403 53.132 356.117 52.5853 357.336 52.3827C357.82 52.3 358.224 52.2626 358.539 52.2626C359.017 52.2626 359.292 52.3506 359.337 52.504C359.517 53.084 357.115 54.116 353.945 56.5413C350.784 58.9213 346.893 62.9773 344.745 68.4933C342.611 74.016 342.749 79.636 343.477 83.5226C344.183 87.4533 345.26 89.8346 344.737 90.1426C344.709 90.1586 344.676 90.168 344.639 90.168Z" fill="#F2577A"/>
<path d="M366.612 53.416C364.814 53.416 363.294 52.9587 363.042 51.9933C362.916 51.46 363.259 50.8587 363.972 50.3613C364.682 49.8653 365.763 49.4867 366.992 49.4133C367.135 49.404 367.276 49.4 367.416 49.4C368.478 49.4 369.43 49.636 370.104 49.9973C370.871 50.4067 371.283 50.9613 371.223 51.5067L367.23 53.3987C367.022 53.4107 366.815 53.416 366.612 53.416Z" fill="#F2577A"/>
<path d="M378.658 133.165C378.632 133.228 378.002 132.987 376.948 132.757C375.896 132.525 374.407 132.353 372.774 132.504C371.139 132.66 369.707 133.105 368.718 133.529C367.726 133.951 367.15 134.304 367.114 134.248C367.088 134.213 367.614 133.771 368.6 133.272C369.582 132.773 371.05 132.267 372.735 132.107C374.422 131.951 375.958 132.175 377.015 132.484C378.078 132.791 378.675 133.127 378.658 133.165Z" fill="#33535F"/>
<path d="M382.151 125.671C382.158 125.78 377.751 126.155 372.308 126.507C366.864 126.859 362.447 127.054 362.439 126.944C362.432 126.834 366.838 126.46 372.283 126.108C377.726 125.756 382.144 125.562 382.151 125.671Z" fill="#33535F"/>
<path d="M380.809 128.665C380.816 128.718 379.904 128.876 378.423 129.065C376.94 129.254 374.888 129.473 372.615 129.652C370.341 129.832 368.28 129.938 366.785 129.982C365.292 130.026 364.367 130.016 364.365 129.961C364.363 129.905 365.283 129.817 366.771 129.7C368.379 129.577 370.375 129.424 372.584 129.254C374.791 129.076 376.785 128.914 378.393 128.784C379.881 128.666 380.804 128.609 380.809 128.665Z" fill="#33535F"/>
<path d="M205.023 291.96L210.323 300.451C210.323 300.451 232.938 279.642 255.372 285.524C255.372 285.524 235.211 268.427 205.023 291.96Z" fill="#F03D5F"/>
<path d="M255.372 285.523C255.372 285.523 271.973 267.497 296.313 271.609L302.95 272.609L300.831 268.774C300.831 268.774 258.497 254.275 255.372 285.523Z" fill="#F03D5F"/>
<path d="M220.335 224.742C220.335 224.742 187.084 219.022 165.274 230.821L199.903 296.02C199.903 296.02 228.249 268.697 255.372 285.524L220.335 224.742Z" fill="#F3F2F1"/>
<path d="M220.335 224.743C220.339 224.736 220.399 224.825 220.512 225.008C220.636 225.212 220.799 225.483 221.01 225.829C221.458 226.587 222.098 227.669 222.925 229.069C224.606 231.947 227.044 236.121 230.133 241.412C236.328 252.095 245.131 267.276 255.627 285.376C255.708 285.517 255.66 285.696 255.52 285.777L255.218 285.772C251.456 283.464 247.136 281.711 242.47 280.879C240.132 280.495 237.726 280.332 235.284 280.38C232.843 280.48 230.378 280.788 227.922 281.307C218.1 283.485 208.559 288.819 200.418 295.993L200.133 296.259C200.002 296.385 199.792 296.383 199.665 296.251L199.611 296.175C186.747 271.909 174.824 249.416 165.034 230.948C164.962 230.82 165.009 230.657 165.138 230.584L165.145 230.581C172.77 226.639 180.508 224.929 187.308 224.021C194.141 223.139 200.14 223.111 205.044 223.249C209.952 223.413 213.781 223.807 216.377 224.127C217.675 224.285 218.666 224.437 219.331 224.547C219.648 224.604 219.894 224.647 220.086 224.681C220.257 224.717 220.338 224.737 220.335 224.743C220.33 224.748 220.24 224.741 220.073 224.721C219.882 224.697 219.635 224.668 219.318 224.629C218.65 224.547 217.658 224.421 216.358 224.289C213.76 224.021 209.933 223.679 205.036 223.561C200.143 223.469 194.161 223.541 187.365 224.459C180.603 225.399 172.924 227.137 165.404 231.06L165.515 230.693C175.334 249.145 187.293 271.619 200.196 295.865L199.674 295.781L199.97 295.504C204.074 291.829 208.562 288.747 213.227 286.204C217.903 283.683 222.803 281.753 227.786 280.679C230.279 280.155 232.784 279.845 235.265 279.749C237.748 279.704 240.197 279.873 242.576 280.269C247.324 281.125 251.717 282.92 255.527 285.275L255.118 285.669C244.737 267.555 236.029 252.361 229.902 241.669C226.865 236.332 224.468 232.12 222.816 229.216C222.012 227.787 221.39 226.68 220.955 225.907C220.757 225.543 220.602 225.26 220.485 225.047C220.38 224.852 220.33 224.749 220.335 224.743Z" fill="#17282F"/>
<path d="M272.6 211.363C272.6 211.363 247.448 195.333 220.762 224.742L255.8 285.523C255.8 285.523 262.95 260.853 304.782 269.434L272.6 211.363Z" fill="#F3F2F1"/>
<path d="M272.6 211.364C272.606 211.358 272.663 211.444 272.767 211.62C272.883 211.817 273.035 212.074 273.229 212.405C273.642 213.13 274.232 214.164 274.993 215.5C276.538 218.249 278.778 222.234 281.617 227.285C287.303 237.484 295.386 251.982 305.036 269.292C305.115 269.433 305.064 269.61 304.924 269.689L304.735 269.721L304.723 269.72C302.686 269.385 300.61 269.044 298.495 268.696C297.442 268.485 296.362 268.425 295.277 268.338C294.192 268.253 293.097 268.165 291.994 268.077C290.891 267.948 289.776 267.974 288.654 267.997C287.531 268.012 286.4 268.025 285.261 268.04C284.122 268.066 282.989 268.272 281.841 268.38C280.698 268.524 279.531 268.585 278.402 268.898C277.263 269.156 276.117 269.414 274.965 269.676C273.851 270.065 272.73 270.457 271.603 270.852C270.475 271.242 269.438 271.864 268.341 272.361C267.786 272.601 267.276 272.925 266.771 273.261L265.238 274.244C264.228 274.918 263.322 275.749 262.367 276.517C261.527 277.409 260.581 278.214 259.846 279.214C258.274 281.108 256.932 283.29 256.117 285.614L256.112 285.632C256.051 285.804 255.862 285.896 255.69 285.834L255.513 285.688C255.067 284.914 254.585 284.077 254.101 283.238C241.711 261.709 230.167 241.646 220.52 224.882L220.555 224.554C226.479 218.093 233.019 213.162 239.536 210.284C246.039 207.333 252.383 206.598 257.441 206.924C262.532 207.24 266.389 208.478 268.895 209.49C270.154 209.998 271.081 210.476 271.696 210.808C271.984 210.976 272.208 211.106 272.383 211.209C272.534 211.308 272.605 211.358 272.6 211.364C272.595 211.369 272.512 211.328 272.359 211.245C272.18 211.153 271.95 211.036 271.656 210.885C271.029 210.578 270.096 210.129 268.831 209.648C266.319 208.69 262.473 207.512 257.423 207.246C252.406 206.972 246.14 207.744 239.721 210.698C233.288 213.584 226.831 218.494 220.969 224.93L221.003 224.604C230.676 241.353 242.252 261.397 254.674 282.908C255.158 283.746 255.64 284.584 256.086 285.357L255.482 285.43C256.353 282.942 257.717 280.754 259.336 278.797C260.091 277.77 261.059 276.944 261.922 276.032C262.899 275.245 263.829 274.396 264.863 273.706L266.431 272.702C266.947 272.361 267.469 272.03 268.035 271.785C269.153 271.277 270.214 270.646 271.364 270.249C272.512 269.849 273.653 269.452 274.787 269.056C275.958 268.793 277.122 268.53 278.278 268.27C279.426 267.956 280.606 267.894 281.765 267.749C282.927 267.641 284.076 267.437 285.227 267.413C286.378 267.4 287.521 267.386 288.655 267.374C289.789 267.354 290.916 267.33 292.026 267.462C293.138 267.553 294.241 267.644 295.336 267.733C296.429 267.824 297.517 267.886 298.576 268.101C300.702 268.457 302.791 268.805 304.84 269.148L304.527 269.576C294.976 252.24 286.977 237.718 281.351 227.504C278.568 222.412 276.373 218.393 274.859 215.622C274.126 214.261 273.559 213.208 273.161 212.469C272.981 212.125 272.841 211.857 272.734 211.652C272.64 211.466 272.594 211.369 272.6 211.364Z" fill="#17282F"/>
<path d="M174.64 199.481L212.139 271.684C212.139 271.684 242.615 270.351 255.514 285.201L220.762 224.744C220.762 224.744 200.383 199.481 174.64 199.481Z" fill="#F3F2F1"/>
<path d="M174.64 199.48C174.64 199.48 174.95 199.486 175.591 199.511C176.273 199.539 177.237 199.578 178.482 199.628C178.801 199.648 179.143 199.651 179.496 199.688C179.843 199.746 180.209 199.806 180.591 199.868C181.359 199.996 182.195 200.136 183.098 200.286C184.012 200.395 184.953 200.702 185.97 200.971C186.976 201.278 188.086 201.486 189.186 201.923C198.148 204.907 210.166 212.135 220.973 224.572L220.992 224.599L220.997 224.608C230.891 241.787 242.87 262.583 255.801 285.036C255.892 285.194 255.838 285.396 255.679 285.487C255.547 285.563 255.385 285.538 255.281 285.436L255.264 285.418C254.8 284.956 254.297 284.456 253.793 283.956C251.004 281.251 247.702 279.118 244.195 277.611C240.704 276.07 237.101 274.878 233.468 274.098C226.221 272.47 218.986 271.856 212.153 271.992H212.144C212.023 271.995 211.916 271.926 211.864 271.826C200.933 250.627 191.594 232.516 184.974 219.679C181.709 213.316 179.114 208.263 177.322 204.771C176.451 203.067 175.776 201.746 175.306 200.823C175.09 200.395 174.923 200.063 174.797 199.814C174.686 199.588 174.633 199.476 174.64 199.48C174.648 199.486 174.716 199.607 174.842 199.84C174.979 200.096 175.161 200.436 175.396 200.876C175.888 201.807 176.593 203.143 177.502 204.864C179.338 208.358 181.995 213.416 185.34 219.782C192.005 232.524 201.408 250.499 212.414 271.54L212.126 271.374C219.038 271.222 226.29 271.828 233.612 273.463C237.278 274.247 240.924 275.447 244.466 277.011C248.024 278.538 251.396 280.708 254.257 283.483C254.773 283.996 255.288 284.51 255.764 284.984L255.227 285.366C242.334 262.891 230.391 242.075 220.526 224.879L220.55 224.914C215.272 218.708 209.516 213.847 204.136 210.06C198.706 206.328 193.541 203.734 189.085 202.218C187.994 201.771 186.895 201.554 185.898 201.238C184.889 200.958 183.956 200.64 183.05 200.52C182.153 200.358 181.323 200.207 180.562 200.068C180.182 199.999 179.82 199.934 179.474 199.87C179.129 199.827 178.803 199.818 178.495 199.791C176.205 199.607 175.141 199.522 174.64 199.48Z" fill="#17282F"/>
<path d="M291.688 404.257L292.493 405.595C293.397 407.097 294.712 408.307 296.283 409.085L297.682 409.777L296.345 410.582C294.843 411.486 293.632 412.801 292.854 414.373L292.163 415.771L291.358 414.434C290.454 412.933 289.139 411.719 287.567 410.943L286.168 410.251L287.506 409.446C289.008 408.543 290.219 407.227 290.996 405.657L291.688 404.257Z" fill="#F03D5F"/>
<path d="M217.764 129.237L218.568 130.574C219.472 132.075 220.787 133.287 222.359 134.065L223.758 134.757L222.42 135.561C220.918 136.465 219.707 137.781 218.93 139.351L218.239 140.75L217.433 139.413C216.529 137.911 215.214 136.699 213.643 135.923L212.244 135.231L213.581 134.426C215.083 133.522 216.294 132.207 217.071 130.635L217.764 129.237Z" fill="#F03D5F"/>
<path d="M559.879 176.685L560.683 178.023C561.587 179.525 562.901 180.735 564.472 181.513L565.872 182.205L564.535 183.01C563.032 183.913 561.821 185.229 561.045 186.799L560.352 188.199L559.548 186.861C558.644 185.359 557.329 184.149 555.757 183.371L554.357 182.679L555.696 181.874C557.197 180.97 558.408 179.655 559.185 178.085L559.879 176.685Z" fill="#F03D5F"/>
<path d="M519.477 421.53L520.281 422.868C521.185 424.37 522.501 425.581 524.071 426.357L525.471 427.05L524.133 427.854C522.631 428.758 521.42 430.073 520.644 431.645L519.951 433.045L519.147 431.706C518.243 430.205 516.928 428.994 515.356 428.217L513.956 427.524L515.295 426.72C516.796 425.816 518.007 424.5 518.784 422.93L519.477 421.53Z" fill="#F03D5F"/>
<path d="M527.168 472.981L527.555 473.136C527.987 473.311 528.459 473.357 528.917 473.271L529.327 473.192L529.171 473.578C528.997 474.01 528.949 474.485 529.037 474.942L529.115 475.35L528.728 475.195C528.296 475.021 527.824 474.975 527.365 475.062L526.956 475.139L527.112 474.754C527.285 474.321 527.333 473.847 527.245 473.39L527.168 472.981Z" fill="#F03D5F"/>
<path d="M550.431 125.073L550.816 125.228C551.248 125.401 551.723 125.449 552.18 125.361L552.588 125.284L552.434 125.669C552.26 126.101 552.214 126.575 552.3 127.033L552.378 127.441L551.992 127.287C551.559 127.112 551.086 127.067 550.628 127.153L550.22 127.231L550.375 126.845C550.55 126.413 550.595 125.94 550.508 125.481L550.431 125.073Z" fill="#F03D5F"/>
<path d="M232.797 93.3064L233.182 93.4611C233.615 93.6358 234.088 93.6824 234.547 93.5944L234.955 93.5171L234.8 93.9038C234.625 94.3358 234.579 94.8091 234.666 95.2678L234.744 95.6758L234.359 95.5198C233.925 95.3464 233.452 95.2998 232.994 95.3864L232.586 95.4638L232.741 95.0785C232.915 94.6465 232.961 94.1731 232.875 93.7145L232.797 93.3064Z" fill="#F03D5F"/>
<path d="M271.999 364.202L272.384 364.357C272.817 364.532 273.291 364.577 273.748 364.49L274.156 364.413L274.002 364.798C273.828 365.23 273.781 365.705 273.868 366.162L273.945 366.57L273.56 366.416C273.128 366.241 272.654 366.196 272.196 366.282L271.788 366.36L271.943 365.974C272.117 365.542 272.164 365.068 272.076 364.609L271.999 364.202Z" fill="#F03D5F"/>
<path d="M314.499 468.91C314.499 468.91 314.383 469.05 314.135 469.299C313.868 469.563 313.5 469.93 313.027 470.399C312.024 471.377 310.576 472.786 308.719 474.596C304.936 478.243 299.487 483.499 292.737 490.011L292.8 489.853C293.559 506.585 294.593 529.323 295.741 554.61L295.767 555.184L295.29 554.865C293.457 553.639 291.496 552.329 289.519 551.006C276.354 542.194 263.892 533.85 252.925 526.508L252.851 526.458L252.823 526.374C247.363 510.069 242.757 496.315 239.507 486.61C237.911 481.784 236.647 477.965 235.774 475.325C235.357 474.035 235.034 473.034 234.806 472.33C234.705 472.005 234.627 471.753 234.567 471.557C234.515 471.384 234.492 471.293 234.5 471.291C234.506 471.289 234.542 471.374 234.607 471.543C234.678 471.735 234.769 471.985 234.886 472.303C235.132 473.001 235.481 473.994 235.931 475.273C236.837 477.899 238.147 481.703 239.804 486.51C243.102 496.199 247.777 509.93 253.318 526.208L253.216 526.073C264.193 533.401 276.666 541.727 289.842 550.523C291.818 551.845 293.779 553.157 295.612 554.384L295.162 554.637C294.079 529.345 293.105 506.605 292.388 489.872L292.385 489.777L292.452 489.714C299.256 483.26 304.749 478.049 308.561 474.431C310.452 472.657 311.924 471.274 312.947 470.314C313.436 469.862 313.817 469.511 314.093 469.255C314.355 469.02 314.499 468.91 314.499 468.91Z" fill="#F03D5F"/>
<path d="M297.464 546.995L297.348 550.771L300.392 553.006L296.765 554.062L295.578 557.648L293.454 554.526L289.677 554.505L291.99 551.519L290.843 547.922L294.397 549.199L297.464 546.995Z" fill="#F03D5F"/>
<path d="M253.385 521.377L253.459 523.82L255.513 525.145L253.212 525.969L252.586 528.332L251.091 526.399L248.65 526.535L250.027 524.514L249.143 522.235L251.49 522.921L253.385 521.377Z" fill="#F03D5F"/>
<path d="M234.398 466.808L236.241 469.175L239.237 468.997L237.554 471.482L238.648 474.276L235.765 473.444L233.446 475.348L233.346 472.349L230.82 470.732L233.64 469.711L234.398 466.808Z" fill="#F03D5F"/>
<path d="M312.655 464.441L314.499 466.808L317.494 466.63L315.812 469.114L316.906 471.909L314.023 471.077L311.704 472.98L311.604 469.982L309.078 468.365L311.898 467.342L312.655 464.441Z" fill="#F03D5F"/>
<path d="M292.111 487.301L293.287 488.812L295.198 488.7L294.125 490.285L294.823 492.068L292.983 491.539L291.503 492.752L291.44 490.839L289.827 489.807L291.627 489.154L292.111 487.301Z" fill="#F03D5F"/>
<path d="M248.14 359.871C248.14 374.556 236.233 386.463 221.547 386.463C206.86 386.463 194.954 374.556 194.954 359.871C194.954 345.184 206.86 333.278 221.547 333.278C236.233 333.278 248.14 345.184 248.14 359.871Z" fill="#F03D5F"/>
<path d="M213.753 372.508C211.358 372.508 209.416 370.565 209.416 368.17C209.416 365.774 211.358 363.833 213.753 363.833C216.148 363.833 218.09 365.774 218.09 368.17C218.09 370.565 216.148 372.508 213.753 372.508Z" fill="#F46789"/>
<path d="M209.416 358.178C208.023 358.178 206.893 357.05 206.893 355.656C206.893 354.262 208.023 353.132 209.416 353.132C210.809 353.132 211.938 354.262 211.938 355.656C211.938 357.05 210.809 358.178 209.416 358.178Z" fill="#F46789"/>
<path d="M195.749 366.338C195.868 366.799 172.989 388.751 178.886 393.429C184.782 398.106 209.592 386.107 230.74 369.026C251.889 351.945 271.208 331.203 265.92 325.713C260.633 320.222 234.203 336.478 234.203 336.478L237.362 338.493C237.362 338.493 253.342 328.239 258.397 332.221C263.451 336.199 249.042 351.741 228.707 366.586C208.372 381.431 188.724 391.851 185.674 387.783C182.623 383.718 197.015 370.151 197.015 370.151L195.749 366.338Z" fill="#F03D5F"/>
<path d="M182.669 394.447C181.043 394.447 179.758 394.119 178.886 393.429C178.212 392.894 177.914 392.134 177.914 391.206C177.917 384.035 195.756 366.842 195.75 366.342C195.75 366.341 195.749 366.339 195.749 366.338L197.015 370.151C197.015 370.151 197.015 370.151 197.014 370.151C196.903 370.257 185.246 381.27 185.249 386.375C185.249 386.918 185.381 387.394 185.674 387.783C186.125 388.386 186.94 388.67 188.066 388.67C194.554 388.67 211.382 379.234 228.708 366.586C246.262 353.77 259.4 340.435 259.413 334.469C259.415 333.525 259.088 332.765 258.397 332.221C257.575 331.573 256.465 331.302 255.181 331.302C248.569 331.302 237.362 338.493 237.362 338.493L234.203 336.478C234.203 336.478 253.548 324.579 262.448 324.579C263.951 324.579 265.157 324.919 265.92 325.713C266.52 326.334 266.802 327.151 266.803 328.138C266.806 333.423 258.687 343.542 247.547 354.259C242.419 359.193 236.651 364.253 230.74 369.026C223.858 374.585 216.587 379.606 209.707 383.689C198.572 390.297 188.46 394.447 182.669 394.447Z" fill="#BA2C42"/>
<path d="M206.109 377.906C205.747 377.906 203.735 376.636 201.523 373.705C200.346 372.149 199.172 370.104 198.293 367.653C197.412 365.208 196.868 362.345 196.914 359.321C196.989 356.298 197.646 353.46 198.624 351.054C199.6 348.64 200.854 346.644 202.092 345.134C204.404 342.31 206.456 341.12 206.836 341.12C206.865 341.12 206.884 341.126 206.893 341.14C207.108 341.396 205.305 342.926 203.265 345.997C201.224 349.02 199.088 353.809 198.971 359.362C198.867 364.918 200.81 369.788 202.729 372.89C204.645 376.04 206.385 377.641 206.161 377.888C206.152 377.9 206.135 377.906 206.109 377.906Z" fill="#F46789"/>
<path d="M492.649 110.27C492.937 98.1589 502.988 88.5722 515.1 88.8589C527.212 89.1469 536.797 99.1989 536.509 111.31C536.223 123.422 526.171 133.008 514.06 132.72C501.947 132.434 492.361 122.382 492.649 110.27Z" fill="#F03D5F"/>
<path d="M525.306 106.051C525.278 106.051 525.248 106.051 525.22 106.049C523.244 106.003 521.68 104.363 521.727 102.388C521.774 100.441 523.366 98.8948 525.303 98.8948C525.331 98.8948 525.36 98.8948 525.39 98.8961C527.366 98.9428 528.928 100.583 528.882 102.557C528.835 104.504 527.243 106.051 525.306 106.051Z" fill="#9C2438"/>
<path d="M530.966 112.871C530.948 112.871 530.932 112.871 530.915 112.871C529.766 112.843 528.856 111.89 528.883 110.742C528.91 109.608 529.836 108.708 530.963 108.708C530.979 108.708 530.996 108.71 531.012 108.71C532.163 108.736 533.071 109.69 533.044 110.84C533.018 111.971 532.091 112.871 530.966 112.871Z" fill="#9C2438"/>
<path d="M526.072 118.666C526.065 118.666 526.06 118.666 526.055 118.666C525.629 118.657 525.295 118.305 525.305 117.881C525.315 117.463 525.656 117.131 526.071 117.131C526.077 117.131 526.084 117.133 526.091 117.133C526.513 117.142 526.849 117.494 526.839 117.917C526.829 118.335 526.487 118.666 526.072 118.666Z" fill="#9C2438"/>
</svg>
