<svg width="902" height="566" viewBox="0 0 902 566" fill="none" xmlns="http://www.w3.org/2000/svg">
<path d="M601.482 64.1546C619.155 64.1546 633.482 49.7931 633.482 32.0773C633.482 14.3615 619.155 0 601.482 0C583.809 0 569.482 14.3615 569.482 32.0773C569.482 49.7931 583.809 64.1546 601.482 64.1546Z" fill="#F2F2F2"/>
<path d="M631.982 350.044C626.982 338.516 619.282 328.391 603.882 319.871C595.922 315.36 587.373 311.986 578.482 309.847C584.464 307.061 589.966 303.339 594.782 298.82C601.862 292.476 607.228 284.442 610.382 275.464C613.285 266.34 614.472 256.754 613.882 247.196C612.782 230.355 609.482 214.016 600.682 202.287C591.882 190.559 579.482 181.537 563.082 175.222C550.482 170.411 537.582 167.403 517.582 166.301V102.246L477.582 127.307V166.401H445.582V125.302L404.582 102.246V166.401H317.482L345.482 214.517C354.132 214.527 359.992 215.329 362.982 216.823C365.773 218.02 368.068 220.144 369.482 222.837C370.782 225.343 371.382 231.257 371.382 240.379V413.998C371.382 423.019 370.782 428.833 369.482 431.44C368.182 434.046 367.482 436.352 364.382 437.755C361.282 439.158 361.182 439.058 352.582 439.058H352.482L317.482 487.174H404.482V551.329H445.482V487.174H477.482V551.329H517.482V486.773C543.482 485.47 561.982 482.062 576.882 476.448C596.182 469.231 610.982 458.705 621.582 444.872C632.182 431.039 636.482 409.888 637.382 393.548C638.082 379.013 636.482 360.268 631.982 350.044ZM445.482 220.531H445.492V219.198H473.452C489.182 219.198 541.602 213.946 542.472 256.859C543.352 299.772 473.452 298.018 473.452 298.018H445.492V294.71H445.482V220.531ZM445.482 342.826H477.482C483.982 342.826 506.342 343.819 514.482 344.189C517.801 344.31 521.086 344.898 524.242 345.934C525.392 346.325 526.482 346.766 527.662 347.257C532.594 348.855 537.247 351.215 541.452 354.254C544.193 356.069 546.605 358.34 548.582 360.97C549.438 362.157 550.226 363.392 550.942 364.669C552.835 367.88 554.241 371.357 555.112 374.984C556.065 378.487 556.559 382.099 556.582 385.73C556.582 393.538 555.142 400.004 551.592 405.477C546.782 413.557 538.892 419.28 530.012 423.32C507.052 433.785 477.482 433.044 477.482 433.044H445.482V342.826Z" fill="#3F3D56"/>
<path opacity="0.3" d="M610.141 33.4271C609.838 32.6758 609.28 32.0558 608.566 31.6759C608.122 31.4149 607.642 31.2189 607.142 31.0942C607.479 30.9315 607.788 30.7154 608.056 30.4543C608.455 30.0822 608.756 29.6164 608.931 29.0988C609.094 28.5681 609.16 28.0124 609.127 27.4582C609.124 26.5378 608.868 25.6359 608.387 24.8519C607.85 24.1355 607.118 23.59 606.279 23.2811C605.464 22.9644 604.602 22.7893 603.728 22.7634V19.0459L601.486 20.5003V22.7692H599.692V20.384L597.394 19.0459V22.7692H592.511L594.08 25.5616C594.413 25.5388 594.747 25.5843 595.061 25.6954C595.219 25.7663 595.348 25.8896 595.426 26.0445C595.521 26.3748 595.558 26.7196 595.532 27.0626V37.1386C595.557 37.4797 595.521 37.8224 595.426 38.1509C595.353 38.3021 595.314 38.4359 595.14 38.5174C594.966 38.5988 594.961 38.593 594.478 38.593H594.473L592.511 41.3855H597.388V45.1087H599.686V41.3855H601.48V45.1087H603.723V41.3622C604.857 41.342 605.982 41.1396 607.053 40.763C608.047 40.407 608.917 39.7706 609.558 38.9304C610.118 38.0365 610.424 37.0069 610.444 35.9518C610.503 35.0986 610.401 34.2419 610.141 33.4271V33.4271ZM599.686 25.9108H599.687V25.8334H601.254C602.136 25.8334 605.075 25.5286 605.124 28.0191C605.173 30.5096 601.254 30.4078 601.254 30.4078H599.687V30.2158H599.686V25.9108ZM599.686 33.0082H601.48C601.845 33.0082 603.098 33.0658 603.555 33.0873C603.741 33.0944 603.925 33.1285 604.102 33.1886C604.166 33.2113 604.227 33.2369 604.293 33.2654C604.571 33.3587 604.832 33.4957 605.066 33.6714C605.221 33.7775 605.356 33.9094 605.466 34.0612C605.636 34.308 605.76 34.5835 605.832 34.8745C605.886 35.0781 605.913 35.2876 605.915 35.4982C605.933 35.8992 605.836 36.2971 605.635 36.6442C605.347 37.1055 604.925 37.467 604.425 37.6797C603.491 38.0632 602.49 38.2551 601.48 38.2441H599.686V33.0082Z" fill="#00BFA6"/>
<path d="M748.13 398.093C754.608 398.093 759.86 392.829 759.86 386.335C759.86 379.842 754.608 374.578 748.13 374.578C741.653 374.578 736.401 379.842 736.401 386.335C736.401 392.829 741.653 398.093 748.13 398.093Z" fill="#FF6584"/>
<path d="M840.596 514.324V380.452" stroke="#3F3D56" stroke-width="2" stroke-miterlimit="10"/>
<path d="M840.596 399.384C851.026 399.384 859.482 390.908 859.482 380.452C859.482 369.997 851.026 361.521 840.596 361.521C830.166 361.521 821.71 369.997 821.71 380.452C821.71 390.908 830.166 399.384 840.596 399.384Z" fill="#3F3D56"/>
<path d="M803.401 455.408C776.122 497.344 783.596 550.681 783.596 550.681C783.596 550.681 835.3 536.026 862.58 494.091C889.859 452.155 882.385 398.818 882.385 398.818C882.385 398.818 830.681 413.473 803.401 455.408Z" fill="#3F3D56"/>
<path d="M783.451 550.193C783.451 550.193 782.787 550.087 781.565 549.839C780.59 549.64 779.248 549.357 777.608 548.968C762.956 545.504 724.001 533.798 698.532 503.02C666.655 464.48 667.998 410.637 667.998 410.637C667.998 410.637 716.738 418.576 748.855 453.185C750.246 454.672 751.6 456.213 752.917 457.809C780.653 491.342 783.239 536.461 783.444 547.615C783.472 549.286 783.451 550.193 783.451 550.193Z" fill="#00BFA6"/>
<path d="M763.791 455.408C791.071 497.344 783.596 550.681 783.596 550.681C783.596 550.681 731.893 536.026 704.613 494.091C677.333 452.155 684.808 398.818 684.808 398.818C684.808 398.818 736.512 413.473 763.791 455.408Z" stroke="#3F3D56" stroke-width="2" stroke-miterlimit="10"/>
<path opacity="0.1" d="M783.444 547.615C782.723 548.486 782.088 549.23 781.565 549.839C780.406 551.163 779.749 551.857 779.749 551.857C779.749 551.857 778.951 550.851 777.609 548.968C770.24 538.671 746.537 502.057 748.367 459.764C748.466 457.547 748.629 455.354 748.855 453.185C750.246 454.672 751.601 456.214 752.917 457.809C780.653 491.342 783.239 536.461 783.444 547.615Z" fill="black"/>
<path d="M823.893 462.822C821.736 512.839 784.697 551.857 784.697 551.857C784.697 551.857 751.154 509.782 753.31 459.765C755.466 409.748 792.506 370.73 792.506 370.73C792.506 370.73 826.049 412.805 823.893 462.822Z" fill="#00BFA6"/>
<path d="M784.697 550.441L792.84 372.77" stroke="#3F3D56" stroke-width="2" stroke-miterlimit="10"/>
<path d="M55.4717 550.636H901.492" stroke="#3F3D56" stroke-width="2" stroke-miterlimit="10"/>
<path d="M235.156 333.96C258.755 333.96 277.885 314.783 277.885 291.127C277.885 267.471 258.755 248.294 235.156 248.294C211.557 248.294 192.426 267.471 192.426 291.127C192.426 314.783 211.557 333.96 235.156 333.96Z" fill="#00BFA6"/>
<path d="M162.526 434.767C186.125 434.767 205.256 415.59 205.256 391.934C205.256 368.278 186.125 349.101 162.526 349.101C138.927 349.101 119.796 368.278 119.796 391.934C119.796 415.59 138.927 434.767 162.526 434.767Z" fill="#00BFA6"/>
<path d="M73.1356 515.272C96.7346 515.272 115.865 496.095 115.865 472.439C115.865 448.783 96.7346 429.606 73.1356 429.606C49.5366 429.606 30.4058 448.783 30.4058 472.439C30.4058 496.095 49.5366 515.272 73.1356 515.272Z" fill="#00BFA6"/>
<path d="M73.0977 549.901V472.204" stroke="#3F3D56" stroke-width="2" stroke-miterlimit="10"/>
<path d="M73.0976 483.191C79.1512 483.191 84.0587 478.272 84.0587 472.204C84.0587 466.136 79.1512 461.217 73.0976 461.217C67.044 461.217 62.1366 466.136 62.1366 472.204C62.1366 478.272 67.044 483.191 73.0976 483.191Z" fill="#3F3D56"/>
<path d="M73.0976 520.09C73.0976 520.09 71.5318 486.331 39.4316 490.255Z" fill="#3F3D56"/>
<path d="M235.182 550.446V291.284" stroke="#3F3D56" stroke-width="2" stroke-miterlimit="10"/>
<path d="M235.182 302.149C241.236 302.149 246.143 297.23 246.143 291.161C246.143 285.093 241.236 280.174 235.182 280.174C229.129 280.174 224.221 285.093 224.221 291.161C224.221 297.23 229.129 302.149 235.182 302.149Z" fill="#3F3D56"/>
<path d="M201.516 489.654C207.57 489.654 212.477 484.735 212.477 478.667C212.477 472.598 207.57 467.679 201.516 467.679C195.463 467.679 190.555 472.598 190.555 478.667C190.555 484.735 195.463 489.654 201.516 489.654Z" fill="#3F3D56"/>
<path d="M235.182 347.286C235.182 347.286 233.616 313.527 201.516 317.451Z" fill="#3F3D56"/>
<path d="M235.182 442.991C235.182 442.991 233.616 409.231 201.516 413.156Z" fill="#3F3D56"/>
<path d="M235.182 547.426C235.182 547.426 242.229 481.806 201.516 478.667" stroke="#3F3D56" stroke-width="2" stroke-miterlimit="10"/>
<path d="M268.853 489.654C274.907 489.654 279.814 484.735 279.814 478.667C279.814 472.598 274.907 467.679 268.853 467.679C262.8 467.679 257.892 472.598 257.892 478.667C257.892 484.735 262.8 489.654 268.853 489.654Z" fill="#3F3D56"/>
<path d="M235.187 547.426C235.187 547.426 228.141 481.806 268.853 478.667" stroke="#3F3D56" stroke-width="2" stroke-miterlimit="10"/>
<path d="M269.521 386.587C275.574 386.587 280.482 381.668 280.482 375.6C280.482 369.531 275.574 364.612 269.521 364.612C263.467 364.612 258.56 369.531 258.56 375.6C258.56 381.668 263.467 386.587 269.521 386.587Z" fill="#3F3D56"/>
<path d="M235.855 440.859C235.855 440.859 228.808 378.739 269.521 375.6" stroke="#3F3D56" stroke-width="2" stroke-miterlimit="10"/>
<path d="M162.565 550.081V391.886" stroke="#3F3D56" stroke-width="2" stroke-miterlimit="10"/>
<path d="M162.565 402.874C168.619 402.874 173.526 397.954 173.526 391.886C173.526 385.818 168.619 380.898 162.565 380.898C156.511 380.898 151.604 385.818 151.604 391.886C151.604 397.954 156.511 402.874 162.565 402.874Z" fill="#3F3D56"/>
<path d="M162.565 436.633C162.565 436.633 160.999 402.873 128.899 406.797Z" fill="#3F3D56"/>
<path d="M162.565 547.061C162.565 547.061 169.611 482.14 128.899 479.001" stroke="#3F3D56" stroke-width="2" stroke-miterlimit="10"/>
<path d="M128.899 489.989C134.953 489.989 139.86 485.069 139.86 479.001C139.86 472.933 134.953 468.014 128.899 468.014C122.845 468.014 117.938 472.933 117.938 479.001C117.938 485.069 122.845 489.989 128.899 489.989Z" fill="#3F3D56"/>
<path d="M764.482 309.746C774.423 309.746 782.482 301.668 782.482 291.703C782.482 281.738 774.423 273.659 764.482 273.659C754.541 273.659 746.482 281.738 746.482 291.703C746.482 301.668 754.541 309.746 764.482 309.746Z" fill="#F2F2F2"/>
<path opacity="0.1" d="M530.012 423.32C507.052 433.785 477.482 433.044 477.482 433.044H445.482V426.919C458.522 423.27 476.552 421.015 496.482 421.015C507.699 420.975 518.905 421.746 530.012 423.32V423.32Z" fill="black"/>
<path opacity="0.1" d="M568.482 441.063C568.482 452.14 536.242 461.111 496.482 461.111C456.722 461.111 424.482 452.14 424.482 441.063C424.482 435.54 432.502 430.538 445.482 426.919V433.044H477.482C477.482 433.044 507.052 433.785 530.012 423.32C552.882 426.668 568.482 433.354 568.482 441.063Z" fill="black"/>
<path d="M505.678 316.232H475.043V346.995H505.678V316.232Z" fill="#2F2E41"/>
<path d="M486.435 337.987C486.435 337.987 488.971 346.883 484.534 347.519C481.78 347.949 479.17 349.039 476.927 350.696L485.168 361.499H500.382L509.891 351.967C509.891 351.967 497.212 342.435 499.748 336.716C502.284 330.997 486.435 337.987 486.435 337.987Z" fill="#FFB9B9"/>
<path opacity="0.1" d="M486.435 337.987C486.435 337.987 488.971 346.883 484.534 347.519C481.78 347.949 479.17 349.039 476.927 350.696L485.168 361.499H500.382L509.891 351.967C509.891 351.967 497.212 342.435 499.748 336.716C502.284 330.997 486.435 337.987 486.435 337.987Z" fill="black"/>
<path d="M490.239 448.558L504.82 453.641L514.962 454.277L514.328 445.38L493.409 439.178L490.239 448.558Z" fill="#FFB9B9"/>
<path d="M508.94 446.651C508.94 446.651 508.94 455.548 510.208 455.548C511.476 455.548 528.592 453.641 533.663 455.548C538.735 457.454 546.342 450.464 542.538 446.651C538.735 442.839 532.531 437.119 528.659 438.39C524.788 439.661 508.94 442.839 508.94 442.839L508.94 446.651Z" fill="#2F2E41"/>
<path d="M462.346 438.39C462.346 438.39 454.739 453.641 459.81 454.912C464.882 456.183 470.587 454.277 471.221 453.641C471.855 453.006 480.73 450.464 481.998 451.735C483.266 453.006 483.266 446.651 483.266 446.651L462.346 438.39Z" fill="#2F2E41"/>
<path d="M468.685 417.42C468.685 417.42 456.641 433.942 465.516 438.39C474.391 442.839 516.864 442.839 520.034 438.39C523.204 433.942 524.471 419.962 520.034 418.691C515.596 417.42 468.685 417.42 468.685 417.42Z" fill="#2F2E41"/>
<path opacity="0.2" d="M468.685 417.42C468.685 417.42 456.641 433.942 465.516 438.39C474.391 442.839 516.864 442.839 520.034 438.39C523.204 433.942 524.471 419.962 520.034 418.691C515.596 417.42 468.685 417.42 468.685 417.42Z" fill="black"/>
<path d="M491.507 342.435C499.56 342.435 506.087 335.892 506.087 327.82C506.087 319.748 499.56 313.204 491.507 313.204C483.454 313.204 476.927 319.748 476.927 327.82C476.927 335.892 483.454 342.435 491.507 342.435Z" fill="#FFB9B9"/>
<path d="M468.685 350.696L481.364 348.155C481.364 348.155 484.534 358.322 494.677 356.416C504.819 354.509 507.355 348.155 507.355 348.155C507.355 348.155 514.962 351.332 515.596 351.332C516.23 351.332 524.471 354.509 524.471 356.416C524.471 358.322 514.962 377.386 514.962 377.386L516.23 411.701L469.319 410.43L472.489 376.75L468.685 350.696Z" fill="#00BFA6"/>
<path d="M461.712 367.218C461.712 367.218 457.909 400.898 460.444 403.44C462.98 405.982 473.123 412.972 473.123 412.972V405.346L468.051 395.814L473.123 373.573L461.712 367.218Z" fill="#FFB9B9"/>
<path d="M527.324 366.265C527.324 366.265 525.105 400.898 525.105 402.169C525.105 403.44 519.4 407.888 517.498 407.888C515.596 407.888 514.328 404.711 514.328 404.711L518.766 399.627L515.596 373.573L527.324 366.265Z" fill="#FFB9B9"/>
<path d="M521.302 414.878C521.302 414.878 549.829 398.992 550.463 414.878C551.097 430.765 535.882 437.119 535.882 437.119C535.882 437.119 496.578 448.934 494.994 444.615C493.409 440.297 490.239 433.307 492.775 432.671C495.31 432.036 498.48 430.765 499.748 432.036C501.016 433.307 516.864 422.504 516.864 422.504L521.302 414.878Z" fill="#2F2E41"/>
<path opacity="0.2" d="M534.614 412.972C534.614 412.972 528.909 415.514 527.007 417.42C525.105 419.326 516.864 422.504 516.864 422.504" stroke="black" stroke-width="2" stroke-miterlimit="10"/>
<path d="M472.489 351.967L468.685 350.696C468.685 350.696 454.739 365.312 459.176 369.125C463.614 372.938 466.15 374.209 467.417 375.479C468.685 376.75 475.025 377.386 475.025 377.386L472.489 351.967Z" fill="#00BFA6"/>
<path d="M518.766 355.145L524.471 356.416C524.471 356.416 528.909 365.948 530.177 367.218C531.445 368.489 528.275 367.854 526.373 370.396C524.471 372.938 522.57 377.386 518.766 377.386C514.962 377.386 509.891 371.031 509.891 371.031L518.766 355.145Z" fill="#00BFA6"/>
<path d="M469.953 420.597C469.953 420.597 445.864 403.44 437.623 416.149C429.382 428.858 473.123 446.016 479.462 448.558C485.802 451.1 491.507 453.641 491.507 453.641C491.507 453.641 497.212 439.661 497.212 437.119C497.212 434.577 492.775 434.577 491.507 434.577C490.239 434.577 484.534 433.307 483.266 431.4C481.998 429.494 469.953 420.597 469.953 420.597Z" fill="#2F2E41"/>
<path opacity="0.2" d="M456.641 416.149C456.641 416.149 462.98 421.233 468.685 422.504C474.391 423.775 476.293 426.952 476.293 426.952" stroke="black" stroke-width="2" stroke-miterlimit="10"/>
<path d="M465.58 392.256L466.087 419.162C466.103 420.05 466.47 420.897 467.106 421.516C467.743 422.135 468.597 422.476 469.484 422.466L519.433 421.904C520.285 421.894 521.1 421.561 521.716 420.972C522.332 420.383 522.701 419.581 522.75 418.73L524.266 392.386C524.293 391.929 524.225 391.47 524.069 391.039C523.912 390.608 523.669 390.214 523.355 389.88C523.041 389.547 522.662 389.281 522.242 389.1C521.822 388.918 521.369 388.824 520.912 388.824H468.94C468.493 388.824 468.051 388.913 467.639 389.087C467.228 389.26 466.854 389.514 466.542 389.833C466.229 390.153 465.983 390.532 465.818 390.948C465.653 391.364 465.572 391.808 465.58 392.256V392.256Z" fill="#575A89"/>
<path d="M459.803 350.857C461.163 347.847 462.991 345.023 463.862 341.837C464.907 338.018 464.5 333.977 464.376 330.019C464.177 326.519 464.475 323.008 465.259 319.591C466.056 316.158 467.845 313.037 470.402 310.617C477.045 304.672 489.203 304.245 497.316 306.72C500.514 307.696 503.92 309.554 504.713 312.809C504.833 313.3 504.887 313.807 505.02 314.295C505.684 316.718 508.158 318.252 509.05 320.601C510.205 323.639 508.425 326.943 508.192 330.185C507.921 333.971 509.777 337.547 511.607 340.87C512.695 342.845 513.826 344.949 513.718 347.203C513.628 348.436 513.254 349.631 512.626 350.694C511.46 352.622 509.824 354.222 507.873 355.343C505.922 356.464 503.718 357.071 501.469 357.105C500.008 357.222 498.546 356.876 497.291 356.116C495.311 354.749 494.731 351.998 495.143 349.624C495.556 347.25 496.758 345.103 497.7 342.886C497.989 342.206 498.25 341.514 498.49 340.816C501.411 339.181 503.661 336.565 504.844 333.429C506.027 330.293 506.067 326.839 504.956 323.676C503.845 320.514 501.655 317.847 498.773 316.146C495.89 314.445 492.501 313.819 489.203 314.38C485.906 314.941 482.912 316.651 480.75 319.21C478.589 321.769 477.399 325.011 477.39 328.364C477.382 331.716 478.555 334.964 480.704 337.534C482.853 340.103 485.838 341.829 489.133 342.407C489.843 345.993 489.52 349.708 488.202 353.117C487.004 355.891 485.499 358.522 483.715 360.959C482.986 362.209 482.014 363.299 480.857 364.166C480.094 364.618 479.276 364.969 478.422 365.208C474.841 366.363 471.071 367.291 467.345 366.772C463.62 366.253 459.93 364 458.661 360.451C457.549 357.341 458.442 353.866 459.803 350.857Z" fill="#2F2E41"/>
<path d="M490.801 328.403C499.346 328.403 506.274 324.467 506.274 319.613C506.274 314.759 499.346 310.824 490.801 310.824C482.255 310.824 475.327 314.759 475.327 319.613C475.327 324.467 482.255 328.403 490.801 328.403Z" fill="#2F2E41"/>
<path opacity="0.3" d="M771.211 292.752C770.975 292.168 770.542 291.686 769.987 291.391C769.641 291.188 769.269 291.036 768.88 290.939C769.142 290.812 769.382 290.645 769.59 290.442C769.901 290.153 770.134 289.791 770.27 289.388C770.397 288.976 770.448 288.544 770.422 288.114C770.42 287.398 770.221 286.698 769.847 286.088C769.43 285.532 768.862 285.108 768.21 284.868C767.576 284.622 766.906 284.486 766.227 284.465V281.577L764.485 282.707V284.47H763.091V282.616L761.305 281.577V284.47H757.511L758.731 286.64C758.989 286.622 759.248 286.657 759.493 286.744C759.616 286.799 759.716 286.895 759.776 287.015C759.85 287.272 759.878 287.54 759.859 287.806V295.636C759.878 295.901 759.85 296.167 759.776 296.422C759.719 296.54 759.689 296.644 759.554 296.707C759.419 296.771 759.414 296.766 759.04 296.766H759.035L757.511 298.936H761.301V301.829H763.087V298.936H764.481V301.829H766.223V298.918C767.105 298.902 767.978 298.745 768.811 298.452C769.583 298.176 770.259 297.681 770.758 297.028C771.192 296.334 771.43 295.534 771.446 294.714C771.492 294.051 771.412 293.385 771.211 292.752V292.752ZM763.087 286.911H763.087V286.851H764.305C764.99 286.851 767.274 286.614 767.312 288.549C767.35 290.485 764.305 290.406 764.305 290.406H763.087V290.256H763.087V286.911ZM763.087 292.426H764.481C764.764 292.426 765.738 292.471 766.092 292.488C766.237 292.493 766.38 292.52 766.518 292.566C766.568 292.584 766.615 292.604 766.667 292.626C766.882 292.699 767.085 292.805 767.267 292.942C767.387 293.024 767.492 293.126 767.578 293.244C767.71 293.436 767.806 293.65 767.862 293.876C767.904 294.035 767.925 294.198 767.926 294.361C767.941 294.673 767.865 294.982 767.709 295.252C767.485 295.61 767.157 295.891 766.769 296.056C766.043 296.354 765.265 296.503 764.481 296.495H763.087V292.426Z" fill="#00BFA6"/>
<path d="M62.4819 372.899C72.423 372.899 80.4819 364.82 80.4819 354.855C80.4819 344.89 72.423 336.812 62.4819 336.812C52.5407 336.812 44.4819 344.89 44.4819 354.855C44.4819 364.82 52.5407 372.899 62.4819 372.899Z" fill="#F2F2F2"/>
<path opacity="0.3" d="M69.211 355.904C68.9753 355.32 68.5418 354.838 67.9869 354.543C67.6415 354.34 67.2689 354.188 66.8804 354.091C67.1422 353.965 67.3819 353.797 67.5904 353.594C67.9007 353.305 68.1342 352.943 68.27 352.541C68.3966 352.128 68.4482 351.696 68.4224 351.266C68.4202 350.55 68.2213 349.85 67.8474 349.24C67.4303 348.684 66.8615 348.26 66.2095 348.02C65.5765 347.774 64.9062 347.638 64.2274 347.618V344.729L62.485 345.859V347.622H61.091V345.769L59.305 344.729V347.622H55.5107L56.7305 349.792C56.989 349.774 57.2484 349.81 57.4928 349.896C57.6155 349.951 57.7155 350.047 57.776 350.167C57.8503 350.424 57.8783 350.692 57.8587 350.958V358.788C57.8777 359.053 57.8497 359.319 57.776 359.575C57.7193 359.692 57.6888 359.796 57.5538 359.859C57.4188 359.923 57.4144 359.918 57.0398 359.918H57.0354L55.5108 362.088H59.3007V364.981H61.0867V362.088H62.4807V364.981H64.2231V362.07C65.1049 362.054 65.9785 361.897 66.8107 361.604C67.5831 361.328 68.2593 360.833 68.7579 360.18C69.1925 359.486 69.4305 358.686 69.4462 357.866C69.4921 357.203 69.4123 356.537 69.211 355.904ZM61.0867 350.063H61.0871V350.003H62.3051C62.9904 350.003 65.2739 349.766 65.3118 351.702C65.3501 353.637 62.3051 353.558 62.3051 353.558H61.0871V353.408H61.0867L61.0867 350.063ZM61.0867 355.578H62.4807C62.7638 355.578 63.7379 355.623 64.0925 355.64C64.2372 355.645 64.3804 355.672 64.5176 355.719C64.5677 355.736 64.6152 355.756 64.6666 355.778C64.8823 355.851 65.0851 355.957 65.2673 356.094C65.3874 356.176 65.4924 356.279 65.5779 356.397C65.71 356.588 65.8063 356.802 65.8624 357.029C65.9039 357.187 65.9254 357.35 65.9264 357.513C65.9408 357.825 65.8653 358.134 65.709 358.404C65.4853 358.762 65.1572 359.043 64.769 359.208C64.0431 359.506 63.265 359.656 62.4807 359.647H61.0867L61.0867 355.578Z" fill="#00BFA6"/>
</svg>
