<svg width="212" height="32" viewBox="0 0 212 32" fill="none" xmlns="http://www.w3.org/2000/svg">
<path d="M14.8993 0.000976562H25.9842V31.9703H14.8993V0.000976562Z" fill="#6C63FF"/>
<path d="M14.8993 0.000976562H42.6065V5.34886H14.8993V0.000976562Z" fill="#6C63FF"/>
<path d="M14.8991 26.6226H42.6064V31.9704H14.8991V26.6226Z" fill="#6C63FF"/>
<path d="M26.0736 15.9854L31.5489 10.4601V21.5107L26.0736 15.9854Z" fill="#6C63FF"/>
<path fill-rule="evenodd" clip-rule="evenodd" d="M42.6063 0.000976562H31.5214V31.9703H42.6063V19.8997L38.4333 15.9856L42.6063 12.0716V0.000976562Z" fill="#6C63FF"/>
<path fill-rule="evenodd" clip-rule="evenodd" d="M11.0849 0.000976562H0V5.21538L11.0849 10.7361L0 16.2568V31.9703H11.0849V10.7361V0.000976562Z" fill="white"/>
<path d="M58.8033 19.5984H48.5668V15.6787H51.1259V3.91967H48.5668V0H58.8033V3.91967H56.2442V15.6787H58.8033V19.5984Z" fill="white"/>
<path d="M78.4211 8.67927L74.4403 15.6787H70.4594L66.4785 8.67927V19.5984H61.3602V0H66.7628L72.4498 10.3591L78.1368 0H83.5394V19.5984H78.4211V8.67927Z" fill="white"/>
<path d="M102.317 19.3184C98.0902 19.6917 94.5832 19.8783 91.7966 19.8783C89.9389 19.8783 88.574 19.449 87.702 18.5904C86.83 17.7318 86.394 16.388 86.394 14.5588V5.59953C86.394 3.63969 86.8395 2.22115 87.7304 1.34389C88.6403 0.447962 90.0905 0 92.0809 0H102.317V3.91967H93.2183C92.081 3.91967 91.5123 4.47962 91.5123 5.59953V14.5588C91.5123 14.9881 91.6355 15.3334 91.8819 15.5947C92.1473 15.8373 92.479 15.9587 92.8771 15.9587C93.2752 15.9587 93.7112 15.9587 94.1851 15.9587C94.659 15.94 95.1519 15.9213 95.6637 15.9027C96.1756 15.884 96.6874 15.8653 97.1992 15.8467C97.73 15.828 98.403 15.7907 99.2181 15.7347C100.052 15.6787 101.085 15.6134 102.317 15.5387V19.3184Z" fill="white"/>
<path d="M108.15 19.5984H102.605L110.14 0H115.827L123.363 19.5984H117.818L116.538 16.0986H109.43L108.15 19.5984ZM110.709 12.459H115.259L112.984 5.87951L110.709 12.459Z" fill="white"/>
<path d="M133.308 0H144.682C146.54 0 147.905 0.419965 148.777 1.25989C149.649 2.08116 150.085 3.34105 150.085 5.03958C150.085 6.15948 149.838 7.07407 149.345 7.78335C148.852 8.47395 148.246 8.95925 147.526 9.23922C149.061 9.64985 150.104 10.6578 150.653 12.263C150.843 12.8416 150.938 13.5135 150.938 14.2788C150.938 16.108 150.502 17.4519 149.63 18.3105C148.758 19.1691 147.393 19.5984 145.535 19.5984H133.308V0ZM145.819 13.4389C145.819 12.319 145.251 11.759 144.113 11.759H138.426V15.6787H144.113C145.251 15.6787 145.819 15.1187 145.819 13.9988V13.4389ZM144.966 5.59953C144.966 4.47962 144.398 3.91967 143.26 3.91967H138.426V7.83934H143.26C144.398 7.83934 144.966 7.27939 144.966 6.15948V5.59953Z" fill="white"/>
<path d="M157.05 19.5984H151.505L159.041 0H164.728L172.263 19.5984H166.718L165.438 16.0986H158.33L157.05 19.5984ZM159.609 12.459H164.159L161.884 5.87951L159.609 12.459Z" fill="white"/>
<path d="M191.029 19.5984H185.626L178.802 7.83934V19.5984H173.683V0H179.086L185.91 11.759V0H191.029V19.5984Z" fill="white"/>
<path d="M199.572 19.5984H194.454V0H199.572V7.69935H202.132L206.567 0H211.97L206.397 9.65919L211.942 19.5984H206.539L202.132 11.619H199.572V19.5984Z" fill="white"/>
<path d="M49.2751 23.8622L51.6088 29.3741L53.9512 23.8622H54.6639V30.1076H54.1294V27.3881L54.1728 24.6L51.8174 30.1076H51.4046L49.0578 24.6214L49.1013 27.371V30.1076H48.5668V23.8622H49.2751Z" fill="white"/>
<path d="M60.271 30.1076C60.2188 29.9618 60.1855 29.7459 60.171 29.4599C59.9885 29.6944 59.7553 29.876 59.4713 30.0047C59.1903 30.1305 58.8919 30.1934 58.5761 30.1934C58.1242 30.1934 57.7577 30.069 57.4766 29.8202C57.1985 29.5714 57.0594 29.2569 57.0594 28.8765C57.0594 28.4247 57.2492 28.0673 57.6287 27.8042C58.0112 27.5411 58.5428 27.4096 59.2236 27.4096H60.1667V26.882C60.1667 26.5502 60.0624 26.29 59.8538 26.1013C59.6481 25.9097 59.3468 25.8139 58.9499 25.8139C58.5877 25.8139 58.2879 25.9054 58.0503 26.0884C57.8127 26.2714 57.6939 26.4916 57.6939 26.749L57.1724 26.7447C57.1724 26.3758 57.3463 26.057 57.6939 25.7882C58.0416 25.5165 58.4689 25.3807 58.9759 25.3807C59.5003 25.3807 59.9132 25.5108 60.2145 25.771C60.5187 26.0284 60.6751 26.3887 60.6838 26.8519V29.0481C60.6838 29.4971 60.7316 29.8331 60.8272 30.0561V30.1076H60.271ZM58.637 29.7387C58.9846 29.7387 59.2946 29.6558 59.567 29.4899C59.8422 29.3241 60.0421 29.1025 60.1667 28.8251V27.8042H59.2367C58.7181 27.8099 58.3125 27.9043 58.0199 28.0873C57.7272 28.2674 57.5809 28.5162 57.5809 28.8336C57.5809 29.0939 57.678 29.3098 57.8721 29.4814C58.0691 29.6529 58.3241 29.7387 58.637 29.7387Z" fill="white"/>
<path d="M64.3483 27.7699L63.753 28.3361V30.1076H63.2315V23.519H63.753V27.7356L64.244 27.2122L66.0432 25.4664H66.6994L64.7047 27.4224L66.8732 30.1076H66.2518L64.3483 27.7699Z" fill="white"/>
<path d="M69.334 30.1076H68.8125V25.4664H69.334V30.1076ZM68.7212 24.1239C68.7212 24.0266 68.7531 23.9451 68.8168 23.8794C68.8806 23.8107 68.9675 23.7764 69.0776 23.7764C69.1877 23.7764 69.2746 23.8107 69.3383 23.8794C69.405 23.9451 69.4383 24.0266 69.4383 24.1239C69.4383 24.2211 69.405 24.3026 69.3383 24.3684C69.2746 24.4341 69.1877 24.467 69.0776 24.467C68.9675 24.467 68.8806 24.4341 68.8168 24.3684C68.7531 24.3026 68.7212 24.2211 68.7212 24.1239Z" fill="white"/>
<path d="M72.4031 25.4664L72.4205 26.26C72.5973 25.974 72.8174 25.7567 73.0811 25.608C73.3447 25.4564 73.6359 25.3807 73.9546 25.3807C74.4587 25.3807 74.8339 25.5208 75.0801 25.801C75.3264 26.0813 75.451 26.5016 75.4539 27.0621V30.1076H74.9367V27.0578C74.9338 26.6432 74.844 26.3343 74.6673 26.1313C74.4935 25.9283 74.2139 25.8268 73.8286 25.8268C73.507 25.8268 73.2216 25.9268 72.9724 26.127C72.7262 26.3243 72.5437 26.5917 72.4249 26.9291V30.1076H71.9077V25.4664H72.4031Z" fill="white"/>
<path d="M77.7495 27.7441C77.7495 27.0178 77.9117 26.443 78.2362 26.0198C78.5636 25.5937 79.0069 25.3807 79.566 25.3807C80.2063 25.3807 80.693 25.6323 81.0262 26.1356L81.0523 25.4664H81.539V30.0132C81.539 30.6109 81.3695 31.0842 81.0305 31.433C80.6916 31.7819 80.2324 31.9564 79.6529 31.9564C79.3255 31.9564 79.0126 31.8834 78.7142 31.7376C78.4187 31.5946 78.1855 31.403 78.0146 31.1628L78.3057 30.854C78.6737 31.3001 79.1112 31.5231 79.6182 31.5231C80.0527 31.5231 80.3917 31.3959 80.6351 31.1414C80.8784 30.8897 81.0045 30.5394 81.0131 30.0905V29.5071C80.68 29.9646 80.1947 30.1934 79.5573 30.1934C79.0126 30.1934 78.5752 29.9789 78.2449 29.55C77.9146 29.121 77.7495 28.542 77.7495 27.8128V27.7441ZM78.2753 27.8342C78.2753 28.4262 78.3955 28.8937 78.636 29.2369C78.8765 29.5772 79.2155 29.7473 79.6529 29.7473C80.2932 29.7473 80.7466 29.4642 81.0131 28.898V26.7404C80.8915 26.443 80.7162 26.2171 80.4873 26.0627C80.2584 25.9054 79.9832 25.8268 79.6616 25.8268C79.2241 25.8268 78.8837 25.9969 78.6404 26.3372C78.397 26.6746 78.2753 27.1736 78.2753 27.8342Z" fill="white"/>
<path d="M87.4948 30.1076V23.8622H89.3635C90.0414 23.8622 90.5556 24.0009 90.9062 24.2783C91.2568 24.5528 91.432 24.9589 91.432 25.4965C91.432 25.8196 91.3422 26.1013 91.1626 26.3415C90.9859 26.5788 90.7425 26.749 90.4325 26.8519C90.8005 26.932 91.096 27.1107 91.319 27.3881C91.545 27.6655 91.658 27.9858 91.658 28.3489C91.658 28.9008 91.4769 29.3327 91.1148 29.6444C90.7556 29.9532 90.2543 30.1076 89.6112 30.1076H87.4948ZM88.0293 27.105V29.6615H89.6329C90.0906 29.6615 90.4528 29.5471 90.7193 29.3184C90.9888 29.0867 91.1235 28.7664 91.1235 28.3575C91.1235 27.9715 90.9946 27.6669 90.7367 27.4439C90.4818 27.218 90.1283 27.105 89.6763 27.105H88.0293ZM88.0293 26.6632H89.4895C89.9356 26.6546 90.2804 26.5517 90.5238 26.3544C90.77 26.1542 90.8932 25.8639 90.8932 25.4836C90.8932 25.0833 90.7657 24.7887 90.5107 24.6C90.2587 24.4084 89.8763 24.3126 89.3635 24.3126H88.0293V26.6632Z" fill="white"/>
<path d="M96.9566 30.1076C96.9044 29.9618 96.8711 29.7459 96.8566 29.4599C96.6741 29.6944 96.4409 29.876 96.1569 30.0047C95.8759 30.1305 95.5775 30.1934 95.2617 30.1934C94.8097 30.1934 94.4433 30.069 94.1622 29.8202C93.8841 29.5714 93.745 29.2569 93.745 28.8765C93.745 28.4247 93.9348 28.0673 94.3143 27.8042C94.6968 27.5411 95.2284 27.4096 95.9092 27.4096H96.8523V26.882C96.8523 26.5502 96.748 26.29 96.5394 26.1013C96.3337 25.9097 96.0324 25.8139 95.6354 25.8139C95.2733 25.8139 94.9734 25.9054 94.7359 26.0884C94.4983 26.2714 94.3795 26.4916 94.3795 26.749L93.858 26.7447C93.858 26.3758 94.0319 26.057 94.3795 25.7882C94.7272 25.5165 95.1545 25.3807 95.6615 25.3807C96.1859 25.3807 96.5988 25.5108 96.9001 25.771C97.2043 26.0284 97.3607 26.3887 97.3694 26.8519V29.0481C97.3694 29.4971 97.4172 29.8331 97.5128 30.0561V30.1076H96.9566ZM95.3226 29.7387C95.6702 29.7387 95.9802 29.6558 96.2525 29.4899C96.5278 29.3241 96.7277 29.1025 96.8523 28.8251V27.8042H95.9223C95.4037 27.8099 94.9981 27.9043 94.7055 28.0873C94.4128 28.2674 94.2665 28.5162 94.2665 28.8336C94.2665 29.0939 94.3636 29.3098 94.5577 29.4814C94.7547 29.6529 95.0097 29.7387 95.3226 29.7387Z" fill="white"/>
<path d="M100.412 25.4664L100.43 26.26C100.607 25.974 100.827 25.7567 101.09 25.608C101.354 25.4564 101.645 25.3807 101.964 25.3807C102.468 25.3807 102.843 25.5208 103.089 25.801C103.336 26.0813 103.46 26.5016 103.463 27.0621V30.1076H102.946V27.0578C102.943 26.6432 102.853 26.3343 102.677 26.1313C102.503 25.9283 102.223 25.8268 101.838 25.8268C101.516 25.8268 101.231 25.9268 100.982 26.127C100.736 26.3243 100.553 26.5917 100.434 26.9291V30.1076H99.9171V25.4664H100.412Z" fill="white"/>
<path d="M107.084 27.7699L106.489 28.3361V30.1076H105.967V23.519H106.489V27.7356L106.98 27.2122L108.779 25.4664H109.435L107.441 27.4224L109.609 30.1076H108.988L107.084 27.7699Z" fill="white"/>
<path d="M112.07 30.1076H111.548V25.4664H112.07V30.1076ZM111.457 24.1239C111.457 24.0266 111.489 23.9451 111.553 23.8794C111.617 23.8107 111.703 23.7764 111.814 23.7764C111.924 23.7764 112.011 23.8107 112.074 23.8794C112.141 23.9451 112.174 24.0266 112.174 24.1239C112.174 24.2211 112.141 24.3026 112.074 24.3684C112.011 24.4341 111.924 24.467 111.814 24.467C111.703 24.467 111.617 24.4341 111.553 24.3684C111.489 24.3026 111.457 24.2211 111.457 24.1239Z" fill="white"/>
<path d="M115.139 25.4664L115.156 26.26C115.333 25.974 115.553 25.7567 115.817 25.608C116.081 25.4564 116.372 25.3807 116.691 25.3807C117.195 25.3807 117.57 25.5208 117.816 25.801C118.062 26.0813 118.187 26.5016 118.19 27.0621V30.1076H117.673V27.0578C117.67 26.6432 117.58 26.3343 117.403 26.1313C117.229 25.9283 116.95 25.8268 116.564 25.8268C116.243 25.8268 115.958 25.9268 115.708 26.127C115.462 26.3243 115.28 26.5917 115.161 26.9291V30.1076H114.644V25.4664H115.139Z" fill="white"/>
<path d="M120.485 27.7441C120.485 27.0178 120.648 26.443 120.972 26.0198C121.3 25.5937 121.743 25.3807 122.302 25.3807C122.942 25.3807 123.429 25.6323 123.762 26.1356L123.788 25.4664H124.275V30.0132C124.275 30.6109 124.105 31.0842 123.766 31.433C123.428 31.7819 122.968 31.9564 122.389 31.9564C122.061 31.9564 121.749 31.8834 121.45 31.7376C121.155 31.5946 120.921 31.403 120.751 31.1628L121.042 30.854C121.41 31.3001 121.847 31.5231 122.354 31.5231C122.789 31.5231 123.128 31.3959 123.371 31.1414C123.614 30.8897 123.74 30.5394 123.749 30.0905V29.5071C123.416 29.9646 122.931 30.1934 122.293 30.1934C121.749 30.1934 121.311 29.9789 120.981 29.55C120.651 29.121 120.485 28.542 120.485 27.8128V27.7441ZM121.011 27.8342C121.011 28.4262 121.131 28.8937 121.372 29.2369C121.612 29.5772 121.951 29.7473 122.389 29.7473C123.029 29.7473 123.483 29.4642 123.749 28.898V26.7404C123.627 26.443 123.452 26.2171 123.223 26.0627C122.994 25.9054 122.719 25.8268 122.398 25.8268C121.96 25.8268 121.62 25.9969 121.376 26.3372C121.133 26.6746 121.011 27.1736 121.011 27.8342Z" fill="white"/>
<path d="M133.725 27.1136H130.765V29.6615H134.168V30.1076H130.231V23.8622H134.146V24.3126H130.765V26.6675H133.725V27.1136Z" fill="white"/>
<path d="M139.301 30.1076C139.249 29.9618 139.216 29.7459 139.201 29.4599C139.019 29.6944 138.786 29.876 138.502 30.0047C138.221 30.1305 137.922 30.1934 137.607 30.1934C137.155 30.1934 136.788 30.069 136.507 29.8202C136.229 29.5714 136.09 29.2569 136.09 28.8765C136.09 28.4247 136.28 28.0673 136.659 27.8042C137.042 27.5411 137.573 27.4096 138.254 27.4096H139.197V26.882C139.197 26.5502 139.093 26.29 138.884 26.1013C138.678 25.9097 138.377 25.8139 137.98 25.8139C137.618 25.8139 137.318 25.9054 137.081 26.0884C136.843 26.2714 136.724 26.4916 136.724 26.749L136.203 26.7447C136.203 26.3758 136.377 26.057 136.724 25.7882C137.072 25.5165 137.499 25.3807 138.006 25.3807C138.531 25.3807 138.944 25.5108 139.245 25.771C139.549 26.0284 139.706 26.3887 139.714 26.8519V29.0481C139.714 29.4971 139.762 29.8331 139.858 30.0561V30.1076H139.301ZM137.667 29.7387C138.015 29.7387 138.325 29.6558 138.597 29.4899C138.873 29.3241 139.073 29.1025 139.197 28.8251V27.8042H138.267C137.748 27.8099 137.343 27.9043 137.05 28.0873C136.758 28.2674 136.611 28.5162 136.611 28.8336C136.611 29.0939 136.708 29.3098 136.903 29.4814C137.1 29.6529 137.354 29.7387 137.667 29.7387Z" fill="white"/>
<path d="M145.078 28.928C145.078 28.6735 144.974 28.469 144.765 28.3146C144.559 28.1602 144.248 28.0401 143.831 27.9543C143.414 27.8657 143.089 27.7656 142.857 27.6541C142.628 27.5397 142.457 27.401 142.344 27.238C142.234 27.075 142.179 26.8777 142.179 26.646C142.179 26.28 142.334 25.9783 142.644 25.741C142.954 25.5008 143.351 25.3807 143.835 25.3807C144.359 25.3807 144.78 25.5093 145.095 25.7667C145.414 26.0212 145.573 26.3544 145.573 26.7661H145.052C145.052 26.4945 144.936 26.2686 144.704 26.0884C144.475 25.9083 144.186 25.8182 143.835 25.8182C143.493 25.8182 143.218 25.894 143.009 26.0455C142.804 26.1942 142.701 26.3887 142.701 26.6289C142.701 26.8605 142.786 27.0407 142.957 27.1693C143.131 27.2952 143.445 27.411 143.9 27.5168C144.358 27.6226 144.7 27.7356 144.926 27.8557C145.155 27.9758 145.324 28.1202 145.434 28.2889C145.544 28.4576 145.599 28.6621 145.599 28.9023C145.599 29.294 145.439 29.6072 145.117 29.8417C144.798 30.0762 144.381 30.1934 143.865 30.1934C143.318 30.1934 142.873 30.0633 142.531 29.8031C142.192 29.54 142.023 29.2083 142.023 28.8079H142.544C142.565 29.1082 142.692 29.3427 142.927 29.5114C143.164 29.6772 143.477 29.7602 143.865 29.7602C144.228 29.7602 144.52 29.6815 144.743 29.5242C144.966 29.367 145.078 29.1682 145.078 28.928Z" fill="white"/>
<path d="M149.42 29.3698L150.794 25.4664H151.354L149.347 30.8969L149.242 31.1371C148.984 31.7004 148.586 31.9821 148.047 31.9821C147.923 31.9821 147.789 31.9621 147.647 31.922L147.643 31.4974L147.912 31.5231C148.167 31.5231 148.373 31.4602 148.53 31.3344C148.689 31.2114 148.824 30.9984 148.934 30.6953L149.164 30.069L147.391 25.4664H147.96L149.42 29.3698Z" fill="white"/>
</svg>
