<svg width="208" height="42" viewBox="0 0 208 42" fill="none" xmlns="http://www.w3.org/2000/svg">
<path d="M69.6748 24.79C69.5531 26.473 68.93 27.7979 67.8057 28.7646C66.6885 29.7314 65.2132 30.2148 63.3799 30.2148C61.3747 30.2148 59.7956 29.5417 58.6426 28.1953C57.4967 26.8418 56.9238 24.987 56.9238 22.6309V21.6748C56.9238 20.1709 57.1888 18.846 57.7188 17.7002C58.2487 16.5544 59.0042 15.6771 59.9854 15.0684C60.9736 14.4525 62.1195 14.1445 63.4229 14.1445C65.2275 14.1445 66.6813 14.6279 67.7842 15.5947C68.887 16.5615 69.5244 17.9186 69.6963 19.666H66.4736C66.3949 18.6562 66.112 17.9258 65.625 17.4746C65.1452 17.0163 64.4111 16.7871 63.4229 16.7871C62.3486 16.7871 61.543 17.1738 61.0059 17.9473C60.4759 18.7135 60.2038 19.9059 60.1895 21.5244V22.7061C60.1895 24.3962 60.4437 25.6315 60.9521 26.4121C61.4678 27.1927 62.277 27.583 63.3799 27.583C64.3753 27.583 65.1165 27.3574 65.6035 26.9062C66.0977 26.4479 66.3805 25.7425 66.4521 24.79H69.6748ZM78.3223 30C78.179 29.7207 78.0752 29.3734 78.0107 28.958C77.2588 29.7959 76.2812 30.2148 75.0781 30.2148C73.9395 30.2148 72.9941 29.8854 72.2422 29.2266C71.4974 28.5677 71.125 27.737 71.125 26.7344C71.125 25.5026 71.5798 24.5573 72.4893 23.8984C73.4059 23.2396 74.7272 22.9066 76.4531 22.8994H77.8818V22.2334C77.8818 21.6963 77.7422 21.2666 77.4629 20.9443C77.1908 20.6221 76.7575 20.4609 76.1631 20.4609C75.6403 20.4609 75.2285 20.5863 74.9277 20.8369C74.6341 21.0876 74.4873 21.4313 74.4873 21.8682H71.3828C71.3828 21.195 71.5905 20.5719 72.0059 19.999C72.4212 19.4261 73.0085 18.9785 73.7676 18.6562C74.5267 18.3268 75.3789 18.1621 76.3242 18.1621C77.7565 18.1621 78.8916 18.5238 79.7295 19.2471C80.5745 19.9632 80.9971 20.973 80.9971 22.2764V27.3145C81.0042 28.4173 81.1582 29.2516 81.459 29.8174V30H78.3223ZM75.7549 27.8408C76.2132 27.8408 76.6357 27.7406 77.0225 27.54C77.4092 27.3324 77.6956 27.0566 77.8818 26.7129V24.7148H76.7217C75.1676 24.7148 74.3405 25.252 74.2402 26.3262L74.2295 26.5088C74.2295 26.8955 74.3656 27.2142 74.6377 27.4648C74.9098 27.7155 75.2822 27.8408 75.7549 27.8408ZM87.8076 21.8467L89.7627 18.377H93.082L89.7734 24.0703L93.2217 30H89.8916L87.8184 26.3477L85.7559 30H82.415L85.8633 24.0703L82.5654 18.377H85.8955L87.8076 21.8467ZM98.292 15.5195V18.377H100.279V20.6543H98.292V26.4551C98.292 26.8848 98.3743 27.1927 98.5391 27.3789C98.7038 27.5651 99.0189 27.6582 99.4844 27.6582C99.8281 27.6582 100.132 27.6331 100.397 27.583V29.9355C99.7887 30.1217 99.1621 30.2148 98.5176 30.2148C96.3405 30.2148 95.2305 29.1156 95.1875 26.917V20.6543H93.4902V18.377H95.1875V15.5195H98.292ZM101.203 24.0811C101.203 22.9281 101.425 21.9004 101.869 20.998C102.313 20.0957 102.951 19.3975 103.781 18.9033C104.619 18.4092 105.59 18.1621 106.692 18.1621C108.261 18.1621 109.539 18.6419 110.527 19.6016C111.523 20.5612 112.078 21.8646 112.192 23.5117L112.214 24.3066C112.214 26.0898 111.716 27.5221 110.721 28.6035C109.725 29.6777 108.39 30.2148 106.714 30.2148C105.038 30.2148 103.699 29.6777 102.696 28.6035C101.701 27.5293 101.203 26.0684 101.203 24.2207V24.0811ZM104.308 24.3066C104.308 25.4095 104.515 26.2546 104.931 26.8418C105.346 27.4219 105.94 27.7119 106.714 27.7119C107.466 27.7119 108.053 27.4255 108.476 26.8525C108.898 26.2725 109.109 25.3486 109.109 24.0811C109.109 22.9997 108.898 22.1618 108.476 21.5674C108.053 20.973 107.459 20.6758 106.692 20.6758C105.933 20.6758 105.346 20.973 104.931 21.5674C104.515 22.1546 104.308 23.0677 104.308 24.3066ZM116.983 18.377L117.08 19.7197C117.911 18.6813 119.024 18.1621 120.421 18.1621C121.653 18.1621 122.569 18.5238 123.171 19.2471C123.772 19.9704 124.08 21.0518 124.095 22.4912V30H120.99V22.5664C120.99 21.9076 120.847 21.4313 120.561 21.1377C120.274 20.8369 119.798 20.6865 119.132 20.6865C118.258 20.6865 117.603 21.0589 117.166 21.8037V30H114.062V18.377H116.983Z" fill="white"/>
<path d="M69.6748 24.79C69.5531 26.473 68.93 27.7979 67.8057 28.7646C66.6885 29.7314 65.2132 30.2148 63.3799 30.2148C61.3747 30.2148 59.7956 29.5417 58.6426 28.1953C57.4967 26.8418 56.9238 24.987 56.9238 22.6309V21.6748C56.9238 20.1709 57.1888 18.846 57.7188 17.7002C58.2487 16.5544 59.0042 15.6771 59.9854 15.0684C60.9736 14.4525 62.1195 14.1445 63.4229 14.1445C65.2275 14.1445 66.6813 14.6279 67.7842 15.5947C68.887 16.5615 69.5244 17.9186 69.6963 19.666H66.4736C66.3949 18.6562 66.112 17.9258 65.625 17.4746C65.1452 17.0163 64.4111 16.7871 63.4229 16.7871C62.3486 16.7871 61.543 17.1738 61.0059 17.9473C60.4759 18.7135 60.2038 19.9059 60.1895 21.5244V22.7061C60.1895 24.3962 60.4437 25.6315 60.9521 26.4121C61.4678 27.1927 62.277 27.583 63.3799 27.583C64.3753 27.583 65.1165 27.3574 65.6035 26.9062C66.0977 26.4479 66.3805 25.7425 66.4521 24.79H69.6748ZM78.3223 30C78.179 29.7207 78.0752 29.3734 78.0107 28.958C77.2588 29.7959 76.2812 30.2148 75.0781 30.2148C73.9395 30.2148 72.9941 29.8854 72.2422 29.2266C71.4974 28.5677 71.125 27.737 71.125 26.7344C71.125 25.5026 71.5798 24.5573 72.4893 23.8984C73.4059 23.2396 74.7272 22.9066 76.4531 22.8994H77.8818V22.2334C77.8818 21.6963 77.7422 21.2666 77.4629 20.9443C77.1908 20.6221 76.7575 20.4609 76.1631 20.4609C75.6403 20.4609 75.2285 20.5863 74.9277 20.8369C74.6341 21.0876 74.4873 21.4313 74.4873 21.8682H71.3828C71.3828 21.195 71.5905 20.5719 72.0059 19.999C72.4212 19.4261 73.0085 18.9785 73.7676 18.6562C74.5267 18.3268 75.3789 18.1621 76.3242 18.1621C77.7565 18.1621 78.8916 18.5238 79.7295 19.2471C80.5745 19.9632 80.9971 20.973 80.9971 22.2764V27.3145C81.0042 28.4173 81.1582 29.2516 81.459 29.8174V30H78.3223ZM75.7549 27.8408C76.2132 27.8408 76.6357 27.7406 77.0225 27.54C77.4092 27.3324 77.6956 27.0566 77.8818 26.7129V24.7148H76.7217C75.1676 24.7148 74.3405 25.252 74.2402 26.3262L74.2295 26.5088C74.2295 26.8955 74.3656 27.2142 74.6377 27.4648C74.9098 27.7155 75.2822 27.8408 75.7549 27.8408ZM87.8076 21.8467L89.7627 18.377H93.082L89.7734 24.0703L93.2217 30H89.8916L87.8184 26.3477L85.7559 30H82.415L85.8633 24.0703L82.5654 18.377H85.8955L87.8076 21.8467ZM98.292 15.5195V18.377H100.279V20.6543H98.292V26.4551C98.292 26.8848 98.3743 27.1927 98.5391 27.3789C98.7038 27.5651 99.0189 27.6582 99.4844 27.6582C99.8281 27.6582 100.132 27.6331 100.397 27.583V29.9355C99.7887 30.1217 99.1621 30.2148 98.5176 30.2148C96.3405 30.2148 95.2305 29.1156 95.1875 26.917V20.6543H93.4902V18.377H95.1875V15.5195H98.292ZM101.203 24.0811C101.203 22.9281 101.425 21.9004 101.869 20.998C102.313 20.0957 102.951 19.3975 103.781 18.9033C104.619 18.4092 105.59 18.1621 106.692 18.1621C108.261 18.1621 109.539 18.6419 110.527 19.6016C111.523 20.5612 112.078 21.8646 112.192 23.5117L112.214 24.3066C112.214 26.0898 111.716 27.5221 110.721 28.6035C109.725 29.6777 108.39 30.2148 106.714 30.2148C105.038 30.2148 103.699 29.6777 102.696 28.6035C101.701 27.5293 101.203 26.0684 101.203 24.2207V24.0811ZM104.308 24.3066C104.308 25.4095 104.515 26.2546 104.931 26.8418C105.346 27.4219 105.94 27.7119 106.714 27.7119C107.466 27.7119 108.053 27.4255 108.476 26.8525C108.898 26.2725 109.109 25.3486 109.109 24.0811C109.109 22.9997 108.898 22.1618 108.476 21.5674C108.053 20.973 107.459 20.6758 106.692 20.6758C105.933 20.6758 105.346 20.973 104.931 21.5674C104.515 22.1546 104.308 23.0677 104.308 24.3066ZM116.983 18.377L117.08 19.7197C117.911 18.6813 119.024 18.1621 120.421 18.1621C121.653 18.1621 122.569 18.5238 123.171 19.2471C123.772 19.9704 124.08 21.0518 124.095 22.4912V30H120.99V22.5664C120.99 21.9076 120.847 21.4313 120.561 21.1377C120.274 20.8369 119.798 20.6865 119.132 20.6865C118.258 20.6865 117.603 21.0589 117.166 21.8037V30H114.062V18.377H116.983Z" fill="white"/>
<path d="M135.363 24.4893V30H132.141V14.3594H138.242C139.417 14.3594 140.448 14.5742 141.336 15.0039C142.231 15.4336 142.919 16.0459 143.398 16.8408C143.878 17.6286 144.118 18.5273 144.118 19.5371C144.118 21.0697 143.592 22.2799 142.539 23.168C141.493 24.0488 140.043 24.4893 138.188 24.4893H135.363ZM135.363 21.8789H138.242C139.094 21.8789 139.743 21.6784 140.187 21.2773C140.638 20.8763 140.863 20.3034 140.863 19.5586C140.863 18.7923 140.638 18.1729 140.187 17.7002C139.735 17.2275 139.112 16.984 138.317 16.9697H135.363V21.8789ZM152.669 21.2881C152.246 21.2308 151.874 21.2021 151.552 21.2021C150.377 21.2021 149.607 21.5996 149.242 22.3945V30H146.138V18.377H149.07L149.156 19.7627C149.779 18.6956 150.642 18.1621 151.745 18.1621C152.089 18.1621 152.411 18.2087 152.712 18.3018L152.669 21.2881ZM157.449 30H154.334V18.377H157.449V30ZM154.151 15.3691C154.151 14.9036 154.305 14.5205 154.613 14.2197C154.928 13.9189 155.354 13.7686 155.892 13.7686C156.422 13.7686 156.844 13.9189 157.159 14.2197C157.474 14.5205 157.632 14.9036 157.632 15.3691C157.632 15.8418 157.471 16.2285 157.148 16.5293C156.833 16.8301 156.414 16.9805 155.892 16.9805C155.369 16.9805 154.946 16.8301 154.624 16.5293C154.309 16.2285 154.151 15.8418 154.151 15.3691ZM162.928 18.377L163.024 19.6768C163.848 18.667 164.962 18.1621 166.365 18.1621C167.862 18.1621 168.89 18.7529 169.448 19.9346C170.265 18.7529 171.428 18.1621 172.939 18.1621C174.2 18.1621 175.138 18.5309 175.754 19.2686C176.37 19.999 176.678 21.1019 176.678 22.5771V30H173.562V22.5879C173.562 21.929 173.434 21.4492 173.176 21.1484C172.918 20.8405 172.463 20.6865 171.812 20.6865C170.881 20.6865 170.236 21.1305 169.878 22.0186L169.889 30H166.784V22.5986C166.784 21.9255 166.652 21.4385 166.387 21.1377C166.122 20.8369 165.671 20.6865 165.033 20.6865C164.152 20.6865 163.515 21.0518 163.121 21.7822V30H160.017V18.377H162.928ZM184.423 30.2148C182.718 30.2148 181.329 29.6921 180.255 28.6465C179.188 27.6009 178.654 26.208 178.654 24.4678V24.167C178.654 22.9997 178.88 21.9577 179.331 21.041C179.782 20.1172 180.42 19.4082 181.243 18.9141C182.074 18.4128 183.019 18.1621 184.079 18.1621C185.669 18.1621 186.919 18.6634 187.828 19.666C188.745 20.6686 189.203 22.0902 189.203 23.9307V25.1982H181.802C181.902 25.9574 182.203 26.5661 182.704 27.0244C183.213 27.4827 183.854 27.7119 184.627 27.7119C185.823 27.7119 186.757 27.2786 187.431 26.4121L188.956 28.1201C188.491 28.779 187.86 29.2946 187.065 29.667C186.271 30.0322 185.39 30.2148 184.423 30.2148ZM184.068 20.6758C183.452 20.6758 182.951 20.8835 182.564 21.2988C182.185 21.7142 181.941 22.3086 181.834 23.082H186.152V22.835C186.138 22.1475 185.952 21.6175 185.594 21.2451C185.236 20.8656 184.727 20.6758 184.068 20.6758Z" fill="white"/>
<path fill-rule="evenodd" clip-rule="evenodd" d="M21.6825 37.2859C26.461 37.2859 30.7738 35.3554 33.8351 32.2559L37.2776 35.59C33.3349 39.5424 27.8051 42 21.6825 42C21.4159 42 21.1504 41.9957 20.886 41.9862V37.2679C21.15 37.2798 21.4156 37.2859 21.6825 37.2859ZM16.0185 36.3389C9.51847 34.0871 4.86752 28.0696 4.86752 21.0001C4.86752 12.0057 12.3959 4.71431 21.6825 4.71431C26.6186 4.71431 31.0579 6.77419 34.134 10.0548L37.5789 6.71833C33.6192 2.58591 27.9627 0 21.6825 0C9.70762 0 0 9.40207 0 21.0001C0 30.7002 6.79043 38.8642 16.0185 41.2765V36.3389Z" fill="white"/>
<path fill-rule="evenodd" clip-rule="evenodd" d="M27.2574 20.9599C27.2574 23.9659 24.7413 26.4028 21.6376 26.4028C18.5339 26.4028 16.0179 23.9659 16.0179 20.9599C16.0179 17.9539 18.5339 15.517 21.6376 15.517C24.7413 15.517 27.2574 17.9539 27.2574 20.9599ZM32.1249 20.9599C32.1249 26.5696 27.4296 31.1171 21.6376 31.1171C19.5701 31.1171 17.6423 30.5376 16.0179 29.5372V41.2792L15.3541 41.1028L14.6904 40.8888L14.0709 40.6743L13.4071 40.417L13.0974 40.2886L12.7876 40.1602L12.2124 39.9029L11.6814 39.6456L11.1504 39.3652V21.2599H11.1549C11.1519 21.1603 11.1504 21.0603 11.1504 20.9599C11.1504 15.3503 15.8457 10.8027 21.6376 10.8027C27.4296 10.8027 32.1249 15.3503 32.1249 20.9599Z" fill="white"/>
</svg>
