<svg width="209" height="211" viewBox="0 0 209 211" fill="none" xmlns="http://www.w3.org/2000/svg">
<g clip-path="url(#clip0)">
<path d="M39.2717 33.5962L42.655 32.3633L43.5437 34.1895L43.9543 38.554L43.1974 39.0721L39.2717 33.5962Z" fill="black"/>
<path d="M55.7098 42.1914L51.8455 44.3013L55.9059 49.9566L56.8529 49.3054L57.4413 44.8165L55.7098 42.1914Z" fill="black"/>
<g opacity="0.05">
<path opacity="0.05" d="M63.8155 15.8457C63.0372 16.9571 62.3109 18.1611 62.0872 19.0062L62.7001 18.6068C62.6234 17.9787 63.1291 16.9368 63.8155 15.8457Z" fill="black"/>
<path opacity="0.05" d="M67.2998 30.9715L67.7258 22.5117C58.2258 28.2046 44.3252 33.3998 44.3252 33.3998L43.6541 34.4041C43.6541 34.4041 57.57 29.2089 67.0547 23.516L66.6563 31.4838L67.2998 30.9715Z" fill="black"/>
</g>
<g opacity="0.5">
<path opacity="0.5" d="M42.4313 39.4847L43.2096 38.9492L42.7898 34.4545L41.8735 32.5762L38.3892 33.8467L42.4313 39.4847Z" fill="url(#paint0_linear)"/>
<path opacity="0.5" d="M95.4842 0.545234C93.3666 -0.415646 91.7822 0.0358517 90.6729 0.834656C89.6826 1.53898 88.9093 2.48015 88.4327 3.56101L88.1263 4.32798L86.6921 5.31201L86.2263 4.37139C86.2263 4.37139 81.1484 -4.14919 66.169 12.4897L66.1016 12.4376C66.1016 12.4376 64.8268 13.9107 63.6653 15.5633L63.4998 15.8007L63.4263 15.9077L63.3221 16.0611L63.2455 16.1769L63.129 16.3592L63.0279 16.5155L62.9206 16.6863L62.844 16.8107L62.7643 16.941L62.6877 17.0712L62.608 17.2101L62.4916 17.4185L62.4272 17.5343L62.3568 17.6703L62.3047 17.7745L62.2372 17.9105L62.1943 18.0003C62.1576 18.0813 62.1228 18.1604 62.0901 18.2376L62.0534 18.3273L62.0043 18.4547L61.9737 18.5415C61.9512 18.6071 61.9308 18.6717 61.9124 18.7354C61.9124 18.7701 61.891 18.802 61.8848 18.8338C61.8248 19.037 61.802 19.2485 61.8174 19.4589L41.8735 32.5669L42.8971 34.6681C42.8971 34.6681 57.2298 29.3195 66.9995 23.453L66.5889 31.6581L66.5643 32.1646C66.5643 32.1646 57.6405 39.1425 55.3176 42.6966L51.3337 44.8702L55.5168 50.6933L56.4913 50.0248L57.1042 45.394L73.4779 33.0328C73.4779 33.0328 76.5822 27.6756 76.6374 23.1925L77.3085 25.6381C77.3085 25.6381 78.7366 29.4266 79.7448 29.5771C80.753 29.7276 80.7561 26.6395 80.0513 25.722C79.3464 24.8046 79.6774 18.6746 79.6774 18.6746L79.8613 17.4272L82.4232 15.6675L82.5182 15.5836L82.6531 16.3534L83.1679 16.3969V16.4316L83.1924 16.6544L83.5234 22.4979L85.3376 29.1083C85.3376 29.1083 86.7656 32.8968 87.7738 33.0473C88.7821 33.1978 88.7851 30.1097 88.0803 29.1922C87.3755 28.2747 87.7095 22.1477 87.7095 22.1477L88.4572 17.0452V16.9468L88.4726 16.8339L89.9466 16.9554C89.9466 16.9554 91.4789 11.9803 88.9139 9.81252L88.448 8.8719L89.4042 8.2178L89.5972 8.08756C90.4075 8.8362 91.496 9.25541 92.6296 9.25541C93.7631 9.25541 94.8516 8.8362 95.6619 8.08756C96.3788 8.15053 97.096 7.96991 97.6845 7.57818L98.0553 7.32639C98.4542 7.08715 98.8145 6.79471 99.1248 6.45812C99.3853 6.00083 98.7632 2.02997 95.4842 0.545234Z" fill="url(#paint1_linear)"/>
</g>
<path d="M66.1937 12.8125C66.1937 12.8125 61.8329 17.8484 62.0382 19.6139L42.6582 32.3629L43.6511 34.4034C43.6511 34.4034 57.5671 29.2082 67.0517 23.5153L66.6289 31.9867C66.6289 31.9867 57.9655 38.7505 55.713 42.2033L57.4445 44.8283L73.3432 32.826C73.3432 32.826 78.0595 24.6875 75.7948 20.2477L66.1937 12.8125Z" fill="#535461"/>
<path d="M205.871 136.178C191.912 189.05 135.206 221.23 79.2115 208.044C23.2167 194.858 -10.8362 141.301 3.13187 88.4234C17.0999 35.5461 73.7904 3.36236 129.767 16.5455C185.743 29.7287 219.83 83.292 205.871 136.178Z" fill="#F03D5F"/>
<path d="M150.578 98.2357C152.659 85.1018 142.071 78.0428 127.594 73.3455L132.292 55.5547L120.825 52.8544L116.249 70.1618C113.234 69.4527 110.139 68.7842 107.056 68.1185L111.653 50.6808L100.21 47.9863L95.5088 65.7713C93.0143 65.2359 90.5627 64.7033 88.1877 64.1447V64.0898L72.384 60.3504L69.3195 71.9273C69.3195 71.9273 77.8266 73.768 77.6488 73.8838C82.2916 74.9778 83.1313 77.8807 82.9934 80.1816L77.6427 100.441C78.0481 100.537 78.4463 100.658 78.8348 100.803C78.4517 100.713 78.0442 100.615 77.609 100.513L70.1101 128.906C69.5432 130.237 68.1029 132.237 64.8545 131.479C64.9679 131.635 56.519 129.514 56.519 129.514L50.8711 141.924L65.7769 145.44C68.5534 146.097 71.2746 146.786 73.953 147.432L69.2092 165.41L80.6643 168.111L85.3653 150.308C88.4942 151.11 91.5311 151.851 94.5037 152.549L89.8211 170.27L101.289 172.97L106.032 155.017C125.587 158.511 140.291 157.101 146.484 140.399C151.47 126.949 146.236 119.193 135.948 114.134C143.419 112.504 149.074 107.85 150.578 98.2357ZM124.38 132.932C120.837 146.381 96.8603 139.111 89.0887 137.273L95.3863 113.433C103.158 115.28 128.097 118.906 124.38 132.932ZM127.925 98.0389C124.692 110.273 104.736 104.056 98.2638 102.534L103.973 80.8994C110.448 82.4362 131.293 85.2812 127.925 98.0389Z" fill="white"/>
<path d="M82.5857 13.6699L83.0883 22.5841L84.8473 29.0006C84.8473 29.0006 86.2325 32.6791 87.2131 32.8238C88.1938 32.9686 88.1968 29.9701 87.5196 29.0787C86.8423 28.1873 87.1672 22.2397 87.1672 22.2397L88.2581 14.6713L82.5857 13.6699Z" fill="#FDA57D"/>
<path d="M82.0002 15.1624L82.2546 16.6095L89.3459 17.1883C89.3459 17.1883 90.8291 12.3579 88.3407 10.2422L82.0002 15.1624Z" fill="#F55F44"/>
<path d="M88.3407 10.2634L85.7205 4.98149C85.7205 4.98149 80.7713 -3.32202 66.1536 12.9666L75.7945 20.2369L82.0339 15.9535L88.3407 10.2634Z" fill="#F55F44"/>
<path d="M90.406 2.99414L92.7374 6.02362L87.6482 9.51698C87.2931 9.76067 86.8502 9.8612 86.4167 9.79643C85.9832 9.73166 85.5947 9.50691 85.3366 9.17161L84.9529 8.67294C84.6948 8.33764 84.5884 7.91928 84.657 7.50987C84.7256 7.10046 84.9635 6.73354 85.3186 6.48984L90.4078 2.99648L90.406 2.99414Z" fill="#FDA57D"/>
<path opacity="0.05" d="M87.7004 4.85031C87.5009 5.52954 87.4993 6.24702 87.6956 6.92707C87.8919 7.60711 88.279 8.2245 88.8159 8.71409L91.2215 7.06149L88.8894 4.03125L87.7004 4.85031Z" fill="black"/>
<path d="M94.4128 8.95353C96.2925 7.66324 96.7112 5.18125 95.348 3.40985C93.9848 1.63844 91.3558 1.24842 89.4761 2.53871C87.5964 3.82901 87.1776 6.31101 88.5409 8.08241C89.9041 9.85381 92.533 10.2438 94.4128 8.95353Z" fill="#FDA57D"/>
<path opacity="0.05" d="M89.9988 3.40772L87.5686 4.94166L87.8751 4.19495C87.8751 4.19495 89.8731 -0.72522 94.5312 1.39624C97.7152 2.84335 98.3189 6.69266 98.0768 7.13258C97.7174 7.50178 97.3048 7.82135 96.851 8.08188C96.2533 8.48196 95.5184 8.65577 94.7916 8.56896C94.0648 8.48215 93.3988 8.14104 92.9254 7.61302C92.1102 6.69555 90.6883 4.79695 90.9488 3.70872C90.7097 3.29774 90.3971 3.12988 89.9957 3.4193L89.9988 3.40772Z" fill="black"/>
<path d="M90.1887 3.27686L87.7585 4.8108L88.065 4.06409C88.065 4.06409 90.0631 -0.856079 94.7211 1.26538C97.9052 2.71249 98.5089 6.5618 98.2668 7.00172C97.9074 7.37092 97.4947 7.69049 97.041 7.95102C96.4432 8.35111 95.7084 8.52491 94.9815 8.4381C94.2547 8.35129 93.5888 8.01018 93.1153 7.48216C92.3001 6.56469 90.8782 4.66609 91.1387 3.57786C90.8997 3.16688 90.5871 2.99902 90.1856 3.28844L90.1887 3.27686Z" fill="#5A2F32"/>
<path d="M91.0096 3.53169C91.4278 3.24405 91.6437 2.85134 91.4919 2.65454C91.3401 2.45775 90.8781 2.53138 90.46 2.81902C90.0419 3.10666 89.8259 3.49938 89.9777 3.69618C90.1295 3.89298 90.5915 3.81933 91.0096 3.53169Z" fill="#FDA57D"/>
<path opacity="0.05" d="M81.2188 15.8337L82.3312 14.9336L82.3434 16.3547L82.1013 15.8076L81.2188 15.8337Z" fill="black"/>
<path opacity="0.05" d="M82.7449 16.6914L82.7694 16.9114L87.8841 17.2876L87.9147 17.0821L82.7449 16.6914Z" fill="black"/>
<path d="M74.7957 10.3027L75.2982 19.2169L77.0573 25.6189C77.0573 25.6189 78.4424 29.2975 79.4231 29.4422C80.4037 29.5869 80.4068 26.5885 79.7295 25.6971C79.0523 24.8057 79.371 18.8725 79.371 18.8725L80.4803 11.3041L74.7957 10.3027Z" fill="#FDA57D"/>
<path d="M116.519 78.3672H115.986V78.8708H116.519V78.3672Z" fill="#CCCCCC"/>
<path d="M115.64 79.125H116.957C117.052 79.125 117.146 79.1426 117.233 79.1768C117.32 79.2109 117.4 79.2611 117.467 79.3242C117.533 79.3874 117.586 79.4623 117.623 79.5449C117.659 79.6274 117.677 79.7158 117.677 79.8051V83.9989H114.919V79.8051C114.919 79.7158 114.938 79.6274 114.974 79.5449C115.01 79.4623 115.063 79.3874 115.13 79.3242C115.197 79.2611 115.277 79.2109 115.364 79.1768C115.451 79.1426 115.545 79.125 115.64 79.125Z" fill="#535461"/>
<path d="M117.055 78.7891H115.453V79.1248H117.055V78.7891Z" fill="#F7931A"/>
<path d="M117.677 81.0547H114.919V82.0619H117.677V81.0547Z" fill="#F7931A"/>
<path d="M116.522 78.4512V78.703C116.424 78.703 116.344 78.6451 116.344 78.5756C116.344 78.5062 116.424 78.4512 116.522 78.4512Z" fill="#E6E6E6"/>
<path opacity="0.05" d="M75.3596 5.96875C75.3596 5.96875 74.189 8.95269 74.6854 9.97145L75.3596 5.96875Z" fill="black"/>
<path opacity="0.05" d="M74.8202 10.1504L74.8171 10.7032L80.4344 11.5946L80.5018 11.1518L74.8202 10.1504Z" fill="black"/>
<path d="M76.0889 5.60263L74.7957 10.3028L80.4773 11.3042L81.9789 5.37109L76.0889 5.60263Z" fill="#F55F44"/>
<g opacity="0.5">
<path opacity="0.5" d="M75.8958 21.8828L77.0143 25.8826C77.0143 25.8826 78.4577 29.6451 79.4659 29.7869C80.4741 29.9287 80.4895 26.8724 79.7724 25.9637C79.3954 25.4861 79.3158 23.5817 79.3219 21.8828H75.8958Z" fill="url(#paint2_linear)"/>
</g>
<path d="M75.9846 21.8828L77.0603 25.7987C77.0603 25.7987 78.4454 29.4772 79.4261 29.6219C80.4067 29.7667 80.4098 26.7682 79.7325 25.8768C79.3709 25.408 79.2943 23.5441 79.3004 21.8828H75.9846Z" fill="#FDA57D"/>
<g opacity="0.5">
<path opacity="0.5" d="M87.3602 21.7188H82.886L82.9473 22.778L84.8105 29.3826C84.8105 29.3826 86.2784 33.1683 87.3142 33.3188C88.35 33.4693 88.3531 30.3811 87.6207 29.4666C86.8882 28.552 87.256 22.4365 87.256 22.4365L87.3602 21.7188Z" fill="url(#paint3_linear)"/>
</g>
<path d="M87.259 21.7188H83.03L83.0883 22.7491L84.8473 29.1656C84.8473 29.1656 86.2324 32.8441 87.2131 32.9888C88.1937 33.1335 88.1968 30.1351 87.5195 29.2437C86.8423 28.3523 87.1671 22.4047 87.1671 22.4047L87.259 21.7188Z" fill="#FDA57D"/>
<path opacity="0.2" d="M116.452 78.4334L124.113 76.9863L124.419 80.4594L116.452 78.7229V78.4334Z" fill="#535461"/>
<g opacity="0.5">
<path opacity="0.5" d="M104.892 79.505L105.104 79.5918L111.846 82.3326L120.435 72.7093C120.435 72.7093 121.738 71.3346 120.187 70.394C118.637 69.4533 117.662 71.8874 117.662 71.8874L111.061 78.5846L105.453 75.9364L105.542 75.3807L100.43 72.5907C100.331 72.4149 100.223 72.2439 100.105 72.0784L100.06 71.9221L99.8052 71.7108C99.7561 71.6616 99.7071 71.6153 99.6581 71.5748L100.504 70.7065C101.133 70.9148 101.803 70.99 102.467 70.9266C103.13 70.8633 103.771 70.663 104.343 70.3399C104.916 70.0169 105.406 69.5789 105.779 69.0571C106.153 68.5353 106.4 67.9424 106.504 67.3203C106.9 67.3915 107.307 67.3915 107.702 67.3203C108.223 67.2169 108.709 66.9963 109.12 66.6773C109.531 66.3584 109.854 65.9505 110.062 65.4883C110.045 65.5194 110.02 65.5464 109.989 65.5669C109.959 65.5875 109.924 65.6012 109.887 65.6069C109.953 65.4987 110.012 65.3865 110.062 65.2712C109.887 65.6706 108.254 65.1207 108.009 64.9818C107.261 64.6055 106.875 64.0498 106.477 63.3668C105.714 62.0181 104.304 61.5203 102.716 61.4016C101.504 61.2776 100.277 61.4233 99.134 61.8271C98.5648 62.0327 98.0469 62.3473 97.6128 62.7513C97.1787 63.1553 96.8379 63.6398 96.6119 64.1743C96.4753 64.5411 96.4129 64.9289 96.4281 65.3175C96.4021 65.7337 96.4751 66.1501 96.6416 66.5361C96.8081 66.9222 97.0639 67.2683 97.3903 67.5489C97.4461 67.5943 97.5044 67.6368 97.565 67.6763C97.5987 67.8007 97.6355 67.9223 97.6815 68.0439L97.4577 68.2725L96.0052 69.7601L95.9316 69.7399L80.6305 71.9019V71.9308C80.1218 71.6124 77.8173 70.5068 72.0652 72.0089C69.8924 72.5878 66.2732 72.5154 62.3874 72.1768C59.6723 68.9874 57.9194 59.0544 57.9194 59.0544L57.2329 56.2441L48.3244 58.1891C48.3244 58.1891 52.4339 59.0573 53.1203 60.134C54.1653 60.4639 54.8119 67.8355 55.0602 71.3143C49.7248 70.5358 45.3548 69.6444 45.3548 69.6444L42.1586 68.5648L39.8755 76.1303C39.8755 76.1303 42.3884 73.5255 44.6715 73.32C44.6715 73.32 56.0898 78.5065 64.5418 77.4269C67.8331 77.0072 71.014 78.3212 73.6771 78.7235C76.0083 79.0905 78.3632 79.3071 80.7255 79.3718L80.7531 81.748C80.7531 81.748 90.1581 81.3659 96.3361 79.5136C96.805 80.7118 97.1819 81.5772 97.3137 81.6409L98.4353 81.1228L104.736 88.4481L117.065 83.69C117.065 83.69 118.903 83.0417 117.984 81.528C117.065 80.0143 115.014 81.7451 115.014 81.7451L105.879 84.7695L102.024 79.722L101.874 79.5252L102.683 79.1519C102.683 79.1519 102.658 79.039 102.609 78.8451L104.736 80.4485L104.892 79.505Z" fill="url(#paint4_linear)"/>
</g>
<path d="M97.4394 73.3183L94.6169 70.8466L99.2903 66.0625L102.113 68.5313L97.4394 73.3183Z" fill="#FDA57D"/>
<path opacity="0.05" d="M99.0666 66.2715L97.0042 68.3843C97.2267 68.978 97.5876 69.5169 98.0602 69.9612C98.5328 70.4056 99.105 70.744 99.7346 70.9515L101.88 68.7432L99.0666 66.2715Z" fill="black"/>
<path d="M99.6733 77.4576L110.991 82.0565L119.354 72.6966C119.354 72.6966 120.619 71.3595 119.112 70.4449C117.604 69.5303 116.66 71.892 116.66 71.892L110.224 78.3982L101.966 74.5026L99.6733 77.4576Z" fill="#FDA57D"/>
<path d="M99.0789 72.1348L104.856 75.2866L104.077 80.227L98.6345 76.1288L99.0789 72.1348Z" fill="#F03D5F"/>
<path d="M101.411 70.9809C103.865 70.9809 105.855 69.0981 105.855 66.7756C105.855 64.4531 103.865 62.5703 101.411 62.5703C98.957 62.5703 96.9675 64.4531 96.9675 66.7756C96.9675 69.0981 98.957 70.9809 101.411 70.9809Z" fill="#FDA57D"/>
<path d="M97.7581 70.4532L95.5364 69.8223L80.6428 71.9264L80.7531 81.4773C80.7531 81.4773 98.8583 80.7421 100.856 76.3285L99.5233 71.9264L97.7581 70.4532Z" fill="#F03D5F"/>
<path opacity="0.05" d="M98.8091 76.2562L104.077 80.2271L104.301 78.5456L99.0788 73.8164L98.8091 76.2562Z" fill="black"/>
<path d="M80.7532 72.0283C80.7532 72.0283 78.7551 70.3467 72.3135 72.0283C65.8719 73.7098 46.3233 69.7129 46.3233 69.7129L45.6614 73.2901C45.6614 73.2901 56.7672 78.3347 64.9862 77.2842C68.1856 76.8761 71.2807 78.1524 73.8733 78.546C76.1488 78.9011 78.4476 79.1071 80.7532 79.1625V72.0283Z" fill="#4D8AF0"/>
<path d="M46.3231 69.7166L43.2096 68.666L40.9878 76.0231C40.9878 76.0231 43.4394 73.4994 45.652 73.291L46.3231 69.7166Z" fill="#535461"/>
<path d="M53.874 60.4686L58.5321 59.418C58.5321 59.418 60.7539 72.031 64.085 73.0816H55.8751C55.8751 73.0816 55.2071 60.8882 53.874 60.4686Z" fill="#4D8AF0"/>
<path d="M58.5322 59.4196L57.8672 56.6875L49.2039 58.5803C49.2039 58.5803 53.1877 59.4225 53.8681 60.4731L58.5322 59.4196Z" fill="#535461"/>
<path opacity="0.05" d="M102.119 61.9128C100.939 61.7922 99.7458 61.9339 98.6344 62.3267C98.081 62.5268 97.5774 62.833 97.1554 63.226C96.7335 63.619 96.4023 64.0903 96.1828 64.6102C95.7844 65.6637 96.0419 66.9574 96.9428 67.681C97.1567 67.8716 97.4316 67.9897 97.7243 68.0167C98.1962 68.0341 98.5915 67.7071 98.9501 67.4234C99.6309 66.8927 100.381 66.4463 101.181 66.095C101.861 65.8056 102.692 65.574 103.326 65.9416C103.613 66.1429 103.874 66.3761 104.102 66.6362C104.469 66.9809 104.92 67.2349 105.416 67.3757C105.912 67.5166 106.437 67.54 106.944 67.4439C107.452 67.3478 107.927 67.1351 108.327 66.8246C108.727 66.5142 109.04 66.1155 109.238 65.6637C109.066 66.0545 107.479 65.5161 107.24 65.3975C106.51 65.0328 106.136 64.4916 105.763 63.8288C105.033 62.5119 103.66 62.0286 102.119 61.9128Z" fill="black"/>
<path d="M102.119 61.7038C100.939 61.5832 99.7458 61.725 98.6344 62.1177C98.081 62.3178 97.5774 62.624 97.1554 63.017C96.7335 63.41 96.4023 63.8814 96.1828 64.4013C95.7844 65.4547 96.0419 66.7485 96.9428 67.472C97.1567 67.6626 97.4316 67.7807 97.7243 67.8077C98.1962 67.8251 98.5915 67.4981 98.9501 67.2144C99.6309 66.6838 100.381 66.2373 101.181 65.886C101.861 65.5966 102.692 65.365 103.326 65.7326C103.613 65.9339 103.874 66.1671 104.102 66.4272C104.469 66.7719 104.92 67.0259 105.416 67.1667C105.912 67.3076 106.437 67.331 106.944 67.2349C107.452 67.1388 107.927 66.9261 108.327 66.6156C108.727 66.3052 109.04 65.9065 109.238 65.4548C109.066 65.8455 107.479 65.3071 107.24 65.1885C106.51 64.8238 106.136 64.2826 105.763 63.6198C105.033 62.3029 103.66 61.8167 102.119 61.7038Z" fill="black"/>
<path d="M100.292 66.4263C100.377 66.0873 100.301 65.7798 100.122 65.7396C99.9421 65.6994 99.7275 65.9416 99.6423 66.2806C99.5571 66.6197 99.6335 66.9271 99.813 66.9674C99.9925 67.0076 100.207 66.7654 100.292 66.4263Z" fill="#FDA57D"/>
<path opacity="0.05" d="M97.948 80.8785L98.0982 81.0521L101.438 79.5211L101.291 79.3301L97.948 80.8785Z" fill="black"/>
<path opacity="0.05" d="M104.77 75.8281L104.224 79.2809L104.426 79.3909L104.855 75.8658L104.77 75.8281Z" fill="black"/>
<path d="M87.1947 66.9844H84.5286V84.0111H87.1947V66.9844Z" fill="#E0E0E0"/>
<path d="M82.157 20.1163L79.6296 19.3145L73.8882 35.4546L76.4155 36.2565L82.157 20.1163Z" fill="#E0E0E0"/>
<path d="M86.3059 68.877H85.4172V27.7617L86.2937 27.8051L86.3059 68.877Z" fill="#E0E0E0"/>
<path d="M96.3025 78.9665L104.077 88.0052L116.072 83.3744C116.072 83.3744 117.849 82.7435 116.96 81.2732C116.072 79.803 114.074 81.4845 114.074 81.4845L105.187 84.4279L99.7807 77.3516L96.3025 78.9665Z" fill="#FDA57D"/>
<path d="M93.0815 71.5039C93.0815 71.5039 96.4127 81.1735 96.857 81.3819L102.067 78.9652C102.067 78.9652 100.587 72.4445 98.9378 71.4402C97.2891 70.4359 93.3053 70.6617 93.0815 71.5039Z" fill="#F03D5F"/>
<path opacity="0.05" d="M94.0315 74.2168C94.0315 74.2168 93.8568 77.9156 94.9692 78.5581L94.0315 74.2168Z" fill="black"/>
<path d="M85.4234 27.8036L81.415 22.2091L81.8349 21.0254L86.2937 27.8036H85.4234Z" fill="#E0E0E0"/>
<path d="M105.795 68.3069L105.216 67.9434L104.244 69.3247L104.823 69.6882L105.795 68.3069Z" fill="black"/>
<path d="M104.983 68.2419L100.688 65.5449L100.495 65.8197L104.79 68.5166L104.983 68.2419Z" fill="black"/>
<g opacity="0.7">
<path opacity="0.7" d="M185.176 177.676H174.046V185.444H185.176V177.676Z" fill="url(#paint5_linear)"/>
<g opacity="0.1">
<path opacity="0.1" d="M174.046 179.735C174.046 179.735 178.199 180.192 179.611 180.192C181.024 180.192 185.176 179.735 185.176 179.735V177.793H174.046V179.735Z" fill="url(#paint6_linear)"/>
</g>
<path opacity="0.7" d="M185.176 179.618C185.176 179.618 181.024 180.075 179.611 180.075C178.199 180.075 174.046 179.618 174.046 179.618V171.963C174.046 170.569 174.632 169.232 175.676 168.246C176.72 167.261 178.135 166.707 179.611 166.707C181.087 166.707 182.503 167.261 183.546 168.246C184.59 169.232 185.176 170.569 185.176 171.963V179.618Z" fill="url(#paint7_linear)"/>
<path opacity="0.7" d="M179.611 168.195C179.259 168.195 178.92 168.062 178.671 167.827C178.421 167.591 178.281 167.272 178.281 166.939V164.082H180.941V166.939C180.941 167.272 180.801 167.591 180.552 167.827C180.302 168.062 179.964 168.195 179.611 168.195Z" fill="url(#paint8_linear)"/>
<path opacity="0.7" d="M178.039 182.703H174.046V208.297H178.039V182.703Z" fill="url(#paint9_linear)"/>
<path opacity="0.7" d="M185.176 182.703H181.183V208.297H185.176V182.703Z" fill="url(#paint10_linear)"/>
<g opacity="0.1">
<path opacity="0.1" d="M178.281 165.99C179.155 166.193 180.068 166.193 180.941 165.99V164.195H178.281V165.99Z" fill="url(#paint11_linear)"/>
</g>
<path opacity="0.7" d="M179.611 164.994C182.819 164.994 185.419 162.539 185.419 159.51C185.419 156.481 182.819 154.025 179.611 154.025C176.404 154.025 173.804 156.481 173.804 159.51C173.804 162.539 176.404 164.994 179.611 164.994Z" fill="url(#paint12_linear)"/>
<path opacity="0.7" d="M179.611 166.024C182.685 166.024 185.176 163.67 185.176 160.768C185.176 157.865 182.685 155.512 179.611 155.512C176.538 155.512 174.046 157.865 174.046 160.768C174.046 163.67 176.538 166.024 179.611 166.024Z" fill="url(#paint13_linear)"/>
<g opacity="0.1">
<path opacity="0.1" d="M176.24 158.132C176.544 158.29 176.879 158.389 177.224 158.421C178.649 158.605 180.1 158.45 181.447 157.972C181.573 158.23 181.758 158.459 181.987 158.643C182.217 158.826 182.487 158.96 182.777 159.035C183.358 159.18 183.959 159.243 184.56 159.223C184.693 159.236 184.826 159.212 184.943 159.153C185.21 158.982 185.081 158.592 184.925 158.325L184.15 156.997C183.944 156.593 183.666 156.225 183.328 155.909C182.86 155.559 182.302 155.333 181.71 155.252C180.334 154.993 178.913 155.038 177.558 155.382C176.115 155.744 174.254 156.997 176.24 158.132Z" fill="url(#paint14_linear)"/>
</g>
<path opacity="0.7" d="M176.24 158.018C176.544 158.177 176.879 158.275 177.224 158.308C178.649 158.491 180.1 158.337 181.447 157.859C181.573 158.117 181.758 158.346 181.987 158.529C182.217 158.713 182.487 158.847 182.777 158.921C183.358 159.067 183.959 159.13 184.56 159.109C184.693 159.123 184.826 159.099 184.943 159.04C185.21 158.869 185.081 158.478 184.925 158.212L184.15 156.884C183.944 156.479 183.666 156.111 183.328 155.795C182.86 155.446 182.302 155.22 181.71 155.138C180.334 154.88 178.913 154.924 177.558 155.269C176.115 155.631 174.254 156.881 176.24 158.018Z" fill="url(#paint15_linear)"/>
<path opacity="0.7" d="M185.115 161.625C185.382 161.625 185.599 161.242 185.599 160.769C185.599 160.296 185.382 159.912 185.115 159.912C184.848 159.912 184.631 160.296 184.631 160.769C184.631 161.242 184.848 161.625 185.115 161.625Z" fill="url(#paint16_linear)"/>
<path opacity="0.7" d="M174.107 161.625C174.375 161.625 174.591 161.242 174.591 160.769C174.591 160.296 174.375 159.912 174.107 159.912C173.84 159.912 173.623 160.296 173.623 160.769C173.623 161.242 173.84 161.625 174.107 161.625Z" fill="url(#paint17_linear)"/>
<path opacity="0.7" d="M194.493 155.284C195.227 155.284 195.823 154.721 195.823 154.028C195.823 153.334 195.227 152.771 194.493 152.771C193.758 152.771 193.163 153.334 193.163 154.028C193.163 154.721 193.758 155.284 194.493 155.284Z" fill="url(#paint18_linear)"/>
<path opacity="0.7" d="M183.941 177.775C183.941 178.51 183.862 179.145 183.704 179.682C183.546 180.218 183.331 180.662 183.059 181.014C182.786 181.365 182.467 181.627 182.1 181.801C181.737 181.971 181.348 182.056 180.934 182.056C180.519 182.056 180.13 181.971 179.767 181.801C179.404 181.627 179.086 181.365 178.814 181.014C178.542 180.662 178.327 180.218 178.169 179.682C178.015 179.145 177.938 178.51 177.938 177.775C177.938 177.041 178.015 176.406 178.169 175.869C178.327 175.332 178.542 174.888 178.814 174.537C179.086 174.186 179.404 173.925 179.767 173.756C180.13 173.582 180.519 173.495 180.934 173.495C181.348 173.495 181.737 173.582 182.1 173.756C182.467 173.925 182.786 174.186 183.059 174.537C183.331 174.888 183.546 175.332 183.704 175.869C183.862 176.406 183.941 177.041 183.941 177.775ZM183.349 177.775C183.349 177.097 183.284 176.516 183.154 176.035C183.023 175.553 182.848 175.161 182.627 174.857C182.41 174.549 182.153 174.324 181.857 174.182C181.565 174.04 181.257 173.969 180.934 173.969C180.61 173.969 180.302 174.04 180.01 174.182C179.718 174.324 179.461 174.549 179.24 174.857C179.019 175.161 178.844 175.553 178.714 176.035C178.583 176.516 178.518 177.097 178.518 177.775C178.518 178.458 178.583 179.04 178.714 179.522C178.844 179.999 179.019 180.392 179.24 180.7C179.461 181.004 179.718 181.227 180.01 181.369C180.302 181.507 180.61 181.576 180.934 181.576C181.257 181.576 181.565 181.507 181.857 181.369C182.153 181.227 182.41 181.004 182.627 180.7C182.848 180.392 183.023 179.999 183.154 179.522C183.284 179.04 183.349 178.458 183.349 177.775ZM183.941 191.775C183.941 192.51 183.862 193.145 183.704 193.682C183.546 194.218 183.331 194.662 183.059 195.014C182.786 195.365 182.467 195.627 182.1 195.801C181.737 195.971 181.348 196.056 180.934 196.056C180.519 196.056 180.13 195.971 179.767 195.801C179.404 195.627 179.086 195.365 178.814 195.014C178.542 194.662 178.327 194.218 178.169 193.682C178.015 193.145 177.938 192.51 177.938 191.775C177.938 191.041 178.015 190.406 178.169 189.869C178.327 189.332 178.542 188.888 178.814 188.537C179.086 188.186 179.404 187.925 179.767 187.756C180.13 187.582 180.519 187.495 180.934 187.495C181.348 187.495 181.737 187.582 182.1 187.756C182.467 187.925 182.786 188.186 183.059 188.537C183.331 188.888 183.546 189.332 183.704 189.869C183.862 190.406 183.941 191.041 183.941 191.775ZM183.349 191.775C183.349 191.097 183.284 190.516 183.154 190.035C183.023 189.553 182.848 189.161 182.627 188.857C182.41 188.549 182.153 188.324 181.857 188.182C181.565 188.04 181.257 187.969 180.934 187.969C180.61 187.969 180.302 188.04 180.01 188.182C179.718 188.324 179.461 188.549 179.24 188.857C179.019 189.161 178.844 189.553 178.714 190.035C178.583 190.516 178.518 191.097 178.518 191.775C178.518 192.458 178.583 193.04 178.714 193.522C178.844 193.999 179.019 194.392 179.24 194.7C179.461 195.004 179.718 195.227 180.01 195.369C180.302 195.507 180.61 195.576 180.934 195.576C181.257 195.576 181.565 195.507 181.857 195.369C182.153 195.227 182.41 195.004 182.627 194.7C182.848 194.392 183.023 193.999 183.154 193.522C183.284 193.04 183.349 192.458 183.349 191.775Z" fill="black"/>
<path opacity="0.7" d="M179.734 162.823C179.734 162.823 176.59 163.85 174.169 161.566C174.169 161.566 174.365 162.325 174.702 163.236C175.247 164.213 176.104 165.002 177.151 165.493C178.198 165.983 179.382 166.15 180.535 165.969C181.688 165.789 182.751 165.27 183.575 164.486C184.398 163.703 184.939 162.694 185.121 161.604C184.539 161.899 180.405 163.778 179.734 162.823ZM179.614 164.194C179.001 164.194 178.526 163.76 178.526 163.508C178.526 163.257 179.014 163.28 179.614 163.28C180.215 163.28 180.702 163.257 180.702 163.508C180.702 163.76 180.212 164.194 179.611 164.194H179.614Z" fill="url(#paint19_linear)"/>
<path opacity="0.7" d="M182.569 167.514C182.569 167.514 189.047 164.082 193.04 154.027L194.977 155.171C194.977 155.171 191.771 167.983 183.727 170.938L182.569 167.514Z" fill="url(#paint20_linear)"/>
<path opacity="0.7" d="M164.733 155.284C165.468 155.284 166.063 154.721 166.063 154.028C166.063 153.334 165.468 152.771 164.733 152.771C163.999 152.771 163.403 153.334 163.403 154.028C163.403 154.721 163.999 155.284 164.733 155.284Z" fill="url(#paint21_linear)"/>
<path opacity="0.7" d="M176.654 167.514C176.654 167.514 170.176 164.082 166.183 154.027L164.258 155.168C164.258 155.168 167.464 167.98 175.508 170.935L176.654 167.514Z" fill="url(#paint22_linear)"/>
<path opacity="0.7" d="M177.797 209.213H174.288V209.042C174.288 208.603 174.473 208.182 174.802 207.872C175.13 207.561 175.576 207.387 176.041 207.387C176.506 207.387 176.952 207.561 177.28 207.872C177.609 208.182 177.794 208.603 177.794 209.042L177.797 209.213Z" fill="url(#paint23_linear)"/>
<path opacity="0.7" d="M184.934 209.213H181.419V209.042C181.419 208.603 181.604 208.182 181.933 207.872C182.262 207.561 182.707 207.387 183.172 207.387C183.637 207.387 184.083 207.561 184.412 207.872C184.741 208.182 184.925 208.603 184.925 209.042L184.934 209.213Z" fill="url(#paint24_linear)"/>
</g>
<path d="M185.017 177.771H174.208V185.317H185.017V177.771Z" fill="#4D8AF0"/>
<path opacity="0.1" d="M174.208 179.769C174.208 179.769 178.241 180.212 179.611 180.212C180.981 180.212 185.014 179.769 185.014 179.769V177.885H174.208V179.769Z" fill="black"/>
<path d="M185.014 179.66C185.014 179.66 180.981 180.103 179.611 180.103C178.241 180.103 174.208 179.66 174.208 179.66V172.227C174.208 170.874 174.778 169.576 175.791 168.619C176.804 167.663 178.178 167.125 179.611 167.125C181.044 167.125 182.418 167.663 183.432 168.619C184.445 169.576 185.014 170.874 185.014 172.227V179.66Z" fill="#F03D5F"/>
<path d="M178.318 164.57H180.901V167.343C180.901 167.667 180.765 167.978 180.523 168.207C180.28 168.436 179.951 168.564 179.608 168.564C179.265 168.564 178.936 168.436 178.694 168.207C178.451 167.978 178.315 167.667 178.315 167.343V164.57H178.318Z" fill="#FDB797"/>
<path d="M178.085 182.654H174.208V207.504H178.085V182.654Z" fill="#4D8AF0"/>
<path d="M185.014 182.654H181.137V207.504H185.014V182.654Z" fill="#4D8AF0"/>
<path opacity="0.1" d="M178.321 166.42C179.17 166.617 180.056 166.617 180.904 166.42V164.684H178.321V166.42Z" fill="black"/>
<path d="M179.611 165.459C182.726 165.459 185.25 163.075 185.25 160.134C185.25 157.193 182.726 154.809 179.611 154.809C176.497 154.809 173.973 157.193 173.973 160.134C173.973 163.075 176.497 165.459 179.611 165.459Z" fill="#814E4D"/>
<path d="M179.611 166.455C182.595 166.455 185.014 164.171 185.014 161.353C185.014 158.534 182.595 156.25 179.611 156.25C176.627 156.25 174.208 158.534 174.208 161.353C174.208 164.171 176.627 166.455 179.611 166.455Z" fill="#FDB797"/>
<path opacity="0.1" d="M176.338 158.793C176.634 158.944 176.96 159.037 177.295 159.065C178.678 159.244 180.087 159.095 181.395 158.631C181.517 158.882 181.697 159.105 181.92 159.283C182.144 159.462 182.406 159.592 182.688 159.665C183.253 159.806 183.836 159.867 184.42 159.847C184.548 159.861 184.679 159.838 184.793 159.78C185.054 159.615 184.928 159.236 184.775 158.976L184.021 157.688C183.821 157.295 183.552 156.938 183.224 156.631C182.769 156.293 182.226 156.073 181.652 155.995C180.316 155.744 178.935 155.787 177.619 156.122C176.21 156.475 174.408 157.691 176.338 158.793Z" fill="black"/>
<path d="M176.338 158.684C176.634 158.835 176.96 158.928 177.295 158.956C178.678 159.135 180.087 158.986 181.395 158.522C181.517 158.773 181.697 158.995 181.92 159.174C182.144 159.352 182.406 159.483 182.688 159.555C183.253 159.696 183.836 159.758 184.42 159.738C184.548 159.752 184.679 159.728 184.793 159.671C185.054 159.506 184.928 159.127 184.775 158.866L184.021 157.578C183.821 157.186 183.552 156.829 183.224 156.522C182.769 156.183 182.226 155.964 181.652 155.885C180.316 155.634 178.935 155.678 177.619 156.013C176.21 156.366 174.408 157.581 176.338 158.684Z" fill="#814E4D"/>
<path d="M184.956 162.183C185.215 162.183 185.425 161.811 185.425 161.352C185.425 160.893 185.215 160.521 184.956 160.521C184.697 160.521 184.487 160.893 184.487 161.352C184.487 161.811 184.697 162.183 184.956 162.183Z" fill="#FDB797"/>
<path d="M174.267 162.183C174.526 162.183 174.736 161.811 174.736 161.352C174.736 160.893 174.526 160.521 174.267 160.521C174.008 160.521 173.798 160.893 173.798 161.352C173.798 161.811 174.008 162.183 174.267 162.183Z" fill="#FDB797"/>
<path d="M194.061 156.031C194.775 156.031 195.354 155.484 195.354 154.809C195.354 154.135 194.775 153.588 194.061 153.588C193.346 153.588 192.767 154.135 192.767 154.809C192.767 155.484 193.346 156.031 194.061 156.031Z" fill="#FDB797"/>
<path d="M179.731 163.35C179.731 163.35 176.666 164.349 174.328 162.129C174.328 162.129 174.518 162.864 174.846 163.753C175.376 164.699 176.208 165.465 177.224 165.94C178.24 166.416 179.389 166.577 180.508 166.402C181.627 166.226 182.658 165.723 183.457 164.963C184.256 164.203 184.782 163.224 184.959 162.167C184.398 162.456 180.384 164.276 179.731 163.35ZM179.614 164.682C179.029 164.682 178.557 164.262 178.557 164.016C178.557 163.77 179.029 163.793 179.614 163.793C180.2 163.793 180.672 163.77 180.672 164.016C180.672 164.262 180.194 164.682 179.611 164.682H179.614Z" fill="#814E4D"/>
<path d="M182.483 167.905C182.483 167.905 188.774 164.571 192.651 154.809L194.529 155.917C194.529 155.917 191.416 168.362 183.604 171.227L182.483 167.905Z" fill="#F03D5F"/>
<path d="M165.162 156.031C165.876 156.031 166.455 155.484 166.455 154.809C166.455 154.135 165.876 153.588 165.162 153.588C164.448 153.588 163.869 154.135 163.869 154.809C163.869 155.484 164.448 156.031 165.162 156.031Z" fill="#FDB797"/>
<path d="M176.74 167.905C176.74 167.905 170.449 164.571 166.572 154.809L164.693 155.917C164.693 155.917 167.807 168.362 175.618 171.227L176.74 167.905Z" fill="#F03D5F"/>
<path d="M176.145 206.617C176.597 206.617 177.031 206.787 177.35 207.089C177.67 207.39 177.849 207.8 177.849 208.226V208.383H174.445V208.218C174.447 207.793 174.627 207.386 174.946 207.086C175.264 206.787 175.696 206.618 176.145 206.617Z" fill="#333333"/>
<path d="M183.077 206.617C183.529 206.617 183.962 206.787 184.282 207.089C184.602 207.39 184.781 207.8 184.781 208.226V208.383H181.373V208.218C181.376 207.792 181.556 207.385 181.876 207.085C182.195 206.786 182.627 206.617 183.077 206.617Z" fill="#333333"/>
</g>
<defs>
<linearGradient id="paint0_linear" x1="40.7979" y1="39.4847" x2="40.7979" y2="32.5762" gradientUnits="userSpaceOnUse">
<stop stop-color="#808080" stop-opacity="0.25"/>
<stop offset="0.54" stop-color="#808080" stop-opacity="0.12"/>
<stop offset="1" stop-color="#808080" stop-opacity="0.1"/>
</linearGradient>
<linearGradient id="paint1_linear" x1="28072.2" y1="13211.7" x2="28072.2" y2="4333.1" gradientUnits="userSpaceOnUse">
<stop stop-color="#808080" stop-opacity="0.25"/>
<stop offset="0.54" stop-color="#808080" stop-opacity="0.12"/>
<stop offset="1" stop-color="#808080" stop-opacity="0.1"/>
</linearGradient>
<linearGradient id="paint2_linear" x1="2324.44" y1="1512" x2="2324.44" y2="1295.92" gradientUnits="userSpaceOnUse">
<stop stop-color="#808080" stop-opacity="0.25"/>
<stop offset="0.54" stop-color="#808080" stop-opacity="0.12"/>
<stop offset="1" stop-color="#808080" stop-opacity="0.1"/>
</linearGradient>
<linearGradient id="paint3_linear" x1="2907.4" y1="2349.87" x2="2907.4" y2="1884.61" gradientUnits="userSpaceOnUse">
<stop stop-color="#808080" stop-opacity="0.25"/>
<stop offset="0.54" stop-color="#808080" stop-opacity="0.12"/>
<stop offset="1" stop-color="#808080" stop-opacity="0.1"/>
</linearGradient>
<linearGradient id="paint4_linear" x1="42312.3" y1="12650.2" x2="42312.3" y2="9067.23" gradientUnits="userSpaceOnUse">
<stop stop-color="#808080" stop-opacity="0.25"/>
<stop offset="0.54" stop-color="#808080" stop-opacity="0.12"/>
<stop offset="1" stop-color="#808080" stop-opacity="0.1"/>
</linearGradient>
<linearGradient id="paint5_linear" x1="6495.4" y1="5050.74" x2="6899.66" y2="5050.74" gradientUnits="userSpaceOnUse">
<stop stop-color="#808080" stop-opacity="0.25"/>
<stop offset="0.54" stop-color="#808080" stop-opacity="0.12"/>
<stop offset="1" stop-color="#808080" stop-opacity="0.1"/>
</linearGradient>
<linearGradient id="paint6_linear" x1="9378.16" y1="1866.71" x2="9782.41" y2="1866.71" gradientUnits="userSpaceOnUse">
<stop stop-color="#808080" stop-opacity="0.25"/>
<stop offset="0.54" stop-color="#808080" stop-opacity="0.12"/>
<stop offset="1" stop-color="#808080" stop-opacity="0.1"/>
</linearGradient>
<linearGradient id="paint7_linear" x1="9378.16" y1="9318.43" x2="9782.41" y2="9318.43" gradientUnits="userSpaceOnUse">
<stop stop-color="#808080" stop-opacity="0.25"/>
<stop offset="0.54" stop-color="#808080" stop-opacity="0.12"/>
<stop offset="1" stop-color="#808080" stop-opacity="0.1"/>
</linearGradient>
<linearGradient id="paint8_linear" x1="2414.71" y1="2876.44" x2="2437.79" y2="2876.44" gradientUnits="userSpaceOnUse">
<stop stop-color="#808080" stop-opacity="0.25"/>
<stop offset="0.54" stop-color="#808080" stop-opacity="0.12"/>
<stop offset="1" stop-color="#808080" stop-opacity="0.1"/>
</linearGradient>
<linearGradient id="paint9_linear" x1="2441.85" y1="17470.6" x2="2493.88" y2="17470.6" gradientUnits="userSpaceOnUse">
<stop stop-color="#808080" stop-opacity="0.25"/>
<stop offset="0.54" stop-color="#808080" stop-opacity="0.12"/>
<stop offset="1" stop-color="#808080" stop-opacity="0.1"/>
</linearGradient>
<linearGradient id="paint10_linear" x1="2542.01" y1="17470.6" x2="2594.04" y2="17470.6" gradientUnits="userSpaceOnUse">
<stop stop-color="#808080" stop-opacity="0.25"/>
<stop offset="0.54" stop-color="#808080" stop-opacity="0.12"/>
<stop offset="1" stop-color="#808080" stop-opacity="0.1"/>
</linearGradient>
<linearGradient id="paint11_linear" x1="2414.71" y1="1441.49" x2="2437.79" y2="1441.49" gradientUnits="userSpaceOnUse">
<stop stop-color="#808080" stop-opacity="0.25"/>
<stop offset="0.54" stop-color="#808080" stop-opacity="0.12"/>
<stop offset="1" stop-color="#808080" stop-opacity="0.1"/>
</linearGradient>
<linearGradient id="paint12_linear" x1="6760.96" y1="6199.43" x2="7201.15" y2="6199.43" gradientUnits="userSpaceOnUse">
<stop stop-color="#808080" stop-opacity="0.25"/>
<stop offset="0.54" stop-color="#808080" stop-opacity="0.12"/>
<stop offset="1" stop-color="#808080" stop-opacity="0.1"/>
</linearGradient>
<linearGradient id="paint13_linear" x1="6495.4" y1="5994.6" x2="6899.66" y2="5994.6" gradientUnits="userSpaceOnUse">
<stop stop-color="#808080" stop-opacity="0.25"/>
<stop offset="0.54" stop-color="#808080" stop-opacity="0.12"/>
<stop offset="1" stop-color="#808080" stop-opacity="0.1"/>
</linearGradient>
<linearGradient id="paint14_linear" x1="8257.26" y1="2757.17" x2="8565.74" y2="2757.17" gradientUnits="userSpaceOnUse">
<stop stop-color="#808080" stop-opacity="0.25"/>
<stop offset="0.54" stop-color="#808080" stop-opacity="0.12"/>
<stop offset="1" stop-color="#808080" stop-opacity="0.1"/>
</linearGradient>
<linearGradient id="paint15_linear" x1="8257.26" y1="2755.41" x2="8565.74" y2="2755.41" gradientUnits="userSpaceOnUse">
<stop stop-color="#808080" stop-opacity="0.25"/>
<stop offset="0.54" stop-color="#808080" stop-opacity="0.12"/>
<stop offset="1" stop-color="#808080" stop-opacity="0.1"/>
</linearGradient>
<linearGradient id="paint16_linear" x1="768.072" y1="1111.65" x2="771.132" y2="1111.65" gradientUnits="userSpaceOnUse">
<stop stop-color="#808080" stop-opacity="0.25"/>
<stop offset="0.54" stop-color="#808080" stop-opacity="0.12"/>
<stop offset="1" stop-color="#808080" stop-opacity="0.1"/>
</linearGradient>
<linearGradient id="paint17_linear" x1="722.279" y1="1111.65" x2="725.339" y2="1111.65" gradientUnits="userSpaceOnUse">
<stop stop-color="#808080" stop-opacity="0.25"/>
<stop offset="0.54" stop-color="#808080" stop-opacity="0.12"/>
<stop offset="1" stop-color="#808080" stop-opacity="0.1"/>
</linearGradient>
<linearGradient id="paint18_linear" x1="1869.79" y1="1489.73" x2="1892.9" y2="1489.73" gradientUnits="userSpaceOnUse">
<stop stop-color="#808080" stop-opacity="0.25"/>
<stop offset="0.54" stop-color="#808080" stop-opacity="0.12"/>
<stop offset="1" stop-color="#808080" stop-opacity="0.1"/>
</linearGradient>
<linearGradient id="paint19_linear" x1="9235.66" y1="3075.82" x2="9626.56" y2="3075.82" gradientUnits="userSpaceOnUse">
<stop stop-color="#808080" stop-opacity="0.25"/>
<stop offset="0.54" stop-color="#808080" stop-opacity="0.12"/>
<stop offset="1" stop-color="#808080" stop-opacity="0.1"/>
</linearGradient>
<linearGradient id="paint20_linear" x1="10788.5" y1="11093.4" x2="11290.9" y2="11093.4" gradientUnits="userSpaceOnUse">
<stop stop-color="#808080" stop-opacity="0.25"/>
<stop offset="0.54" stop-color="#808080" stop-opacity="0.12"/>
<stop offset="1" stop-color="#808080" stop-opacity="0.1"/>
</linearGradient>
<linearGradient id="paint21_linear" x1="1581.72" y1="1489.73" x2="1604.83" y2="1489.73" gradientUnits="userSpaceOnUse">
<stop stop-color="#808080" stop-opacity="0.25"/>
<stop offset="0.54" stop-color="#808080" stop-opacity="0.12"/>
<stop offset="1" stop-color="#808080" stop-opacity="0.1"/>
</linearGradient>
<linearGradient id="paint22_linear" x1="10018.7" y1="11091.5" x2="10520.5" y2="11091.5" gradientUnits="userSpaceOnUse">
<stop stop-color="#808080" stop-opacity="0.25"/>
<stop offset="0.54" stop-color="#808080" stop-opacity="0.12"/>
<stop offset="1" stop-color="#808080" stop-opacity="0.1"/>
</linearGradient>
<linearGradient id="paint23_linear" x1="3078.69" y1="1677.86" x2="3118.87" y2="1677.86" gradientUnits="userSpaceOnUse">
<stop stop-color="#808080" stop-opacity="0.25"/>
<stop offset="0.54" stop-color="#808080" stop-opacity="0.12"/>
<stop offset="1" stop-color="#808080" stop-opacity="0.1"/>
</linearGradient>
<linearGradient id="paint24_linear" x1="3172.73" y1="1677.86" x2="3212.97" y2="1677.86" gradientUnits="userSpaceOnUse">
<stop stop-color="#808080" stop-opacity="0.25"/>
<stop offset="0.54" stop-color="#808080" stop-opacity="0.12"/>
<stop offset="1" stop-color="#808080" stop-opacity="0.1"/>
</linearGradient>
<clipPath id="clip0">
<rect width="209" height="211" fill="white"/>
</clipPath>
</defs>
</svg>
