<svg width="584" height="431" viewBox="0 0 584 431" fill="none" xmlns="http://www.w3.org/2000/svg">
<path d="M330.718 241.785H166.233V94.6278H330.718V241.785Z" fill="#FAFAF9"/>
<path d="M330.719 241.788C330.719 241.788 330.691 240.844 330.676 239.056C330.667 237.251 330.653 234.611 330.634 231.172C330.612 224.263 330.579 214.164 330.537 201.301C330.491 175.588 330.425 138.848 330.346 94.6309L330.718 95.0033C283.348 95.0232 226.815 95.045 166.248 95.0696H166.234L166.673 94.6309C166.655 148.168 166.636 198.547 166.621 241.788L166.234 241.401C215.303 241.481 256.373 241.549 285.201 241.596C299.624 241.64 310.981 241.675 318.755 241.698C322.629 241.718 325.605 241.733 327.638 241.744C328.633 241.753 329.394 241.761 329.929 241.765C330.445 241.773 330.719 241.788 330.719 241.788C330.719 241.788 330.474 241.802 329.973 241.81C329.448 241.815 328.702 241.822 327.725 241.832C325.708 241.842 322.757 241.857 318.917 241.877C311.162 241.901 299.836 241.936 285.45 241.98C256.561 242.027 215.406 242.094 166.234 242.175L165.847 242.176V241.788C165.831 198.547 165.813 148.168 165.794 94.6309V94.1903H166.234H166.248C226.815 94.2149 283.348 94.2377 330.718 94.2576H331.092L331.091 94.6309C331.012 138.947 330.946 175.768 330.9 201.537C330.858 214.363 330.826 224.435 330.803 231.325C330.784 234.732 330.77 237.348 330.761 239.137C330.746 240.899 330.719 241.788 330.719 241.788" fill="#DADBD8"/>
<path d="M229.303 120.775C229.303 121.018 220.645 121.215 209.968 121.215C199.286 121.215 190.631 121.018 190.631 120.775C190.631 120.533 199.286 120.336 209.968 120.336C220.645 120.336 229.303 120.533 229.303 120.775" fill="#DADBD8"/>
<path d="M298.998 131.826C298.998 132.069 275.213 132.266 245.879 132.266C216.535 132.266 192.756 132.069 192.756 131.826C192.756 131.583 216.535 131.386 245.879 131.386C275.213 131.386 298.998 131.583 298.998 131.826" fill="#DADBD8"/>
<path d="M197.844 157.469H190.914V150.538H197.844V157.469Z" fill="#DADBD8"/>
<path d="M214.902 157.469H207.972V150.538H214.902V157.469Z" fill="#DADBD8"/>
<path d="M232.274 157.156H225.344V150.227H232.274V157.156Z" fill="#DADBD8"/>
<path d="M249.017 157.469H242.087V150.538H249.017V157.469" fill="#DADBD8"/>
<path d="M266.075 157.469H259.145V150.538H266.075V157.469Z" fill="#DADBD8"/>
<path d="M283.133 157.469H276.203V150.538H283.133V157.469Z" fill="#DADBD8"/>
<path d="M300.191 157.469H293.26V150.538H300.191V157.469Z" fill="#E7E8E5"/>
<path d="M197.844 172.203H190.914V165.273H197.844V172.203Z" fill="#E7E8E5"/>
<path d="M214.902 172.203H207.972V165.273H214.902V172.203Z" fill="#DADBD8"/>
<path d="M231.959 172.203H225.029V165.273H231.959V172.203Z" fill="#E7E8E5"/>
<path d="M249.017 172.203H242.087V165.273H249.017V172.203" fill="#DADBD8"/>
<path d="M266.075 172.203H259.145V165.273H266.075V172.203Z" fill="#DADBD8"/>
<path d="M283.448 171.891H276.517V164.96H283.448V171.891Z" fill="#DADBD8"/>
<path d="M300.191 172.203H293.26V165.273H300.191V172.203Z" fill="#DADBD8"/>
<path d="M197.844 186.938H190.914V180.008H197.844V186.938Z" fill="#DADBD8"/>
<path d="M215.216 186.625H208.286V179.696H215.216V186.625Z" fill="#DADBD8"/>
<path d="M231.959 186.938H225.029V180.008H231.959V186.938Z" fill="#DADBD8"/>
<path d="M249.017 186.938H242.087V180.008H249.017V186.938" fill="#E7E8E5"/>
<path d="M266.075 186.938H259.145V180.008H266.075V186.938Z" fill="#DADBD8"/>
<path d="M283.133 186.938H276.203V180.008H283.133V186.938Z" fill="#DADBD8"/>
<path d="M300.191 186.938H293.26V180.008H300.191V186.938Z" fill="#DADBD8"/>
<path d="M197.844 201.672H190.914V194.742H197.844V201.672Z" fill="#DADBD8"/>
<path d="M214.902 201.672H207.972V194.742H214.902V201.672Z" fill="#DADBD8"/>
<path d="M231.959 201.672H225.029V194.742H231.959V201.672Z" fill="#DADBD8"/>
<path d="M249.331 201.355H242.402V194.426H249.331V201.355" fill="#DADBD8"/>
<path d="M266.075 201.672H259.145V194.742H266.075V201.672Z" fill="#DADBD8"/>
<path d="M283.133 201.672H276.203V194.742H283.133V201.672Z" fill="#E7E8E5"/>
<path d="M300.191 201.672H293.26V194.742H300.191V201.672Z" fill="#DADBD8"/>
<path d="M197.844 216.402H190.914V209.472H197.844V216.402Z" fill="#DADBD8"/>
<path d="M214.902 216.402H207.972V209.472H214.902V216.402Z" fill="#E7E8E5"/>
<path d="M231.959 216.402H225.029V209.472H231.959V216.402Z" fill="#DADBD8"/>
<path d="M249.017 216.402H242.087V209.472H249.017V216.402" fill="#DADBD8"/>
<path d="M266.075 216.402H259.145V209.472H266.075V216.402Z" fill="#DADBD8"/>
<path d="M283.448 216.09H276.517V209.16H283.448V216.09Z" fill="#DADBD8"/>
<path d="M300.191 216.402H293.26V209.472H300.191V216.402Z" fill="#DADBD8"/>
<path d="M516.739 112.212L506.167 112.27L505.886 59.6723L516.456 59.6155L516.739 112.212Z" fill="#DADBD8"/>
<path d="M441.841 88.7867L414.468 88.9336L414.312 59.897L441.686 59.7502L441.841 88.7867" fill="#E7E8E5"/>
<path d="M469.085 88.6431L441.711 88.7891L441.556 59.7525L468.929 59.6057L469.085 88.6431" fill="#F3F2F1"/>
<path d="M414.356 67.9169C432.547 68.0666 450.782 67.9605 468.972 67.6658C469.346 67.6601 469.343 67.0859 468.969 67.084C450.777 66.9835 432.541 67.0726 414.353 67.4185C414.032 67.4242 414.034 67.914 414.356 67.9169" fill="#DADBD8"/>
<path d="M447.104 111.967L397.373 112.234L397.246 88.5704L446.978 88.3042L447.104 111.967Z" fill="#E7E8E5"/>
<path d="M496.602 111.698L446.87 111.965L446.744 88.3018L496.475 88.0356L496.602 111.698Z" fill="#F3F2F1"/>
<path d="M397.281 95.1533C430.32 95.5276 463.474 95.1921 496.51 94.6634C496.885 94.6568 496.883 94.0835 496.508 94.0816C463.467 93.9073 430.311 93.9262 397.278 94.6549C396.959 94.6615 396.961 95.1495 397.281 95.1533" fill="#DADBD8"/>
<path d="M571.362 120.711H378.682V112.234H571.362V120.711Z" fill="#DADBD8"/>
<path d="M418.05 145.238H410.228V116.311H418.05V145.238Z" fill="#DADBD8"/>
<path d="M534.813 145.238H526.991V116.311H534.813V145.238Z" fill="#DADBD8"/>
<path d="M527.159 112.342L516.589 112.398L516.2 40.0592L526.771 40.0023L527.159 112.342Z" fill="#E7E8E5"/>
<path d="M543.601 112.091L527.177 112.18L526.862 53.5561L543.287 53.468L543.601 112.091" fill="#F3F2F1"/>
<path d="M543.177 64.7578C543.177 64.915 539.5 65.043 534.965 65.043C530.429 65.043 526.752 64.915 526.752 64.7578C526.752 64.6014 530.429 64.4735 534.965 64.4735C539.5 64.4735 543.177 64.6014 543.177 64.7578Z" fill="#DADBD8"/>
<path d="M543.177 62.2978C543.177 62.4541 539.5 62.582 534.965 62.582C530.429 62.582 526.752 62.4541 526.752 62.2978C526.752 62.1405 530.429 62.0135 534.965 62.0135C539.5 62.0135 543.177 62.1405 543.177 62.2978Z" fill="#DADBD8"/>
<path d="M543.177 103.27C543.177 103.428 539.5 103.555 534.965 103.555C530.429 103.555 526.752 103.428 526.752 103.27C526.752 103.113 530.429 102.986 534.965 102.986C539.5 102.986 543.177 103.113 543.177 103.27Z" fill="#DADBD8"/>
<path d="M543.177 100.806C543.177 100.963 539.5 101.09 534.965 101.09C530.429 101.09 526.752 100.963 526.752 100.806C526.752 100.649 530.429 100.521 534.965 100.521C539.5 100.521 543.177 100.649 543.177 100.806Z" fill="#DADBD8"/>
<path d="M535.229 95.4336C535.071 95.4336 534.944 89.5181 534.944 82.2239C534.944 74.9278 535.071 69.0142 535.229 69.0142C535.385 69.0142 535.513 74.9278 535.513 82.2239C535.513 89.5181 535.385 95.4336 535.229 95.4336Z" fill="#DADBD8"/>
<path d="M561.233 112.109H543.355V67.86H561.233V112.109" fill="#E7E8E5"/>
<path d="M524.368 52.3489C524.368 54.027 523.008 55.3867 521.33 55.3867C519.652 55.3867 518.292 54.027 518.292 52.3489C518.292 50.6708 519.652 49.3111 521.33 49.3111C523.008 49.3111 524.368 50.6708 524.368 52.3489Z" fill="#DADBD8"/>
<path d="M522.269 103.742H520.391V60.7085H522.269V103.742Z" fill="#DADBD8"/>
<path d="M197.608 335.299C202.567 332.74 208.407 332.407 213.912 333.318C216.869 333.806 219.953 334.692 221.965 336.913C223.978 339.134 224.359 343.044 222.048 344.953C220.673 346.089 218.754 346.262 216.97 346.241C212.661 346.191 207.879 345.432 204.435 348.025C202.472 349.505 201.164 351.964 198.815 352.692C196.518 353.403 193.925 352.047 192.707 349.974C191.489 347.9 191.448 345.307 192.015 342.971C192.015 342.971 192.614 337.876 197.608 335.299" fill="#F03D5F"/>
<path d="M186.248 313.369C189.28 317.699 195.173 316.265 197.906 313.623C200.639 310.979 201.793 307.148 202.845 303.494C205.247 295.146 207.668 286.389 205.882 277.889C205.348 275.348 204.398 272.813 202.612 270.927C200.826 269.043 198.081 267.92 195.57 268.583C192.598 269.37 190.751 272.279 189.416 275.048C185.493 283.186 183.415 292.207 183.385 301.241C183.37 305.46 183.868 309.885 186.248 313.369" fill="#F03D5F"/>
<path d="M177.921 319.583C181.214 315.676 181.838 309.976 180.373 305.081C178.908 300.186 175.598 296.022 171.784 292.623C167.312 288.637 162.055 285.534 156.404 283.547C154.18 282.766 151.835 282.149 149.488 282.373C147.141 282.597 144.778 283.797 143.683 285.884C142.065 288.972 143.616 292.716 145.295 295.771C148.252 301.153 151.633 306.301 155.396 311.153C158.424 315.057 161.893 318.908 166.507 320.672C171.121 322.436 175.915 322.229 178.361 319.028" fill="#F03D5F"/>
<path d="M186.043 378.695C186.099 378.699 186.191 377.998 186.317 376.728C186.456 375.296 186.631 373.497 186.84 371.357C187.09 369.098 187.42 366.409 188.048 363.481C188.674 360.559 189.653 357.394 190.911 354.182C192.213 350.991 193.802 348.091 195.659 345.77C197.502 343.44 199.645 341.753 201.661 340.781C203.669 339.788 205.47 339.386 206.715 339.206C207.971 339.078 208.674 338.978 208.675 338.923C208.675 338.866 207.971 338.858 206.681 338.893C205.403 338.977 203.527 339.301 201.41 340.264C199.286 341.206 197.012 342.919 195.079 345.296C193.129 347.665 191.483 350.63 190.157 353.879C188.878 357.145 187.912 360.343 187.315 363.328C186.719 366.307 186.446 369.027 186.267 371.306C186.097 373.586 186.032 375.432 186.001 376.709C185.973 377.985 185.987 378.693 186.043 378.695" fill="#17282F"/>
<path d="M186.413 374.562C186.441 374.561 186.459 374.247 186.466 373.649C186.464 372.964 186.462 372.099 186.459 371.038C186.452 368.773 186.454 365.493 186.575 361.444C186.775 353.345 187.473 344.629 188.82 332.341C190.095 320.785 191.807 307.338 193.614 298.595C194.001 296.606 194.391 294.816 194.758 293.251C195.109 291.679 195.408 290.326 195.696 289.23C195.944 288.2 196.146 287.359 196.306 286.692C196.437 286.109 196.493 285.798 196.466 285.792C196.44 285.784 196.331 286.078 196.149 286.647C195.95 287.304 195.699 288.132 195.391 289.15C195.054 290.235 194.71 291.58 194.317 293.144C193.907 294.704 193.476 296.49 193.052 298.475C191.264 306.397 189.372 317.469 188.012 329.787C186.663 342.101 186.054 353.314 186.001 361.433C185.953 365.493 186.039 368.779 186.143 371.046C186.208 372.106 186.26 372.97 186.302 373.656C186.348 374.252 186.385 374.564 186.413 374.562" fill="#17282F"/>
<path d="M186.467 352.937C186.523 352.936 186.514 351.966 186.448 350.209C186.347 348.456 186.107 345.923 185.613 342.82C185.089 339.724 184.358 336.048 183.209 332.053C182.711 330.227 181.541 325.851 178.707 319.313C174.972 310.453 169.899 303.21 165.485 298.724C164.449 297.534 163.296 296.674 162.374 295.833C161.897 295.429 161.475 295.027 161.045 294.708C160.613 294.41 160.211 294.133 159.838 293.876C158.385 292.883 157.572 292.358 157.542 292.405C157.411 292.584 160.795 294.574 165.069 299.121C169.324 303.658 174.257 310.85 177.961 319.635C180.027 324.4 181.467 328.65 182.489 332.258C183.67 336.214 184.454 339.853 185.047 342.918C185.61 345.99 185.936 348.498 186.132 350.235C186.294 351.975 186.411 352.939 186.467 352.937" fill="#17282F"/>
<path d="M165.565 391.086L167.732 420.773H205.87L208.037 391.086H165.565Z" fill="#17282F"/>
<path d="M161.881 379.385V391.086H212.587V379.385H161.881Z" fill="#17282F"/>
<path d="M161.881 419.635V422.879H211.75V419.635H161.881Z" fill="#33535F"/>
<path d="M166.599 428.59L164.264 422.88H209.933L207.209 428.59H166.599Z" fill="#33535F"/>
<path d="M207.329 400.79C207.337 400.797 207.277 400.889 207.151 401.062C206.999 401.263 206.812 401.512 206.581 401.818C206.039 402.511 205.295 403.463 204.359 404.662L204.26 404.788L204.165 404.656C202.768 402.724 200.903 400.144 198.707 397.106H199.021C197.397 399.406 195.589 401.966 193.647 404.715L193.478 404.954L193.29 404.73C191.307 402.371 189.153 399.807 186.917 397.147L187.284 397.142C187.174 397.281 187.053 397.432 186.933 397.583C184.956 400.061 183.044 402.46 181.235 404.727L181.045 404.965L180.869 404.717C178.934 401.98 177.127 399.423 175.492 397.11L175.805 397.125C173.156 400.144 170.908 402.704 169.184 404.669L169.066 404.803L168.976 404.652C168.104 403.186 167.408 402.017 166.903 401.169C166.687 400.791 166.511 400.486 166.372 400.242C166.255 400.029 166.199 399.917 166.209 399.911C166.219 399.904 166.294 400.005 166.431 400.206C166.586 400.44 166.78 400.733 167.02 401.097C167.549 401.929 168.28 403.078 169.196 404.517L168.989 404.501C170.686 402.511 172.897 399.92 175.504 396.864L175.668 396.671L175.818 396.88C177.466 399.181 179.29 401.727 181.242 404.453L180.876 404.442C182.682 402.171 184.59 399.77 186.562 397.288C186.682 397.135 186.802 396.986 186.913 396.847L187.094 396.619L187.281 396.843C189.51 399.507 191.658 402.075 193.636 404.439L193.279 404.453C195.24 401.718 197.067 399.171 198.707 396.883L198.865 396.661L199.021 396.883C201.171 399.954 202.997 402.562 204.363 404.514L204.17 404.509C205.144 403.341 205.917 402.413 206.48 401.738C206.732 401.447 206.935 401.211 207.1 401.021C207.242 400.861 207.32 400.783 207.329 400.79" fill="#DADBD8"/>
<path d="M208.568 390.891C208.568 391.022 199.011 391.129 187.226 391.129C175.437 391.129 165.882 391.022 165.882 390.891C165.882 390.761 175.437 390.654 187.226 390.654C199.011 390.654 208.568 390.761 208.568 390.891Z" fill="#33535F"/>
<path d="M210.494 423.197C210.494 423.328 200.108 423.434 187.3 423.434C174.487 423.434 164.103 423.328 164.103 423.197C164.103 423.066 174.487 422.959 187.3 422.959C200.108 422.959 210.494 423.066 210.494 423.197Z" fill="#17282F"/>
<path d="M574.245 429.129H456.961V317.68C456.961 309.764 463.377 303.348 471.293 303.348H559.913C567.828 303.348 574.245 309.764 574.245 317.68V429.129" fill="#33535F"/>
<path d="M564.385 303.991C564.52 303.991 564.631 331.992 564.631 366.526C564.631 401.07 564.52 429.066 564.385 429.066C564.248 429.066 564.138 401.07 564.138 366.526C564.138 331.992 564.248 303.991 564.385 303.991Z" fill="#17282F"/>
<path d="M506.604 166.797C517.35 182.115 523.614 200.538 524.431 219.231C524.982 231.834 523.286 245.264 529.267 256.371C537.847 272.304 556.414 271.763 562.098 288.945C564.57 296.417 560.013 312.863 558.784 320.638C557.387 329.473 562.792 336.894 561.396 345.73C560.115 353.83 554.054 359.612 546.772 363.383C540.294 366.738 534.306 366.828 527.565 364.038C514.724 358.721 504.035 353.11 494.885 342.647C482.04 327.96 478.159 307.623 475.964 288.234C471.126 245.487 472.106 202.086 478.873 159.602L506.604 166.797Z" fill="#17282F"/>
<path d="M534.068 365.844C534.068 365.844 534.207 365.8 534.481 365.741C534.755 365.674 535.17 365.612 535.696 365.451C536.752 365.171 538.303 364.668 540.132 363.678C541.952 362.693 544.106 361.244 545.994 358.979C546.926 357.847 547.779 356.496 548.285 354.915C548.767 353.332 548.984 351.554 549.086 349.708C549.269 345.993 548.702 341.93 547.858 337.634C547.032 333.334 545.911 328.746 545.641 323.778C545.512 321.303 545.62 318.73 546.177 316.181C546.706 313.626 547.628 311.129 548.586 308.62C549.551 306.112 550.566 303.578 551.3 300.922C551.996 298.272 552.423 295.458 551.958 292.68C551.553 289.898 550.413 287.295 548.883 285.02C547.356 282.733 545.457 280.76 543.51 278.932C539.595 275.279 535.358 272.261 531.738 268.873C524.434 262.146 519.516 254.492 516.408 247.708C514.859 244.303 513.669 241.123 512.878 238.259C512.423 236.843 512.165 235.481 511.839 234.252C511.595 233.005 511.373 231.864 511.172 230.837C510.869 228.767 510.651 227.16 510.59 226.059C510.549 225.53 510.517 225.116 510.494 224.813C510.474 224.532 510.477 224.387 510.477 224.387C510.477 224.387 510.508 224.529 510.544 224.809C510.58 225.111 510.627 225.522 510.689 226.05C510.781 227.145 511.031 228.746 511.361 230.804C511.574 231.826 511.81 232.959 512.068 234.199C512.406 235.421 512.677 236.775 513.144 238.18C513.956 241.026 515.164 244.183 516.724 247.561C519.857 254.292 524.777 261.878 532.046 268.539C535.645 271.893 539.889 274.902 543.839 278.579C545.804 280.419 547.73 282.413 549.29 284.746C550.853 287.065 552.03 289.743 552.445 292.608C552.924 295.473 552.482 298.363 551.774 301.051C551.026 303.745 550.002 306.293 549.038 308.794C548.079 311.297 547.16 313.768 546.638 316.278C546.086 318.78 545.973 321.308 546.095 323.756C546.348 328.666 547.448 333.244 548.26 337.557C549.089 341.866 549.641 345.967 549.435 349.725C549.319 351.6 549.092 353.378 548.584 355.011C548.05 356.637 547.165 358.012 546.205 359.154C544.265 361.443 542.072 362.88 540.222 363.848C538.362 364.82 536.79 365.298 535.72 365.547C534.647 365.803 534.068 365.844 534.068 365.844" fill="#33535F"/>
<path d="M357.651 399.704L403.12 378.107C403.12 378.107 420.83 292.122 424.179 285.665C427.526 279.207 441.524 273.629 441.524 273.629L439.179 390.063L435.025 416.92L370.897 422.996L357.651 399.704Z" fill="#F03D5F"/>
<path d="M318.84 420.07C318.589 420.062 317.324 420.854 318.385 422.849C319.445 424.846 327.143 431.447 329.409 429.15C331.675 426.849 328.214 424.042 328.214 424.042L318.84 420.07Z" fill="#F8A58D"/>
<path d="M328.541 424.134C328.541 424.134 337.839 425.306 341.419 426.667C345.308 428.145 350.043 427.138 353.23 424.977C356.416 422.819 358.274 420.867 358.274 420.867L370.137 420.68C370.137 420.68 375.831 414.778 372.45 405.982C371.86 404.448 371.224 403.234 369.732 401.353C368.324 399.829 366.098 398.593 362.254 397.929L348.161 400.972C348.161 400.972 326.327 399.412 322.447 401.247C322.447 401.247 317.568 404.141 316.058 405.354C315.49 405.811 313.761 411.367 317.311 414.255C317.311 414.255 314.22 416.715 315.894 418.919L316.697 419.898C316.697 419.898 314.618 422.588 315.685 423.76C316.752 424.93 326.094 430.407 329.436 429.101C332.778 427.796 330.012 424.7 328.541 424.134" fill="#F8A58D"/>
<path d="M319.649 409.454C319.659 409.428 320.068 409.586 320.804 409.867C321.54 410.147 322.609 410.545 323.95 410.972C324.62 411.185 325.359 411.403 326.157 411.614C326.953 411.831 327.824 412.002 328.727 412.294C329.618 412.592 330.581 413.012 331.287 413.839C331.956 414.637 332.41 415.828 331.971 416.957C331.757 417.511 331.308 417.934 330.817 418.197C330.319 418.453 329.785 418.576 329.265 418.63C328.218 418.728 327.234 418.596 326.302 418.473C324.439 418.188 322.816 417.689 321.484 417.218C320.149 416.746 319.096 416.299 318.37 415.99C317.645 415.676 317.25 415.488 317.26 415.464C317.27 415.438 317.683 415.579 318.425 415.848C319.168 416.116 320.234 416.521 321.572 416.957C322.907 417.393 324.522 417.859 326.354 418.119C327.267 418.232 328.246 418.351 329.225 418.251C329.712 418.2 330.201 418.082 330.636 417.856C331.063 417.624 331.436 417.269 331.611 416.811C331.983 415.885 331.602 414.807 330.996 414.083C330.378 413.345 329.472 412.926 328.614 412.635C327.745 412.341 326.874 412.157 326.073 411.924C325.271 411.698 324.532 411.463 323.863 411.232C322.525 410.77 321.467 410.33 320.746 410.006C320.025 409.682 319.638 409.477 319.649 409.454Z" fill="#F68260"/>
<path d="M320.484 402.731C320.496 402.704 320.901 402.862 321.633 403.147C322.366 403.429 323.426 403.836 324.756 404.279C326.085 404.723 327.685 405.204 329.486 405.636C330.374 405.862 331.399 406.045 332.242 406.751C332.655 407.1 332.969 407.613 333.051 408.178C333.141 408.738 333.041 409.317 332.811 409.836C332.344 410.897 331.36 411.577 330.378 411.907C329.384 412.249 328.349 412.271 327.415 412.142C325.532 411.859 323.984 411.185 322.648 410.762C321.37 410.315 320.312 409.944 319.506 409.662C318.767 409.395 318.362 409.234 318.37 409.209C318.379 409.183 318.799 409.294 319.554 409.519C320.369 409.77 321.44 410.102 322.734 410.501C324.08 410.893 325.651 411.539 327.459 411.787C328.361 411.902 329.33 411.87 330.254 411.547C331.166 411.237 332.05 410.609 332.456 409.679C332.885 408.763 332.744 407.636 331.993 407.038C331.27 406.418 330.288 406.213 329.401 405.983C327.592 405.529 325.99 405.018 324.666 404.539C323.34 404.059 322.291 403.611 321.574 403.287C320.858 402.958 320.474 402.753 320.484 402.731" fill="#F68260"/>
<path d="M324.966 404.652C324.853 404.652 324.791 403.797 324.544 402.784C324.304 401.769 323.971 400.98 324.071 400.928C324.158 400.875 324.667 401.623 324.921 402.694C325.181 403.762 325.068 404.659 324.966 404.652" fill="#F68260"/>
<path d="M357.778 404.928L349.489 401.734C349.489 401.734 326.471 390.991 326.082 391.572C325.694 392.154 324.446 392.092 324.719 394.897C324.992 397.704 338.405 403.362 338.829 404.334C339.253 405.306 338.545 410.222 343.499 413.743C348.453 417.263 352.028 417.34 352.028 417.34" fill="#F8A58D"/>
<path d="M352.028 417.344C352.028 417.35 351.961 417.354 351.831 417.35C351.701 417.344 351.509 417.33 351.258 417.294C350.756 417.224 350.021 417.074 349.105 416.777C348.189 416.482 347.095 416.032 345.893 415.378C344.703 414.712 343.35 413.918 342.076 412.731C340.801 411.558 339.757 409.867 339.25 407.887C338.984 406.902 338.89 405.833 338.762 404.791C338.744 404.659 338.715 404.541 338.68 404.436C338.652 404.363 338.567 404.297 338.463 404.214C338.257 404.06 338.023 403.918 337.789 403.778C337.319 403.5 336.828 403.236 336.33 402.969C334.334 401.905 332.209 400.829 330.065 399.598C328.994 398.982 327.916 398.328 326.87 397.582C326.351 397.204 325.837 396.804 325.369 396.33C325.134 396.097 324.919 395.831 324.737 395.531C324.657 395.37 324.576 395.209 324.546 395.014C324.506 394.828 324.515 394.676 324.497 394.504C324.471 393.843 324.492 393.132 324.853 392.502C325.029 392.187 325.323 391.952 325.583 391.769C325.715 391.676 325.831 391.59 325.901 391.494C325.926 391.471 325.882 391.503 325.981 391.414C326.087 391.349 326.107 391.371 326.143 391.364L326.306 391.375C326.394 391.394 326.478 391.412 326.557 391.435C327.804 391.819 328.945 392.32 330.09 392.791C332.365 393.75 334.537 394.72 336.605 395.648C340.738 397.51 344.439 399.228 347.542 400.683C348.319 401.04 349.054 401.411 349.757 401.71C350.473 401.99 351.15 402.257 351.784 402.505C353.041 403.004 354.128 403.435 355.029 403.791C355.895 404.142 356.578 404.419 357.074 404.618C357.289 404.71 357.462 404.784 357.602 404.843C357.72 404.896 357.78 404.926 357.778 404.932C357.775 404.938 357.711 404.92 357.588 404.88C357.444 404.831 357.266 404.768 357.045 404.691C356.543 404.508 355.85 404.253 354.973 403.932C354.065 403.592 352.968 403.181 351.701 402.706C351.063 402.465 350.381 402.208 349.66 401.936C348.938 401.639 348.211 401.281 347.428 400.932C344.296 399.517 340.582 397.838 336.459 395.975C334.389 395.056 332.214 394.093 329.943 393.143C328.808 392.678 327.644 392.172 326.455 391.808L326.242 391.757L326.166 391.75L326.154 391.719L326.139 391.624L326.113 391.596C326.373 391.773 326.178 391.653 326.233 391.697L326.21 391.726C326.088 391.888 325.937 391.989 325.81 392.082C325.549 392.268 325.328 392.447 325.185 392.701C324.894 393.202 324.854 393.856 324.885 394.486C324.905 394.826 324.92 395.086 325.076 395.342C325.231 395.596 325.423 395.84 325.647 396.06C326.087 396.506 326.587 396.897 327.096 397.269C328.123 398.003 329.191 398.654 330.255 399.268C332.385 400.498 334.502 401.578 336.499 402.653C336.998 402.924 337.49 403.192 337.968 403.478C338.208 403.623 338.444 403.765 338.672 403.939C338.777 404.024 338.924 404.128 338.998 404.307C339.051 404.458 339.082 404.601 339.098 404.737C339.227 405.824 339.308 406.84 339.562 407.807C340.043 409.735 341.035 411.377 342.267 412.534C343.491 413.701 344.831 414.512 345.998 415.188C347.179 415.852 348.253 416.32 349.153 416.634C350.054 416.951 350.777 417.121 351.271 417.217C351.517 417.265 351.707 417.292 351.835 417.31C351.963 417.329 352.028 417.337 352.028 417.344" fill="#F68260"/>
<path d="M326.643 418.426C326.65 418.405 326.973 418.466 327.525 418.683C328.074 418.898 328.855 419.28 329.694 419.937C330.109 420.272 330.55 420.653 330.949 421.154C331.33 421.644 331.718 422.306 331.618 423.091C331.518 423.883 330.842 424.506 330.084 424.75C329.3 425.013 328.451 424.888 327.672 424.674C324.587 423.735 321.903 422.601 320.041 421.61C319.11 421.115 318.383 420.67 317.895 420.341C317.406 420.013 317.151 419.81 317.164 419.79C317.18 419.765 317.463 419.925 317.973 420.212C318.483 420.5 319.226 420.905 320.165 421.365C322.038 422.284 324.731 423.373 327.775 424.299C328.523 424.508 329.298 424.611 329.963 424.389C330.63 424.177 331.18 423.659 331.264 423.04C331.359 422.419 331.045 421.818 330.694 421.35C330.334 420.876 329.911 420.486 329.522 420.15C327.916 418.826 326.605 418.499 326.643 418.426" fill="#F68260"/>
<path d="M421.005 418.215C418.919 416.444 418.69 413.808 418.189 411.118C414.073 388.979 410.758 359.721 412.966 336.864C414.279 350.498 430.732 413.067 430.732 413.067C430.685 413.82 430.596 415.42 430.493 417.336L421.005 418.215" fill="#BA2C42"/>
<path d="M422.502 399.699C422.402 399.723 422.087 398.06 421.078 395.552C420.583 394.294 419.86 392.854 418.942 391.325C417.993 389.817 416.832 388.231 415.44 386.714C414.03 385.213 412.535 383.938 411.099 382.88C409.643 381.85 408.26 381.022 407.043 380.436C404.618 379.243 402.982 378.807 403.013 378.709C403.023 378.676 403.432 378.774 404.167 378.982C404.537 379.079 404.984 379.214 405.488 379.419C405.993 379.617 406.583 379.812 407.193 380.121C408.447 380.675 409.87 381.484 411.363 382.51C412.837 383.563 414.369 384.851 415.802 386.378C417.218 387.921 418.389 389.544 419.33 391.09C420.243 392.657 420.944 394.135 421.402 395.425C421.667 396.058 421.817 396.66 421.978 397.178C422.144 397.696 422.245 398.152 422.315 398.529C422.467 399.277 422.536 399.693 422.502 399.699" fill="#17282F"/>
<path d="M436.704 272.453C436.704 272.453 412.884 325.66 412.884 335.427C412.884 345.196 430.732 413.066 430.732 413.066C430.562 415.76 429.868 429.287 429.868 429.287L529.919 429.629L531.442 408.123L523.633 387.627L531.435 329.69C531.435 329.69 536.685 296.051 537.153 286.643C537.737 274.87 497.864 261.227 498.949 259.597L492.065 250.381L452.615 282.411L444.821 259.898L435.482 268.726L436.704 272.453" fill="#F03D5F"/>
<path d="M502.223 286.606C491.396 304.929 471.577 338.32 471.577 338.32L436.062 378.811C436.062 378.811 433.739 399.389 438.385 405.695C443.033 412.002 450.998 416.316 450.998 416.316C450.998 416.316 460.374 416.316 472.282 406.359C484.188 396.403 517.047 355.246 517.047 355.246L528.332 341.638C528.332 341.638 541.782 308.584 539.272 291.763C538.303 285.277 535.542 282.579 531.857 279.605C522.599 272.133 508.275 276.364 502.223 286.606" fill="#F03D5F"/>
<path d="M532.502 330.15C532.51 330.154 532.455 330.281 532.339 330.525C532.21 330.789 532.036 331.146 531.813 331.604C531.341 332.548 530.619 333.927 529.632 335.671C527.672 339.169 524.627 344.109 520.641 350.065C518.645 353.04 516.414 356.268 513.967 359.698C511.543 363.148 508.724 366.663 506.429 370.794C504.075 374.887 502.053 379.438 499.538 383.952C497.024 388.463 494.057 392.943 490.513 397.131C486.96 401.308 482.943 404.949 478.549 407.707C474.172 410.485 469.398 412.283 464.699 413.071C460 413.883 455.368 413.618 451.279 412.502C449.225 411.963 447.331 411.136 445.604 410.2C443.871 409.273 442.294 408.212 440.928 407.035C439.546 405.878 438.357 404.62 437.401 403.305C436.406 402.018 435.678 400.659 435.068 399.366C433.903 396.745 433.412 394.303 433.16 392.314C432.958 390.315 432.947 388.753 432.998 387.698C433.027 387.19 433.05 386.793 433.067 386.501C433.085 386.231 433.099 386.092 433.108 386.093C433.116 386.093 433.119 386.232 433.118 386.503C433.112 386.795 433.106 387.192 433.097 387.701C433.078 388.753 433.121 390.308 433.35 392.291C433.63 394.262 434.144 396.674 435.32 399.252C435.933 400.522 436.663 401.856 437.652 403.118C438.603 404.405 439.783 405.635 441.152 406.767C442.506 407.919 444.067 408.958 445.785 409.865C447.495 410.781 449.36 411.584 451.387 412.107C455.419 413.189 459.986 413.436 464.624 412.622C469.261 411.83 473.967 410.05 478.291 407.297C482.633 404.566 486.611 400.956 490.136 396.813C493.655 392.656 496.61 388.2 499.115 383.717C501.624 379.231 503.655 374.682 506.035 370.568C508.36 366.412 511.207 362.886 513.635 359.461C516.093 356.044 518.34 352.831 520.351 349.87C524.37 343.945 527.457 339.039 529.465 335.576C530.477 333.849 531.226 332.486 531.724 331.557C531.966 331.11 532.154 330.76 532.294 330.502C532.423 330.266 532.495 330.146 532.502 330.15" fill="#17282F"/>
<path d="M434.284 376.986C434.327 377.057 433.779 377.367 433.127 378.094C432.477 378.806 431.753 380.007 431.615 381.474C431.482 382.941 431.974 384.256 432.482 385.075C432.99 385.908 433.472 386.313 433.416 386.375C433.389 386.419 432.811 386.105 432.192 385.268C431.577 384.452 430.978 383.04 431.123 381.428C431.276 379.817 432.123 378.539 432.877 377.85C433.639 377.142 434.265 376.938 434.284 376.986Z" fill="#17282F"/>
<path d="M440.816 387.737C440.822 387.721 441.015 387.765 441.372 387.864C441.552 387.91 441.77 387.985 442.033 388.046C442.308 388.096 442.614 388.152 442.951 388.214C444.334 388.44 446.41 388.413 448.808 387.67C451.193 386.906 453.861 385.438 456.348 383.237C458.838 381.038 461.076 378.104 463.414 375.037C465.745 371.96 468.098 369.067 470.695 366.898C471.983 365.816 473.249 364.857 474.302 363.827C475.354 362.806 476.199 361.698 476.672 360.562C477.561 358.229 476.963 356.037 476.125 354.971C475.249 353.867 474.368 353.759 474.413 353.692C474.417 353.676 474.607 353.725 474.965 353.851C475.301 354.013 475.81 354.288 476.275 354.85C477.202 355.94 477.892 358.205 476.997 360.689C476.514 361.906 475.655 363.057 474.589 364.119C473.524 365.185 472.256 366.164 470.99 367.244C468.451 369.397 466.137 372.261 463.806 375.337C461.469 378.403 459.205 381.353 456.648 383.58C454.1 385.8 451.361 387.266 448.91 388.003C446.445 388.721 444.316 388.691 442.919 388.404C442.581 388.324 442.273 388.252 441.996 388.188C441.734 388.111 441.518 388.02 441.341 387.96C440.99 387.828 440.81 387.752 440.816 387.737" fill="#17282F"/>
<path d="M507.041 280.978C507.055 280.989 506.917 281.186 506.643 281.55C506.337 281.949 505.934 282.474 505.431 283.128C504.35 284.476 502.863 286.486 501.051 288.987C497.462 294.01 492.855 301.204 488.414 309.519C483.947 317.822 480.247 325.524 477.417 331.023C476.009 333.776 474.853 335.995 474.019 337.51C473.619 338.233 473.298 338.812 473.054 339.252C472.829 339.648 472.703 339.852 472.688 339.843C472.674 339.837 472.769 339.616 472.966 339.206C473.189 338.754 473.482 338.162 473.849 337.421C474.642 335.824 475.749 333.598 477.106 330.866C479.853 325.331 483.503 317.604 487.98 309.285C492.428 300.954 497.099 293.764 500.768 288.782C502.62 286.302 504.153 284.321 505.281 283.008C505.814 282.377 506.243 281.872 506.567 281.487C506.866 281.143 507.029 280.968 507.041 280.978" fill="#17282F"/>
<path d="M435.496 391.48C434.195 389.934 433.303 388.109 433.119 386.222C433.267 386.33 433.371 386.38 433.405 386.38C433.41 386.38 433.414 386.379 433.416 386.376C433.433 386.357 433.398 386.304 433.326 386.215C434.047 386.591 434.779 386.901 435.521 387.152C435.482 388.527 435.469 389.991 435.496 391.48" fill="#BA2C42"/>
<path d="M444.731 395.938C444.003 395.938 443.275 395.874 442.553 395.742C439.942 395.265 437.317 393.645 435.496 391.479C435.469 389.989 435.482 388.525 435.521 387.15C437.424 387.795 439.392 388.053 441.397 388.053C441.463 388.053 441.529 388.053 441.596 388.052C441.715 388.097 441.849 388.144 441.996 388.188C442.273 388.252 442.581 388.324 442.919 388.403C443.483 388.519 444.164 388.593 444.94 388.593C446.088 388.593 447.439 388.431 448.911 388.003C451.309 387.282 453.985 385.861 456.486 383.719C458.255 382.506 459.856 381.048 461.215 379.388C460.319 383.89 458.391 388.29 455.107 391.496C452.347 394.19 448.552 395.938 444.731 395.938V395.938ZM444.593 388.338C443.975 388.338 443.422 388.291 442.952 388.213C442.614 388.151 442.308 388.096 442.033 388.046C442.032 388.046 442.032 388.044 442.031 388.044C443.98 387.993 445.96 387.714 447.955 387.322C449.754 386.969 451.507 386.391 453.168 385.615C451.68 386.542 450.196 387.225 448.808 387.669C447.228 388.16 445.787 388.338 444.593 388.338Z" fill="#BA2C42"/>
<path d="M433.405 386.379C433.371 386.379 433.268 386.33 433.119 386.222C433.115 386.181 433.111 386.139 433.108 386.098C433.181 386.137 433.254 386.176 433.327 386.214C433.399 386.303 433.434 386.356 433.417 386.375C433.415 386.378 433.411 386.379 433.405 386.379" fill="#0F191D"/>
<path d="M444.94 388.594C444.164 388.594 443.483 388.52 442.919 388.404C442.581 388.325 442.273 388.253 441.996 388.188C441.848 388.145 441.715 388.097 441.595 388.053C441.74 388.052 441.886 388.049 442.031 388.045C442.032 388.045 442.032 388.046 442.033 388.046C442.308 388.096 442.614 388.152 442.951 388.214C443.422 388.292 443.975 388.339 444.593 388.339C445.786 388.339 447.228 388.161 448.808 387.67C450.196 387.226 451.68 386.542 453.168 385.616C454.324 385.077 455.434 384.442 456.486 383.72C453.985 385.862 451.309 387.282 448.91 388.003C447.439 388.432 446.088 388.594 444.94 388.594" fill="#0F191D"/>
<path d="M479.606 374.027C480.666 369.147 479.815 363.885 477.3 359.576C477.677 357.544 477.061 355.775 476.276 354.851C475.899 354.395 475.494 354.128 475.175 353.957C474.954 353.673 474.713 353.407 474.452 353.16C473.785 349.777 472.518 343.291 472.688 339.847C472.689 339.848 472.689 339.848 472.689 339.848C472.708 339.848 472.834 339.644 473.054 339.255C473.298 338.816 473.619 338.236 474.02 337.514C474.614 336.433 475.374 334.993 476.271 333.258C479.468 339.647 482.333 346.309 483.385 353.375C484.438 360.452 483.519 368.036 479.606 374.027ZM476.656 359.553C476.93 357.706 476.45 355.763 475.379 354.235C475.613 354.411 475.869 354.649 476.125 354.971C476.791 355.819 477.305 357.374 477.043 359.147C476.961 359.015 476.877 358.884 476.793 358.754L476.656 359.553V359.553ZM472.691 339.824C472.73 339.543 473.221 338.579 473.826 337.471C473.47 338.189 473.185 338.768 472.966 339.21C472.804 339.548 472.71 339.757 472.691 339.824Z" fill="#BA2C42"/>
<path d="M477.3 359.574C477.217 359.43 477.13 359.288 477.043 359.146C477.305 357.373 476.791 355.817 476.125 354.97C475.869 354.648 475.613 354.41 475.379 354.234C475.313 354.139 475.245 354.046 475.175 353.956C475.494 354.127 475.898 354.394 476.276 354.85C477.061 355.774 477.677 357.543 477.3 359.574Z" fill="#0F191D"/>
<path d="M472.689 339.848C472.689 339.848 472.689 339.848 472.688 339.847C472.689 339.84 472.69 339.832 472.691 339.824C472.71 339.757 472.804 339.548 472.966 339.21C473.185 338.768 473.47 338.189 473.826 337.471C474.869 335.562 476.254 333.224 476.254 333.224C476.259 333.236 476.265 333.247 476.271 333.258C475.373 334.993 474.613 336.433 474.019 337.514C473.618 338.236 473.298 338.816 473.054 339.255C472.834 339.644 472.708 339.848 472.689 339.848" fill="#0F191D"/>
<path d="M476.604 359.848L476.656 359.551C476.641 359.65 476.623 359.749 476.604 359.848Z" fill="#BA2C42"/>
<path d="M466.619 416.754C463.287 416.754 459.965 416.235 456.832 415.182C458.126 414.777 459.603 414.228 461.225 413.481C462.373 413.409 463.534 413.273 464.699 413.073C469.397 412.285 474.172 410.487 478.549 407.709C482.943 404.951 486.96 401.31 490.512 397.133C494.057 392.945 497.024 388.465 499.538 383.954C502.053 379.44 504.075 374.889 506.429 370.796C508.724 366.665 511.543 363.15 513.967 359.7C515.158 358.03 516.298 356.409 517.385 354.84L526.043 344.399C519.77 358.567 511.321 373.638 504.159 386.271C498.488 396.273 492.381 406.73 482.457 412.538C477.691 415.329 472.142 416.754 466.619 416.754ZM462.36 412.938C464.31 411.97 466.444 410.724 468.707 409.119C479.291 405.616 488.784 398.73 495.054 389.497C497.23 386.292 499.042 383.5 500.734 380.708C500.212 381.712 499.675 382.717 499.115 383.719C496.61 388.202 493.655 392.658 490.136 396.815C486.61 400.958 482.633 404.568 478.291 407.299C473.966 410.052 469.261 411.832 464.624 412.624C463.867 412.756 463.111 412.861 462.36 412.938V412.938ZM508.647 366.385C509.179 365.467 509.766 364.488 510.393 363.471C511.56 362.041 512.608 360.751 513.509 359.638C511.971 361.8 510.271 364.004 508.647 366.385" fill="#BA2C42"/>
<path d="M456.832 415.184C454.775 414.493 452.798 413.572 450.955 412.419C451.062 412.448 451.17 412.478 451.278 412.506C453.759 413.183 456.44 413.546 459.213 413.546C459.879 413.546 460.55 413.525 461.225 413.483C459.603 414.229 458.126 414.779 456.832 415.184V415.184ZM459.112 413.108C456.411 413.108 453.803 412.759 451.386 412.111C450.831 411.967 450.287 411.803 449.757 411.621C449.749 411.615 449.74 411.61 449.733 411.605C450.784 411.675 451.836 411.709 452.887 411.709C458.256 411.709 463.608 410.808 468.707 409.12C466.444 410.725 464.31 411.972 462.36 412.94C461.266 413.053 460.181 413.108 459.112 413.108V413.108ZM510.393 363.472C516.623 353.353 526.934 339.086 529.384 335.718C527.375 339.174 524.317 344.028 520.351 349.873C518.34 352.834 516.093 356.047 513.634 359.464C513.593 359.522 513.551 359.581 513.509 359.639C512.608 360.753 511.56 362.043 510.393 363.472V363.472ZM517.385 354.841C518.53 353.189 519.616 351.595 520.64 350.068C524.627 344.113 527.672 339.172 529.632 335.675C529.658 335.629 529.684 335.583 529.709 335.538C528.607 338.429 527.374 341.395 526.043 344.4L517.385 354.841" fill="#BA2C42"/>
<path d="M459.213 413.543C456.44 413.543 453.759 413.18 451.279 412.503C451.171 412.474 451.063 412.445 450.955 412.416C450.55 412.161 450.149 411.896 449.757 411.618C450.287 411.8 450.831 411.964 451.387 412.108C453.803 412.756 456.411 413.104 459.112 413.104C460.182 413.104 461.267 413.05 462.36 412.937C463.112 412.86 463.867 412.755 464.624 412.622C469.261 411.831 473.967 410.05 478.291 407.298C482.633 404.566 486.611 400.957 490.136 396.813C493.655 392.656 496.61 388.201 499.115 383.717C499.675 382.716 500.212 381.71 500.734 380.707C502.87 377.181 504.811 373.657 507.042 369.304C507.494 368.422 508.035 367.441 508.647 366.384C510.271 364.003 511.971 361.799 513.509 359.636C513.551 359.578 513.593 359.519 513.635 359.461C516.093 356.044 518.34 352.831 520.351 349.87C524.317 344.025 527.375 339.17 529.385 335.715C529.73 335.241 529.919 334.983 529.919 334.983C529.85 335.167 529.781 335.35 529.71 335.535C529.684 335.58 529.658 335.626 529.632 335.672C527.672 339.169 524.627 344.11 520.641 350.065C519.616 351.592 518.531 353.186 517.385 354.838C516.298 356.407 515.158 358.028 513.967 359.699C511.543 363.149 508.724 366.663 506.429 370.795C504.075 374.888 502.053 379.438 499.538 383.952C497.024 388.463 494.057 392.944 490.513 397.132C486.96 401.309 482.943 404.95 478.549 407.707C474.172 410.485 469.398 412.283 464.699 413.071C463.534 413.272 462.373 413.408 461.225 413.48C460.55 413.522 459.879 413.543 459.213 413.543" fill="#0F191D"/>
<path d="M449.733 411.605C449.724 411.604 449.712 411.604 449.703 411.604C449.689 411.599 449.676 411.594 449.663 411.589L448.765 410.886C449.083 411.135 449.405 411.373 449.733 411.605" fill="#BA2C42"/>
<path d="M449.704 411.602C449.695 411.6 449.688 411.6 449.679 411.6L449.663 411.586C449.677 411.592 449.69 411.597 449.704 411.602" fill="#0F191D"/>
<path d="M429.868 429.285C429.857 429.284 429.852 429.184 429.853 428.988C429.857 428.756 429.862 428.473 429.869 428.123C429.897 427.319 429.937 426.22 429.987 424.841C430.12 421.959 430.305 417.917 430.527 413.054L430.536 413.122C428.833 407.438 426.843 400.544 424.784 393.096C422.053 383.225 419.749 374.241 418.2 367.712C417.426 364.445 416.822 361.798 416.444 359.96C416.265 359.076 416.121 358.371 416.013 357.842C415.919 357.357 415.878 357.1 415.895 357.096C415.912 357.093 415.986 357.342 416.11 357.82C416.24 358.345 416.414 359.042 416.632 359.917C417.094 361.788 417.742 364.409 418.538 367.628C420.174 374.133 422.53 383.097 425.26 392.965C427.318 400.409 429.278 407.311 430.927 413.005L430.938 413.041L430.936 413.074C430.641 417.933 430.397 421.972 430.221 424.854C430.126 426.229 430.047 427.328 429.991 428.131C429.961 428.478 429.935 428.761 429.915 428.991C429.894 429.186 429.879 429.285 429.868 429.285" fill="#17282F"/>
<path d="M529.961 279.037C529.933 279.112 528.938 278.76 527.294 278.352C525.652 277.942 523.342 277.53 520.765 277.449C518.184 277.375 515.853 277.649 514.19 277.96C512.525 278.268 511.511 278.561 511.487 278.484C511.477 278.451 511.72 278.346 512.17 278.183C512.619 278.015 513.285 277.819 514.118 277.619C515.784 277.216 518.153 276.881 520.779 276.956C523.403 277.037 525.748 277.514 527.386 278.016C528.207 278.264 528.859 278.5 529.298 278.695C529.737 278.885 529.974 279.004 529.961 279.037" fill="#17282F"/>
<path d="M498.27 261.568C498.284 261.577 498.197 261.747 498.017 262.059C497.805 262.417 497.538 262.866 497.211 263.418C496.499 264.591 495.443 266.272 494.108 268.33C491.427 272.438 487.593 278.033 483.057 283.991C479.407 288.793 475.873 293.101 472.977 296.477L472.773 296.715L472.646 296.433C471.27 293.415 470.131 290.918 469.305 289.105C468.936 288.268 468.638 287.591 468.409 287.069C468.21 286.598 468.113 286.345 468.131 286.336C468.149 286.328 468.282 286.564 468.516 287.019C468.771 287.529 469.101 288.191 469.509 289.009C470.373 290.804 471.565 293.277 473.005 296.265L472.674 296.22C475.519 292.81 479.021 288.486 482.664 283.693C487.192 277.744 491.065 272.191 493.817 268.137C495.154 266.142 496.249 264.51 497.049 263.315C497.408 262.783 497.701 262.35 497.933 262.006C498.14 261.711 498.256 261.558 498.27 261.568" fill="#17282F"/>
<path d="M521.302 414.355C521.166 414.341 521.601 409.422 522.272 403.371C522.943 397.319 523.596 392.427 523.732 392.441C523.867 392.456 523.433 397.373 522.762 403.427C522.091 409.477 521.437 414.371 521.302 414.355" fill="#17282F"/>
<path d="M452.722 413.066C452.857 413.052 453.363 416.748 453.851 421.322C454.338 425.895 454.624 429.614 454.489 429.629C454.353 429.644 453.848 425.949 453.36 421.373C452.871 416.8 452.587 413.081 452.722 413.066" fill="#17282F"/>
<path d="M503.33 304.842C503.206 304.059 502.122 303.629 501.494 304.113L501.429 304.165C500.838 304.694 501.062 305.839 501.81 306.105C502.557 306.371 503.455 305.625 503.33 304.842Z" fill="white"/>
<path d="M493.451 280.76C493.326 279.977 492.241 279.546 491.613 280.03L491.55 280.084C490.958 280.612 491.182 281.757 491.929 282.023C492.677 282.289 493.574 281.544 493.451 280.76Z" fill="white"/>
<path d="M470.776 300.152C470.652 299.368 469.567 298.938 468.939 299.421L468.875 299.474C468.284 300.003 468.509 301.148 469.255 301.414C470.003 301.68 470.901 300.934 470.776 300.152" fill="white"/>
<path d="M446.265 290.412C446.141 289.629 445.056 289.199 444.428 289.683L444.364 289.736C443.773 290.264 443.998 291.409 444.744 291.675C445.492 291.942 446.39 291.196 446.265 290.412" fill="white"/>
<path d="M441.929 280.816C441.805 280.031 440.72 279.6 440.092 280.085L440.028 280.138C439.437 280.666 439.661 281.812 440.408 282.078C441.155 282.344 442.053 281.598 441.929 280.816" fill="white"/>
<path d="M443.812 269.721C443.688 268.937 442.602 268.506 441.974 268.991L441.911 269.044C441.32 269.572 441.543 270.718 442.291 270.984C443.038 271.25 443.936 270.505 443.812 269.721" fill="white"/>
<path d="M430.237 284.979C430.113 284.196 429.028 283.765 428.4 284.25L428.336 284.302C427.745 284.83 427.97 285.976 428.716 286.242C429.464 286.508 430.362 285.762 430.237 284.979" fill="white"/>
<path d="M461.681 289.381C461.556 288.598 460.472 288.166 459.844 288.652L459.781 288.705C459.188 289.232 459.414 290.378 460.161 290.644C460.908 290.91 461.806 290.165 461.681 289.381" fill="white"/>
<path d="M435.06 309.151C434.936 308.367 433.851 307.937 433.223 308.42L433.159 308.474C432.568 309.002 432.792 310.148 433.539 310.414C434.286 310.679 435.184 309.934 435.06 309.151" fill="white"/>
<path d="M410.691 366.021C410.566 365.239 409.481 364.808 408.854 365.293L408.791 365.346C408.199 365.874 408.423 367.019 409.171 367.284C409.917 367.552 410.815 366.806 410.691 366.021" fill="white"/>
<path d="M419.386 333.222C419.262 332.438 418.177 332.008 417.549 332.492L417.485 332.544C416.894 333.073 417.118 334.219 417.865 334.484C418.612 334.75 419.51 334.005 419.386 333.222" fill="white"/>
<path d="M483.476 275.623C483.351 274.841 482.267 274.41 481.639 274.895L481.575 274.947C480.983 275.476 481.208 276.621 481.955 276.886C482.703 277.153 483.6 276.407 483.476 275.623" fill="white"/>
<path d="M514.063 340.94C513.939 340.157 512.854 339.726 512.225 340.21L512.163 340.263C511.571 340.792 511.795 341.938 512.542 342.203C513.289 342.469 514.187 341.723 514.063 340.94" fill="white"/>
<path d="M525.982 284.733C525.857 283.949 524.772 283.519 524.144 284.003L524.081 284.057C523.489 284.585 523.713 285.73 524.46 285.996C525.208 286.262 526.105 285.516 525.982 284.733Z" fill="white"/>
<path d="M521.302 321.542C521.177 320.758 520.093 320.328 519.465 320.812L519.401 320.865C518.809 321.394 519.035 322.538 519.781 322.805C520.529 323.07 521.426 322.324 521.302 321.542" fill="white"/>
<path d="M494.575 348.12C494.45 347.337 493.366 346.906 492.738 347.39L492.674 347.443C492.083 347.972 492.307 349.116 493.055 349.382C493.801 349.649 494.7 348.903 494.575 348.12Z" fill="white"/>
<path d="M495.7 325.994C495.575 325.211 494.49 324.781 493.862 325.265L493.8 325.317C493.207 325.846 493.432 326.991 494.179 327.258C494.926 327.524 495.824 326.777 495.7 325.994Z" fill="white"/>
<path d="M511.825 284.924C511.7 284.14 510.616 283.709 509.988 284.195L509.924 284.248C509.333 284.775 509.558 285.921 510.305 286.187C511.052 286.453 511.95 285.708 511.825 284.924Z" fill="white"/>
<path d="M490.117 263.487C489.993 262.703 488.909 262.272 488.281 262.757L488.217 262.81C487.625 263.338 487.85 264.483 488.597 264.75C489.345 265.016 490.242 264.27 490.117 263.487" fill="white"/>
<path d="M489.33 298.045C489.206 297.262 488.122 296.831 487.492 297.316L487.429 297.368C486.838 297.897 487.062 299.042 487.809 299.308C488.557 299.575 489.455 298.829 489.33 298.045" fill="white"/>
<path d="M461.618 403.455C461.494 402.672 460.408 402.241 459.781 402.726L459.717 402.779C459.126 403.307 459.35 404.453 460.097 404.718C460.844 404.985 461.742 404.239 461.618 403.455" fill="white"/>
<path d="M429.83 386.123C429.706 385.341 428.621 384.91 427.993 385.395L427.929 385.447C427.338 385.976 427.561 387.12 428.309 387.386C429.057 387.653 429.954 386.907 429.83 386.123" fill="white"/>
<path d="M404.127 394.621C404.002 393.837 402.918 393.407 402.289 393.891L402.226 393.943C401.634 394.472 401.858 395.617 402.606 395.882C403.353 396.149 404.251 395.403 404.127 394.621" fill="white"/>
<path d="M401.376 409.26C401.251 408.477 400.166 408.047 399.539 408.531L399.475 408.584C398.884 409.113 399.107 410.257 399.855 410.523C400.602 410.79 401.5 410.044 401.376 409.26" fill="white"/>
<path d="M425.474 414.163C425.349 413.379 424.265 412.949 423.637 413.433L423.573 413.486C422.981 414.015 423.206 415.16 423.953 415.426C424.701 415.691 425.598 414.945 425.474 414.163" fill="white"/>
<path d="M417.415 381.377C417.292 380.593 416.207 380.163 415.579 380.647L415.515 380.702C414.924 381.229 415.148 382.374 415.895 382.64C416.643 382.906 417.54 382.162 417.415 381.377Z" fill="white"/>
<path d="M446.983 389.71C446.858 388.926 445.773 388.495 445.145 388.98L445.081 389.033C444.49 389.561 444.715 390.707 445.461 390.972C446.209 391.239 447.106 390.494 446.983 389.71Z" fill="white"/>
<path d="M517.264 381.327C517.14 380.544 516.055 380.114 515.428 380.597L515.364 380.65C514.772 381.179 514.997 382.324 515.744 382.59C516.491 382.856 517.388 382.11 517.264 381.327Z" fill="white"/>
<path d="M473.778 422.995C473.654 422.211 472.569 421.78 471.941 422.265L471.877 422.318C471.286 422.846 471.511 423.992 472.257 424.257C473.005 424.524 473.903 423.779 473.778 422.995" fill="white"/>
<path d="M492.325 399.795C492.201 399.013 491.117 398.582 490.489 399.066L490.424 399.119C489.833 399.648 490.058 400.792 490.805 401.058C491.552 401.325 492.45 400.579 492.325 399.795" fill="white"/>
<path d="M503.342 418.666C503.217 417.884 502.133 417.453 501.505 417.938L501.441 417.99C500.849 418.519 501.074 419.664 501.821 419.929C502.569 420.196 503.466 419.45 503.342 418.666" fill="white"/>
<path d="M472.688 319.869C472.565 319.087 471.479 318.656 470.852 319.14L470.788 319.194C470.197 319.722 470.421 320.866 471.168 321.132C471.915 321.399 472.812 320.654 472.688 319.869Z" fill="white"/>
<path d="M497.632 368.03C497.508 367.245 496.422 366.815 495.795 367.299L495.731 367.352C495.14 367.88 495.364 369.026 496.111 369.293C496.858 369.558 497.756 368.813 497.632 368.03" fill="white"/>
<path d="M489.543 386.272C489.419 385.488 488.334 385.057 487.706 385.542L487.642 385.595C487.051 386.123 487.275 387.269 488.022 387.535C488.77 387.801 489.667 387.056 489.543 386.272" fill="white"/>
<path d="M516.14 400.928C516.016 400.144 514.931 399.714 514.303 400.198L514.239 400.252C513.648 400.78 513.872 401.925 514.619 402.191C515.367 402.457 516.265 401.711 516.14 400.928" fill="white"/>
<path d="M443.361 422.08C443.237 421.296 442.153 420.866 441.525 421.35L441.46 421.403C440.869 421.931 441.094 423.077 441.841 423.344C442.588 423.609 443.486 422.863 443.361 422.08" fill="white"/>
<path d="M382.715 416.545C382.591 415.763 381.507 415.331 380.879 415.816L380.814 415.868C380.223 416.397 380.449 417.543 381.195 417.808C381.943 418.074 382.84 417.329 382.715 416.545Z" fill="white"/>
<path d="M436.122 406.585C435.998 405.802 434.913 405.371 434.284 405.856L434.221 405.908C433.63 406.437 433.854 407.581 434.601 407.848C435.349 408.113 436.246 407.368 436.122 406.585" fill="white"/>
<path d="M384.965 395.748C384.841 394.965 383.757 394.534 383.128 395.019L383.064 395.072C382.473 395.6 382.698 396.745 383.445 397.011C384.192 397.278 385.09 396.532 384.965 395.748Z" fill="white"/>
<path d="M470.439 361.354C470.315 360.57 469.23 360.139 468.602 360.623L468.539 360.677C467.948 361.205 468.171 362.35 468.919 362.617C469.665 362.882 470.563 362.137 470.439 361.354Z" fill="white"/>
<path d="M452.551 309.151C452.427 308.367 451.342 307.937 450.714 308.42L450.651 308.474C450.059 309.002 450.284 310.148 451.03 310.414C451.778 310.679 452.675 309.934 452.551 309.151" fill="white"/>
<path d="M448.082 354.42C447.958 353.638 446.873 353.206 446.245 353.692L446.181 353.744C445.59 354.272 445.814 355.417 446.561 355.683C447.308 355.949 448.207 355.204 448.082 354.42" fill="white"/>
<path d="M440.804 339.654C440.679 338.871 439.595 338.441 438.968 338.925L438.904 338.978C438.312 339.507 438.536 340.652 439.284 340.918C440.031 341.184 440.928 340.437 440.804 339.654" fill="white"/>
<path d="M472.988 386.07C472.864 385.286 471.779 384.855 471.151 385.339L471.088 385.392C470.496 385.92 470.721 387.066 471.468 387.332C472.215 387.598 473.114 386.852 472.988 386.07" fill="white"/>
<path d="M450.301 376.959C450.177 376.176 449.092 375.745 448.465 376.23L448.402 376.284C447.81 376.811 448.034 377.957 448.782 378.222C449.528 378.489 450.426 377.743 450.301 376.959Z" fill="white"/>
<path d="M460.013 326.97C459.89 326.187 458.805 325.756 458.177 326.241L458.113 326.294C457.522 326.822 457.746 327.968 458.493 328.234C459.24 328.5 460.138 327.755 460.013 326.97Z" fill="white"/>
<path d="M425.474 362.37C425.349 361.587 424.265 361.157 423.637 361.64L423.573 361.693C422.981 362.221 423.206 363.367 423.953 363.632C424.701 363.899 425.598 363.153 425.474 362.37" fill="white"/>
<path d="M478.786 346.124C478.662 345.34 477.577 344.91 476.949 345.394L476.885 345.447C476.294 345.975 476.517 347.121 477.266 347.386C478.013 347.653 478.91 346.908 478.786 346.124Z" fill="white"/>
<path d="M528.231 303.713C528.106 302.93 527.021 302.498 526.393 302.984L526.331 303.037C525.738 303.564 525.963 304.709 526.71 304.976C527.457 305.243 528.355 304.497 528.231 303.713Z" fill="white"/>
<path d="M508.155 271.605C508.03 270.821 506.946 270.39 506.318 270.874L506.254 270.927C505.663 271.456 505.887 272.602 506.635 272.867C507.381 273.133 508.279 272.387 508.155 271.605Z" fill="white"/>
<path d="M469.245 275.623C469.12 274.841 468.035 274.41 467.407 274.895L467.344 274.947C466.752 275.476 466.976 276.621 467.723 276.886C468.471 277.153 469.369 276.407 469.245 275.623Z" fill="white"/>
<path d="M429.558 160.36C422.094 165.109 419.115 175.06 420.538 180.941C421.256 183.905 422.601 186.888 422.014 189.88C421.507 192.466 419.648 194.534 418.256 196.773C413.615 204.236 414.437 214.682 420.188 221.328C425.939 227.974 436.158 230.29 444.212 226.77" fill="#17282F"/>
<path d="M425.142 199.198C406.987 159.268 450.17 139.208 473.733 145.862C495.879 152.117 505.324 163.138 508.968 177.949C512.613 192.767 512.439 208.814 506.632 222.927C503.768 229.885 498.611 236.955 491.137 237.824" fill="#17282F"/>
<path d="M446.411 296.711C446.098 277.633 445.877 251.427 445.87 251.535C445.87 251.535 429.471 248.813 426.073 227.417C424.383 216.777 424.918 199.331 425.817 185.07C426.625 172.234 435.13 156.486 447.919 157.839L487.856 167.933C491.741 168.343 494.667 171.659 494.589 175.566L491.987 258.171" fill="#F8A58D"/>
<path d="M432.957 198.137C432.89 199.576 434.052 200.821 435.555 200.92C437.054 201.017 438.328 199.933 438.395 198.493C438.462 197.054 437.299 195.808 435.8 195.709C434.299 195.611 433.025 196.697 432.957 198.137" fill="#17282F"/>
<path d="M461.307 198.138C461.239 199.577 462.403 200.822 463.905 200.92C465.404 201.018 466.678 199.934 466.745 198.494C466.813 197.055 465.651 195.809 464.151 195.71C462.649 195.611 461.376 196.698 461.307 198.138" fill="#17282F"/>
<path d="M430.004 193.152C430.331 193.521 432.46 192.052 435.412 192.158C438.361 192.222 440.476 193.812 440.808 193.461C440.971 193.307 440.645 192.649 439.725 191.932C438.82 191.218 437.259 190.499 435.42 190.446C433.581 190.395 432.013 191.02 431.102 191.684C430.17 192.35 429.841 192.987 430.004 193.152" fill="#17282F"/>
<path d="M458.026 193.857C458.369 194.213 460.443 192.666 463.394 192.66C466.342 192.613 468.516 194.121 468.835 193.759C468.992 193.598 468.646 192.954 467.696 192.271C466.764 191.591 465.177 190.933 463.338 190.948C461.499 190.967 459.954 191.651 459.067 192.347C458.165 193.049 457.859 193.698 458.026 193.857" fill="#17282F"/>
<path d="M447.909 216.595C447.923 216.427 446.087 216.111 443.114 215.73C442.359 215.652 441.646 215.502 441.519 214.988C441.341 214.442 441.656 213.63 442.022 212.752C442.731 210.928 443.473 209.016 444.253 207.011C447.348 198.837 449.59 192.115 449.26 191.994C448.93 191.871 446.152 198.399 443.055 206.574C442.31 208.589 441.597 210.511 440.919 212.349C440.633 213.205 440.143 214.178 440.528 215.308C440.731 215.872 441.284 216.28 441.768 216.41C442.251 216.558 442.676 216.565 443.048 216.588C446.041 216.749 447.898 216.762 447.909 216.595" fill="#17282F"/>
<path d="M445.87 251.535C445.87 251.535 460.263 252.464 474.524 243.892C474.524 243.892 467.283 258.777 445.87 256.776V251.535Z" fill="#F68260"/>
<path d="M457.296 189.657C457.588 190.46 460.536 190.079 464 190.497C467.474 190.844 470.266 191.858 470.726 191.138C470.932 190.794 470.444 190.039 469.315 189.262C468.195 188.486 466.409 187.748 464.329 187.516C462.25 187.288 460.345 187.619 459.083 188.133C457.812 188.645 457.171 189.275 457.296 189.657" fill="#17282F"/>
<path d="M430.686 185.733C431.206 186.403 433.241 185.708 435.687 185.675C438.131 185.557 440.203 186.127 440.68 185.424C440.89 185.083 440.563 184.412 439.658 183.778C438.766 183.145 437.274 182.628 435.593 182.678C433.913 182.731 432.456 183.34 431.606 184.027C430.741 184.716 430.457 185.406 430.686 185.733Z" fill="#17282F"/>
<path d="M490.92 203.73C491.232 203.578 502.372 198.652 502.502 211.462C502.633 224.271 489.745 221.76 489.719 221.393C489.694 221.025 490.92 203.73 490.92 203.73Z" fill="#F8A58D"/>
<path d="M493.583 216.503C493.639 216.462 493.808 216.658 494.187 216.827C494.557 216.99 495.19 217.1 495.856 216.844C497.204 216.333 498.321 214.173 498.359 211.864C498.381 210.698 498.125 209.59 497.702 208.675C497.302 207.741 496.689 207.093 496.006 206.98C495.327 206.83 494.848 207.242 494.696 207.604C494.527 207.964 494.612 208.219 494.544 208.242C494.509 208.274 494.268 208.03 494.364 207.5C494.415 207.246 494.561 206.942 494.861 206.693C495.165 206.439 495.617 206.307 496.092 206.353C497.08 206.412 497.978 207.311 498.442 208.316C498.961 209.324 499.276 210.569 499.253 211.878C499.197 214.46 497.9 216.889 496.054 217.443C495.154 217.687 494.4 217.423 494.009 217.125C493.61 216.813 493.539 216.527 493.583 216.503Z" fill="#F68260"/>
<path d="M443.655 151.522C436.528 155.204 433.595 169.785 436.543 177.245C439.492 184.705 447.438 188.349 455.274 190.065C463.11 191.782 470.792 191.985 478.52 189.836C479.058 195.033 482.173 200.368 487.215 201.739C493.891 203.554 500.62 197.441 502.105 190.685C503.591 183.928 501.365 176.969 499.166 170.41" fill="#17282F"/>
<path d="M500.173 198.004C500.204 198.044 499.852 198.376 499.185 198.937C498.515 199.494 497.534 200.291 496.231 201.166C494.927 202.029 493.28 202.989 491.25 203.576C489.246 204.155 486.791 204.367 484.452 203.477C482.119 202.589 480.395 200.821 479.308 199.029C478.205 197.214 477.709 195.35 477.464 193.799C477.224 192.238 477.226 190.963 477.263 190.089C477.305 189.214 477.382 188.736 477.43 188.738C477.571 188.735 477.418 190.685 477.978 193.708C478.282 195.204 478.813 196.977 479.887 198.668C480.946 200.347 482.578 201.975 484.715 202.784C486.852 203.6 489.145 203.438 491.068 202.919C493.009 202.398 494.633 201.517 495.949 200.724C498.566 199.088 500.097 197.898 500.173 198.004" fill="#17282F"/>
<path d="M448.782 224.82C449.212 225.91 449.653 227.016 450.374 227.939C451.094 228.863 452.149 229.594 453.319 229.649C454.566 229.709 455.768 228.971 456.464 227.934C457.16 226.897 457.397 225.605 457.34 224.359C457.29 223.23 456.774 221.885 455.652 221.752C455.186 221.696 454.727 221.876 454.292 222.053C452.328 222.849 450.365 223.646 448.402 224.442" fill="#F68260"/>
<path d="M451.134 229.667C451.165 229.481 452.458 230.007 454.277 229.277C455.157 228.923 456.12 228.223 456.652 227.12C457.182 226.031 457.288 224.556 456.729 223.266C456.599 222.944 456.405 222.648 456.215 222.386C455.982 222.141 456.025 222.152 455.771 222.19C455.53 222.254 455.143 222.437 454.827 222.56C454.498 222.694 454.175 222.826 453.859 222.954C452.598 223.464 451.457 223.91 450.493 224.271C448.563 224.992 447.341 225.37 447.286 225.236C447.228 225.103 448.346 224.482 450.2 223.586C451.128 223.138 452.238 222.622 453.479 222.063C453.79 221.924 454.108 221.781 454.432 221.636C454.776 221.495 455.038 221.341 455.508 221.193C455.739 221.129 456.065 221.092 456.382 221.219C456.694 221.345 456.887 221.556 457.032 221.732C457.294 222.083 457.527 222.443 457.693 222.849C458.387 224.459 458.219 226.241 457.514 227.561C456.793 228.911 455.566 229.67 454.525 229.98C453.464 230.305 452.551 230.227 451.971 230.079C451.387 229.925 451.112 229.725 451.134 229.667" fill="#17282F"/>
<path d="M505.284 194.965C503.971 194.872 493.392 196.242 494.226 215.909C495.004 234.277 507.89 230.232 512.003 223.317C515.897 216.765 518.148 195.867 505.284 194.965" fill="#33535F"/>
<path d="M511.825 197.289C511.812 197.29 511.795 197.113 511.776 196.771C511.76 196.389 511.739 195.893 511.713 195.274C511.675 193.916 511.622 192.024 511.557 189.672C511.46 184.843 511.325 178.133 511.17 170.385L511.408 170.618C509.663 170.621 507.829 170.623 505.953 170.626L506.198 170.375C506.238 171.839 506.28 173.383 506.322 174.95C506.505 182.331 506.676 189.204 506.818 194.956L506.823 195.126L506.659 195.163C504.205 195.739 502.264 197.166 501.041 198.78C499.795 200.398 499.176 202.115 498.796 203.525C498.419 204.946 498.291 206.101 498.219 206.884C498.184 207.276 498.165 207.578 498.155 207.781C498.142 207.985 498.136 208.09 498.124 208.09C498.114 208.091 498.099 207.986 498.09 207.781C498.08 207.576 498.078 207.272 498.093 206.876C498.126 206.085 498.216 204.917 498.565 203.467C498.915 202.027 499.511 200.265 500.772 198.578C502.007 196.893 504.022 195.376 506.562 194.761L506.403 194.967C506.239 189.216 506.041 182.343 505.829 174.964C505.788 173.396 505.747 171.852 505.708 170.388L505.702 170.136L505.953 170.137C507.829 170.139 509.663 170.142 511.408 170.144H511.642L511.645 170.378C511.73 178.127 511.804 184.837 511.857 189.668C511.865 192.02 511.87 193.914 511.875 195.271C511.867 195.891 511.863 196.387 511.858 196.77C511.851 197.112 511.84 197.289 511.825 197.289" fill="#33535F"/>
<path d="M505.282 170.379C505.282 170.379 499.75 157.43 486.566 151.041C480.179 147.946 475.401 146.349 470.771 145.184C470.771 145.184 478.463 143.358 490.91 148.895C496.565 151.412 502.263 154.689 506.031 159.6C508.424 162.719 511.412 168.815 511.408 170.379H505.282" fill="#33535F"/>
<path d="M471.151 327.168C471.147 327.162 471.226 327.074 471.387 326.908C471.545 326.739 471.797 326.504 472.103 326.172C472.725 325.515 473.617 324.517 474.66 323.137C475.708 321.76 476.882 319.986 478.117 317.833C479.353 315.682 480.635 313.148 482.032 310.315C484.826 304.651 488.061 297.786 491.407 289.919C493.083 285.988 494.79 281.808 496.488 277.407C496.907 276.306 497.332 275.192 497.761 274.068C498.188 272.942 498.624 271.783 499.284 270.709C499.933 269.632 500.876 268.681 502.036 268.093C502.612 267.797 503.257 267.572 503.963 267.603C504.314 267.632 504.674 267.748 504.97 267.968C505.273 268.187 505.455 268.506 505.609 268.819L505.64 268.884L505.623 268.958C505.529 269.391 505.393 269.833 505.114 270.221C504.841 270.611 504.398 270.897 503.932 270.995C502.986 271.188 502.085 270.888 501.288 270.511C499.576 269.797 498.561 267.767 498.948 265.92C499.126 264.989 499.706 264.141 500.485 263.606C501.264 263.066 502.219 262.782 503.178 262.838C504.115 262.897 505.143 263.281 505.665 264.208C505.933 264.663 505.903 265.333 505.567 265.754C505.252 266.183 504.819 266.441 504.366 266.631C502.764 267.267 500.839 266.707 499.825 265.345C499.317 264.663 499.105 263.777 499.21 262.955C499.297 262.126 499.654 261.343 500.194 260.722C500.734 260.099 501.486 259.647 502.327 259.542C503.154 259.46 504.034 259.691 504.632 260.333C504.932 260.65 505.099 261.1 505.086 261.544C505.082 261.996 504.854 262.425 504.539 262.711C503.906 263.288 503.035 263.494 502.221 263.336C501.376 263.158 500.77 262.523 500.377 261.853C499.985 261.167 499.792 260.411 499.684 259.667C499.494 258.189 499.514 256.63 500.187 255.248C500.547 254.579 501.046 253.956 501.802 253.652C502.54 253.357 503.354 253.434 504.052 253.723C504.729 254.019 505.406 254.633 505.44 255.477C505.5 256.298 504.924 257.031 504.238 257.328C503.56 257.651 502.727 257.667 502.058 257.296C501.394 256.939 500.943 256.304 500.712 255.633C500.46 254.968 500.478 254.2 500.582 253.56C500.668 252.896 500.79 252.231 501.021 251.593C501.241 250.962 501.625 250.333 502.169 249.919C502.698 249.498 503.301 249.19 503.954 249.033C504.271 248.964 504.637 248.9 504.998 249.02C505.34 249.134 505.625 249.336 505.865 249.573C506.101 249.812 506.295 250.093 506.422 250.412C506.552 250.723 506.599 251.116 506.454 251.459C506.174 252.178 505.375 252.412 504.76 252.397C504.111 252.406 503.485 252.147 502.98 251.8C501.964 251.08 501.31 249.967 501.078 248.817C500.824 247.672 500.954 246.455 501.476 245.443C501.748 244.946 502.081 244.481 502.54 244.14C502.991 243.799 503.515 243.585 504.055 243.488C504.592 243.401 505.174 243.435 505.667 243.714C506.151 243.988 506.509 244.5 506.536 245.059C506.573 246.183 505.702 247.067 504.75 247.332C503.732 247.601 502.755 247.049 502.175 246.363C501.572 245.664 501.26 244.789 501.202 243.939C501.121 242.214 501.801 240.762 502.13 239.403C502.516 238.04 502.868 236.795 503.186 235.672C503.823 233.449 504.319 231.716 504.663 230.517C504.832 229.944 504.963 229.5 505.059 229.18C505.15 228.879 505.21 228.729 505.21 228.729C505.21 228.729 505.182 228.889 505.107 229.194C505.023 229.517 504.908 229.966 504.758 230.544C504.435 231.749 503.969 233.491 503.371 235.724C503.066 236.85 502.727 238.099 502.357 239.464C502.034 240.837 501.383 242.298 501.477 243.92C501.537 244.713 501.838 245.53 502.398 246.17C502.929 246.798 503.828 247.266 504.669 247.029C505.491 246.808 506.257 245.981 506.206 245.083C506.184 244.644 505.892 244.23 505.5 244.011C505.1 243.786 504.595 243.751 504.113 243.832C503.631 243.922 503.155 244.119 502.757 244.425C502.356 244.721 502.045 245.158 501.801 245.61C501.327 246.538 501.207 247.671 501.45 248.737C501.669 249.808 502.285 250.828 503.205 251.474C503.673 251.789 504.194 252.001 504.762 251.996C505.307 252.004 505.901 251.793 506.074 251.31C506.265 250.853 505.959 250.261 505.571 249.867C505.368 249.667 505.126 249.503 504.872 249.42C504.63 249.335 504.344 249.38 504.05 249.443C502.893 249.742 501.792 250.53 501.428 251.741C501.217 252.331 501.1 252.969 501.018 253.615C500.916 254.276 500.912 254.882 501.131 255.486C501.336 256.075 501.728 256.612 502.272 256.9C502.8 257.195 503.484 257.186 504.044 256.917C504.611 256.663 505.027 256.107 504.981 255.501C504.964 254.9 504.451 254.405 503.868 254.148C503.274 253.903 502.567 253.843 501.975 254.086C501.389 254.311 500.914 254.874 500.607 255.461C500.005 256.693 499.969 258.188 500.157 259.599C500.26 260.305 500.445 261.007 500.794 261.613C501.137 262.205 501.676 262.736 502.321 262.863C502.969 262.996 503.721 262.809 504.204 262.36C504.715 261.929 504.72 261.138 504.269 260.659C503.826 260.171 503.065 259.952 502.38 260.029C501.693 260.114 501.033 260.499 500.563 261.045C499.609 262.117 499.332 263.878 500.222 265.053C501.078 266.225 502.817 266.729 504.18 266.175C504.564 266.016 504.942 265.779 505.165 265.466C505.396 265.158 505.413 264.778 505.229 264.439C504.848 263.739 503.974 263.375 503.149 263.331C501.47 263.214 499.72 264.369 499.428 266.016C499.093 267.643 499.971 269.444 501.499 270.073C502.24 270.432 503.079 270.682 503.824 270.524C504.59 270.385 505.009 269.642 505.151 268.868L505.166 269.006C504.945 268.469 504.495 268.11 503.931 268.079C503.368 268.054 502.781 268.241 502.253 268.516C501.175 269.062 500.303 269.933 499.683 270.955C499.053 271.976 498.621 273.108 498.193 274.231C497.761 275.355 497.334 276.47 496.911 277.572C495.201 281.972 493.481 286.153 491.79 290.083C488.414 297.947 485.143 304.803 482.308 310.452C480.892 313.277 479.586 315.806 478.325 317.954C477.066 320.102 475.865 321.871 474.793 323.238C472.647 325.98 471.151 327.168 471.151 327.168" fill="white"/>
<path d="M516.766 185.742C516.681 185.759 516.806 184.4 515.904 182.238C515.028 180.116 512.876 177.235 509.102 175.425C507.229 174.541 504.984 173.982 502.546 173.822C500.105 173.662 497.479 173.896 494.77 174.416C489.338 175.414 483.635 177.759 477.248 178.722C474.048 179.14 470.877 179.121 467.865 178.712C464.85 178.289 462.028 177.434 459.431 176.425C454.266 174.293 450.101 171.319 447.151 168.314C444.184 165.317 442.267 162.45 441.201 160.355C440.899 159.85 440.677 159.378 440.504 158.959C440.326 158.554 440.173 158.205 440.043 157.911C439.932 157.648 439.842 157.435 439.769 157.263C439.712 157.116 439.684 157.039 439.693 157.035C439.7 157.032 439.743 157.103 439.817 157.244C439.901 157.41 440.005 157.616 440.134 157.87C440.274 158.158 440.441 158.499 440.635 158.894C440.822 159.305 441.056 159.768 441.37 160.264C442.48 162.317 444.427 165.129 447.396 168.065C450.349 171.01 454.49 173.92 459.601 176.003C462.172 176.988 464.959 177.822 467.932 178.233C470.905 178.63 474.026 178.645 477.178 178.234C483.479 177.287 489.191 174.957 494.685 173.969C497.423 173.455 500.089 173.233 502.574 173.414C505.057 173.595 507.342 174.184 509.254 175.111C513.093 177.004 515.245 179.982 516.081 182.165C516.535 183.262 516.652 184.186 516.74 184.796C516.753 185.082 516.763 185.314 516.772 185.502C516.776 185.661 516.774 185.742 516.766 185.742Z" fill="#33535F"/>
<path d="M502.466 165.321C502.468 165.338 502.234 165.379 501.786 165.441C501.34 165.502 500.681 165.6 499.838 165.747C498.149 166.028 495.73 166.566 492.753 167.307C489.781 168.043 486.216 168.937 482.159 169.359C478.109 169.789 473.596 169.752 468.944 169.072C464.289 168.398 459.955 167.156 456.179 165.639C452.401 164.117 449.164 162.358 446.597 160.664C445.325 159.801 444.181 159.003 443.223 158.248C442.282 157.468 441.438 156.838 440.815 156.245C440.218 155.684 439.738 155.233 439.373 154.89C439.048 154.577 438.884 154.405 438.894 154.394C438.906 154.382 439.094 154.528 439.442 154.817C439.821 155.142 440.318 155.568 440.941 156.1C441.579 156.668 442.439 157.274 443.39 158.029C444.359 158.759 445.51 159.533 446.786 160.371C451.917 163.652 459.751 167.269 469.015 168.583C473.626 169.257 478.096 169.307 482.112 168.907C486.134 168.514 489.686 167.662 492.673 166.967C495.661 166.27 498.103 165.781 499.809 165.557C500.66 165.439 501.324 165.372 501.776 165.343C502.227 165.313 502.465 165.304 502.466 165.321" fill="#33535F"/>
<path d="M503.876 228.809C503.87 228.824 503.743 228.787 503.505 228.701C503.271 228.606 502.928 228.453 502.523 228.192C501.709 227.684 500.627 226.733 499.749 225.234C498.861 223.743 498.272 221.724 498.048 219.467C497.83 217.208 497.829 214.719 498.039 212.118C498.26 209.517 498.698 207.061 499.256 204.871C499.808 202.687 500.467 200.725 501.372 199.246C502.263 197.759 503.341 196.804 504.161 196.305C504.571 196.05 504.912 195.895 505.149 195.805C505.386 195.719 505.516 195.688 505.522 195.702C505.54 195.745 505.036 195.922 504.268 196.464C503.501 196.999 502.498 197.96 501.673 199.422C500.835 200.877 500.22 202.806 499.698 204.981C499.169 207.155 498.748 209.585 498.532 212.159C498.323 214.729 498.31 217.203 498.501 219.423C498.696 221.639 499.235 223.601 500.052 225.062C500.863 226.533 501.87 227.49 502.63 228.033C503.392 228.587 503.897 228.764 503.876 228.809" fill="#17282F"/>
<path d="M462.375 231.534L452.657 233.441C451.192 233.728 449.772 232.774 449.484 231.309L449.414 230.952C449.127 229.487 450.081 228.067 451.546 227.78L461.264 225.872C462.729 225.585 464.149 226.538 464.436 228.003L464.507 228.361C464.793 229.826 463.84 231.247 462.375 231.534" fill="#33535F"/>
<path d="M463.119 227.329L508.076 213.226C509.188 212.876 510.374 213.491 510.729 214.601C511.099 215.753 510.431 216.98 509.263 217.295L463.29 229.715L463.119 227.329" fill="#33535F"/>
<path d="M496.349 221.127C496.339 221.095 496.87 220.91 497.837 220.603C498.89 220.283 500.275 219.862 501.948 219.352C503.673 218.818 505.791 218.257 508.031 217.523C508.572 217.314 509.097 217.032 509.503 216.617C509.894 216.213 510.147 215.63 510.136 215.053C510.135 214.475 509.767 213.956 509.207 213.766C508.645 213.578 507.972 213.662 507.328 213.823C502.102 215.504 497.375 217.025 493.849 218.16C492.177 218.676 490.794 219.104 489.743 219.428C488.771 219.717 488.228 219.862 488.217 219.829C488.206 219.797 488.729 219.591 489.684 219.246C490.721 218.883 492.088 218.405 493.74 217.828C497.182 216.659 501.902 215.043 507.206 213.344C507.893 213.177 508.638 213.062 509.37 213.303C510.11 213.539 510.634 214.299 510.619 215.042C510.625 215.776 510.319 216.451 509.839 216.947C509.36 217.429 508.769 217.731 508.194 217.948C505.869 218.684 503.797 219.192 502.044 219.687C500.353 220.136 498.952 220.507 497.89 220.788C496.907 221.038 496.358 221.161 496.349 221.127" fill="#17282F"/>
<path d="M422.836 186.692C424.375 192.095 418.883 196.727 416.95 202.003C415.081 207.104 416.672 212.818 418.974 217.739C421.275 222.66 424.305 227.328 425.483 232.632C428.389 245.707 416.566 259.793 418.818 272.997C419.638 277.806 421.574 282.826 423.254 287.406C424.934 291.987 424.815 296.177 423.254 300.797C420.698 308.36 416.36 311.927 413.306 319.301C411.742 323.072 411.865 327.295 411.944 331.377C412.023 335.458 411.993 339.713 410.178 343.368C408.362 347.025 404.204 349.85 400.263 348.791C404.388 353.642 412.005 355.091 417.625 352.096C422.809 349.332 425.709 343.718 428.191 338.393C440.207 312.608 446.563 310.432 446.234 281.986C446.212 280.155 445.87 251.666 445.87 251.666C445.87 251.666 441.37 250.465 438.776 248.676C425.354 239.413 424.866 222.903 424.972 210.109" fill="#17282F"/>
<path d="M449.693 272.998V283.732C449.693 283.732 441.435 325.847 438.958 349.243C436.482 372.64 436.062 378.812 436.062 378.812C436.062 378.812 441.986 388.054 454.372 372.365C466.759 356.675 468.961 354.197 473.915 353.923C473.915 353.923 467.86 288.136 468.135 285.66C468.411 283.183 470.337 280.98 470.337 280.98L449.693 272.998" fill="#F8A58D"/>
<path d="M465.934 248.771C465.934 248.771 452.446 266.664 451.345 269.141C450.244 271.618 449.693 272.994 449.693 272.994L470.337 280.977L490.431 258.957L497.863 239.413L495.661 216.292C495.661 216.292 491.256 216.017 490.431 219.87C489.606 223.724 489.88 227.302 489.88 227.302L483.713 222.347L473.778 219.32C473.778 219.32 471.438 223.174 475.292 225.1C479.146 227.026 480.247 227.026 480.247 227.026L483.713 233.083L482.199 239.867L475.173 233.279C473.762 231.957 471.613 231.823 470.049 232.959L465.51 236.26L461.254 234.359L452.996 241.616L449.693 244.643C449.693 244.643 451.895 248.771 456.299 246.845C460.704 244.919 460.704 244.919 460.704 244.919L465.934 248.771" fill="#F8A58D"/>
<path d="M449.693 276.624C449.693 276.624 449.676 276.43 449.689 276.05C449.702 275.672 449.734 275.107 449.824 274.371C449.917 273.635 450.061 272.726 450.34 271.672C450.647 270.634 450.993 269.401 451.789 268.206C454.874 263.464 459.736 256.869 465.795 248.675L465.831 248.918C464.197 247.718 462.427 246.42 460.594 245.074L460.778 245.095C459.888 245.487 458.98 245.886 458.056 246.292C457.128 246.679 456.22 247.173 455.156 247.422C454.109 247.661 452.931 247.584 451.933 247.057C450.922 246.556 450.107 245.736 449.511 244.747L449.431 244.613L449.553 244.497C453.105 241.165 457.051 237.794 461.106 234.196L461.228 234.088L461.369 234.172C462.503 234.842 463.763 235.585 465.034 236.336L464.792 236.343C466.201 235.415 467.632 234.473 469.082 233.519C469.823 233.043 470.502 232.558 471.308 232.082C472.172 231.641 473.281 231.735 474.068 232.322C476.792 234.626 479.584 236.982 482.423 239.382L482.03 239.514C482.484 237.474 482.978 235.265 483.474 233.035L483.501 233.21C482.404 231.295 481.224 229.234 480.033 227.155L480.247 227.28C479.594 227.208 479.097 227.01 478.536 226.818C477.992 226.618 477.454 226.391 476.915 226.15C476.377 225.911 475.844 225.653 475.308 225.389C475.041 225.256 474.772 225.082 474.503 224.929C474.266 224.72 473.988 224.561 473.79 224.304C473.156 223.634 472.789 222.689 472.835 221.774C472.855 220.855 473.129 219.995 473.568 219.198L473.66 219.032L473.85 219.09C477.206 220.113 480.52 221.124 483.784 222.119L483.83 222.133L483.867 222.163C485.948 223.836 488.004 225.49 490.031 227.119L489.64 227.326C489.51 224.831 489.684 222.377 490.165 219.999C490.372 218.784 491.094 217.585 492.173 216.95C493.238 216.292 494.459 216.044 495.675 216.065L495.873 216.069L495.893 216.276C496.667 224.496 497.396 232.239 498.07 239.4L498.074 239.448L498.057 239.493C495.303 246.698 492.806 253.23 490.59 259.023L490.578 259.054L490.557 259.077C483.95 266.269 478.633 272.058 474.955 276.061C473.123 278.04 471.7 279.576 470.722 280.632C470.245 281.141 469.878 281.532 469.616 281.81C469.365 282.073 469.228 282.199 469.228 282.199C469.228 282.199 469.341 282.05 469.58 281.777C469.833 281.491 470.189 281.091 470.651 280.568C471.614 279.497 473.014 277.94 474.818 275.935C478.468 271.907 483.746 266.084 490.305 258.848L490.272 258.902C492.466 253.101 494.94 246.56 497.669 239.346L497.656 239.439C496.967 232.281 496.221 224.538 495.429 216.32L495.646 216.53C494.547 216.51 493.371 216.752 492.425 217.348C491.455 217.929 490.831 218.955 490.63 220.094C490.161 222.42 489.992 224.861 490.121 227.289L490.15 227.834L489.73 227.497C487.699 225.867 485.643 224.216 483.56 222.545L483.642 222.587C480.378 221.593 477.063 220.583 473.707 219.562L473.989 219.454C473.604 220.151 473.34 220.977 473.328 221.782C473.289 222.595 473.603 223.381 474.151 223.969C474.319 224.193 474.577 224.335 474.782 224.522C475.034 224.662 475.264 224.816 475.528 224.947C476.058 225.208 476.587 225.465 477.117 225.7C478.159 226.156 479.279 226.638 480.247 226.787L480.403 226.811L480.461 226.911C481.65 228.99 482.831 231.053 483.926 232.967L483.974 233.049L483.952 233.142C483.453 235.372 482.959 237.58 482.503 239.619L482.416 240.011L482.11 239.752C479.28 237.357 476.501 235.003 473.788 232.704C473.141 232.22 472.227 232.141 471.516 232.502C470.809 232.921 470.057 233.447 469.338 233.909C467.886 234.861 466.454 235.8 465.044 236.725L464.924 236.803L464.801 236.73C463.53 235.977 462.273 235.231 461.14 234.559L461.402 234.534C457.343 238.121 453.389 241.484 449.833 244.802L449.875 244.552C450.412 245.446 451.192 246.245 452.114 246.696C453.029 247.183 454.094 247.256 455.073 247.037C456.046 246.817 456.971 246.327 457.903 245.941C458.829 245.538 459.737 245.142 460.629 244.754L460.728 244.711L460.814 244.775C462.643 246.128 464.407 247.433 466.036 248.639L466.176 248.742L466.072 248.882C459.98 257.046 455.072 263.614 451.949 268.307C451.159 269.465 450.797 270.687 450.481 271.711C450.187 272.751 450.029 273.653 449.922 274.384C449.817 275.114 449.767 275.676 449.739 276.053C449.709 276.431 449.693 276.624 449.693 276.624" fill="#F68260"/>
<path d="M475.24 252.918C475.141 252.903 475.505 251.458 475.657 249.113C475.705 247.95 475.639 246.522 475.006 245.135C474.377 243.745 473.135 242.536 471.718 241.442C468.86 239.237 466.105 237.462 464.078 236.239C463.13 235.681 462.322 235.205 461.658 234.815C461.085 234.481 460.771 234.287 460.787 234.255C460.802 234.226 461.145 234.361 461.748 234.645C462.35 234.927 463.21 235.362 464.251 235.937C466.335 237.089 469.138 238.829 472.021 241.054C473.458 242.162 474.765 243.441 475.42 244.948C476.076 246.45 476.099 247.948 476.005 249.134C475.905 250.334 475.689 251.278 475.54 251.925C475.381 252.573 475.272 252.925 475.24 252.918" fill="#F68260"/>
<path d="M489.686 244.332C489.611 244.313 489.811 243.377 490.037 241.856C490.263 240.335 490.478 238.22 490.461 235.877C490.439 233.535 490.187 231.423 489.935 229.906C489.684 228.388 489.468 227.457 489.543 227.436C489.6 227.42 489.936 228.323 490.277 229.84C490.621 231.355 490.931 233.495 490.955 235.873C490.972 238.251 490.697 240.395 490.38 241.916C490.063 243.439 489.743 244.347 489.686 244.332" fill="#F68260"/>
<path d="M397.672 174.125L387.796 156.717C392.165 149.625 394.691 141.276 394.691 132.334C394.691 106.619 373.845 85.7728 348.131 85.7728C322.415 85.7728 301.57 106.619 301.57 132.334C301.57 158.049 322.415 178.895 348.131 178.895C358.867 178.895 368.748 175.25 376.625 169.144L376.609 169.165L397.672 174.125Z" fill="white"/>
<path d="M397.672 174.124C396.811 173.927 390.054 172.376 376.581 169.284L376.395 169.241L376.511 169.09L376.527 169.069L376.7 169.24C374.044 171.297 370.864 173.322 367.124 175.009C363.381 176.667 359.094 178.021 354.36 178.65C351.996 178.951 349.526 179.145 346.99 179.02C345.722 178.948 344.431 178.918 343.13 178.808C341.837 178.613 340.526 178.415 339.197 178.213C333.928 177.172 328.54 175.17 323.514 172.051C318.492 168.943 313.842 164.723 310.115 159.538C306.394 154.363 303.572 148.226 302.252 141.559C300.943 134.9 301.053 127.763 302.801 120.856C304.563 113.973 307.853 107.249 312.777 101.718L314.678 99.6263C315.302 98.9232 316.047 98.3434 316.724 97.6981C317.433 97.0879 318.072 96.3971 318.834 95.8579C319.579 95.2998 320.325 94.7427 321.067 94.1884C321.79 93.6028 322.588 93.1319 323.38 92.6581C324.168 92.1796 324.956 91.7011 325.74 91.2245C326.566 90.8237 327.391 90.4238 328.212 90.0239C329.041 89.6421 329.838 89.1901 330.707 88.9153C337.467 86.2319 344.677 85.2095 351.568 85.7088C358.462 86.2053 365.058 88.1819 370.716 91.3656C376.392 94.5248 381.18 98.7442 384.875 103.455C388.582 108.169 391.194 113.37 392.812 118.548C394.419 123.75 394.854 128.91 394.837 133.687C394.701 138.475 393.831 142.887 392.562 146.759C391.29 150.636 389.621 153.973 387.896 156.779L387.898 156.659C394.166 167.858 397.26 173.386 397.672 174.124C397.251 173.392 394.092 167.901 387.693 156.776L387.658 156.716L387.694 156.655C389.394 153.852 391.038 150.528 392.284 146.669C393.528 142.815 394.377 138.431 394.497 133.677C394.497 128.934 394.051 123.816 392.444 118.662C390.826 113.531 388.225 108.382 384.543 103.717C380.872 99.054 376.122 94.8839 370.497 91.7617C364.889 88.6159 358.358 86.6668 351.533 86.1826C344.71 85.6946 337.577 86.7113 330.89 89.3692C330.03 89.6402 329.241 90.0884 328.421 90.4674C327.608 90.8625 326.793 91.2586 325.975 91.6556C325.199 92.1275 324.42 92.6012 323.64 93.075C322.856 93.5441 322.068 94.0102 321.352 94.5892C320.618 95.1388 319.881 95.6902 319.142 96.2417C318.388 96.7752 317.757 97.4602 317.055 98.0629C316.386 98.7015 315.648 99.2748 315.03 99.9712L313.149 102.041C308.276 107.514 305.021 114.166 303.276 120.975C301.542 127.809 301.429 134.874 302.718 141.465C304.019 148.067 306.806 154.143 310.484 159.274C314.169 164.413 318.768 168.601 323.739 171.69C328.713 174.79 334.048 176.786 339.271 177.831C340.588 178.034 341.887 178.234 343.169 178.431C344.461 178.543 345.741 178.577 346.998 178.651C349.516 178.783 351.967 178.597 354.313 178.306C359.014 177.697 363.277 176.368 367.002 174.736C370.724 173.075 373.896 171.077 376.549 169.046L377.293 168.478L376.722 169.219L376.707 169.239L376.637 169.044C390.075 172.29 396.815 173.917 397.672 174.124" fill="#17282F"/>
<path d="M338.039 132.334C338.039 134.421 336.347 136.113 334.259 136.113C332.171 136.113 330.478 134.421 330.478 132.334C330.478 130.245 332.171 128.553 334.259 128.553C336.347 128.553 338.039 130.245 338.039 132.334Z" fill="#17282F"/>
<path d="M353.168 132.334C353.168 134.421 351.476 136.113 349.387 136.113C347.299 136.113 345.607 134.421 345.607 132.334C345.607 130.245 347.299 128.553 349.387 128.553C351.476 128.553 353.168 130.245 353.168 132.334Z" fill="#17282F"/>
<path d="M368.258 130.442C369.301 132.25 368.682 134.562 366.874 135.606C365.065 136.65 362.753 136.031 361.709 134.223C360.666 132.414 361.286 130.102 363.094 129.059C364.902 128.015 367.214 128.634 368.258 130.442Z" fill="#17282F"/>
<path d="M584 429.5C584 429.775 457.735 430 302.014 430C146.239 430 20 429.775 20 429.5C20 429.226 146.239 429 302.014 429C457.735 429 584 429.226 584 429.5" fill="#17282F"/>
<path d="M462.25 429.629C462.25 429.629 468.676 418.654 482.517 418.184C496.357 417.714 503.277 429.629 503.277 429.629H462.25" fill="#33535F"/>
<path d="M488.773 429.285C488.671 429.285 488.647 428.474 488.367 427.218C488.093 425.966 487.488 424.28 486.393 422.661C485.291 421.046 483.946 419.861 482.882 419.145C481.819 418.422 481.073 418.101 481.111 418.008C481.132 417.945 481.944 418.128 483.109 418.783C484.27 419.43 485.737 420.626 486.893 422.321C488.042 424.02 488.614 425.824 488.788 427.142C488.968 428.466 488.837 429.289 488.773 429.285" fill="#17282F"/>
<path d="M453.682 429.129L453.681 429.04C453.633 426.141 451.269 423.815 448.368 423.815H330.546C327.612 423.815 325.232 426.193 325.232 429.129H453.682" fill="#33535F"/>
<path d="M228.13 222.743C228.13 225.222 229.987 373.194 229.987 373.194L339.888 399.637H348.977L343.193 193.055H334.93L228.13 222.743Z" fill="#17282F"/>
<path d="M251.371 367.001L217.31 429.43H248.442C242.875 428.874 297.742 429.43 297.742 429.43L248.442 416.358L263.858 381.344L262.543 367.001H251.371" fill="#17282F"/>
<path d="M252.132 378.524L248.442 262.172L281.909 258.963L286.034 383.197L274.079 383.805L252.132 378.524" fill="#17282F"/>
<path d="M290.712 387.805C290.712 387.805 290.698 387.622 290.691 387.264C290.687 386.893 290.679 386.362 290.671 385.669C290.662 384.25 290.649 382.175 290.632 379.487C290.617 374.079 290.593 366.219 290.564 356.345C290.542 336.567 290.511 308.735 290.475 276.462L290.711 276.698C278.326 276.702 265.003 276.705 251.223 276.708L251.471 276.462C251.471 278.16 251.471 279.993 251.471 281.831C251.456 313.303 251.442 342.596 251.431 367.001V367.053L251.405 367.098C241.156 385.891 232.653 401.479 226.706 412.384C223.727 417.817 221.39 422.08 219.789 424.998C218.991 426.439 218.378 427.546 217.957 428.307C217.539 429.054 217.31 429.43 217.31 429.43C217.31 429.43 217.502 429.033 217.901 428.277C218.309 427.509 218.905 426.392 219.679 424.937C221.257 422.007 223.56 417.726 226.496 412.271C232.406 401.347 240.855 385.728 251.041 366.901L251.017 367.001C251.005 342.596 250.992 313.303 250.977 281.831C250.977 279.993 250.977 278.16 250.977 276.462V276.215H251.223C265.003 276.219 278.326 276.222 290.711 276.225H290.948V276.462C290.912 308.735 290.882 336.567 290.86 356.345C290.831 366.219 290.807 374.079 290.792 379.487C290.775 382.175 290.762 384.25 290.753 385.669C290.744 386.362 290.737 386.893 290.732 387.264C290.726 387.622 290.712 387.805 290.712 387.805" fill="#33535F"/>
<path d="M263.858 381.342C263.983 381.398 259.243 392.356 253.272 405.815C247.301 419.279 242.36 430.144 242.235 430.09C242.111 430.034 246.85 419.078 252.821 405.614C258.791 392.157 263.733 381.287 263.858 381.342Z" fill="#33535F"/>
<path d="M339.888 399.637C339.888 399.637 339.87 399.456 339.861 399.105C339.853 398.734 339.843 398.214 339.829 397.542C339.812 396.15 339.789 394.13 339.756 391.538C339.717 386.323 339.6 378.777 339.417 369.455C339.062 350.81 338.22 325.061 337.188 296.624C336.155 268.179 335.369 242.421 335.103 223.771C334.964 214.447 334.9 206.899 334.92 201.684C334.929 199.093 334.936 197.073 334.94 195.68C334.948 195.008 334.954 194.489 334.958 194.118C334.965 193.766 334.981 193.586 334.981 193.586C334.981 193.586 334.999 193.766 335.008 194.118C335.016 194.489 335.026 195.008 335.039 195.68C335.057 197.072 335.081 199.092 335.112 201.683C335.151 206.898 335.269 214.442 335.452 223.765C335.807 242.41 336.648 268.161 337.681 296.607C338.714 325.043 339.5 350.798 339.766 369.449C339.905 378.774 339.969 386.321 339.949 391.536C339.94 394.129 339.934 396.15 339.929 397.542C339.921 398.214 339.915 398.734 339.911 399.105C339.904 399.456 339.888 399.637 339.888 399.637" fill="#33535F"/>
<path d="M284.717 275.599C284.854 275.599 284.964 300.347 284.964 330.867C284.964 361.398 284.854 386.141 284.717 386.141C284.581 386.141 284.47 361.398 284.47 330.867C284.47 300.347 284.581 275.599 284.717 275.599Z" fill="#33535F"/>
<path d="M225.498 419.683C225.484 419.694 225.323 419.467 225.026 419.025C224.871 418.792 224.691 418.519 224.482 418.204C224.258 417.884 224.027 417.499 223.8 417.046C222.775 415.302 221.609 412.574 220.795 409.04C219.986 405.504 219.711 401.139 220.208 396.373C220.753 391.614 222.031 386.443 224.315 381.397C225.466 378.87 226.952 376.578 228.611 374.562C229.01 374.045 229.422 373.546 229.866 373.084C230.302 372.613 230.72 372.135 231.158 371.686C232.071 370.824 232.927 369.939 233.866 369.191C235.67 367.607 237.577 366.346 239.372 365.201C240.306 364.689 241.186 364.152 242.075 363.719C242.976 363.31 243.807 362.844 244.662 362.538C248.018 361.172 250.907 360.508 252.924 360.336C253.924 360.169 254.718 360.23 255.248 360.194C255.779 360.184 256.058 360.187 256.058 360.204C256.058 360.221 255.779 360.252 255.251 360.294C254.725 360.361 253.938 360.331 252.949 360.527C250.954 360.756 248.103 361.466 244.796 362.859C243.954 363.173 243.135 363.646 242.248 364.057C241.372 364.495 240.505 365.035 239.585 365.551C237.816 366.7 235.938 367.961 234.162 369.537C233.236 370.282 232.394 371.16 231.495 372.016C231.064 372.461 230.652 372.935 230.223 373.401C229.785 373.86 229.38 374.354 228.988 374.865C227.355 376.859 225.893 379.12 224.763 381.603C222.505 386.59 221.223 391.718 220.661 396.422C220.144 401.14 220.378 405.459 221.136 408.966C221.898 412.473 223.002 415.196 223.969 416.954C224.182 417.412 224.398 417.803 224.608 418.128C224.8 418.451 224.967 418.731 225.109 418.971C225.378 419.428 225.512 419.675 225.498 419.683" fill="#33535F"/>
<path d="M143.621 153.954C143.621 153.954 143.606 153.212 143.6 151.794C143.594 150.371 143.586 148.272 143.576 145.537C143.565 140.056 143.547 132.024 143.525 121.783C143.5 101.317 143.464 72.029 143.421 36.6944L143.621 36.9062C103.872 36.918 55.9909 36.9336 4.46955 36.9503H4.45748L4.69821 36.6944C4.68895 79.0277 4.68154 119.035 4.67321 153.954L4.45748 153.726C45.7807 153.773 80.5443 153.812 104.987 153.84C117.217 153.866 126.864 153.887 133.463 153.901C136.759 153.913 139.291 153.922 141.01 153.928C141.862 153.934 142.51 153.938 142.954 153.941C143.392 153.945 143.621 153.954 143.621 153.954C143.621 153.954 143.409 153.963 142.979 153.968C142.54 153.971 141.9 153.975 141.057 153.981C139.35 153.987 136.831 153.996 133.553 154.008C126.967 154.022 117.336 154.042 105.126 154.069C80.6498 154.096 45.839 154.136 4.45748 154.183L4.2418 154.184V153.954C4.23346 119.035 4.22513 79.0277 4.2168 36.6944V36.4395H4.45748H4.46955C55.9909 36.4552 103.872 36.4699 143.621 36.4826H143.822L143.821 36.6944C143.778 72.0839 143.742 101.419 143.718 121.916C143.695 132.136 143.678 140.152 143.666 145.622C143.656 148.341 143.648 150.425 143.642 151.84C143.636 153.243 143.621 153.954 143.621 153.954" fill="#DADBD8"/>
<path d="M27.4785 117.945H22.4465V58.431H27.4785V117.945" fill="#DADBD8"/>
<path d="M37.1933 117.945H32.1614V78.6446H37.1933V117.945Z" fill="#E7E8E5"/>
<path d="M46.9082 118.246H41.8762V65.8266H46.9082V118.246Z" fill="#DADBD8"/>
<path d="M56.623 117.945H51.5911V60.7283H56.623V117.945Z" fill="#E7E8E5"/>
<path d="M66.3379 117.945H61.3059V79.8546H66.3379V117.945" fill="#DADBD8"/>
<path d="M76.0536 117.945H71.0208V87.3239H76.0536V117.945Z" fill="#E7E8E5"/>
<path d="M85.7687 117.945H80.7358V64.5394H85.7687V117.945Z" fill="#DADBD8"/>
<path d="M95.4834 117.945H90.4504V74.1678H95.4834V117.945" fill="#E7E8E5"/>
<path d="M105.198 117.945H100.166V66.4739H105.198V117.945Z" fill="#DADBD8"/>
<path d="M114.912 117.945H109.881V82.8784H114.912V117.945Z" fill="#E7E8E5"/>
<path d="M124.627 117.945H119.595V76.2062H124.627V117.945Z" fill="#DADBD8"/>
<path d="M126.682 122.089C126.682 122.211 102.813 122.309 73.3757 122.309C43.9283 122.309 20.0647 122.211 20.0647 122.089C20.0647 121.968 43.9283 121.87 73.3757 121.87C102.813 121.87 126.682 121.968 126.682 122.089" fill="#DADBD8"/>
<path d="M29.6243 126.774C29.6243 126.894 27.9513 126.992 25.8904 126.992C23.8267 126.992 22.1555 126.894 22.1555 126.774C22.1555 126.653 23.8267 126.555 25.8904 126.555C27.9513 126.555 29.6243 126.653 29.6243 126.774Z" fill="#DADBD8"/>
<path d="M42.0113 127.011C42.0113 127.132 40.0133 127.23 37.5487 127.23C35.0841 127.23 33.0852 127.132 33.0852 127.011C33.0852 126.89 35.0841 126.792 37.5487 126.792C40.0133 126.792 42.0113 126.89 42.0113 127.011Z" fill="#DADBD8"/>
<path d="M52.577 127.011C52.577 127.132 50.578 127.23 48.1144 127.23C45.6488 127.23 43.6509 127.132 43.6509 127.011C43.6509 126.89 45.6488 126.792 48.1144 126.792C50.578 126.792 52.577 126.89 52.577 127.011Z" fill="#DADBD8"/>
<path d="M63.1419 127.011C63.1419 127.132 61.144 127.23 58.6794 127.23C56.2148 127.23 54.2168 127.132 54.2168 127.011C54.2168 126.89 56.2148 126.792 58.6794 126.792C61.144 126.792 63.1419 126.89 63.1419 127.011Z" fill="#DADBD8"/>
<path d="M73.7078 127.011C73.7078 127.132 71.7098 127.23 69.2452 127.23C66.7797 127.23 64.7817 127.132 64.7817 127.011C64.7817 126.89 66.7797 126.792 69.2452 126.792C71.7098 126.792 73.7078 126.89 73.7078 127.011Z" fill="#DADBD8"/>
<path d="M84.272 127.011C84.272 127.132 82.2741 127.23 79.8095 127.23C77.3449 127.23 75.3469 127.132 75.3469 127.011C75.3469 126.89 77.3449 126.792 79.8095 126.792C82.2741 126.792 84.272 126.89 84.272 127.011Z" fill="#DADBD8"/>
<path d="M94.8391 127.011C94.8391 127.132 92.8402 127.23 90.3756 127.23C87.9101 127.23 85.9131 127.132 85.9131 127.011C85.9131 126.89 87.9101 126.792 90.3756 126.792C92.8402 126.792 94.8391 126.89 94.8391 127.011Z" fill="#DADBD8"/>
<path d="M105.404 127.011C105.404 127.132 103.406 127.23 100.941 127.23C98.4758 127.23 96.4778 127.132 96.4778 127.011C96.4778 126.89 98.4758 126.792 100.941 126.792C103.406 126.792 105.404 126.89 105.404 127.011Z" fill="#DADBD8"/>
<path d="M115.97 127.011C115.97 127.132 113.972 127.23 111.507 127.23C109.042 127.23 107.044 127.132 107.044 127.011C107.044 126.89 109.042 126.792 111.507 126.792C113.972 126.792 115.97 126.89 115.97 127.011Z" fill="#DADBD8"/>
<path d="M126.535 127.011C126.535 127.132 124.537 127.23 122.073 127.23C119.607 127.23 117.608 127.132 117.608 127.011C117.608 126.89 119.607 126.792 122.073 126.792C124.537 126.792 126.535 126.89 126.535 127.011Z" fill="#DADBD8"/>
<path d="M147.57 40.4062H0V35.999H147.57V40.4062Z" fill="#E7E8E5"/>
<path fill-rule="evenodd" clip-rule="evenodd" d="M213.53 30.7668C210.397 24.2546 202.13 21.3164 195.065 24.2061C188.002 27.0947 184.817 34.7178 187.949 41.231C191.083 47.7454 199.35 50.6827 206.412 47.7929C213.477 44.9032 216.664 37.2815 213.53 30.7668V30.7668ZM232.243 30.8513C232.696 33.4738 232.757 36.1085 232.45 38.6898L239 42.736L234.308 53.9593L226.508 52.9078C224.855 55.0103 222.894 56.9273 220.647 58.5915L222.173 65.7205L210.25 70.5972L205.542 64.7705C202.697 65.1894 199.838 65.2442 197.04 64.962L192.649 71L180.481 66.6758L181.621 59.4807C179.341 57.9599 177.263 56.1498 175.457 54.0783L167.727 55.4841L162.436 44.4911L168.755 40.1484C168.3 37.5249 168.243 34.8917 168.548 32.3115L162 28.2614L166.689 17.0385L174.491 18.0908C176.144 15.9886 178.106 14.0741 180.351 12.4097L178.825 5.27935L190.75 0.401794L195.457 6.22972C198.302 5.81051 201.16 5.75578 203.958 6.03692L208.349 -6.79252e-07L220.518 4.32523L219.379 11.5178C221.658 13.0404 223.735 14.8491 225.542 16.9215L233.273 15.5159L238.562 26.5087L232.243 30.8513" fill="#DADBD8"/>
<path fill-rule="evenodd" clip-rule="evenodd" d="M275.679 52.3915C273.14 48.2187 267.389 46.7919 262.833 49.2059C258.278 51.6191 256.646 56.9595 259.184 61.1331C261.724 65.3073 267.476 66.7335 272.029 64.3196C276.585 61.9056 278.219 56.566 275.679 52.3915V52.3915ZM288.26 51.2037C288.74 52.9379 288.956 54.7064 288.922 56.4634L293.593 58.7499L291.187 66.6127L285.875 66.4241C284.904 67.9485 283.714 69.3686 282.315 70.6377L283.815 75.3324L276.127 79.4063L272.575 75.7995C270.691 76.2705 268.773 76.4976 266.874 76.4938L264.325 80.8481L255.86 78.7483L256.147 73.8318C254.513 72.9603 252.996 71.8807 251.645 70.6073L246.543 72.0672L242.255 65.0233L246.213 61.6814C245.733 59.9467 245.519 58.1789 245.552 56.4227L240.882 54.1335L243.286 46.2711L248.599 46.4602C249.57 44.936 250.761 43.5174 252.159 42.2483L250.659 37.5528L258.348 33.4781L261.899 37.0859C263.783 36.6146 265.701 36.3877 267.6 36.3907L270.149 32.0372L278.615 34.1377L278.328 39.0523C279.961 39.9251 281.478 41.0038 282.83 42.2779L287.932 40.8179L292.218 47.8618L288.26 51.2037" fill="#DADBD8"/>
<path d="M34.8904 404.975V428.699H103.787V404.975H34.8904Z" fill="#F3F2F1"/>
<path d="M32 398.339V404.973H106.196V398.339H67.6524H32" fill="#DADBD8"/>
<path d="M69.0976 428.699H103.787V404.975H106.196V398.341H67.6523V404.361L69.0976 428.699" fill="#DADBD8"/>
<path d="M44.5266 408.8V412.371H58.4985V408.8H44.5266Z" fill="#DADBD8"/>
<path d="M60.6686 424.379H42.7285V416.836H60.6686V424.379Z" fill="white"/>
<path d="M41.2195 374.633V398.359H110.116V374.633H41.2195Z" fill="#F3F2F1"/>
<path d="M38.3291 368.001V374.633H112.525V368.001H73.9815H38.3291Z" fill="#DADBD8"/>
<path d="M75.4267 398.359H110.116V374.633H112.525V368.001H73.9814V374.019L75.4267 398.359" fill="#DADBD8"/>
<path d="M50.8557 378.464V382.035H64.8276V378.464H50.8557" fill="#DADBD8"/>
<path d="M66.9976 394.039H49.0566V386.498H66.9976V394.039" fill="white"/>
<path d="M113 312H108V191H113V312Z" fill="#DADBD8"/>
<path d="M31 192.081V311.919L31.0766 312H106.923L107 311.919V192.081L106.923 192H31.0766L31 192.081Z" fill="#F3F2F1"/>
<path d="M31.8436 311.131H106.156L106.233 311.049V192.951L106.156 192.871H31.8436L31.7668 192.951V311.049L31.8436 311.131ZM107.923 313H30.0768L30 312.92V191.081L30.0768 191H107.923L108 191.081V312.92L107.923 313Z" fill="#E7E8E5"/>
<path d="M39 199.081V303.92L39.0755 304H98.9245L99 303.92V199.081L98.9245 199H39.0755L39 199.081Z" fill="#FAFAF9"/>
<path d="M85.9313 271H52.0687L52 270.926V229.072L52.0687 229H85.9313L86 229.072V270.926L85.9313 271" fill="#E7E8E5"/>
<path d="M82.9992 266.368C83.0425 266.505 81.3509 267.286 78.1301 266.888C76.5447 266.661 74.5715 266.06 72.6579 264.584C70.7854 263.107 69.0061 260.724 68.405 257.539C67.7791 254.379 68.783 250.441 71.6572 247.909C72.372 247.281 73.2026 246.75 74.1231 246.387C75.1021 246.003 76.1591 245.878 77.2085 246.012C78.2514 246.147 79.3571 246.529 80.2928 247.431C81.2372 248.334 81.7548 249.859 81.509 251.216C81.2859 252.586 80.5766 253.636 79.8152 254.465C79.029 255.31 78.1399 255.934 77.2324 256.469C75.3881 257.542 73.2784 258.214 71.0692 258.323C68.8696 258.434 66.5434 257.958 64.502 256.749C62.479 255.552 60.7495 253.738 59.6676 251.472C58.5716 249.23 58.2229 246.512 58.8012 244.081C59.3579 241.658 60.664 239.492 62.4996 237.992C63.4212 237.241 64.4619 236.685 65.5991 236.344C66.7459 236.034 67.9253 235.976 69.0906 236.229C70.2428 236.484 71.42 237.081 72.2583 238.111C73.1095 239.133 73.4896 240.466 73.5004 241.677C73.5178 242.894 73.2026 244.08 72.6741 245.074C72.1543 246.069 71.4547 246.878 70.7183 247.55C69.2346 248.873 67.5701 249.744 65.8601 250.268C64.1522 250.786 62.4 250.922 60.7495 250.684C59.1045 250.439 57.5547 249.802 56.3017 248.889C53.7741 247.082 52.3142 244.338 52.0543 241.802C51.7673 239.22 52.6651 237.101 53.6279 235.726C54.6188 234.323 55.757 233.605 56.5389 233.276C57.3403 232.956 57.7962 232.968 57.8157 233.047C57.8504 233.163 57.454 233.349 56.8042 233.806C56.1675 234.27 55.2686 235.055 54.5408 236.368C53.8282 237.656 53.2402 239.524 53.6138 241.558C53.9528 243.586 55.2686 245.764 57.3901 247.13C59.4684 248.521 62.3826 248.878 65.1821 247.912C66.5694 247.441 67.9513 246.652 69.0808 245.588C70.2017 244.528 70.9663 243.166 70.9024 241.741C70.8666 240.31 70.0111 239.302 68.5545 239.009C67.8462 238.863 67.0502 238.911 66.3138 239.12C65.5817 239.355 64.8388 239.748 64.1977 240.287C62.9035 241.36 61.9245 242.986 61.5303 244.765C61.1253 246.542 61.3668 248.424 62.1855 250.133C62.9913 251.836 64.3341 253.253 65.8741 254.172C67.4087 255.092 69.1945 255.485 70.9511 255.416C72.7099 255.349 74.4372 254.827 75.9436 253.979C76.7049 253.544 77.4067 253.056 77.9352 252.5C78.4778 251.941 78.8546 251.303 78.9467 250.765C79.0452 250.218 78.8871 249.745 78.5373 249.368C78.1702 248.984 77.5453 248.694 76.8869 248.602C76.2252 248.496 75.5397 248.562 74.9419 248.776C74.2867 249.012 73.6748 249.373 73.1311 249.821C72.0428 250.72 71.2262 251.95 70.7681 253.249C70.3035 254.553 70.1941 255.901 70.3706 257.187C70.7334 259.769 72.1142 261.907 73.638 263.284C75.1909 264.667 76.9064 265.38 78.3348 265.752C81.235 266.463 82.9764 266.111 82.9992 266.368" fill="#DADBD8"/>
</svg>
