<svg width="215" height="42" viewBox="0 0 215 42" fill="none" xmlns="http://www.w3.org/2000/svg">
<path d="M76.6748 24.79C76.5531 26.473 75.93 27.7979 74.8057 28.7646C73.6885 29.7314 72.2132 30.2148 70.3799 30.2148C68.3747 30.2148 66.7956 29.5417 65.6426 28.1953C64.4967 26.8418 63.9238 24.987 63.9238 22.6309V21.6748C63.9238 20.1709 64.1888 18.846 64.7188 17.7002C65.2487 16.5544 66.0042 15.6771 66.9854 15.0684C67.9736 14.4525 69.1195 14.1445 70.4229 14.1445C72.2275 14.1445 73.6813 14.6279 74.7842 15.5947C75.887 16.5615 76.5244 17.9186 76.6963 19.666H73.4736C73.3949 18.6562 73.112 17.9258 72.625 17.4746C72.1452 17.0163 71.4111 16.7871 70.4229 16.7871C69.3486 16.7871 68.543 17.1738 68.0059 17.9473C67.4759 18.7135 67.2038 19.9059 67.1895 21.5244V22.7061C67.1895 24.3962 67.4437 25.6315 67.9521 26.4121C68.4678 27.1927 69.277 27.583 70.3799 27.583C71.3753 27.583 72.1165 27.3574 72.6035 26.9062C73.0977 26.4479 73.3805 25.7425 73.4521 24.79H76.6748ZM85.3223 30C85.179 29.7207 85.0752 29.3734 85.0107 28.958C84.2588 29.7959 83.2812 30.2148 82.0781 30.2148C80.9395 30.2148 79.9941 29.8854 79.2422 29.2266C78.4974 28.5677 78.125 27.737 78.125 26.7344C78.125 25.5026 78.5798 24.5573 79.4893 23.8984C80.4059 23.2396 81.7272 22.9066 83.4531 22.8994H84.8818V22.2334C84.8818 21.6963 84.7422 21.2666 84.4629 20.9443C84.1908 20.6221 83.7575 20.4609 83.1631 20.4609C82.6403 20.4609 82.2285 20.5863 81.9277 20.8369C81.6341 21.0876 81.4873 21.4313 81.4873 21.8682H78.3828C78.3828 21.195 78.5905 20.5719 79.0059 19.999C79.4212 19.4261 80.0085 18.9785 80.7676 18.6562C81.5267 18.3268 82.3789 18.1621 83.3242 18.1621C84.7565 18.1621 85.8916 18.5238 86.7295 19.2471C87.5745 19.9632 87.9971 20.973 87.9971 22.2764V27.3145C88.0042 28.4173 88.1582 29.2516 88.459 29.8174V30H85.3223ZM82.7549 27.8408C83.2132 27.8408 83.6357 27.7406 84.0225 27.54C84.4092 27.3324 84.6956 27.0566 84.8818 26.7129V24.7148H83.7217C82.1676 24.7148 81.3405 25.252 81.2402 26.3262L81.2295 26.5088C81.2295 26.8955 81.3656 27.2142 81.6377 27.4648C81.9098 27.7155 82.2822 27.8408 82.7549 27.8408ZM94.8076 21.8467L96.7627 18.377H100.082L96.7734 24.0703L100.222 30H96.8916L94.8184 26.3477L92.7559 30H89.415L92.8633 24.0703L89.5654 18.377H92.8955L94.8076 21.8467ZM105.292 15.5195V18.377H107.279V20.6543H105.292V26.4551C105.292 26.8848 105.374 27.1927 105.539 27.3789C105.704 27.5651 106.019 27.6582 106.484 27.6582C106.828 27.6582 107.132 27.6331 107.397 27.583V29.9355C106.789 30.1217 106.162 30.2148 105.518 30.2148C103.34 30.2148 102.23 29.1156 102.188 26.917V20.6543H100.49V18.377H102.188V15.5195H105.292ZM108.203 24.0811C108.203 22.9281 108.425 21.9004 108.869 20.998C109.313 20.0957 109.951 19.3975 110.781 18.9033C111.619 18.4092 112.59 18.1621 113.692 18.1621C115.261 18.1621 116.539 18.6419 117.527 19.6016C118.523 20.5612 119.078 21.8646 119.192 23.5117L119.214 24.3066C119.214 26.0898 118.716 27.5221 117.721 28.6035C116.725 29.6777 115.39 30.2148 113.714 30.2148C112.038 30.2148 110.699 29.6777 109.696 28.6035C108.701 27.5293 108.203 26.0684 108.203 24.2207V24.0811ZM111.308 24.3066C111.308 25.4095 111.515 26.2546 111.931 26.8418C112.346 27.4219 112.94 27.7119 113.714 27.7119C114.466 27.7119 115.053 27.4255 115.476 26.8525C115.898 26.2725 116.109 25.3486 116.109 24.0811C116.109 22.9997 115.898 22.1618 115.476 21.5674C115.053 20.973 114.459 20.6758 113.692 20.6758C112.933 20.6758 112.346 20.973 111.931 21.5674C111.515 22.1546 111.308 23.0677 111.308 24.3066ZM123.983 18.377L124.08 19.7197C124.911 18.6813 126.024 18.1621 127.421 18.1621C128.653 18.1621 129.569 18.5238 130.171 19.2471C130.772 19.9704 131.08 21.0518 131.095 22.4912V30H127.99V22.5664C127.99 21.9076 127.847 21.4313 127.561 21.1377C127.274 20.8369 126.798 20.6865 126.132 20.6865C125.258 20.6865 124.603 21.0589 124.166 21.8037V30H121.062V18.377H123.983Z" fill="white"/>
<path d="M76.6748 24.79C76.5531 26.473 75.93 27.7979 74.8057 28.7646C73.6885 29.7314 72.2132 30.2148 70.3799 30.2148C68.3747 30.2148 66.7956 29.5417 65.6426 28.1953C64.4967 26.8418 63.9238 24.987 63.9238 22.6309V21.6748C63.9238 20.1709 64.1888 18.846 64.7188 17.7002C65.2487 16.5544 66.0042 15.6771 66.9854 15.0684C67.9736 14.4525 69.1195 14.1445 70.4229 14.1445C72.2275 14.1445 73.6813 14.6279 74.7842 15.5947C75.887 16.5615 76.5244 17.9186 76.6963 19.666H73.4736C73.3949 18.6562 73.112 17.9258 72.625 17.4746C72.1452 17.0163 71.4111 16.7871 70.4229 16.7871C69.3486 16.7871 68.543 17.1738 68.0059 17.9473C67.4759 18.7135 67.2038 19.9059 67.1895 21.5244V22.7061C67.1895 24.3962 67.4437 25.6315 67.9521 26.4121C68.4678 27.1927 69.277 27.583 70.3799 27.583C71.3753 27.583 72.1165 27.3574 72.6035 26.9062C73.0977 26.4479 73.3805 25.7425 73.4521 24.79H76.6748ZM85.3223 30C85.179 29.7207 85.0752 29.3734 85.0107 28.958C84.2588 29.7959 83.2812 30.2148 82.0781 30.2148C80.9395 30.2148 79.9941 29.8854 79.2422 29.2266C78.4974 28.5677 78.125 27.737 78.125 26.7344C78.125 25.5026 78.5798 24.5573 79.4893 23.8984C80.4059 23.2396 81.7272 22.9066 83.4531 22.8994H84.8818V22.2334C84.8818 21.6963 84.7422 21.2666 84.4629 20.9443C84.1908 20.6221 83.7575 20.4609 83.1631 20.4609C82.6403 20.4609 82.2285 20.5863 81.9277 20.8369C81.6341 21.0876 81.4873 21.4313 81.4873 21.8682H78.3828C78.3828 21.195 78.5905 20.5719 79.0059 19.999C79.4212 19.4261 80.0085 18.9785 80.7676 18.6562C81.5267 18.3268 82.3789 18.1621 83.3242 18.1621C84.7565 18.1621 85.8916 18.5238 86.7295 19.2471C87.5745 19.9632 87.9971 20.973 87.9971 22.2764V27.3145C88.0042 28.4173 88.1582 29.2516 88.459 29.8174V30H85.3223ZM82.7549 27.8408C83.2132 27.8408 83.6357 27.7406 84.0225 27.54C84.4092 27.3324 84.6956 27.0566 84.8818 26.7129V24.7148H83.7217C82.1676 24.7148 81.3405 25.252 81.2402 26.3262L81.2295 26.5088C81.2295 26.8955 81.3656 27.2142 81.6377 27.4648C81.9098 27.7155 82.2822 27.8408 82.7549 27.8408ZM94.8076 21.8467L96.7627 18.377H100.082L96.7734 24.0703L100.222 30H96.8916L94.8184 26.3477L92.7559 30H89.415L92.8633 24.0703L89.5654 18.377H92.8955L94.8076 21.8467ZM105.292 15.5195V18.377H107.279V20.6543H105.292V26.4551C105.292 26.8848 105.374 27.1927 105.539 27.3789C105.704 27.5651 106.019 27.6582 106.484 27.6582C106.828 27.6582 107.132 27.6331 107.397 27.583V29.9355C106.789 30.1217 106.162 30.2148 105.518 30.2148C103.34 30.2148 102.23 29.1156 102.188 26.917V20.6543H100.49V18.377H102.188V15.5195H105.292ZM108.203 24.0811C108.203 22.9281 108.425 21.9004 108.869 20.998C109.313 20.0957 109.951 19.3975 110.781 18.9033C111.619 18.4092 112.59 18.1621 113.692 18.1621C115.261 18.1621 116.539 18.6419 117.527 19.6016C118.523 20.5612 119.078 21.8646 119.192 23.5117L119.214 24.3066C119.214 26.0898 118.716 27.5221 117.721 28.6035C116.725 29.6777 115.39 30.2148 113.714 30.2148C112.038 30.2148 110.699 29.6777 109.696 28.6035C108.701 27.5293 108.203 26.0684 108.203 24.2207V24.0811ZM111.308 24.3066C111.308 25.4095 111.515 26.2546 111.931 26.8418C112.346 27.4219 112.94 27.7119 113.714 27.7119C114.466 27.7119 115.053 27.4255 115.476 26.8525C115.898 26.2725 116.109 25.3486 116.109 24.0811C116.109 22.9997 115.898 22.1618 115.476 21.5674C115.053 20.973 114.459 20.6758 113.692 20.6758C112.933 20.6758 112.346 20.973 111.931 21.5674C111.515 22.1546 111.308 23.0677 111.308 24.3066ZM123.983 18.377L124.08 19.7197C124.911 18.6813 126.024 18.1621 127.421 18.1621C128.653 18.1621 129.569 18.5238 130.171 19.2471C130.772 19.9704 131.08 21.0518 131.095 22.4912V30H127.99V22.5664C127.99 21.9076 127.847 21.4313 127.561 21.1377C127.274 20.8369 126.798 20.6865 126.132 20.6865C125.258 20.6865 124.603 21.0589 124.166 21.8037V30H121.062V18.377H123.983Z" fill="white"/>
<path d="M142.363 24.4893V30H139.141V14.3594H145.242C146.417 14.3594 147.448 14.5742 148.336 15.0039C149.231 15.4336 149.919 16.0459 150.398 16.8408C150.878 17.6286 151.118 18.5273 151.118 19.5371C151.118 21.0697 150.592 22.2799 149.539 23.168C148.493 24.0488 147.043 24.4893 145.188 24.4893H142.363ZM142.363 21.8789H145.242C146.094 21.8789 146.743 21.6784 147.187 21.2773C147.638 20.8763 147.863 20.3034 147.863 19.5586C147.863 18.7923 147.638 18.1729 147.187 17.7002C146.735 17.2275 146.112 16.984 145.317 16.9697H142.363V21.8789ZM159.669 21.2881C159.246 21.2308 158.874 21.2021 158.552 21.2021C157.377 21.2021 156.607 21.5996 156.242 22.3945V30H153.138V18.377H156.07L156.156 19.7627C156.779 18.6956 157.642 18.1621 158.745 18.1621C159.089 18.1621 159.411 18.2087 159.712 18.3018L159.669 21.2881ZM164.449 30H161.334V18.377H164.449V30ZM161.151 15.3691C161.151 14.9036 161.305 14.5205 161.613 14.2197C161.928 13.9189 162.354 13.7686 162.892 13.7686C163.422 13.7686 163.844 13.9189 164.159 14.2197C164.474 14.5205 164.632 14.9036 164.632 15.3691C164.632 15.8418 164.471 16.2285 164.148 16.5293C163.833 16.8301 163.414 16.9805 162.892 16.9805C162.369 16.9805 161.946 16.8301 161.624 16.5293C161.309 16.2285 161.151 15.8418 161.151 15.3691ZM169.928 18.377L170.024 19.6768C170.848 18.667 171.962 18.1621 173.365 18.1621C174.862 18.1621 175.89 18.7529 176.448 19.9346C177.265 18.7529 178.428 18.1621 179.939 18.1621C181.2 18.1621 182.138 18.5309 182.754 19.2686C183.37 19.999 183.678 21.1019 183.678 22.5771V30H180.562V22.5879C180.562 21.929 180.434 21.4492 180.176 21.1484C179.918 20.8405 179.463 20.6865 178.812 20.6865C177.881 20.6865 177.236 21.1305 176.878 22.0186L176.889 30H173.784V22.5986C173.784 21.9255 173.652 21.4385 173.387 21.1377C173.122 20.8369 172.671 20.6865 172.033 20.6865C171.152 20.6865 170.515 21.0518 170.121 21.7822V30H167.017V18.377H169.928ZM191.423 30.2148C189.718 30.2148 188.329 29.6921 187.255 28.6465C186.188 27.6009 185.654 26.208 185.654 24.4678V24.167C185.654 22.9997 185.88 21.9577 186.331 21.041C186.782 20.1172 187.42 19.4082 188.243 18.9141C189.074 18.4128 190.019 18.1621 191.079 18.1621C192.669 18.1621 193.919 18.6634 194.828 19.666C195.745 20.6686 196.203 22.0902 196.203 23.9307V25.1982H188.802C188.902 25.9574 189.203 26.5661 189.704 27.0244C190.213 27.4827 190.854 27.7119 191.627 27.7119C192.823 27.7119 193.757 27.2786 194.431 26.4121L195.956 28.1201C195.491 28.779 194.86 29.2946 194.065 29.667C193.271 30.0322 192.39 30.2148 191.423 30.2148ZM191.068 20.6758C190.452 20.6758 189.951 20.8835 189.564 21.2988C189.185 21.7142 188.941 22.3086 188.834 23.082H193.152V22.835C193.138 22.1475 192.952 21.6175 192.594 21.2451C192.236 20.8656 191.727 20.6758 191.068 20.6758Z" fill="white"/>
<path fill-rule="evenodd" clip-rule="evenodd" d="M21.6825 37.2859C26.461 37.2859 30.7738 35.3554 33.8351 32.2559L37.2776 35.59C33.3349 39.5424 27.8051 42 21.6825 42C21.4159 42 21.1504 41.9957 20.886 41.9862V37.2679C21.15 37.2798 21.4156 37.2859 21.6825 37.2859ZM16.0185 36.3389C9.51847 34.0871 4.86752 28.0696 4.86752 21.0001C4.86752 12.0057 12.3959 4.71431 21.6825 4.71431C26.6186 4.71431 31.0579 6.77419 34.134 10.0548L37.5789 6.71833C33.6192 2.58591 27.9627 0 21.6825 0C9.70762 0 0 9.40207 0 21.0001C0 30.7002 6.79043 38.8642 16.0185 41.2765V36.3389Z" fill="white"/>
<path fill-rule="evenodd" clip-rule="evenodd" d="M27.2574 20.9619C27.2574 23.9679 24.7413 26.4048 21.6376 26.4048C18.5339 26.4048 16.0179 23.9679 16.0179 20.9619C16.0179 17.9559 18.5339 15.519 21.6376 15.519C24.7413 15.519 27.2574 17.9559 27.2574 20.9619ZM32.1249 20.9619C32.1249 26.5715 27.4296 31.1191 21.6376 31.1191C19.5701 31.1191 17.6423 30.5396 16.0179 29.5391V41.2811L15.3541 41.1048L14.6904 40.8907L14.0709 40.6763L13.4071 40.419L13.0974 40.2905L12.7876 40.1621L12.2124 39.9048L11.6814 39.6476L11.1504 39.3671V21.2619H11.1549C11.1519 21.1622 11.1504 21.0622 11.1504 20.9619C11.1504 15.3522 15.8457 10.8047 21.6376 10.8047C27.4296 10.8047 32.1249 15.3522 32.1249 20.9619Z" fill="white"/>
</svg>
