<svg width="81" height="88" viewBox="0 0 81 88" fill="none" xmlns="http://www.w3.org/2000/svg">
<path fill-rule="evenodd" clip-rule="evenodd" d="M46.7359 77.4777C57.0356 77.4777 66.3318 73.4663 72.9303 67.0257L80.3505 73.9538C71.8521 82.1665 59.9328 87.2733 46.7359 87.2733C46.1611 87.2733 45.5888 87.2644 45.0191 87.2448V77.4404C45.588 77.4651 46.1604 77.4777 46.7359 77.4777ZM34.5273 75.5099C20.5167 70.8309 10.4917 58.3269 10.4917 43.6368C10.4917 24.9471 26.7188 9.79604 46.7359 9.79604C57.3754 9.79604 66.9441 14.0763 73.5745 20.8933L81 13.9603C72.4649 5.37336 60.2725 0 46.7359 0C20.9244 0 0 19.5369 0 43.6368C0 63.7931 14.6365 80.7574 34.5273 85.7699V75.5099Z" fill="#3F3D56"/>
<path fill-rule="evenodd" clip-rule="evenodd" d="M58.7532 43.5494C58.7532 49.7957 53.3299 54.8593 46.64 54.8593C39.9501 54.8593 34.5269 49.7957 34.5269 43.5494C34.5269 37.3031 39.9501 32.2394 46.64 32.2394C53.3299 32.2394 58.7532 37.3031 58.7532 43.5494ZM69.245 43.5494C69.245 55.2059 59.1244 64.6554 46.64 64.6554C42.1835 64.6554 38.0281 63.4512 34.5269 61.3724V85.7715L33.0962 85.4051L31.6655 84.9602L30.3301 84.5146L28.8995 83.98L28.2318 83.7131L27.5642 83.4462L26.3242 82.9116L25.1797 82.377L24.0352 81.7943V44.1728H24.0448C24.0384 43.9657 24.0352 43.7579 24.0352 43.5494C24.0352 31.8929 34.1557 22.4434 46.64 22.4434C59.1244 22.4434 69.245 31.8929 69.245 43.5494Z" fill="#F03D5F"/>
</svg>
