<svg width="31" height="31" viewBox="0 0 31 31" fill="none" xmlns="http://www.w3.org/2000/svg">
<path d="M15.5 31C24.0604 31 31 24.0604 31 15.5C31 6.93959 24.0604 0 15.5 0C6.93959 0 0 6.93959 0 15.5C0 24.0604 6.93959 31 15.5 31Z" fill="#EEF0F5"/>
<path d="M11.3015 10.6016H19.8834C20.9398 10.6016 21.7962 11.4579 21.7962 12.5144V19.1037C21.7962 20.1601 20.9398 21.0164 19.8834 21.0164H11.3015C10.2451 21.0164 9.38867 20.1601 9.38867 19.1037V12.5144C9.38867 11.4579 10.2451 10.6016 11.3015 10.6016Z" stroke="#F03D5F" stroke-width="0.5"/>
<path d="M22.0462 18.0819V19.2722C22.0463 19.5339 21.9948 19.793 21.8947 20.0348C21.7946 20.2766 21.6478 20.4963 21.4628 20.6814C21.2777 20.8664 21.058 21.0132 20.8162 21.1133C20.5744 21.2134 20.3153 21.2649 20.0536 21.2648H11.1313C10.6028 21.2648 10.096 21.0549 9.72232 20.6812C9.34862 20.3075 9.13867 19.8006 9.13867 19.2722V15.8066L11.189 14.5089C11.3511 14.4063 11.5401 14.3544 11.7318 14.3598C11.9235 14.3652 12.1093 14.4276 12.2653 14.5392L15.9817 17.1937L17.7364 16.1123C17.8865 16.0198 18.0591 15.9703 18.2354 15.969C18.4117 15.9677 18.585 16.0148 18.7364 16.1051L22.0462 18.0819Z" fill="#F03D5F"/>
<path d="M19.4905 13.8912C20.0468 13.8912 20.4977 13.4403 20.4977 12.8841C20.4977 12.3279 20.0468 11.877 19.4905 11.877C18.9343 11.877 18.4834 12.3279 18.4834 12.8841C18.4834 13.4403 18.9343 13.8912 19.4905 13.8912Z" fill="#F03D5F"/>
</svg>
