<svg width="359" height="339" viewBox="0 0 359 339" fill="none" xmlns="http://www.w3.org/2000/svg">
<path d="M174.917 5.37088C175.651 1.78629 179.385 -0.321991 182.833 0.906128C205.7 9.06036 284.569 35.9946 352.581 44.9624C355.682 45.3718 357.844 48.2426 357.363 51.3333L317.797 305.184C317.252 308.664 314.005 311.054 310.52 310.532C282.02 306.265 164.738 288.273 124.302 275.227C121.841 274.433 120.377 271.912 120.896 269.379L174.917 5.37088Z" fill="#F03D5F"/>
<path d="M307.781 305.986C307.476 305.986 307.17 305.963 306.86 305.917C303.375 305.395 298.514 304.661 292.595 303.749C292.635 303.225 292.64 302.692 292.615 302.153L291.544 281.145L295.635 281.972C295.792 282.003 295.948 282.018 296.105 282.018C297.213 282.018 298.206 281.229 298.42 280.095C298.655 278.839 297.847 277.622 296.597 277.353L291.292 276.21L290.13 253.393L301.185 255.625C301.345 255.656 301.501 255.671 301.658 255.671C302.766 255.671 303.759 254.882 303.973 253.748C304.208 252.492 303.4 251.275 302.15 251.006L289.875 248.361L288.719 225.64L306.738 229.278C306.897 229.31 307.054 229.324 307.208 229.324C308.319 229.326 309.312 228.535 309.524 227.401C309.761 226.145 308.953 224.929 307.703 224.66L288.456 220.512L287.304 197.887L312.291 202.931C312.45 202.963 312.607 202.979 312.761 202.979C313.872 202.979 314.864 202.19 315.077 201.054C315.314 199.798 314.506 198.582 313.256 198.313L287.039 192.662L285.522 162.85L303.423 166.623C303.564 166.653 303.706 166.667 303.845 166.667C304.797 166.668 305.65 165.996 305.842 165.024L305.951 164.476C306.173 163.362 305.451 162.222 304.352 161.942L285.226 157.068L284.302 138.899L324.253 147.318C324.415 147.353 324.576 147.369 324.73 147.369C325.642 147.369 326.407 146.811 326.523 145.982C326.662 145.015 325.867 144.023 324.758 143.78L284.097 134.874L283.782 128.705L326.288 137.662C326.45 137.697 326.612 137.712 326.766 137.712C327.677 137.712 328.44 137.154 328.559 136.326C328.698 135.359 327.902 134.366 326.794 134.124L283.577 124.66L281.244 78.8298L330.205 89.1502C330.367 89.1856 330.531 89.2007 330.687 89.2007C331.607 89.2007 332.392 88.6477 332.541 87.827C332.713 86.8649 331.95 85.8725 330.844 85.6175L281.007 74.1834L280.716 68.4891L332.268 79.3525C332.432 79.3878 332.594 79.4055 332.753 79.4055C333.67 79.4055 334.457 78.8525 334.606 78.0318C334.778 77.0697 334.016 76.0748 332.91 75.8223L280.476 63.7922L280.383 61.9135C280.317 60.6332 280.113 59.3959 279.787 58.209L334.303 69.6987C334.468 69.734 334.629 69.7492 334.788 69.7492C335.705 69.7492 336.493 69.1962 336.639 68.3755C336.813 67.4134 336.048 66.421 334.945 66.1659L277.302 52.9414C274.191 48.5021 269.037 45.6183 263.237 45.6183H251.212L197.801 32.3964C197.511 32.3232 197.221 32.2904 196.938 32.2904C196.334 32.2904 195.754 32.4444 195.243 32.7197L189.313 9.8338C216.463 19.3083 286.423 42.3179 347.336 50.3481C350.321 50.742 352.402 53.5046 351.937 56.4793L313.862 300.77C313.387 303.811 310.766 305.986 307.781 305.986Z" fill="#FBCBD7"/>
<path d="M251.212 45.6191H198.584L195.244 32.7194C195.755 32.4443 196.335 32.2907 196.938 32.2907C197.223 32.2907 197.511 32.3251 197.8 32.3962L251.212 45.6191Z" fill="#F5F8FF"/>
<path d="M233.265 63.0381C231.97 69.1867 225.935 73.1209 219.784 71.8256C213.636 70.5302 209.701 64.4932 210.997 58.3447C212.294 52.1961 218.329 48.2619 224.478 49.5573C230.626 50.8526 234.563 56.8896 233.265 63.0381Z" fill="url(#paint0_linear)"/>
<path d="M198.33 89.8127L233.802 97.2883C235.976 97.7478 237.786 95.6219 237 93.5404C234.981 88.1906 230.137 79.9372 219.153 77.9483C208.568 76.0321 201.012 80.9749 196.932 84.7994C195.201 86.4235 196.005 89.323 198.33 89.8127Z" fill="url(#paint1_linear)"/>
<path d="M334.789 69.75C334.629 69.75 334.468 69.733 334.303 69.699L279.786 58.2096C279.259 56.2975 278.409 54.5191 277.303 52.9423L334.945 66.1664C336.05 66.4215 336.813 67.4152 336.64 68.3773C336.492 69.1961 335.705 69.75 334.789 69.75Z" fill="#EDF3FE"/>
<path d="M332.752 79.4023C332.595 79.4023 332.433 79.3854 332.269 79.3516L280.717 68.4868L280.478 63.788L332.909 75.8178C334.014 76.0716 334.778 77.0675 334.606 78.0295C334.456 78.8488 333.671 79.4023 332.752 79.4023Z" fill="#EDF3FE"/>
<path d="M330.688 89.2012C330.532 89.2012 330.368 89.1868 330.205 89.1507L281.244 78.831L281.006 74.1832L330.844 85.6186C331.95 85.8735 332.713 86.8665 332.54 87.8283C332.393 88.6482 331.607 89.2012 330.688 89.2012Z" fill="#EDF3FE"/>
<path d="M326.768 137.715C326.611 137.715 326.451 137.698 326.287 137.665L283.784 128.705L283.577 124.659L326.794 134.124C327.903 134.369 328.698 135.359 328.56 136.327C328.441 137.156 327.679 137.715 326.768 137.715Z" fill="#EDF3FE"/>
<path d="M324.73 147.367C324.576 147.367 324.415 147.351 324.252 147.317L284.302 138.897L284.096 134.873L324.759 143.778C325.869 144.02 326.662 145.012 326.525 145.98C326.406 146.808 325.642 147.367 324.73 147.367Z" fill="#EDF3FE"/>
<path d="M303.846 166.666C303.707 166.666 303.565 166.653 303.422 166.623L285.521 162.851L285.227 157.068L304.352 161.941C305.451 162.221 306.172 163.362 305.95 164.476L305.843 165.025C305.65 165.996 304.798 166.668 303.846 166.666Z" fill="#EDF3FE"/>
<path d="M172.448 163.673C171.953 163.603 171.462 163.727 171.101 164.009C170.802 164.242 170.619 164.567 170.58 164.923L169.488 175.464C169.371 176.597 170.243 177.662 171.516 177.944L183.783 180.652L183.808 180.658C185.001 180.909 186.164 180.278 186.411 179.243C187.521 174.566 188.507 170.171 188.373 167.797C188.312 166.734 187.413 165.814 186.214 165.557C183.965 165.112 179.866 164.605 176.572 164.2C174.996 164.006 173.508 163.821 172.448 163.673ZM183.611 181.603L183.576 181.595L171.308 178.887C169.555 178.5 168.361 176.986 168.528 175.364L169.622 164.824C169.686 164.204 170.001 163.646 170.506 163.249C171.072 162.807 171.828 162.611 172.582 162.718C173.633 162.866 175.118 163.048 176.689 163.243C179.998 163.65 184.119 164.158 186.402 164.61C188.055 164.95 189.25 166.223 189.335 167.744C189.477 170.246 188.476 174.716 187.349 179.465C186.981 181.008 185.309 181.96 183.611 181.603Z" fill="white"/>
<path d="M312.763 202.979C312.607 202.979 312.451 202.963 312.292 202.931L287.305 197.886L287.041 192.662L313.257 198.313C314.507 198.582 315.314 199.798 315.077 201.054C314.863 202.189 313.873 202.979 312.763 202.979Z" fill="#EDF3FE"/>
<path d="M173.73 166.749C174.755 166.407 175.863 166.973 176.183 168.006L177.693 172.863C177.843 173.35 178.484 173.456 178.784 173.044L187.62 160.923C188.06 160.317 189.007 160.753 188.842 161.483C187.917 165.565 185.19 173.121 177.274 178.258C177.274 178.258 173.962 176.097 172.402 169.108C172.177 168.097 172.749 167.076 173.73 166.749Z" fill="url(#paint2_linear)"/>
<path d="M166.896 190.018C166.402 189.948 165.91 190.07 165.549 190.353C165.251 190.587 165.066 190.913 165.029 191.268L163.937 201.809C163.819 202.942 164.692 204.007 165.965 204.289L178.232 206.998L178.258 207.003C179.45 207.255 180.613 206.624 180.859 205.587C181.969 200.909 182.955 196.517 182.822 194.143C182.761 193.08 181.851 192.133 180.662 191.902C178.414 191.457 174.314 190.951 171.02 190.544C169.444 190.35 167.955 190.167 166.896 190.018ZM178.059 207.948L178.024 207.941L165.757 205.232C164.004 204.844 162.809 203.33 162.978 201.71L164.07 191.169C164.134 190.549 164.448 189.991 164.954 189.594C165.521 189.151 166.277 188.957 167.032 189.063C168.082 189.211 169.566 189.394 171.138 189.588C174.447 189.995 178.568 190.504 180.85 190.954C180.867 190.959 180.883 190.962 180.899 190.965C182.515 191.306 183.699 192.583 183.784 194.088C183.926 196.591 182.925 201.062 181.797 205.809C181.43 207.352 179.758 208.306 178.059 207.948Z" fill="white"/>
<path d="M307.211 229.324C307.057 229.324 306.899 229.31 306.74 229.278L288.72 225.64L288.457 220.512L307.704 224.66C308.954 224.929 309.762 226.145 309.527 227.401C309.314 228.535 308.322 229.326 307.211 229.324Z" fill="#EDF3FE"/>
<path d="M168.178 193.094C169.203 192.75 170.31 193.318 170.63 194.351L172.139 199.209C172.29 199.695 172.93 199.801 173.231 199.39L182.067 187.269C182.507 186.663 183.455 187.098 183.29 187.828C182.365 191.911 179.639 199.466 171.721 204.604C171.721 204.604 168.41 202.442 166.851 195.453C166.625 194.443 167.196 193.423 168.178 193.094Z" fill="url(#paint3_linear)"/>
<path d="M161.342 216.365C160.848 216.295 160.357 216.417 159.995 216.7C159.697 216.933 159.513 217.258 159.475 217.614L158.382 228.156C158.265 229.289 159.137 230.354 160.411 230.637L172.679 233.345L172.704 233.349C173.896 233.6 175.059 232.97 175.305 231.934C176.416 227.257 177.401 222.862 177.267 220.488C177.207 219.425 176.298 218.475 175.109 218.248C172.861 217.803 168.761 217.297 165.466 216.891C163.89 216.697 162.402 216.512 161.342 216.365ZM172.505 234.294L172.47 234.286L160.204 231.577C158.45 231.191 157.255 229.678 157.423 228.057L158.516 217.515C158.58 216.895 158.895 216.337 159.401 215.94C159.968 215.497 160.724 215.303 161.478 215.408C162.529 215.556 164.012 215.739 165.584 215.933C168.895 216.341 173.014 216.851 175.295 217.302C175.313 217.305 175.329 217.308 175.346 217.312C176.963 217.653 178.146 218.93 178.231 220.434C178.372 222.938 177.371 227.407 176.243 232.157C175.877 233.699 174.203 234.652 172.505 234.294Z" fill="white"/>
<path d="M301.658 255.67C301.502 255.67 301.346 255.655 301.188 255.624L290.131 253.392L289.875 248.36L302.151 251.005C303.402 251.274 304.209 252.491 303.972 253.747C303.761 254.881 302.768 255.67 301.658 255.67Z" fill="#EDF3FE"/>
<path d="M162.625 219.438C163.65 219.093 164.758 219.662 165.077 220.694L166.586 225.551C166.739 226.038 167.379 226.142 167.678 225.733L176.514 213.611C176.955 213.006 177.903 213.441 177.737 214.171C176.812 218.254 174.084 225.81 166.168 230.947C166.168 230.947 162.857 228.784 161.297 221.796C161.072 220.785 161.643 219.765 162.625 219.438Z" fill="url(#paint4_linear)"/>
<path d="M155.792 242.713C155.298 242.643 154.805 242.765 154.444 243.049C154.145 243.281 153.961 243.605 153.924 243.962L152.831 254.503C152.714 255.636 153.587 256.703 154.86 256.983L167.128 259.692L167.153 259.698C168.344 259.948 169.507 259.316 169.753 258.281C170.865 253.604 171.85 249.209 171.716 246.836C171.657 245.773 170.748 244.819 169.558 244.594C167.309 244.152 163.21 243.645 159.916 243.238C158.339 243.044 156.851 242.861 155.792 242.713ZM166.953 260.641L166.921 260.634L154.653 257.925C152.899 257.54 151.704 256.025 151.872 254.405L152.965 243.863C153.029 243.244 153.344 242.686 153.849 242.288C154.417 241.844 155.173 241.651 155.927 241.756C156.978 241.904 158.461 242.086 160.032 242.281C163.343 242.688 167.463 243.197 169.745 243.649C169.762 243.654 169.778 243.655 169.795 243.659C171.412 243.999 172.595 245.278 172.68 246.782C172.821 249.286 171.819 253.755 170.691 258.505C170.326 260.046 168.653 261 166.953 260.641Z" fill="white"/>
<path d="M296.104 282.018C295.95 282.018 295.792 282.002 295.634 281.971L291.544 281.145L291.292 276.21L296.598 277.353C297.847 277.622 298.655 278.838 298.42 280.095C298.205 281.229 297.215 282.018 296.104 282.018Z" fill="#EDF3FE"/>
<path d="M157.073 245.783C158.098 245.439 159.205 246.007 159.526 247.04L161.034 251.898C161.186 252.383 161.826 252.49 162.126 252.08L170.962 239.958C171.402 239.353 172.349 239.787 172.185 240.517C171.259 244.6 168.533 252.156 160.617 257.293C160.617 257.293 157.306 255.131 155.745 248.141C155.52 247.132 156.092 246.112 157.073 245.783Z" fill="url(#paint5_linear)"/>
<path d="M3.49772 39.6152C2.74817 36.0324 5.33912 32.6146 8.99185 32.3757C33.2175 30.7826 116.299 24.2055 182.284 5.44437C185.292 4.58994 188.416 6.36777 189.199 9.39655L253.628 258.101C254.512 261.512 252.478 264.994 249.073 265.898C221.22 273.292 106.429 303.323 64.136 307.396C61.5621 307.644 59.2178 305.911 58.6882 303.379L3.49772 39.6152Z" fill="#F03D5F"/>
<path d="M65.4388 303.07C63.1519 303.07 61.1441 301.463 60.667 299.183L54.3014 268.761C59.2652 267.583 63.884 266.686 67.7891 266.686C72.1169 266.686 75.568 267.788 77.6439 270.837C77.7819 271.039 77.9157 271.239 78.0483 271.437V301.483C73.5381 302.174 69.4593 302.706 65.9095 303.048C65.7515 303.063 65.5946 303.07 65.4388 303.07ZM76.5822 249.233C76.3184 248.679 76.0493 248.132 75.7699 247.588L73.5574 240.554C73.4504 240.212 73.4903 239.841 73.6719 239.509C73.7956 239.282 73.9755 239.087 74.1958 238.935C75.1868 241.803 75.9786 245.185 76.5822 249.233ZM73.4941 243.566C72.3705 241.771 71.1452 240.069 69.8079 238.486C63.458 230.967 56.7824 227.108 49.4393 227.108C48.1978 227.108 46.937 227.219 45.6555 227.441L42.8049 213.817C46.3417 216.578 50.1403 218.807 53.9326 220.413C63.563 224.486 70.0588 227.878 73.8611 238.007C73.4222 238.256 73.0592 238.616 72.8249 239.047C72.5174 239.612 72.4505 240.25 72.637 240.844L73.4941 243.566ZM78.0483 163.922C77.2128 162.145 76.223 160.505 75.0569 159.022C74.2704 158.024 73.2794 157.094 72.1169 156.225C71.3228 153.932 70.481 151.978 69.8219 150.568C69.2639 149.372 68.0708 148.643 66.794 148.643C66.5573 148.643 66.3175 148.667 66.0783 148.72C64.2108 149.126 61.5549 149.713 58.9487 150.322C49.6966 147.633 38.352 146.145 28.4735 145.324L7.55497 45.351C6.83327 41.9019 9.32662 38.6146 12.8419 38.3827C36.1552 36.8514 116.108 30.5208 179.608 12.4685C180.101 12.3285 180.596 12.2608 181.083 12.2608C183.461 12.2608 185.637 13.8501 186.263 16.2703L193.866 45.6166H174.594L177.29 45.0708C178.402 44.8438 179.13 43.88 178.908 42.9308C178.715 42.1023 177.863 41.5347 176.911 41.5347C176.767 41.5347 176.62 41.5468 176.474 41.5758L154.574 45.6166H125.019L175.325 35.3997C176.438 35.1751 177.166 34.2114 176.944 33.2598C176.75 32.4337 175.898 31.8637 174.947 31.8637C174.803 31.8637 174.656 31.8782 174.509 31.9048L112.018 43.4428C111.005 43.6288 110.552 44.4404 110.911 45.3171C105.631 44.6771 101.274 44.1095 98.0429 43.6699C97.783 43.6361 97.5256 43.6191 97.2719 43.6191C95.5099 43.6191 93.9112 44.4404 92.8685 45.7374C92.7169 45.7471 92.5649 45.764 92.413 45.7881L35.227 55.336C33.165 55.6789 31.8361 57.7102 32.347 59.7391L45.2922 111.121C45.6745 112.637 47.0358 113.666 48.5517 113.666C48.743 113.666 48.9367 113.652 49.1314 113.616C54.4548 112.691 65.9762 110.652 78.0483 108.285V120.118L47.8925 125.994C46.7783 126.212 46.5781 126.987 47.4481 127.714L48.9439 128.97C49.6521 129.564 50.8593 129.948 51.8839 129.948C52.1177 129.948 52.3418 129.929 52.5484 129.885L78.0483 124.707V130.17L49.8567 135.665C48.7423 135.883 48.5423 136.656 49.412 137.385L50.9081 138.641C51.6163 139.235 52.8235 139.619 53.8478 139.619C54.0816 139.619 54.3057 139.597 54.5125 139.556L78.0483 134.776V152.116C77.0237 152.36 76.4947 153.333 76.8667 154.353L77.6261 156.437C77.7212 156.698 77.8666 156.937 78.0483 157.145V163.922Z" fill="#FBCBD7"/>
<path d="M48.5522 113.666C47.0364 113.666 45.6748 112.638 45.2925 111.12L32.3474 59.7383C31.8364 57.7096 33.1653 55.6786 35.2274 55.3339L92.4137 45.7868C92.5655 45.7625 92.7173 45.7448 92.8692 45.736C92.7302 45.9083 92.6015 46.0896 92.4831 46.2774C84.1692 48.5028 78.0489 56.0875 78.0489 65.1019V88.0414C76.4219 88.0569 74.7072 88.2514 72.9052 88.6713C62.4279 91.1133 57.4546 98.6471 55.2272 103.779C54.3651 105.765 55.8617 107.887 57.8966 107.887C58.0931 107.887 58.2949 107.867 58.4999 107.825L78.0489 103.856V108.285C65.9767 110.652 54.4553 112.689 49.1319 113.615C48.9372 113.651 48.7436 113.666 48.5522 113.666Z" fill="#F5F8FF"/>
<path d="M79.9381 69.3839C81.1891 75.5418 77.2106 81.5488 71.0529 82.7995C64.8939 84.0502 58.8876 80.0704 57.6367 73.9125C56.3857 67.7546 60.3642 61.7477 66.5228 60.4969C72.6809 59.2462 78.6883 63.2239 79.9381 69.3839Z" fill="#FF928E"/>
<path d="M58.4997 107.829L94.0247 100.613C96.2024 100.171 97.0198 97.5007 95.4739 95.9035C91.4967 91.7949 83.7749 86.1401 72.9048 88.6751C62.4274 91.116 57.4543 98.6504 55.2269 103.781C54.2814 105.959 56.1724 108.302 58.4997 107.829Z" fill="#FF928E"/>
<path d="M125.021 45.6191H113.423C112.565 45.5159 111.728 45.4172 110.912 45.3185C110.553 44.4418 111.006 43.6293 112.019 43.4411L174.512 31.9061C174.659 31.8785 174.803 31.8647 174.948 31.8647C175.9 31.8647 176.752 32.4339 176.945 33.2601C177.167 34.2103 176.44 35.1742 175.327 35.4015L125.021 45.6191Z" fill="#EDF3FE"/>
<path d="M174.595 45.6191H154.574L176.473 41.5769C176.621 41.5501 176.769 41.5367 176.912 41.5367C177.864 41.5367 178.716 42.1046 178.908 42.9318C179.132 43.8842 178.403 44.8456 177.289 45.0714L174.595 45.6191Z" fill="#EDF3FE"/>
<path d="M51.884 129.949C50.8593 129.949 49.6521 129.567 48.944 128.971L47.4481 127.717C46.5781 126.987 46.7784 126.212 47.8927 125.995L78.0483 120.118V124.708L52.5484 129.888C52.3417 129.928 52.1177 129.949 51.884 129.949Z" fill="#EDF3FE"/>
<path d="M53.8487 139.621C52.8242 139.621 51.6171 139.237 50.909 138.641L49.4128 137.388C48.5431 136.657 48.7431 135.884 49.8575 135.667L78.0492 130.171V134.779L54.5133 139.557C54.3065 139.599 54.0825 139.621 53.8487 139.621Z" fill="#EDF3FE"/>
<path d="M72.1165 156.227C68.8604 153.797 64.2477 151.862 58.9482 150.322C61.5544 149.713 64.2103 149.127 66.0779 148.72C66.3169 148.668 66.5567 148.643 66.7936 148.643C68.0701 148.643 69.2636 149.374 69.8215 150.569C70.4804 151.978 71.3223 153.934 72.1165 156.227Z" fill="#EDF3FE"/>
<path d="M78.0491 157.145C77.8677 156.936 77.7223 156.698 77.6269 156.437L76.8676 154.352C76.4955 153.334 77.0246 152.359 78.0491 152.116V157.145Z" fill="#EDF3FE"/>
<path d="M64.0578 185.895C63.5757 186.028 63.1734 186.336 62.954 186.739C62.7725 187.07 62.7322 187.442 62.8395 187.783L66.0198 197.893C66.3614 198.98 67.5852 199.612 68.8662 199.365L81.2009 196.981L81.2258 196.977C82.4189 196.734 83.2364 195.693 83.0514 194.645C82.2146 189.911 81.3763 185.487 80.3102 183.361C79.8324 182.408 78.6425 181.921 77.4402 182.16C75.1993 182.646 71.2361 183.807 68.0511 184.742C66.5274 185.188 65.0881 185.611 64.0578 185.895ZM81.4178 197.923L81.3846 197.929L69.0489 200.312C67.2864 200.652 65.5887 199.736 65.0995 198.183L61.9192 188.072C61.7325 187.479 61.7992 186.841 62.1066 186.276C62.4506 185.645 63.0685 185.166 63.8016 184.965C64.8243 184.683 66.2599 184.262 67.7795 183.817C70.98 182.877 74.9624 181.71 77.2368 181.218C78.8893 180.873 80.4911 181.567 81.1733 182.929C82.2974 185.169 83.1508 189.671 84.0015 194.476C84.2777 196.038 83.1204 197.577 81.4178 197.923Z" fill="white"/>
<path d="M69.417 212.277C68.9351 212.411 68.5328 212.719 68.3133 213.122C68.1319 213.454 68.0915 213.825 68.1987 214.166L71.3789 224.276C71.7213 225.362 72.9441 225.995 74.2249 225.748L86.561 223.365L86.5855 223.36C87.7787 223.118 88.596 222.077 88.4107 221.028C87.574 216.295 86.7348 211.869 85.6703 209.744C85.1928 208.792 83.9829 208.283 82.7999 208.543C80.559 209.029 76.5958 210.191 73.4101 211.125C71.8874 211.572 70.447 211.994 69.417 212.277ZM86.7773 224.306L86.7438 224.312L74.4076 226.695C72.6455 227.035 70.9477 226.12 70.4586 224.566L67.2787 214.455C67.0919 213.862 67.1586 213.225 67.466 212.66C67.81 212.028 68.4279 211.55 69.1609 211.348C70.1832 211.066 71.6196 210.645 73.1385 210.2C76.3384 209.26 80.3209 208.093 82.5953 207.601C82.612 207.597 82.6288 207.593 82.6455 207.591C84.2647 207.261 85.857 207.964 86.5327 209.312C87.6564 211.553 88.5111 216.054 89.3606 220.86C89.6361 222.422 88.4802 223.96 86.7773 224.306Z" fill="white"/>
<path d="M74.7766 238.664C74.2939 238.797 73.8924 239.104 73.6722 239.509C73.4908 239.841 73.4509 240.211 73.5577 240.554L76.7383 250.663C77.0794 251.749 78.3035 252.381 79.5842 252.134L91.9204 249.752L91.9448 249.747C93.138 249.505 93.9541 248.463 93.77 247.414C92.9334 242.681 92.0941 238.256 91.0296 236.131C90.5521 235.179 89.3409 234.667 88.158 234.93C85.9183 235.415 81.9539 236.578 78.7694 237.512C77.2454 237.959 75.8064 238.381 74.7766 238.664ZM92.1366 250.693L92.1031 250.699L79.767 253.082C78.0048 253.421 76.3071 252.508 75.818 250.953L72.6374 240.843C72.4507 240.25 72.5177 239.611 72.8253 239.046C73.169 238.414 73.7868 237.937 74.5205 237.735C75.5425 237.453 76.9777 237.032 78.4978 236.587C81.6977 235.647 85.6802 234.48 87.9546 233.988C87.9714 233.984 87.9881 233.98 88.0035 233.978C89.6228 233.648 91.2163 234.351 91.892 235.699C93.0145 237.939 93.8704 242.439 94.72 247.247C94.9954 248.808 93.8382 250.346 92.1366 250.693Z" fill="white"/>
<path d="M80.1352 265.053C79.6538 265.185 79.2509 265.493 79.0321 265.897C78.8506 266.229 78.8094 266.6 78.9176 266.941L82.0981 277.052C82.4392 278.138 83.6633 278.77 84.9441 278.523L97.2789 276.141L97.3034 276.135C98.4966 275.893 99.314 274.852 99.1286 273.803C98.2932 269.069 97.454 264.645 96.3882 262.52C95.912 261.567 94.6995 261.052 93.5178 261.319C91.2782 261.804 87.3137 262.966 84.1293 263.901C82.6053 264.348 81.1662 264.77 80.1352 265.053ZM97.4965 277.08L97.4617 277.088L85.1268 279.47C83.3647 279.81 81.6669 278.895 81.1778 277.341L77.9972 267.232C77.8106 266.637 77.8775 266 78.1852 265.435C78.5288 264.803 79.1467 264.326 79.8791 264.124C80.9024 263.842 82.3375 263.421 83.8577 262.974C87.0576 262.036 91.0401 260.868 93.3145 260.377C93.3312 260.373 93.3467 260.369 93.3634 260.366C94.9826 260.037 96.5762 260.74 97.2519 262.087C98.3743 264.328 99.2303 268.828 100.079 273.636C100.355 275.197 99.1981 276.735 97.4965 277.08Z" fill="white"/>
<path d="M82.5292 267.367C83.335 266.644 84.5758 266.726 85.2799 267.545L88.593 271.406C88.9238 271.792 89.5546 271.635 89.6665 271.138L92.9655 256.507C93.1303 255.776 94.1729 255.8 94.3106 256.535C95.0816 260.649 95.5772 268.667 90.35 276.523C90.35 276.523 86.4525 275.854 82.2473 270.058C81.6398 269.22 81.7595 268.056 82.5292 267.367Z" fill="url(#paint6_linear)"/>
<path d="M77.2511 254.792C78.38 266.64 81.0315 282.306 84.2173 295.805H86.2189C82.0987 279.514 78.3067 257.205 79.4238 231.488C80.5489 205.556 86.9011 174.067 75.0578 159.026C65.2 146.507 23.3728 144.636 9.61867 144.361C7.89988 144.326 6.91593 146.305 7.98592 147.652C13.2588 154.286 24.3006 169.652 25.2622 183.069C26.5303 200.755 40.2755 214.636 53.9333 220.416C67.5909 226.193 74.9458 230.601 77.2511 254.792Z" fill="#F03D5F"/>
<path d="M77.0922 238.502C76.912 238.502 76.755 238.374 76.7214 238.193L76.719 238.182C75.9467 233.937 75.0933 229.693 74.1588 225.474C73.2436 221.248 72.277 217.036 71.2652 212.833L69.7258 206.533L68.1167 200.251C67.5819 198.159 67.0252 196.069 66.4586 193.984L66.0371 192.42C65.8973 191.897 65.7295 191.402 65.5772 190.891C65.4173 190.387 65.2843 189.872 65.103 189.375L64.5498 187.885C63.0648 183.911 60.8752 180.23 58.3231 176.838C57.0094 175.169 55.6351 173.539 54.1098 172.049L53.5486 171.48L52.9657 170.932C52.5753 170.569 52.1943 170.197 51.7963 169.842C50.9901 169.142 50.1921 168.431 49.3479 167.775C46.0208 165.09 42.3658 162.809 38.5678 160.808C34.7693 158.813 30.7727 157.128 26.6712 155.879L26.6523 155.873C26.4922 155.824 26.4021 155.656 26.4507 155.494C26.4903 155.364 26.6111 155.281 26.741 155.281C26.7655 155.281 26.7904 155.284 26.8152 155.29C35.2755 157.437 43.2775 161.295 50.2785 166.581C53.7857 169.216 56.9643 172.309 59.7055 175.763C62.4171 179.237 64.6942 183.082 66.2747 187.216L66.86 188.766C67.0517 189.286 67.1945 189.819 67.364 190.345C67.5198 190.873 67.6963 191.406 67.8349 191.929L68.2531 193.501C68.8149 195.596 69.3667 197.693 69.8969 199.796C70.964 204 71.9642 208.22 72.8974 212.456C74.7701 220.927 76.3817 229.454 77.4681 238.077C77.4938 238.285 77.3471 238.473 77.1398 238.5C77.1244 238.5 77.1076 238.502 77.0922 238.502Z" fill="#C8D9FD"/>
<path d="M77.6444 270.838C84.7985 281.34 83.8794 287.217 84.0996 292.195C84.1382 293.078 84.1871 294.328 84.2901 295.803H86.2427C85.8437 293.777 85.5618 291.734 85.4601 289.731C84.7637 275.984 81.6629 252.522 69.8082 238.487C57.9542 224.451 44.9725 223.172 28.6151 235.93C14.9835 246.562 6.48075 251.928 1.49402 252.926C0.25937 253.173 -0.370822 254.567 0.230026 255.674C3.42824 261.564 12.471 275.092 27.6537 274.14C47.0204 272.926 70.4917 260.336 77.6444 270.838Z" fill="#F03D5F"/>
<path d="M78.0486 260.48C77.9932 260.359 77.9353 260.238 77.8722 260.123L77.3728 259.173C76.0522 256.641 74.4484 254.269 72.5331 252.192C70.6165 250.118 68.3429 248.406 65.8522 247.094L63.9426 246.189L61.9639 245.431L59.9314 244.813C59.5939 244.717 59.263 244.654 58.9286 244.571C58.5951 244.493 58.251 244.46 57.913 244.403C57.2316 244.312 56.5424 244.271 55.8506 244.271C55.1573 244.271 54.4612 244.312 53.7675 244.392C52.3797 244.54 50.9982 244.832 49.6418 245.229C46.9243 246.02 44.3039 247.202 41.7867 248.577C40.5329 249.273 39.2905 250.002 38.0845 250.791C36.8824 251.581 35.6943 252.415 34.5624 253.292L34.5549 253.297C34.4992 253.341 34.4331 253.361 34.3675 253.361C34.276 253.361 34.1855 253.32 34.1252 253.243C34.0284 253.118 34.0446 252.94 34.1562 252.833C35.2274 251.814 36.3625 250.895 37.5337 250.008C38.7044 249.124 39.9111 248.282 41.1672 247.514C43.6709 245.968 46.3427 244.648 49.1879 243.74C50.6109 243.29 52.0767 242.944 53.5756 242.752C54.3679 242.657 55.1696 242.604 55.9737 242.604C56.6908 242.604 57.4098 242.647 58.1264 242.736C58.5044 242.796 58.8865 242.832 59.2613 242.917C59.6333 243.005 60.0179 243.075 60.3788 243.18L62.5136 243.841L64.6025 244.654L66.6273 245.627C69.2812 247.024 71.6823 248.914 73.68 251.141C75.4331 253.074 76.8541 255.264 78.0486 257.547V260.48Z" fill="#C8D9FD"/>
<path d="M90.0601 318.91C83.4402 318.91 78.0483 313.541 78.0483 306.895V305.571V301.487V271.441V260.485V257.551V252.562V163.927V157.149V152.12V134.781V130.174V124.712V120.12V108.289V103.861V88.0475V65.1072C78.0483 56.092 84.1686 48.5071 92.4824 46.2831C91.9341 47.1586 91.6162 48.1976 91.624 49.3206L93.1144 302.782C93.1286 305.215 94.9654 307.251 97.3839 307.505C107.085 308.52 121.046 308.919 137.02 308.919C186.491 308.919 255.17 305.087 275.621 303.876C278.931 303.68 281.458 300.851 281.281 297.542L268.454 56.2313C268.308 53.4303 265.987 51.2793 263.228 51.2793C263.093 51.2793 262.956 51.2859 262.819 51.2948C249.946 52.2829 236.541 52.6942 223.142 52.6942C180.599 52.6942 138.161 48.5557 113.422 45.6221H125.019H154.574H174.595H193.868H198.585H251.213H263.237C269.038 45.6221 274.191 48.5049 277.304 52.9439C278.409 54.5224 279.258 56.2998 279.786 58.212C280.113 59.3992 280.317 60.6371 280.383 61.9149L280.478 63.794L280.717 68.4917L281.007 74.1865L281.243 78.8333L283.578 124.663L283.783 128.709L284.097 134.877L284.3 138.902L285.227 157.072L285.521 162.853L287.04 192.666L287.305 197.89L288.457 220.516L288.717 225.644L289.876 248.365L290.13 253.396L291.293 276.214L291.545 281.149L292.615 302.156C292.641 302.696 292.635 303.229 292.595 303.753C292.493 305.125 292.171 306.44 291.662 307.66C289.792 312.151 285.401 315.363 280.2 315.457L90.2827 318.909C90.208 318.91 90.1335 318.91 90.0601 318.91Z" fill="url(#paint7_linear)"/>
<path d="M91.6246 49.3166C91.6039 45.8738 94.6312 43.2099 98.0436 43.6728C120.672 46.7417 198.485 56.2312 262.819 51.2928C265.755 51.0681 268.301 53.2913 268.457 56.229L281.282 297.54C281.458 300.85 278.932 303.679 275.623 303.874C248.565 305.476 137.131 311.666 97.3846 307.503C94.9659 307.249 93.1293 305.213 93.115 302.78L91.6246 49.3166Z" fill="#E6869E"/>
<path d="M137.976 305.189C122.605 305.189 109.168 304.805 99.8324 303.828C97.5054 303.583 95.7381 301.624 95.7239 299.283L94.2887 55.3647C94.2708 52.3042 96.7561 49.8815 99.7245 49.8815C99.9689 49.8815 100.217 49.899 100.467 49.9317C117.886 52.2932 169.294 58.6109 220.854 58.6109C233.751 58.6109 246.651 58.2155 259.039 57.2653C259.171 57.2543 259.304 57.25 259.433 57.25C262.087 57.25 264.32 59.3209 264.464 62.0167L276.806 294.241C276.975 297.424 274.543 300.148 271.36 300.336C251.678 301.501 185.584 305.189 137.976 305.189ZM133.13 269.623C133.115 269.623 133.098 269.623 133.083 269.623C130.894 269.651 127.004 269.982 123.879 270.248C122.395 270.374 120.992 270.494 119.997 270.561C119.284 270.611 118.625 270.936 118.189 271.454C117.8 271.916 117.62 272.493 117.68 273.075L118.719 282.989C118.879 284.512 120.273 285.675 121.96 285.69L133.778 285.804H133.81C135.443 285.804 136.797 284.603 136.836 283.111C136.953 278.522 137.007 274.214 136.39 271.938C136.021 270.569 134.684 269.623 133.13 269.623ZM147.025 275.539C145.102 275.539 143.698 277.359 144.188 279.221C144.528 280.51 145.694 281.407 147.025 281.407C147.034 281.407 147.042 281.407 147.051 281.407L256.383 280.473C257.62 280.463 258.609 279.444 258.583 278.207C258.554 277.005 257.576 276.043 256.374 276.037L147.039 275.539C147.034 275.539 147.03 275.539 147.025 275.539ZM133.13 244.296C133.115 244.296 133.098 244.298 133.083 244.298C130.894 244.325 127.004 244.656 123.879 244.922C122.395 245.048 120.992 245.168 119.997 245.236C119.284 245.285 118.625 245.611 118.189 246.128C117.8 246.591 117.62 247.167 117.68 247.749L118.719 257.664C118.879 259.188 120.273 260.349 121.96 260.364L133.778 260.477H133.81C135.443 260.477 136.797 259.276 136.836 257.786C136.953 253.196 137.007 248.888 136.39 246.612C136.021 245.244 134.684 244.296 133.13 244.296ZM147.025 250.212C145.102 250.212 143.698 252.032 144.188 253.895C144.528 255.183 145.694 256.08 147.025 256.08C147.034 256.08 147.042 256.08 147.051 256.08L256.383 255.148C257.62 255.138 258.609 254.118 258.583 252.88C258.554 251.678 257.576 250.717 256.374 250.71L147.039 250.212C147.034 250.212 147.03 250.212 147.025 250.212ZM133.13 218.971C133.115 218.971 133.098 218.971 133.083 218.971C130.894 218.999 127.004 219.329 123.879 219.596C122.395 219.722 120.992 219.842 119.997 219.91C119.284 219.959 118.625 220.284 118.189 220.802C117.8 221.265 117.62 221.841 117.68 222.422L118.719 232.337C118.879 233.86 120.273 235.022 121.96 235.038L133.778 235.152H133.81C135.443 235.152 136.797 233.95 136.836 232.46C136.953 227.87 137.007 223.562 136.39 221.286C136.021 219.918 134.684 218.971 133.13 218.971ZM147.025 224.886C145.102 224.886 143.698 226.707 144.188 228.569C144.528 229.858 145.694 230.754 147.025 230.754C147.034 230.754 147.042 230.754 147.051 230.754L256.383 229.822C257.62 229.812 258.609 228.791 258.583 227.556C258.554 226.353 257.576 225.391 256.374 225.385L147.039 224.886C147.034 224.886 147.03 224.886 147.025 224.886ZM133.102 193.645C133.095 193.645 133.089 193.645 133.083 193.645C130.894 193.674 127.004 194.004 123.879 194.271C122.395 194.397 120.992 194.517 119.997 194.584C119.284 194.632 118.625 194.958 118.189 195.476C117.8 195.939 117.62 196.514 117.68 197.096L118.719 207.011C118.879 208.535 120.273 209.696 121.96 209.713L133.778 209.826H133.81C135.443 209.826 136.797 208.624 136.836 207.133C136.953 202.545 137.007 198.237 136.39 195.96C136.019 194.582 134.681 193.645 133.102 193.645ZM147.025 199.56C145.102 199.56 143.698 201.381 144.188 203.242C144.528 204.532 145.694 205.428 147.025 205.428C147.034 205.428 147.042 205.428 147.051 205.428L256.383 204.496C257.62 204.486 258.609 203.466 258.583 202.229C258.554 201.027 257.576 200.064 256.374 200.059L147.039 199.56C147.034 199.56 147.03 199.56 147.025 199.56ZM209.105 166.973C208.083 166.973 207.379 167.786 207.534 168.815L207.845 170.881C208.004 171.937 209.007 172.799 210.075 172.799H241.176C242.245 172.799 243.108 171.928 243.092 170.86L243.086 170.333C243.073 169.265 242.19 168.356 241.124 168.312L209.186 166.975C209.16 166.975 209.131 166.973 209.105 166.973ZM139.341 166.973C138.317 166.973 137.616 167.786 137.772 168.815L138.081 170.881C138.24 171.937 139.243 172.799 140.311 172.799H171.411C172.479 172.799 173.342 171.928 173.329 170.86L173.322 170.333C173.309 169.265 172.426 168.356 171.358 168.312L139.423 166.975C139.395 166.975 139.368 166.973 139.341 166.973ZM116.353 146.532C115.302 146.532 114.98 147.205 115.642 148.035L116.786 149.473C117.45 150.31 118.868 150.991 119.937 150.991H256.602C257.672 150.991 258.496 150.242 258.434 149.322C258.373 148.402 257.451 147.644 256.383 147.636L116.372 146.532C116.366 146.532 116.36 146.532 116.353 146.532ZM116.353 137.25C115.302 137.25 114.98 137.923 115.642 138.755L116.786 140.193C117.45 141.027 118.868 141.711 119.937 141.711H256.602C257.672 141.711 258.496 140.96 258.434 140.04C258.373 139.122 257.451 138.362 256.383 138.356L116.372 137.25C116.366 137.25 116.36 137.25 116.353 137.25ZM117.806 69.7478C115.896 69.7478 114.358 71.3447 114.448 73.2693L116.761 123.055C116.837 124.711 118.176 126.028 119.832 126.074C125.789 126.242 139.892 126.594 153.502 126.594C160.958 126.594 168.265 126.489 174.008 126.19C175.843 126.094 177.294 124.611 177.355 122.773C177.665 113.437 178.342 86.2608 176.214 74.9011C175.869 73.0661 174.292 71.7204 172.426 71.6549L117.927 69.75C117.887 69.7478 117.846 69.7478 117.806 69.7478ZM190.901 91.8598C189.857 91.8598 189.291 92.6615 189.641 93.6577L189.927 94.4703C190.281 95.4752 191.447 96.2988 192.513 96.2988H250.797C251.865 96.2988 252.717 95.5473 252.691 94.6298C252.663 93.7101 251.767 92.9433 250.701 92.9236L190.938 91.8598C190.925 91.8598 190.914 91.8598 190.901 91.8598ZM190.901 82.4444C189.857 82.4444 189.291 83.2461 189.641 84.2401L189.927 85.0527C190.281 86.0598 191.447 86.8834 192.513 86.8834H250.797C251.865 86.8834 252.717 86.1319 252.691 85.2144C252.663 84.2947 251.767 83.5279 250.701 83.5082L190.938 82.4444C190.925 82.4444 190.914 82.4444 190.901 82.4444ZM190.901 73.1622C189.857 73.1622 189.291 73.964 189.641 74.9601L189.927 75.7706C190.281 76.7776 191.447 77.6012 192.513 77.6012H250.797C251.865 77.6012 252.717 76.8497 252.691 75.9322C252.663 75.0147 251.767 74.2458 250.701 74.2283L190.938 73.1622C190.925 73.1622 190.914 73.1622 190.901 73.1622ZM133.81 284.896H133.787L121.969 284.783C120.742 284.771 119.733 283.959 119.621 282.895L118.583 272.98C118.548 272.645 118.655 272.31 118.884 272.037C119.162 271.708 119.591 271.499 120.059 271.467C121.062 271.399 122.467 271.279 123.957 271.152C127.066 270.887 130.938 270.557 133.094 270.53C133.113 270.53 133.133 270.53 133.152 270.53C134.268 270.53 135.258 271.224 135.515 272.174C136.098 274.332 136.044 278.569 135.928 283.088C135.903 284.089 134.955 284.896 133.81 284.896ZM131.799 271.741C131.789 271.741 131.777 271.741 131.767 271.741C129.208 271.774 123.812 272.321 121.331 272.49C120.41 272.554 119.728 273.28 119.814 274.098L120.645 282.022C120.753 283.053 121.717 283.844 122.878 283.856L132.321 283.946C132.328 283.946 132.336 283.946 132.344 283.946C133.462 283.946 134.374 283.147 134.399 282.148C134.484 278.789 134.55 275.148 134.057 273.323C133.805 272.393 132.87 271.741 131.799 271.741ZM133.81 259.57H133.787L121.969 259.457C120.742 259.445 119.733 258.633 119.621 257.568L118.583 247.653C118.548 247.319 118.655 246.984 118.884 246.712C119.162 246.382 119.591 246.173 120.059 246.141C121.062 246.073 122.467 245.953 123.957 245.827C127.066 245.562 130.938 245.232 133.094 245.205C133.111 245.204 133.128 245.204 133.146 245.204C134.264 245.204 135.258 245.896 135.515 246.849C136.098 249.007 136.044 253.242 135.928 257.763C135.903 258.764 134.955 259.57 133.81 259.57ZM131.799 246.415C131.789 246.415 131.777 246.415 131.767 246.415C129.208 246.447 123.812 246.994 121.331 247.164C120.41 247.227 119.728 247.953 119.814 248.773L120.645 256.696C120.753 257.727 121.717 258.518 122.878 258.53L132.321 258.62C132.328 258.621 132.336 258.621 132.344 258.621C133.462 258.621 134.374 257.822 134.399 256.822C134.484 253.462 134.55 249.824 134.057 247.997C133.805 247.066 132.87 246.415 131.799 246.415ZM133.81 234.245H133.787L121.969 234.132C120.742 234.119 119.733 233.307 119.621 232.242L118.583 222.327C118.548 221.992 118.655 221.659 118.884 221.386C119.162 221.055 119.591 220.847 120.059 220.815C121.062 220.747 122.467 220.627 123.957 220.501C127.066 220.235 130.938 219.906 133.094 219.879C133.108 219.879 133.122 219.879 133.138 219.879C134.259 219.879 135.257 220.567 135.515 221.523C136.098 223.681 136.044 227.916 135.928 232.437C135.903 233.438 134.955 234.245 133.81 234.245ZM131.799 221.089C131.789 221.089 131.777 221.089 131.767 221.089C129.208 221.121 123.812 221.669 121.331 221.838C120.41 221.901 119.728 222.627 119.814 223.447L120.645 231.369C120.753 232.401 121.717 233.193 122.878 233.204L132.321 233.295C132.328 233.295 132.336 233.295 132.344 233.295C133.461 233.295 134.374 232.496 134.399 231.497C134.484 228.137 134.55 224.497 134.057 222.671C133.805 221.74 132.87 221.089 131.799 221.089ZM133.81 208.919H133.787L121.969 208.805C120.742 208.794 119.733 207.982 119.621 206.916L118.583 197.001C118.548 196.668 118.655 196.333 118.884 196.06C119.162 195.729 119.591 195.521 120.059 195.49C121.062 195.42 122.467 195.301 123.957 195.174C127.066 194.909 130.938 194.58 133.094 194.553C134.247 194.556 135.254 195.23 135.515 196.196C136.098 198.355 136.044 202.591 135.928 207.11C135.903 208.112 134.955 208.919 133.81 208.919ZM131.799 195.763C131.789 195.763 131.777 195.763 131.767 195.764C129.208 195.795 123.812 196.343 121.331 196.513C120.41 196.576 119.728 197.301 119.814 198.121L120.645 206.045C120.753 207.075 121.717 207.867 122.878 207.877L132.321 207.969C132.328 207.969 132.336 207.969 132.344 207.969C133.461 207.969 134.374 207.169 134.399 206.171C134.484 202.811 134.55 199.171 134.057 197.345C133.805 196.414 132.87 195.763 131.799 195.763Z" fill="#FBCBD7"/>
<path d="M153.502 126.594C139.892 126.594 125.79 126.243 119.833 126.074C118.176 126.029 116.838 124.711 116.762 123.054L114.449 73.2673C114.358 71.3428 115.897 69.7463 117.807 69.7463C117.847 69.7463 117.888 69.7483 117.928 69.7483L172.427 71.6543C174.292 71.7203 175.872 73.0652 176.214 74.9009C178.343 86.2601 177.664 113.436 177.355 122.772C177.295 124.609 175.843 126.093 174.009 126.189C168.267 126.489 160.959 126.594 153.502 126.594Z" fill="#F5F8FF"/>
<path d="M156.509 91.0727C156.509 96.9833 151.719 101.775 145.809 101.775C139.897 101.775 135.106 96.9833 135.106 91.0727C135.106 85.162 139.897 80.3699 145.809 80.3699C151.719 80.3699 156.509 85.162 156.509 91.0727Z" fill="url(#paint8_linear)"/>
<path d="M129.552 122.486H163.648C165.739 122.486 166.991 120.179 165.865 118.416C162.968 113.885 156.91 107.227 146.417 107.528C136.301 107.817 130.306 113.832 127.293 118.143C126.013 119.974 127.317 122.486 129.552 122.486Z" fill="url(#paint9_linear)"/>
<path d="M250.798 77.6016H192.512C191.447 77.6016 190.281 76.7787 189.928 75.7701L189.642 74.9596C189.291 73.9632 189.856 73.1608 190.9 73.1608C190.914 73.1608 190.924 73.1628 190.938 73.1628L250.702 74.2266C251.767 74.245 252.664 75.0127 252.69 75.9314C252.717 76.8502 251.865 77.6016 250.798 77.6016Z" fill="#EDF3FE"/>
<path d="M250.797 86.8848H192.512C191.447 86.8848 190.281 86.0611 189.928 85.0548L189.642 84.241C189.291 83.2467 189.857 82.4448 190.901 82.4448C190.913 82.4448 190.925 82.4448 190.938 82.4448L250.7 83.5106C251.768 83.5305 252.663 84.2966 252.691 85.2156C252.719 86.1345 251.865 86.8848 250.797 86.8848Z" fill="#EDF3FE"/>
<path d="M250.799 96.2988H192.514C191.447 96.2988 190.281 95.4741 189.928 94.4682L189.641 93.655C189.29 92.6587 189.857 91.859 190.901 91.859C190.913 91.859 190.924 91.859 190.938 91.859L250.7 92.9227C251.768 92.942 252.664 93.7108 252.691 94.6281C252.718 95.5473 251.866 96.2988 250.799 96.2988Z" fill="#EDF3FE"/>
<path d="M256.603 141.709H119.937C118.869 141.709 117.45 141.027 116.786 140.191L115.642 138.754C114.98 137.922 115.302 137.249 116.353 137.249C116.36 137.249 116.366 137.249 116.373 137.249L256.382 138.355C257.451 138.362 258.374 139.121 258.435 140.039C258.495 140.959 257.671 141.709 256.603 141.709Z" fill="#EDF3FE"/>
<path d="M256.603 150.99H119.937C118.869 150.99 117.45 150.308 116.786 149.472L115.642 148.033C114.98 147.203 115.302 146.531 116.353 146.531C116.36 146.531 116.366 146.531 116.373 146.531L256.382 147.634C257.451 147.644 258.374 148.402 258.435 149.32C258.495 150.24 257.671 150.99 256.603 150.99Z" fill="#EDF3FE"/>
<path d="M115.742 162.028C119.108 161.77 125.412 161.65 128.881 161.6C130.352 161.581 131.643 162.576 131.987 164.007C132.656 166.783 133.581 171.604 133.463 176.712C133.428 178.241 132.176 179.463 130.646 179.445L117.84 179.309C116.265 179.291 114.958 178.088 114.811 176.519L113.685 164.473C113.568 163.227 114.493 162.124 115.742 162.028Z" fill="url(#paint10_linear)"/>
<path d="M171.412 172.797H140.311C139.244 172.797 138.241 171.933 138.081 170.878L137.772 168.812C137.616 167.784 138.318 166.972 139.34 166.972C139.368 166.972 139.395 166.973 139.424 166.975L171.359 168.309C172.427 168.353 173.309 169.263 173.324 170.331L173.33 170.857C173.343 171.924 172.481 172.797 171.412 172.797Z" fill="#EDF3FE"/>
<path d="M185.505 162.029C188.872 161.769 195.175 161.65 198.645 161.602C200.117 161.583 201.405 162.576 201.75 164.007C202.421 166.783 203.344 171.606 203.228 176.713C203.192 178.241 201.94 179.463 200.41 179.447L187.605 179.309C186.03 179.293 184.722 178.088 184.576 176.52L183.449 164.473C183.333 163.227 184.257 162.124 185.505 162.029Z" fill="url(#paint11_linear)"/>
<path d="M241.176 172.799H210.075C209.006 172.799 208.003 171.935 207.845 170.879L207.534 168.813C207.38 167.784 208.081 166.971 209.105 166.971C209.133 166.971 209.159 166.973 209.186 166.975L241.124 168.311C242.188 168.353 243.073 169.264 243.086 170.332L243.092 170.857C243.107 171.925 242.244 172.799 241.176 172.799Z" fill="#EDF3FE"/>
<path d="M120.059 195.488C119.59 195.519 119.162 195.727 118.883 196.058C118.654 196.33 118.547 196.665 118.582 196.999L119.621 206.914C119.733 207.98 120.742 208.791 121.969 208.803L133.786 208.916H133.809C134.954 208.916 135.903 208.11 135.928 207.108C136.043 202.59 136.098 198.353 135.515 196.194C135.254 195.227 134.247 194.555 133.093 194.551C130.937 194.577 127.066 194.907 123.957 195.172C122.466 195.299 121.061 195.419 120.059 195.488ZM133.809 209.824H133.777L121.96 209.711C120.273 209.694 118.878 208.533 118.719 207.009L117.679 197.094C117.619 196.512 117.799 195.937 118.189 195.473C118.625 194.956 119.284 194.631 119.997 194.581C120.992 194.515 122.395 194.395 123.878 194.268C127.005 194.003 130.894 193.672 133.083 193.643C134.669 193.635 136.017 194.575 136.39 195.958C137.006 198.235 136.953 202.543 136.835 207.132C136.796 208.622 135.443 209.824 133.809 209.824Z" fill="white"/>
<path d="M132.343 207.967C132.336 207.967 132.328 207.967 132.32 207.967L122.878 207.875C121.716 207.865 120.753 207.074 120.645 206.043L119.814 198.12C119.728 197.299 120.41 196.575 121.331 196.512C123.812 196.341 129.209 195.793 131.767 195.762C131.777 195.761 131.789 195.761 131.799 195.761C132.87 195.761 133.805 196.412 134.057 197.343C134.55 199.169 134.484 202.81 134.399 206.169C134.373 207.167 133.46 207.967 132.343 207.967Z" fill="#EDF3FE"/>
<path d="M147.025 205.426C145.693 205.426 144.527 204.531 144.188 203.24C143.697 201.38 145.102 199.559 147.025 199.559C147.031 199.559 147.035 199.559 147.039 199.559L256.373 200.058C257.576 200.062 258.554 201.025 258.582 202.228C258.609 203.464 257.619 204.484 256.382 204.494L147.05 205.426C147.043 205.426 147.035 205.426 147.025 205.426Z" fill="#EDF3FE"/>
<path d="M121.833 198.066C122.71 197.551 123.838 197.857 124.335 198.745L126.665 202.923C126.898 203.343 127.508 203.316 127.706 202.878L133.486 190.01C133.774 189.367 134.731 189.584 134.72 190.288C134.662 194.225 133.616 201.708 127.325 207.971C127.325 207.971 123.86 206.625 121.069 200.493C120.665 199.608 120.994 198.558 121.833 198.066Z" fill="url(#paint12_linear)"/>
<path d="M120.059 220.813C119.591 220.845 119.162 221.053 118.884 221.384C118.655 221.657 118.548 221.99 118.583 222.325L119.621 232.24C119.733 233.305 120.743 234.117 121.969 234.13L133.787 234.243H133.81C134.955 234.243 135.903 233.436 135.929 232.434C136.044 227.914 136.098 223.679 135.515 221.521C135.254 220.554 134.233 219.859 133.094 219.877C130.938 219.904 127.066 220.233 123.957 220.499C122.467 220.625 121.062 220.744 120.059 220.813ZM133.81 235.15H133.778L121.96 235.036C120.273 235.02 118.879 233.858 118.719 232.335L117.68 222.42C117.62 221.839 117.8 221.263 118.189 220.8C118.625 220.282 119.284 219.957 119.997 219.908C120.992 219.84 122.395 219.72 123.879 219.594C127.005 219.327 130.894 218.996 133.083 218.969C133.098 218.969 133.115 218.969 133.13 218.969C134.684 218.969 136.021 219.916 136.391 221.284C137.007 223.559 136.953 227.868 136.836 232.458C136.797 233.948 135.443 235.15 133.81 235.15Z" fill="white"/>
<path d="M132.344 233.293C132.336 233.293 132.328 233.293 132.321 233.293L122.878 233.202C121.717 233.191 120.753 232.398 120.645 231.367L119.814 223.445C119.728 222.625 120.41 221.899 121.331 221.836C123.812 221.667 129.208 221.119 131.767 221.087C131.777 221.087 131.789 221.087 131.799 221.087C132.87 221.087 133.805 221.738 134.057 222.669C134.55 224.495 134.484 228.135 134.399 231.495C134.374 232.494 133.461 233.293 132.344 233.293Z" fill="#EDF3FE"/>
<path d="M147.025 230.754C145.693 230.754 144.527 229.858 144.188 228.568C143.697 226.707 145.102 224.886 147.025 224.886C147.031 224.886 147.035 224.886 147.039 224.886L256.373 225.385C257.576 225.39 258.554 226.353 258.582 227.555C258.609 228.791 257.619 229.812 256.382 229.822L147.05 230.754C147.043 230.754 147.035 230.754 147.025 230.754Z" fill="#EDF3FE"/>
<path d="M121.834 223.391C122.711 222.877 123.839 223.184 124.335 224.072L126.666 228.25C126.899 228.668 127.509 228.642 127.706 228.205L133.487 215.335C133.775 214.693 134.731 214.91 134.721 215.614C134.662 219.55 133.617 227.034 127.326 233.297C127.326 233.297 123.86 231.949 121.069 225.82C120.665 224.934 120.995 223.884 121.834 223.391Z" fill="url(#paint13_linear)"/>
<path d="M120.059 246.14C119.591 246.172 119.162 246.381 118.884 246.712C118.655 246.983 118.548 247.318 118.583 247.653L119.621 257.568C119.733 258.632 120.743 259.444 121.969 259.456L133.787 259.569H133.81C134.955 259.569 135.903 258.763 135.929 257.762C136.044 253.241 136.098 249.007 135.515 246.848C135.254 245.881 134.233 245.182 133.094 245.204C130.938 245.231 127.066 245.561 123.957 245.826C122.467 245.952 121.062 246.072 120.059 246.14ZM133.81 260.477H133.778L121.96 260.363C120.273 260.348 118.879 259.187 118.719 257.663L117.68 247.748C117.62 247.166 117.8 246.591 118.189 246.127C118.625 245.61 119.284 245.284 119.997 245.235C120.992 245.167 122.395 245.047 123.879 244.921C127.005 244.655 130.894 244.324 133.083 244.297C133.098 244.297 133.115 244.296 133.13 244.296C134.684 244.296 136.021 245.243 136.391 246.611C137.007 248.887 136.953 253.195 136.836 257.785C136.797 259.276 135.443 260.477 133.81 260.477Z" fill="white"/>
<path d="M132.344 258.619C132.336 258.619 132.328 258.619 132.321 258.618L122.878 258.528C121.717 258.516 120.753 257.725 120.645 256.694L119.814 248.771C119.728 247.951 120.41 247.225 121.331 247.162C123.812 246.992 129.208 246.445 131.767 246.413C131.777 246.413 131.789 246.413 131.799 246.413C132.87 246.413 133.805 247.064 134.057 247.995C134.55 249.821 134.484 253.46 134.399 256.82C134.374 257.82 133.462 258.619 132.344 258.619Z" fill="#EDF3FE"/>
<path d="M147.024 256.08C145.693 256.08 144.527 255.183 144.188 253.895C143.696 252.032 145.102 250.212 147.024 250.212C147.03 250.212 147.034 250.212 147.038 250.212L256.372 250.71C257.575 250.716 258.554 251.678 258.581 252.88C258.609 254.117 257.618 255.138 256.382 255.148L147.05 256.08C147.042 256.08 147.034 256.08 147.024 256.08Z" fill="#EDF3FE"/>
<path d="M121.834 248.717C122.711 248.202 123.839 248.51 124.335 249.398L126.666 253.576C126.899 253.994 127.509 253.967 127.706 253.531L133.487 240.661C133.775 240.018 134.731 240.236 134.721 240.94C134.662 244.876 133.617 252.36 127.326 258.623C127.326 258.623 123.86 257.275 121.069 251.146C120.665 250.26 120.995 249.21 121.834 248.717Z" fill="url(#paint14_linear)"/>
<path d="M120.059 271.464C119.591 271.497 119.162 271.705 118.884 272.035C118.655 272.307 118.548 272.642 118.583 272.977L119.621 282.892C119.733 283.956 120.743 284.768 121.969 284.78L133.787 284.893H133.81C134.955 284.893 135.903 284.086 135.929 283.085C136.044 278.566 136.098 274.33 135.515 272.171C135.254 271.204 134.233 270.503 133.094 270.527C130.938 270.554 127.066 270.884 123.957 271.149C122.467 271.276 121.062 271.396 120.059 271.464ZM133.81 285.801H133.778L121.96 285.688C120.273 285.672 118.879 284.51 118.719 282.986L117.68 273.072C117.62 272.49 117.8 271.914 118.189 271.451C118.625 270.933 119.284 270.608 119.997 270.558C120.992 270.491 122.395 270.372 123.879 270.245C127.005 269.979 130.894 269.648 133.083 269.62C133.098 269.62 133.115 269.62 133.13 269.62C134.684 269.62 136.021 270.566 136.391 271.935C137.007 274.211 136.953 278.519 136.836 283.108C136.797 284.6 135.443 285.801 133.81 285.801Z" fill="white"/>
<path d="M132.344 283.945C132.336 283.945 132.328 283.945 132.321 283.945L122.878 283.855C121.717 283.844 120.753 283.052 120.645 282.021L119.814 274.097C119.728 273.279 120.41 272.553 121.331 272.49C123.812 272.32 129.208 271.773 131.767 271.74C131.777 271.74 131.789 271.74 131.799 271.74C132.87 271.74 133.805 272.392 134.057 273.322C134.55 275.148 134.484 278.788 134.399 282.147C134.374 283.146 133.462 283.945 132.344 283.945Z" fill="#EDF3FE"/>
<path d="M147.025 281.406C145.693 281.406 144.527 280.509 144.188 279.221C143.697 277.358 145.102 275.538 147.025 275.538C147.031 275.538 147.035 275.538 147.039 275.538L256.373 276.036C257.576 276.043 258.554 277.004 258.582 278.206C258.609 279.443 257.619 280.463 256.382 280.473L147.05 281.406C147.043 281.406 147.035 281.406 147.025 281.406Z" fill="#EDF3FE"/>
<path d="M121.835 274.047C122.711 273.532 123.84 273.84 124.335 274.728L126.667 278.906C126.9 279.324 127.51 279.297 127.707 278.861L133.487 265.991C133.776 265.348 134.732 265.566 134.722 266.27C134.662 270.206 133.617 277.688 127.327 283.953C127.327 283.953 123.861 282.605 121.07 276.476C120.666 275.59 120.995 274.54 121.835 274.047Z" fill="url(#paint15_linear)"/>
<path d="M182.394 26.7724C179.805 26.7724 177.707 24.6744 177.707 22.0847C177.707 19.495 179.805 17.397 182.394 17.397C184.982 17.397 187.083 19.495 187.083 22.0847C187.083 24.6744 184.982 26.7724 182.394 26.7724ZM190.663 12.8601C184.675 8.6957 179.473 8.77846 175.809 9.85912C172.467 10.8449 170.3 14.0722 170.618 17.5406L172.199 34.7873L190.999 36.457C190.999 36.457 202.402 21.026 190.663 12.8601Z" fill="url(#paint16_linear)"/>
<path d="M173.585 22.1517C173.353 22.1517 173.155 21.9751 173.133 21.7404L172.942 19.6548C172.639 16.3497 174.719 13.2721 177.888 12.3357C180.131 11.6728 182.443 11.5784 184.759 12.0526C185.004 12.1034 185.163 12.343 185.113 12.5898C185.062 12.8341 184.825 12.9914 184.578 12.943C182.408 12.4978 180.245 12.5874 178.144 13.2068C175.391 14.0197 173.582 16.6957 173.845 19.5725L174.037 21.6557C174.06 21.9074 173.876 22.1275 173.626 22.1493C173.612 22.1517 173.598 22.1517 173.585 22.1517ZM174.078 27.5352C173.846 27.5352 173.648 27.3561 173.626 27.1214L173.375 24.3753C173.352 24.1261 173.536 23.9059 173.784 23.8817C174.039 23.8575 174.256 24.0438 174.278 24.293L174.53 27.0392C174.553 27.2884 174.369 27.5086 174.119 27.5327C174.105 27.5327 174.091 27.5352 174.078 27.5352Z" fill="white"/>
<path d="M146.539 45.934V37.2655C146.539 34.2712 149.019 31.8735 152.01 31.9767L211.79 34.0257C214.442 34.1152 216.592 36.21 216.75 38.8602L217.251 47.1914L146.539 45.934Z" fill="url(#paint17_linear)"/>
<path d="M168.83 35.2441H166.257C166.008 35.2441 165.804 35.0412 165.804 34.7905C165.804 34.5397 166.008 34.3367 166.257 34.3367H168.83C169.079 34.3367 169.281 34.5397 169.281 34.7905C169.281 35.0412 169.079 35.2441 168.83 35.2441Z" fill="white"/>
<path d="M149.774 43.2129C149.523 43.2129 149.32 43.01 149.32 42.7592V39.2527C149.32 36.5419 151.524 34.3372 154.235 34.3372H163.686C163.936 34.3372 164.139 34.5402 164.139 34.7909C164.139 35.0417 163.936 35.2446 163.686 35.2446H154.235C152.025 35.2446 150.227 37.0435 150.227 39.2527V42.7592C150.227 43.01 150.024 43.2129 149.774 43.2129Z" fill="white"/>
<path d="M233.077 102.572L219.003 91.0966L204.93 102.572C206.053 91.7773 206.578 79.7358 205.984 66.6691C205.793 62.5071 205.502 58.4753 205.127 54.5821C205.08 54.0836 205.244 53.585 205.583 53.2143C205.921 52.8415 206.4 52.6312 206.903 52.6312C215.064 52.6312 223.228 52.6312 231.389 52.6312C232.336 52.6312 233.119 53.3726 233.168 54.3177C233.481 60.2961 233.684 66.4827 233.752 72.8665C233.862 83.2778 233.602 93.1971 233.077 102.572Z" fill="url(#paint18_linear)"/>
<path d="M122.181 48.1302C122.325 45.1287 124.802 42.7668 127.808 42.7668L232.343 42.7646C236.102 42.7646 239.315 45.4697 239.957 49.173L240.044 49.6833C240.748 53.7409 237.624 57.4531 233.506 57.4531H126.259C123.795 57.4531 121.833 55.392 121.951 52.9298L122.181 48.1302Z" fill="url(#paint19_linear)"/>
<path d="M304.677 337.523C299.202 337.776 293.902 337.617 290.361 337.435C293.584 335.142 301.008 330.152 307.219 328.164L311.483 327.91C311.483 327.91 312.93 330.107 313.445 335.136C312.738 336.017 310.674 337.248 304.677 337.523Z" fill="url(#paint20_linear)"/>
<path d="M290.317 337.469C290.331 337.459 290.347 337.447 290.361 337.437C293.9 337.62 299.201 337.778 304.675 337.526C310.671 337.25 312.736 336.02 313.442 335.138C313.467 335.37 313.492 335.6 313.511 335.845C313.6 336.948 312.779 337.917 311.677 338.001C307.19 338.339 296.071 339.108 290.708 338.826C290.002 338.788 289.739 337.88 290.317 337.469Z" fill="url(#paint21_linear)"/>
<path d="M343.845 336.061C344.246 333.491 344.889 329.775 345.387 328.825C346.166 327.333 348.834 328.825 348.834 328.825C348.834 328.825 350.706 329.697 351.569 331.153C352.118 332.081 353.64 334.723 354.668 336.516C354.788 336.721 354.836 336.94 354.828 337.154L344.147 337.527C343.885 337.108 343.761 336.597 343.845 336.061Z" fill="url(#paint22_linear)"/>
<path d="M354.829 337.149C354.811 337.759 354.329 338.312 353.645 338.33L346.033 338.54C345.23 338.562 344.534 338.145 344.146 337.522L354.829 337.149Z" fill="url(#paint23_linear)"/>
<path d="M343.03 320.271C343.121 320.58 344.502 327.273 345.107 330.211C345.273 331.021 346.004 331.592 346.833 331.551C347.285 331.529 347.812 331.488 348.362 331.416C349.342 331.289 350.088 330.472 350.123 329.486C350.221 326.913 350.269 321.973 349.324 320.059C348.023 317.418 343.03 320.271 343.03 320.271Z" fill="url(#paint24_linear)"/>
<path d="M312.323 322.187C311.73 322.168 312.558 325.244 311.662 328.267C311.461 328.95 310.951 329.485 310.239 329.494C309.779 329.501 309.232 329.492 308.678 329.447C307.844 329.38 307.174 328.733 307.096 327.899L306.367 320.058L312.323 322.187Z" fill="url(#paint25_linear)"/>
<path d="M295.761 238.813C296.025 240.099 305.354 294.513 305.919 322.67C305.929 323.141 306.276 323.537 306.743 323.603C307.927 323.768 310.234 323.98 312.471 323.566C312.778 323.509 313.009 323.257 313.027 322.945C313.353 317.699 315.975 273.335 312.763 252.451C312.763 252.451 339.29 308.277 343.311 323.67C343.406 324.044 343.751 324.297 344.138 324.276C345.274 324.216 347.636 324.012 349.513 323.321C350.184 323.074 350.569 322.367 350.398 321.671C348.151 312.459 332.408 248.99 321.72 235.006L295.761 238.813Z" fill="url(#paint26_linear)"/>
<path d="M312.762 252.803C312.849 252.803 312.938 252.769 313.004 252.704C313.144 252.568 313.146 252.348 313.011 252.211L309.459 248.578C309.324 248.441 309.103 248.439 308.968 248.573C308.829 248.707 308.826 248.928 308.961 249.066L312.513 252.697C312.582 252.768 312.671 252.803 312.762 252.803Z" fill="url(#paint27_linear)"/>
<path d="M286.789 168.594C294.725 167.399 310.298 165.689 320.458 168.67L319.357 200.07L282.55 196.102L279.427 191.665C279.427 191.665 280.873 169.481 286.789 168.594Z" fill="url(#paint28_linear)"/>
<path d="M305.12 151.786C305.12 151.786 305.855 164.275 305.716 168.16C305.716 168.16 295.493 169.832 293.059 168.083L294.982 153.279L305.12 151.786Z" fill="url(#paint29_linear)"/>
<path d="M295.182 139.276C295.182 139.276 291.066 146.502 290.415 150.458C289.764 154.414 288.629 156.902 293.144 158.199C297.659 159.496 301.782 157.623 304.308 153.885C304.308 153.885 308.256 148.132 307.787 145.549C307.319 142.969 295.182 139.276 295.182 139.276Z" fill="url(#paint30_linear)"/>
<path d="M303.042 150.863L302.461 150.802C302.461 150.802 305.388 146.144 303.374 145.053C301.362 143.963 293.204 141.364 291.723 138.21C290.293 135.171 292.238 131.651 294.664 130.868C294.817 130.818 294.982 130.907 295.044 131.056L295.195 131.44C295.3 131.701 295.671 131.704 295.778 131.443C295.879 131.196 296.232 131.175 296.348 131.418C296.804 132.36 298.14 133.96 302.063 135.132C307.626 136.791 311.132 139.492 310.803 143.426C310.782 143.675 311.032 143.84 311.258 143.732C311.707 143.524 312.389 143.476 313.203 144.325C314.622 145.803 313.618 149.136 309.899 151.566C309.723 151.68 309.697 151.934 309.86 152.067C310.437 152.536 311.256 153.596 308.727 154.619C306.136 155.662 304.704 155.365 304.173 155.166C304.029 155.111 303.944 154.967 303.969 154.818L304.56 151.365C304.589 151.184 304.463 151.017 304.283 150.998L303.042 150.863Z" fill="url(#paint31_linear)"/>
<path d="M302.82 151.579C302.82 151.579 304.601 146.872 306.626 148.466C308.652 150.055 304.915 153.768 303.149 153.762L302.82 151.579Z" fill="url(#paint32_linear)"/>
<path d="M258.733 193.154L259.71 189.317C260.193 187.419 262.081 186.235 264 186.626L355.92 205.379C358.013 205.807 359.358 207.857 358.916 209.947L353.315 236.512L258.733 193.154Z" fill="url(#paint33_linear)"/>
<path d="M250.018 239.756L256.931 190.066C257.074 189.039 258.064 188.352 259.077 188.577L353.488 209.542C355.504 209.989 356.767 211.993 356.303 214.003L348.379 248.352L250.018 239.756Z" fill="white"/>
<path d="M252.513 237.504L255.161 193.153C255.227 192.013 256.295 191.201 257.413 191.436L352.816 211.624C354.163 211.908 355.047 213.198 354.831 214.555L349.751 246.594L252.513 237.504Z" fill="white"/>
<path d="M245.601 247.987L251.607 199.947C251.908 197.553 254.165 195.908 256.536 196.356L354.362 214.821C356.348 215.195 357.651 217.107 357.278 219.09L349.016 262.866C348.625 264.932 346.688 266.333 344.605 266.055L249.767 253.389C247.132 253.036 245.272 250.625 245.601 247.987Z" fill="url(#paint34_linear)"/>
<path d="M290.96 202.854C290.575 204.893 288.611 206.233 286.572 205.848L264.761 201.732C262.722 201.347 261.381 199.383 261.768 197.345C262.152 195.306 264.116 193.966 266.153 194.351L287.965 198.467C290.004 198.852 291.344 200.817 290.96 202.854Z" fill="url(#paint35_linear)"/>
<path d="M310.192 182.368L320.457 168.676C320.457 168.676 336.954 186.201 340.12 208.444L329.828 213.463C326.636 205.973 320.756 195.826 310.192 182.368Z" fill="url(#paint36_linear)"/>
<path d="M324.901 244.04C326.118 242.005 328.493 238.132 329.648 236.924C329.648 236.924 328.591 236.256 326.567 236.505C324.541 236.754 322.954 235.767 323.015 234.663L332.68 231.699C333.112 230.792 335.025 225.644 329.829 213.46L340.12 208.441C341.305 216.769 340.625 225.756 336.507 234.736C336.507 234.736 333.31 244.661 329.638 246.863C320.057 252.61 324.435 244.822 324.901 244.04Z" fill="url(#paint37_linear)"/>
<path d="M79.1592 115.255L77.1319 117.822L77.1241 117.833C76.9775 118.019 76.7057 118.051 76.5179 117.903C76.3312 117.756 76.299 117.484 76.4471 117.297L76.4535 117.29L78.5568 114.753C78.6944 114.586 78.9416 114.563 79.109 114.701C79.2736 114.837 79.2981 115.08 79.1669 115.246L79.1592 115.255Z" fill="white"/>
<path d="M72.3051 124.605L68.8682 130.089L68.8514 130.117C68.6778 130.394 68.3112 130.477 68.033 130.304C67.7549 130.129 67.6711 129.762 67.845 129.485L67.8516 129.475L71.426 124.009C71.5868 123.764 71.9164 123.696 72.1609 123.857C72.4042 124.015 72.4736 124.339 72.3206 124.581L72.3051 124.605Z" fill="white"/>
<path d="M64.8755 137.384L62.1187 143.23L62.1025 143.265C61.9316 143.627 61.4988 143.783 61.1362 143.613C60.7734 143.44 60.6183 143.009 60.7892 142.645L60.7947 142.633L63.6873 136.77C63.8504 136.439 64.2508 136.304 64.582 136.467C64.9087 136.628 65.0456 137.022 64.8909 137.351L64.8755 137.384Z" fill="white"/>
<path d="M59.0496 150.941L57.0484 157.079L57.0335 157.124C56.8864 157.576 56.4026 157.821 55.9522 157.675C55.5016 157.528 55.2554 157.044 55.4024 156.593L55.4071 156.577L57.5473 150.391C57.6918 149.973 58.1472 149.751 58.5646 149.895C58.9774 150.039 59.1981 150.485 59.0635 150.898L59.0496 150.941Z" fill="white"/>
<path d="M54.9865 165.109L53.7929 171.443L53.7822 171.499C53.6844 172.017 53.1855 172.358 52.6672 172.261C52.149 172.163 51.808 171.662 51.9059 171.146L51.9076 171.135L53.1917 164.706C53.2914 164.209 53.7757 163.885 54.2735 163.984C54.7678 164.082 55.0899 164.562 54.9968 165.057L54.9865 165.109Z" fill="white"/>
<path d="M52.8181 179.667L52.5024 186.098L52.4991 186.159C52.4712 186.732 51.9855 187.172 51.4144 187.143C50.8432 187.115 50.4027 186.63 50.431 186.059L50.4317 186.048L50.8243 179.498C50.8577 178.947 51.3309 178.527 51.8821 178.559C52.4297 178.593 52.8476 179.06 52.8211 179.606L52.8181 179.667Z" fill="white"/>
<path d="M52.6673 194.376L53.2376 200.785L53.2436 200.853C53.2981 201.466 52.845 202.008 52.2311 202.064C51.6172 202.118 51.0752 201.665 51.0204 201.052L51.0194 201.039L50.5082 194.49C50.4617 193.896 50.9063 193.375 51.501 193.33C52.0918 193.283 52.6088 193.721 52.6613 194.31L52.6673 194.376Z" fill="white"/>
<path d="M54.5352 208.953L55.9758 215.22L55.9917 215.289C56.1399 215.933 55.7374 216.575 55.0936 216.723C54.4494 216.871 53.8073 216.47 53.6591 215.826L53.6565 215.813L52.254 209.393C52.1173 208.766 52.5143 208.147 53.1405 208.01C53.7624 207.874 54.3772 208.265 54.5195 208.884L54.5352 208.953Z" fill="white"/>
<path d="M58.367 223.133L60.6141 229.156L60.6393 229.223C60.8823 229.875 60.5513 230.599 59.9002 230.843C59.2496 231.085 58.525 230.754 58.282 230.104L58.2798 230.097L56.0131 223.927C55.7764 223.283 56.1067 222.57 56.75 222.333C57.3939 222.096 58.1072 222.427 58.3439 223.071L58.367 223.133Z" fill="white"/>
<path d="M63.9973 236.7L67.0009 242.386L67.0347 242.449C67.3658 243.076 67.1261 243.853 66.4986 244.185C65.8715 244.516 65.0939 244.277 64.7629 243.649L64.7607 243.645L61.7109 237.822C61.385 237.2 61.625 236.43 62.2479 236.104C62.8708 235.778 63.6402 236.018 63.9661 236.641L63.9973 236.7Z" fill="white"/>
<path d="M71.3178 249.435L75.0119 254.699L75.0531 254.757C75.4689 255.35 75.326 256.167 74.7339 256.584C74.1405 257 73.3232 256.857 72.9061 256.264L72.9035 256.26L69.1467 250.867C68.7361 250.278 68.8809 249.468 69.47 249.057C70.0589 248.648 70.8685 248.792 71.2791 249.381L71.3178 249.435Z" fill="white"/>
<path d="M80.1751 261.152L84.4974 265.91L84.5476 265.965C85.0445 266.512 85.0046 267.358 84.4562 267.855C83.9105 268.353 83.0635 268.312 82.5667 267.765L82.5628 267.762L78.1594 262.879C77.669 262.335 77.7115 261.496 78.256 261.006C78.7992 260.515 79.6384 260.558 80.1288 261.102L80.1751 261.152Z" fill="white"/>
<path d="M90.4325 271.654L95.3341 275.802L95.3958 275.855C95.9712 276.343 96.0433 277.204 95.5555 277.778C95.0689 278.354 94.2078 278.426 93.6324 277.939L93.6286 277.935L88.6189 273.665C88.0513 273.181 87.9831 272.326 88.4683 271.757C88.9523 271.189 89.807 271.121 90.3759 271.606L90.4325 271.654Z" fill="white"/>
<path d="M101.986 280.67L104.703 282.363L106.061 283.212C106.517 283.488 106.96 283.788 107.427 284.046C108.1 284.416 108.345 285.263 107.973 285.937C107.602 286.61 106.755 286.854 106.082 286.482L106.077 286.48L106.041 286.459C105.559 286.191 105.104 285.883 104.635 285.596L103.238 284.718L100.447 282.961C99.8004 282.555 99.6074 281.704 100.013 281.06C100.418 280.415 101.27 280.22 101.915 280.626L101.986 280.67Z" fill="white"/>
<path d="M114.75 287.79C116.691 288.676 118.661 289.499 120.659 290.252C121.383 290.524 121.749 291.332 121.476 292.055C121.204 292.779 120.399 293.146 119.676 292.873C117.616 292.103 115.581 291.264 113.581 290.35C112.874 290.027 112.563 289.193 112.886 288.486C113.208 287.778 114.043 287.468 114.75 287.79Z" fill="white"/>
<path d="M128.485 292.821L134.708 294.365L134.792 294.385C135.533 294.569 135.984 295.318 135.8 296.058C135.617 296.799 134.872 297.25 134.132 297.066L127.733 295.496C126.988 295.315 126.532 294.562 126.715 293.818C126.898 293.072 127.65 292.617 128.395 292.799H128.399L128.485 292.821Z" fill="white"/>
<path d="M142.835 295.782L149.222 296.462L149.3 296.47C150.046 296.549 150.587 297.219 150.507 297.965C150.428 298.712 149.763 299.254 149.016 299.174L142.472 298.499C141.719 298.422 141.171 297.749 141.25 296.996C141.327 296.243 142 295.696 142.753 295.773L142.757 295.774L142.835 295.782Z" fill="white"/>
<path d="M157.477 296.83L163.908 296.727L163.977 296.726C164.696 296.714 165.288 297.288 165.301 298.008C165.312 298.723 164.743 299.314 164.028 299.332L157.462 299.488C156.728 299.505 156.119 298.924 156.102 298.191C156.085 297.458 156.664 296.849 157.399 296.831H157.408L157.477 296.83Z" fill="white"/>
<path d="M172.162 296.116L178.552 295.288L178.609 295.282C179.291 295.193 179.917 295.674 180.005 296.356C180.093 297.036 179.617 297.658 178.939 297.752L172.44 298.646C171.743 298.742 171.102 298.255 171.006 297.559C170.91 296.864 171.398 296.221 172.093 296.126L172.102 296.124L172.162 296.116Z" fill="white"/>
<path d="M186.709 293.816L192.991 292.352L193.039 292.342C193.649 292.199 194.261 292.579 194.404 293.192C194.544 293.797 194.172 294.403 193.571 294.552L187.214 296.133C186.578 296.29 185.935 295.904 185.777 295.268C185.619 294.633 186.007 293.99 186.642 293.833L186.653 293.83L186.709 293.816Z" fill="white"/>
<path d="M200.969 290.08L207.09 288.018L207.128 288.005C207.666 287.823 208.25 288.113 208.43 288.651C208.61 289.184 208.327 289.761 207.798 289.947L201.63 292.128C201.068 292.326 200.453 292.032 200.256 291.471C200.059 290.911 200.352 290.297 200.912 290.099L200.922 290.095L200.969 290.08Z" fill="white"/>
<path d="M214.834 285.009L220.752 282.403L220.783 282.389C221.249 282.184 221.79 282.394 221.995 282.858C222.197 283.318 221.992 283.855 221.538 284.063L215.594 286.787C215.108 287.01 214.535 286.796 214.313 286.311C214.09 285.825 214.302 285.252 214.787 285.03L214.796 285.026L214.834 285.009Z" fill="white"/>
<path d="M228.223 278.747L233.917 275.669L233.943 275.656C234.308 275.459 234.763 275.595 234.959 275.96C235.155 276.32 235.026 276.768 234.672 276.97L229.004 280.212C228.606 280.44 228.099 280.303 227.871 279.905C227.642 279.506 227.781 278.998 228.18 278.771L228.193 278.763L228.223 278.747Z" fill="white"/>
<path d="M241.074 271.413L246.504 267.879L246.521 267.868C246.787 267.696 247.142 267.77 247.315 268.036C247.485 268.297 247.413 268.644 247.159 268.821L241.778 272.509C241.481 272.712 241.078 272.637 240.873 272.34C240.67 272.044 240.745 271.639 241.042 271.435L241.054 271.427L241.074 271.413Z" fill="white"/>
<path d="M253.346 263.066L255.97 261.1L255.976 261.096C256.148 260.966 256.394 261.001 256.524 261.175C256.652 261.345 256.619 261.585 256.456 261.717L253.885 263.775C253.693 263.929 253.412 263.898 253.257 263.705C253.104 263.514 253.135 263.233 253.327 263.08L253.338 263.072L253.346 263.066Z" fill="white"/>
<defs>
<linearGradient id="paint0_linear" x1="448.835" y1="-209.956" x2="261.217" y2="-27.4359" gradientUnits="userSpaceOnUse">
<stop stop-color="#FDF53F"/>
<stop offset="1" stop-color="#D93C65"/>
</linearGradient>
<linearGradient id="paint1_linear" x1="427.921" y1="-141.415" x2="255.149" y2="26.6629" gradientUnits="userSpaceOnUse">
<stop stop-color="#FDF53F"/>
<stop offset="1" stop-color="#D93C65"/>
</linearGradient>
<linearGradient id="paint2_linear" x1="271.596" y1="71.8415" x2="170.679" y2="182.879" gradientUnits="userSpaceOnUse">
<stop stop-color="#A737D5"/>
<stop offset="1" stop-color="#EF497A"/>
</linearGradient>
<linearGradient id="paint3_linear" x1="275.823" y1="89.9104" x2="177.169" y2="198.46" gradientUnits="userSpaceOnUse">
<stop stop-color="#A737D5"/>
<stop offset="1" stop-color="#EF497A"/>
</linearGradient>
<linearGradient id="paint4_linear" x1="272.787" y1="129.265" x2="152.09" y2="239.675" gradientUnits="userSpaceOnUse">
<stop stop-color="#A737D5"/>
<stop offset="1" stop-color="#EF497A"/>
</linearGradient>
<linearGradient id="paint5_linear" x1="282.717" y1="124.56" x2="188.576" y2="228.143" gradientUnits="userSpaceOnUse">
<stop stop-color="#A737D5"/>
<stop offset="1" stop-color="#EF497A"/>
</linearGradient>
<linearGradient id="paint6_linear" x1="130.875" y1="143.032" x2="89.7961" y2="263.097" gradientUnits="userSpaceOnUse">
<stop stop-color="#A737D5"/>
<stop offset="1" stop-color="#EF497A"/>
</linearGradient>
<linearGradient id="paint7_linear" x1="360.678" y1="228.731" x2="334.503" y2="-546.056" gradientUnits="userSpaceOnUse">
<stop stop-color="#F03D5F"/>
<stop offset="1" stop-color="#EC0F0F"/>
</linearGradient>
<linearGradient id="paint8_linear" x1="235.819" y1="-122.964" x2="314.657" y2="14.2138" gradientUnits="userSpaceOnUse">
<stop stop-color="#FF928E"/>
<stop offset="1" stop-color="#FE7062"/>
</linearGradient>
<linearGradient id="paint9_linear" x1="194.334" y1="-69.1567" x2="266.597" y2="56.5803" gradientUnits="userSpaceOnUse">
<stop stop-color="#FF928E"/>
<stop offset="1" stop-color="#FE7062"/>
</linearGradient>
<linearGradient id="paint10_linear" x1="121.466" y1="106.059" x2="307.259" y2="254.574" gradientUnits="userSpaceOnUse">
<stop stop-color="#FF4F4F"/>
<stop offset="1" stop-color="#E24040"/>
</linearGradient>
<linearGradient id="paint11_linear" x1="168.861" y1="41.3021" x2="368.404" y2="200.809" gradientUnits="userSpaceOnUse">
<stop stop-color="#FF4F4F"/>
<stop offset="1" stop-color="#E24040"/>
</linearGradient>
<linearGradient id="paint12_linear" x1="163.239" y1="141.077" x2="101.023" y2="247.266" gradientUnits="userSpaceOnUse">
<stop stop-color="#FF4F4F"/>
<stop offset="1" stop-color="#E24040"/>
</linearGradient>
<linearGradient id="paint13_linear" x1="167.577" y1="155.539" x2="107.238" y2="258.525" gradientUnits="userSpaceOnUse">
<stop stop-color="#FF4F4F"/>
<stop offset="1" stop-color="#E24040"/>
</linearGradient>
<linearGradient id="paint14_linear" x1="176.864" y1="180.927" x2="97.47" y2="291.625" gradientUnits="userSpaceOnUse">
<stop stop-color="#FF4F4F"/>
<stop offset="1" stop-color="#E24040"/>
</linearGradient>
<linearGradient id="paint15_linear" x1="189.671" y1="168.488" x2="129.331" y2="271.474" gradientUnits="userSpaceOnUse">
<stop stop-color="#FF4F4F"/>
<stop offset="1" stop-color="#E24040"/>
</linearGradient>
<linearGradient id="paint16_linear" x1="448.233" y1="-384.132" x2="304.111" y2="-194.542" gradientUnits="userSpaceOnUse">
<stop stop-color="#2B3582"/>
<stop offset="1" stop-color="#150E42"/>
</linearGradient>
<linearGradient id="paint17_linear" x1="434.064" y1="-327.531" x2="298.199" y2="-148.803" gradientUnits="userSpaceOnUse">
<stop stop-color="#2B3582"/>
<stop offset="1" stop-color="#150E42"/>
</linearGradient>
<linearGradient id="paint18_linear" x1="371.022" y1="-91.0942" x2="483.192" y2="-251.232" gradientUnits="userSpaceOnUse">
<stop stop-color="#FF928E"/>
<stop offset="1" stop-color="#FE7062"/>
</linearGradient>
<linearGradient id="paint19_linear" x1="403.198" y1="-295.733" x2="312.094" y2="-128.448" gradientUnits="userSpaceOnUse">
<stop stop-color="#F03D5F"/>
<stop offset="1" stop-color="#D22949"/>
</linearGradient>
<linearGradient id="paint20_linear" x1="602.808" y1="275.972" x2="561.039" y2="275.972" gradientUnits="userSpaceOnUse">
<stop stop-color="#090056"/>
<stop offset="1" stop-color="#020039"/>
</linearGradient>
<linearGradient id="paint21_linear" x1="529.521" y1="222.795" x2="616.561" y2="322.671" gradientUnits="userSpaceOnUse">
<stop stop-color="#090056"/>
<stop offset="1" stop-color="#020039"/>
</linearGradient>
<linearGradient id="paint22_linear" x1="757.865" y1="261.652" x2="736.135" y2="261.652" gradientUnits="userSpaceOnUse">
<stop stop-color="#090056"/>
<stop offset="1" stop-color="#020039"/>
</linearGradient>
<linearGradient id="paint23_linear" x1="647.747" y1="156.319" x2="744.434" y2="267.264" gradientUnits="userSpaceOnUse">
<stop stop-color="#090056"/>
<stop offset="1" stop-color="#020039"/>
</linearGradient>
<linearGradient id="paint24_linear" x1="739.586" y1="248.455" x2="725.645" y2="248.455" gradientUnits="userSpaceOnUse">
<stop stop-color="#FEBBBA"/>
<stop offset="1" stop-color="#FF928E"/>
</linearGradient>
<linearGradient id="paint25_linear" x1="598.718" y1="262.187" x2="588.173" y2="262.187" gradientUnits="userSpaceOnUse">
<stop stop-color="#FEBBBA"/>
<stop offset="1" stop-color="#FF928E"/>
</linearGradient>
<linearGradient id="paint26_linear" x1="963.516" y1="306.61" x2="699.667" y2="173.694" gradientUnits="userSpaceOnUse">
<stop stop-color="#090056"/>
<stop offset="1" stop-color="#020039"/>
</linearGradient>
<linearGradient id="paint27_linear" x1="573.828" y1="99.4111" x2="617.08" y2="155.329" gradientUnits="userSpaceOnUse">
<stop stop-color="#CB236D"/>
<stop offset="1" stop-color="#4C246D"/>
</linearGradient>
<linearGradient id="paint28_linear" x1="544.325" y1="-89.7151" x2="700.651" y2="203.839" gradientUnits="userSpaceOnUse">
<stop stop-color="#F03D5F"/>
<stop offset="1" stop-color="#F03D5F"/>
</linearGradient>
<linearGradient id="paint29_linear" x1="565.426" y1="3.95221" x2="563.805" y2="-26.2724" gradientUnits="userSpaceOnUse">
<stop stop-color="#FEBBBA"/>
<stop offset="1" stop-color="#FF928E"/>
</linearGradient>
<linearGradient id="paint30_linear" x1="558.285" y1="-49.0293" x2="588.574" y2="-20.2222" gradientUnits="userSpaceOnUse">
<stop stop-color="#FEBBBA"/>
<stop offset="1" stop-color="#FF928E"/>
</linearGradient>
<linearGradient id="paint31_linear" x1="559.923" y1="-66.6017" x2="644.226" y2="-43.7197" gradientUnits="userSpaceOnUse">
<stop stop-color="#090056"/>
<stop offset="1" stop-color="#020039"/>
</linearGradient>
<linearGradient id="paint32_linear" x1="561.906" y1="-53.1621" x2="592.144" y2="-24.4036" gradientUnits="userSpaceOnUse">
<stop stop-color="#FEBBBA"/>
<stop offset="1" stop-color="#FF928E"/>
</linearGradient>
<linearGradient id="paint33_linear" x1="580.494" y1="-108.089" x2="850.259" y2="191.376" gradientUnits="userSpaceOnUse">
<stop stop-color="#FF928E"/>
<stop offset="1" stop-color="#FE7062"/>
</linearGradient>
<linearGradient id="paint34_linear" x1="562.224" y1="-62.7322" x2="724.948" y2="155.128" gradientUnits="userSpaceOnUse">
<stop stop-color="#FF928E"/>
<stop offset="1" stop-color="#FE7062"/>
</linearGradient>
<linearGradient id="paint35_linear" x1="463.301" y1="11.8804" x2="600.119" y2="195.058" gradientUnits="userSpaceOnUse">
<stop stop-color="#FF928E"/>
<stop offset="1" stop-color="#FE7062"/>
</linearGradient>
<linearGradient id="paint36_linear" x1="604.12" y1="-130.578" x2="768.542" y2="178.178" gradientUnits="userSpaceOnUse">
<stop stop-color="#F03D5F"/>
<stop offset="1" stop-color="#F03D5F"/>
</linearGradient>
<linearGradient id="paint37_linear" x1="670.24" y1="88.7794" x2="724.78" y2="10.3583" gradientUnits="userSpaceOnUse">
<stop stop-color="#FEBBBA"/>
<stop offset="1" stop-color="#FF928E"/>
</linearGradient>
</defs>
</svg>
