<svg width="22" height="29" viewBox="0 0 22 29" fill="none" xmlns="http://www.w3.org/2000/svg">
<path d="M20.9476 28.0516C20.6433 28.0516 20.3467 27.9194 20.1426 27.6776L11 16.8377L1.85741 27.6776C1.57242 28.0156 1.10653 28.1392 0.691421 27.9877C0.276232 27.836 0 27.441 0 26.999V1.05271C0 0.471362 0.471362 0 1.05271 0H20.9473C21.5286 0 22 0.471362 22 1.05271V26.9988C22 27.4408 21.7238 27.8358 21.3086 27.9876C21.1905 28.0307 21.0684 28.0516 20.9476 28.0516ZM11 14.1521C11.3103 14.1521 11.6047 14.2889 11.8047 14.5261L19.8947 24.1178V2.10542H2.10542V24.1178L10.1953 14.5261C10.3953 14.2889 10.6897 14.1521 11 14.1521Z" fill="#F03D5F"/>
</svg>
