<svg width="145" height="19" viewBox="0 0 145 19" fill="none" xmlns="http://www.w3.org/2000/svg">
<path d="M13.9453 12.3164C13.8125 14.1523 13.1328 15.5977 11.9062 16.6523C10.6875 17.707 9.07812 18.2344 7.07812 18.2344C4.89062 18.2344 3.16797 17.5 1.91016 16.0312C0.660156 14.5547 0.0351562 12.5312 0.0351562 9.96094V8.91797C0.0351562 7.27734 0.324219 5.83203 0.902344 4.58203C1.48047 3.33203 2.30469 2.375 3.375 1.71094C4.45312 1.03906 5.70312 0.703125 7.125 0.703125C9.09375 0.703125 10.6797 1.23047 11.8828 2.28516C13.0859 3.33984 13.7812 4.82031 13.9688 6.72656H10.4531C10.3672 5.625 10.0586 4.82812 9.52734 4.33594C9.00391 3.83594 8.20312 3.58594 7.125 3.58594C5.95312 3.58594 5.07422 4.00781 4.48828 4.85156C3.91016 5.6875 3.61328 6.98828 3.59766 8.75391V10.043C3.59766 11.8867 3.875 13.2344 4.42969 14.0859C4.99219 14.9375 5.875 15.3633 7.07812 15.3633C8.16406 15.3633 8.97266 15.1172 9.50391 14.625C10.043 14.125 10.3516 13.3555 10.4297 12.3164H13.9453ZM23.3789 18C23.2227 17.6953 23.1094 17.3164 23.0391 16.8633C22.2188 17.7773 21.1523 18.2344 19.8398 18.2344C18.5977 18.2344 17.5664 17.875 16.7461 17.1562C15.9336 16.4375 15.5273 15.5312 15.5273 14.4375C15.5273 13.0938 16.0234 12.0625 17.0156 11.3438C18.0156 10.625 19.457 10.2617 21.3398 10.2539H22.8984V9.52734C22.8984 8.94141 22.7461 8.47266 22.4414 8.12109C22.1445 7.76953 21.6719 7.59375 21.0234 7.59375C20.4531 7.59375 20.0039 7.73047 19.6758 8.00391C19.3555 8.27734 19.1953 8.65234 19.1953 9.12891H15.8086C15.8086 8.39453 16.0352 7.71484 16.4883 7.08984C16.9414 6.46484 17.582 5.97656 18.4102 5.625C19.2383 5.26562 20.168 5.08594 21.1992 5.08594C22.7617 5.08594 24 5.48047 24.9141 6.26953C25.8359 7.05078 26.2969 8.15234 26.2969 9.57422V15.0703C26.3047 16.2734 26.4727 17.1836 26.8008 17.8008V18H23.3789ZM20.5781 15.6445C21.0781 15.6445 21.5391 15.5352 21.9609 15.3164C22.3828 15.0898 22.6953 14.7891 22.8984 14.4141V12.2344H21.6328C19.9375 12.2344 19.0352 12.8203 18.9258 13.9922L18.9141 14.1914C18.9141 14.6133 19.0625 14.9609 19.3594 15.2344C19.6562 15.5078 20.0625 15.6445 20.5781 15.6445ZM33.7266 9.10547L35.8594 5.32031H39.4805L35.8711 11.5312L39.6328 18H36L33.7383 14.0156L31.4883 18H27.8438L31.6055 11.5312L28.0078 5.32031H31.6406L33.7266 9.10547ZM45.1641 2.20312V5.32031H47.332V7.80469H45.1641V14.1328C45.1641 14.6016 45.2539 14.9375 45.4336 15.1406C45.6133 15.3438 45.957 15.4453 46.4648 15.4453C46.8398 15.4453 47.1719 15.418 47.4609 15.3633V17.9297C46.7969 18.1328 46.1133 18.2344 45.4102 18.2344C43.0352 18.2344 41.8242 17.0352 41.7773 14.6367V7.80469H39.9258V5.32031H41.7773V2.20312H45.1641ZM48.3398 11.543C48.3398 10.2852 48.582 9.16406 49.0664 8.17969C49.5508 7.19531 50.2461 6.43359 51.1523 5.89453C52.0664 5.35547 53.125 5.08594 54.3281 5.08594C56.0391 5.08594 57.4336 5.60938 58.5117 6.65625C59.5977 7.70312 60.2031 9.125 60.3281 10.9219L60.3516 11.7891C60.3516 13.7344 59.8086 15.2969 58.7227 16.4766C57.6367 17.6484 56.1797 18.2344 54.3516 18.2344C52.5234 18.2344 51.0625 17.6484 49.9688 16.4766C48.8828 15.3047 48.3398 13.7109 48.3398 11.6953V11.543ZM51.7266 11.7891C51.7266 12.9922 51.9531 13.9141 52.4062 14.5547C52.8594 15.1875 53.5078 15.5039 54.3516 15.5039C55.1719 15.5039 55.8125 15.1914 56.2734 14.5664C56.7344 13.9336 56.9648 12.9258 56.9648 11.543C56.9648 10.3633 56.7344 9.44922 56.2734 8.80078C55.8125 8.15234 55.1641 7.82812 54.3281 7.82812C53.5 7.82812 52.8594 8.15234 52.4062 8.80078C51.9531 9.44141 51.7266 10.4375 51.7266 11.7891ZM65.5547 5.32031L65.6602 6.78516C66.5664 5.65234 67.7812 5.08594 69.3047 5.08594C70.6484 5.08594 71.6484 5.48047 72.3047 6.26953C72.9609 7.05859 73.2969 8.23828 73.3125 9.80859V18H69.9258V9.89062C69.9258 9.17188 69.7695 8.65234 69.457 8.33203C69.1445 8.00391 68.625 7.83984 67.8984 7.83984C66.9453 7.83984 66.2305 8.24609 65.7539 9.05859V18H62.3672V5.32031H65.5547Z" fill="#F03D5F"/>
<path d="M13.9453 12.3164C13.8125 14.1523 13.1328 15.5977 11.9062 16.6523C10.6875 17.707 9.07812 18.2344 7.07812 18.2344C4.89062 18.2344 3.16797 17.5 1.91016 16.0312C0.660156 14.5547 0.0351562 12.5312 0.0351562 9.96094V8.91797C0.0351562 7.27734 0.324219 5.83203 0.902344 4.58203C1.48047 3.33203 2.30469 2.375 3.375 1.71094C4.45312 1.03906 5.70312 0.703125 7.125 0.703125C9.09375 0.703125 10.6797 1.23047 11.8828 2.28516C13.0859 3.33984 13.7812 4.82031 13.9688 6.72656H10.4531C10.3672 5.625 10.0586 4.82812 9.52734 4.33594C9.00391 3.83594 8.20312 3.58594 7.125 3.58594C5.95312 3.58594 5.07422 4.00781 4.48828 4.85156C3.91016 5.6875 3.61328 6.98828 3.59766 8.75391V10.043C3.59766 11.8867 3.875 13.2344 4.42969 14.0859C4.99219 14.9375 5.875 15.3633 7.07812 15.3633C8.16406 15.3633 8.97266 15.1172 9.50391 14.625C10.043 14.125 10.3516 13.3555 10.4297 12.3164H13.9453ZM23.3789 18C23.2227 17.6953 23.1094 17.3164 23.0391 16.8633C22.2188 17.7773 21.1523 18.2344 19.8398 18.2344C18.5977 18.2344 17.5664 17.875 16.7461 17.1562C15.9336 16.4375 15.5273 15.5312 15.5273 14.4375C15.5273 13.0938 16.0234 12.0625 17.0156 11.3438C18.0156 10.625 19.457 10.2617 21.3398 10.2539H22.8984V9.52734C22.8984 8.94141 22.7461 8.47266 22.4414 8.12109C22.1445 7.76953 21.6719 7.59375 21.0234 7.59375C20.4531 7.59375 20.0039 7.73047 19.6758 8.00391C19.3555 8.27734 19.1953 8.65234 19.1953 9.12891H15.8086C15.8086 8.39453 16.0352 7.71484 16.4883 7.08984C16.9414 6.46484 17.582 5.97656 18.4102 5.625C19.2383 5.26562 20.168 5.08594 21.1992 5.08594C22.7617 5.08594 24 5.48047 24.9141 6.26953C25.8359 7.05078 26.2969 8.15234 26.2969 9.57422V15.0703C26.3047 16.2734 26.4727 17.1836 26.8008 17.8008V18H23.3789ZM20.5781 15.6445C21.0781 15.6445 21.5391 15.5352 21.9609 15.3164C22.3828 15.0898 22.6953 14.7891 22.8984 14.4141V12.2344H21.6328C19.9375 12.2344 19.0352 12.8203 18.9258 13.9922L18.9141 14.1914C18.9141 14.6133 19.0625 14.9609 19.3594 15.2344C19.6562 15.5078 20.0625 15.6445 20.5781 15.6445ZM33.7266 9.10547L35.8594 5.32031H39.4805L35.8711 11.5312L39.6328 18H36L33.7383 14.0156L31.4883 18H27.8438L31.6055 11.5312L28.0078 5.32031H31.6406L33.7266 9.10547ZM45.1641 2.20312V5.32031H47.332V7.80469H45.1641V14.1328C45.1641 14.6016 45.2539 14.9375 45.4336 15.1406C45.6133 15.3438 45.957 15.4453 46.4648 15.4453C46.8398 15.4453 47.1719 15.418 47.4609 15.3633V17.9297C46.7969 18.1328 46.1133 18.2344 45.4102 18.2344C43.0352 18.2344 41.8242 17.0352 41.7773 14.6367V7.80469H39.9258V5.32031H41.7773V2.20312H45.1641ZM48.3398 11.543C48.3398 10.2852 48.582 9.16406 49.0664 8.17969C49.5508 7.19531 50.2461 6.43359 51.1523 5.89453C52.0664 5.35547 53.125 5.08594 54.3281 5.08594C56.0391 5.08594 57.4336 5.60938 58.5117 6.65625C59.5977 7.70312 60.2031 9.125 60.3281 10.9219L60.3516 11.7891C60.3516 13.7344 59.8086 15.2969 58.7227 16.4766C57.6367 17.6484 56.1797 18.2344 54.3516 18.2344C52.5234 18.2344 51.0625 17.6484 49.9688 16.4766C48.8828 15.3047 48.3398 13.7109 48.3398 11.6953V11.543ZM51.7266 11.7891C51.7266 12.9922 51.9531 13.9141 52.4062 14.5547C52.8594 15.1875 53.5078 15.5039 54.3516 15.5039C55.1719 15.5039 55.8125 15.1914 56.2734 14.5664C56.7344 13.9336 56.9648 12.9258 56.9648 11.543C56.9648 10.3633 56.7344 9.44922 56.2734 8.80078C55.8125 8.15234 55.1641 7.82812 54.3281 7.82812C53.5 7.82812 52.8594 8.15234 52.4062 8.80078C51.9531 9.44141 51.7266 10.4375 51.7266 11.7891ZM65.5547 5.32031L65.6602 6.78516C66.5664 5.65234 67.7812 5.08594 69.3047 5.08594C70.6484 5.08594 71.6484 5.48047 72.3047 6.26953C72.9609 7.05859 73.2969 8.23828 73.3125 9.80859V18H69.9258V9.89062C69.9258 9.17188 69.7695 8.65234 69.457 8.33203C69.1445 8.00391 68.625 7.83984 67.8984 7.83984C66.9453 7.83984 66.2305 8.24609 65.7539 9.05859V18H62.3672V5.32031H65.5547Z" fill="#3F3D56"/>
<path d="M85.6055 11.9883V18H82.0898V0.9375H88.7461C90.0273 0.9375 91.1523 1.17188 92.1211 1.64062C93.0977 2.10938 93.8477 2.77734 94.3711 3.64453C94.8945 4.50391 95.1562 5.48438 95.1562 6.58594C95.1562 8.25781 94.582 9.57812 93.4336 10.5469C92.293 11.5078 90.7109 11.9883 88.6875 11.9883H85.6055ZM85.6055 9.14062H88.7461C89.6758 9.14062 90.3828 8.92188 90.8672 8.48438C91.3594 8.04688 91.6055 7.42188 91.6055 6.60938C91.6055 5.77344 91.3594 5.09766 90.8672 4.58203C90.375 4.06641 89.6953 3.80078 88.8281 3.78516H85.6055V9.14062ZM104.484 8.49609C104.023 8.43359 103.617 8.40234 103.266 8.40234C101.984 8.40234 101.145 8.83594 100.746 9.70312V18H97.3594V5.32031H100.559L100.652 6.83203C101.332 5.66797 102.273 5.08594 103.477 5.08594C103.852 5.08594 104.203 5.13672 104.531 5.23828L104.484 8.49609ZM109.699 18H106.301V5.32031H109.699V18ZM106.102 2.03906C106.102 1.53125 106.27 1.11328 106.605 0.785156C106.949 0.457031 107.414 0.292969 108 0.292969C108.578 0.292969 109.039 0.457031 109.383 0.785156C109.727 1.11328 109.898 1.53125 109.898 2.03906C109.898 2.55469 109.723 2.97656 109.371 3.30469C109.027 3.63281 108.57 3.79688 108 3.79688C107.43 3.79688 106.969 3.63281 106.617 3.30469C106.273 2.97656 106.102 2.55469 106.102 2.03906ZM115.676 5.32031L115.781 6.73828C116.68 5.63672 117.895 5.08594 119.426 5.08594C121.059 5.08594 122.18 5.73047 122.789 7.01953C123.68 5.73047 124.949 5.08594 126.598 5.08594C127.973 5.08594 128.996 5.48828 129.668 6.29297C130.34 7.08984 130.676 8.29297 130.676 9.90234V18H127.277V9.91406C127.277 9.19531 127.137 8.67188 126.855 8.34375C126.574 8.00781 126.078 7.83984 125.367 7.83984C124.352 7.83984 123.648 8.32422 123.258 9.29297L123.27 18H119.883V9.92578C119.883 9.19141 119.738 8.66016 119.449 8.33203C119.16 8.00391 118.668 7.83984 117.973 7.83984C117.012 7.83984 116.316 8.23828 115.887 9.03516V18H112.5V5.32031H115.676ZM139.125 18.2344C137.266 18.2344 135.75 17.6641 134.578 16.5234C133.414 15.3828 132.832 13.8633 132.832 11.9648V11.6367C132.832 10.3633 133.078 9.22656 133.57 8.22656C134.062 7.21875 134.758 6.44531 135.656 5.90625C136.562 5.35938 137.594 5.08594 138.75 5.08594C140.484 5.08594 141.848 5.63281 142.84 6.72656C143.84 7.82031 144.34 9.37109 144.34 11.3789V12.7617H136.266C136.375 13.5898 136.703 14.2539 137.25 14.7539C137.805 15.2539 138.504 15.5039 139.348 15.5039C140.652 15.5039 141.672 15.0312 142.406 14.0859L144.07 15.9492C143.562 16.668 142.875 17.2305 142.008 17.6367C141.141 18.0352 140.18 18.2344 139.125 18.2344ZM138.738 7.82812C138.066 7.82812 137.52 8.05469 137.098 8.50781C136.684 8.96094 136.418 9.60938 136.301 10.4531H141.012V10.1836C140.996 9.43359 140.793 8.85547 140.402 8.44922C140.012 8.03516 139.457 7.82812 138.738 7.82812Z" fill="#F03D5F"/>
</svg>
