<svg width="58" height="58" viewBox="0 0 58 58" fill="none" xmlns="http://www.w3.org/2000/svg">
<path d="M29 10.875C24.519 10.875 20.1387 12.2038 16.4129 14.6933C12.6871 17.1828 9.78316 20.7212 8.06836 24.8611C6.35357 29.001 5.9049 33.5564 6.77909 37.9513C7.65329 42.3461 9.81109 46.3831 12.9796 49.5516C16.1482 52.7202 20.1851 54.878 24.58 55.7522C28.9749 56.6264 33.5303 56.1777 37.6702 54.4629C41.8101 52.7481 45.3485 49.8442 47.838 46.1184C50.3275 42.3926 51.6563 38.0122 51.6563 33.5312C51.6563 30.556 51.0702 27.6099 49.9317 24.8611C48.7931 22.1123 47.1242 19.6147 45.0204 17.5109C42.9166 15.407 40.419 13.7382 37.6702 12.5996C34.9214 11.461 31.9753 10.875 29 10.875ZM29 52.5625C25.236 52.5625 21.5565 51.4463 18.4268 49.3552C15.2971 47.264 12.8579 44.2917 11.4174 40.8142C9.977 37.3367 9.60012 33.5101 10.3344 29.8184C11.0688 26.1267 12.8813 22.7357 15.5429 20.0741C18.2045 17.4126 21.5955 15.6 25.2872 14.8657C28.9789 14.1314 32.8054 14.5082 36.283 15.9487C39.7605 17.3891 42.7327 19.8284 44.8239 22.9581C46.9151 26.0877 48.0313 29.7672 48.0313 33.5312C48.0313 38.5787 46.0262 43.4193 42.4571 46.9884C38.8881 50.5574 34.0474 52.5625 29 52.5625Z" fill="#F4B2B0"/>
<path d="M29 36.25C28.2789 36.25 27.5874 35.9636 27.0776 35.4537C26.5677 34.9438 26.2812 34.2523 26.2812 33.5312L19.9375 39.875L18.125 44.4062L22.6562 42.5938L29 36.25Z" fill="#F4B2B0"/>
<path d="M36.25 33.5312C36.25 31.6084 35.4862 29.7644 34.1265 28.4047C32.7669 27.0451 30.9228 26.2812 29 26.2812V19.0312C32.8456 19.0313 36.5338 20.5589 39.253 23.2782C41.9723 25.9975 43.5 29.6856 43.5 33.5312H36.25Z" fill="#F4B2B0"/>
<path d="M45.3814 16.6188L47.7657 14.2345C47.9356 14.0645 48.0311 13.8341 48.0311 13.5938C48.0311 13.3534 47.9356 13.123 47.7657 12.953L45.047 10.2343C44.877 10.0644 44.6466 9.96894 44.4063 9.96894C44.166 9.96894 43.9355 10.0644 43.7655 10.2343L40.832 13.1678C38.5699 11.8465 36.102 10.9143 33.5313 10.4101V8.15625C34.2523 8.15625 34.9438 7.86981 35.4537 7.35995C35.9636 6.85008 36.25 6.15856 36.25 5.4375V3.625C36.25 2.90394 35.9636 2.21242 35.4537 1.70255C34.9438 1.19269 34.2523 0.90625 33.5313 0.90625H24.4688C23.7477 0.90625 23.0562 1.19269 22.5463 1.70255C22.0364 2.21242 21.75 2.90394 21.75 3.625V5.4375C21.75 6.15856 22.0364 6.85008 22.5463 7.35995C23.0562 7.86981 23.7477 8.15625 24.4688 8.15625V10.4101C21.898 10.9143 19.4301 11.8465 17.168 13.1678L14.2345 10.2343C14.0645 10.0644 13.8341 9.96894 13.5938 9.96894C13.3535 9.96894 13.123 10.0644 12.953 10.2343L10.2343 12.953C10.0644 13.123 9.96895 13.3534 9.96895 13.5938C9.96895 13.8341 10.0644 14.0645 10.2343 14.2345L12.6186 16.6188C9.2449 19.882 6.92261 24.0784 5.94949 28.6701C4.97636 33.2617 5.39675 38.0394 7.15675 42.3906C8.91676 46.7418 11.9362 50.4682 15.8279 53.092C19.7197 55.7159 24.3064 57.1177 29 57.1177C33.6937 57.1177 38.2804 55.7159 42.1721 53.092C46.0638 50.4682 49.0833 46.7418 50.8433 42.3906C52.6033 38.0394 53.0237 33.2617 52.0505 28.6701C51.0774 24.0784 48.7551 19.882 45.3814 16.6188ZM44.4063 12.1564L45.8436 13.5938L44.0311 15.4062C43.5054 14.9694 42.9581 14.558 42.3998 14.1674L44.4063 12.1564ZM23.5625 5.4375V3.625C23.5625 3.38465 23.658 3.15414 23.8279 2.98418C23.9979 2.81423 24.2284 2.71875 24.4688 2.71875H33.5313C33.7716 2.71875 34.0021 2.81423 34.1721 2.98418C34.342 3.15414 34.4375 3.38465 34.4375 3.625V5.4375C34.4375 5.67785 34.342 5.90836 34.1721 6.07832C34.0021 6.24827 33.7716 6.34375 33.5313 6.34375H24.4688C24.2284 6.34375 23.9979 6.24827 23.8279 6.07832C23.658 5.90836 23.5625 5.67785 23.5625 5.4375ZM26.2813 8.15625H31.7188V10.1301C29.9126 9.91498 28.0874 9.91498 26.2813 10.1301V8.15625ZM12.1564 13.5938L13.5938 12.1564L15.602 14.1647C15.0392 14.5553 14.4919 14.9667 13.9662 15.4035L12.1564 13.5938ZM29 55.2812C24.6983 55.2812 20.4931 54.0056 16.9164 51.6157C13.3396 49.2258 10.5518 45.8289 8.90563 41.8546C7.25942 37.8803 6.8287 33.5071 7.66793 29.288C8.50716 25.0689 10.5786 21.1935 13.6204 18.1517C16.6622 15.1099 20.5377 13.0384 24.7568 12.1992C28.9759 11.3599 33.3491 11.7907 37.3234 13.4369C41.2977 15.0831 44.6946 17.8708 47.0845 21.4476C49.4744 25.0244 50.75 29.2295 50.75 33.5312C50.7433 39.2976 48.4496 44.8259 44.3722 48.9034C40.2947 52.9809 34.7664 55.2745 29 55.2812Z" fill="#B3404A"/>
<path d="M29 13.5938C25.0567 13.5938 21.202 14.7631 17.9233 16.9538C14.6446 19.1446 12.0892 22.2584 10.5802 25.9015C9.07114 29.5446 8.67631 33.5534 9.4456 37.4209C10.2149 41.2884 12.1138 44.8409 14.9021 47.6292C17.6904 50.4175 21.2429 52.3164 25.1104 53.0857C28.9779 53.8549 32.9867 53.4601 36.6298 51.9511C40.2729 50.4421 43.3867 47.8866 45.5774 44.6079C47.7682 41.3292 48.9375 37.4745 48.9375 33.5312C48.9315 28.2453 46.829 23.1776 43.0913 19.4399C39.3536 15.7022 34.2859 13.5997 29 13.5938ZM29 51.6562C25.4152 51.6562 21.9109 50.5932 18.9303 48.6016C15.9497 46.61 13.6265 43.7793 12.2547 40.4674C10.8829 37.1555 10.5239 33.5111 11.2233 29.9952C11.9226 26.4793 13.6489 23.2498 16.1837 20.7149C18.7185 18.1801 21.9481 16.4539 25.464 15.7545C28.9799 15.0552 32.6242 15.4141 35.9361 16.7859C39.2481 18.1578 42.0788 20.4809 44.0704 23.4615C46.062 26.4422 47.125 29.9465 47.125 33.5312C47.1195 38.3366 45.2081 42.9436 41.8102 46.3415C38.4123 49.7394 33.8054 51.6507 29 51.6562Z" fill="#B3404A"/>
<path d="M29 18.125C28.7596 18.125 28.5291 18.2205 28.3592 18.3904C28.1892 18.5604 28.0938 18.7909 28.0938 19.0312V26.2812C28.0938 26.5216 28.1892 26.7521 28.3592 26.9221C28.5291 27.092 28.7596 27.1875 29 27.1875C30.6819 27.1894 32.2943 27.8584 33.4836 29.0477C34.6729 30.2369 35.3418 31.8494 35.3438 33.5312C35.3438 33.7716 35.4392 34.0021 35.6092 34.1721C35.7791 34.342 36.0096 34.4375 36.25 34.4375H43.5C43.7404 34.4375 43.9709 34.342 44.1408 34.1721C44.3108 34.0021 44.4062 33.7716 44.4062 33.5312C44.4017 29.4467 42.7771 25.5307 39.8888 22.6424C37.0006 19.7542 33.0846 18.1296 29 18.125ZM37.1064 32.625C36.8979 30.7874 36.0723 29.0748 34.7645 27.7671C33.4566 26.4594 31.7439 25.634 29.9062 25.4257V19.9674C33.1895 20.1911 36.2807 21.5965 38.6077 23.9235C40.9347 26.2506 42.3401 29.3417 42.5638 32.625H37.1064Z" fill="#B3404A"/>
<path d="M29.0006 29.9063C28.1141 29.9088 27.2595 30.2369 26.599 30.8282C25.9386 31.4194 25.5183 32.2327 25.4182 33.1135L19.2973 39.2343C19.2105 39.3213 19.1421 39.4248 19.0961 39.5388L17.2836 44.0701C17.2177 44.2347 17.2016 44.4152 17.2372 44.5889C17.2729 44.7627 17.3587 44.9222 17.4842 45.0476C17.6096 45.1731 17.7691 45.2589 17.9429 45.2946C18.1167 45.3302 18.2971 45.3141 18.4618 45.2482L22.993 43.4357C23.1066 43.3895 23.2098 43.3211 23.2966 43.2345L29.4174 37.1137C30.3365 37.0103 31.181 36.5587 31.7772 35.8516C32.3734 35.1446 32.676 34.2359 32.6225 33.3125C32.5691 32.3892 32.1639 31.5215 31.4901 30.8878C30.8164 30.2542 29.9254 29.903 29.0006 29.9063ZM22.1475 41.8207L19.7568 42.7796L20.7147 40.3843L25.8387 35.2604C26.1711 35.8666 26.6698 36.3652 27.276 36.6977L22.1475 41.8207ZM29.0006 35.3438C28.6421 35.3438 28.2917 35.2375 27.9936 35.0383C27.6955 34.8392 27.4632 34.5561 27.326 34.2249C27.1888 33.8937 27.1529 33.5293 27.2229 33.1777C27.2928 32.8261 27.4654 32.5031 27.7189 32.2496C27.9724 31.9962 28.2954 31.8235 28.647 31.7536C28.9985 31.6837 29.363 31.7196 29.6942 31.8567C30.0254 31.9939 30.3084 32.2262 30.5076 32.5243C30.7068 32.8224 30.8131 33.1728 30.8131 33.5313C30.8131 34.012 30.6221 34.473 30.2822 34.8129C29.9423 35.1528 29.4813 35.3438 29.0006 35.3438Z" fill="#B3404A"/>
<path d="M28.0938 44.4062H29.9062V49.8438H28.0938V44.4062Z" fill="#B3404A"/>
<path d="M12.6875 32.625H18.125V34.4375H12.6875V32.625Z" fill="#B3404A"/>
</svg>
