<svg width="1440" height="148" viewBox="0 0 1440 148" fill="none" xmlns="http://www.w3.org/2000/svg">
<path opacity="0.5" d="M1445 80.6132V147.538H0V65.0936C31.88 57.0256 57.8255 53.4118 66.801 52.2632C154.839 40.7776 196.872 56.0171 430.675 87.7848C583.111 108.487 659.279 118.824 700.135 119.356C902.058 121.962 922.462 64.0851 1144.64 56.2132C1268.78 51.787 1370.2 66.046 1445 80.6132Z" fill="#F03D5F"/>
<path opacity="0.76" d="M1445 89.3562V147.541H0V102.124C42.2778 99.5779 66.7368 103.751 142.807 92.7057C466.611 45.6784 451.386 30.2397 633.642 31.1383C788.971 31.9246 885.541 43.3025 1174.82 89.3562C1288.99 107.553 1383.99 86.8476 1445 89.3562Z" fill="#880000"/>
<path opacity="0.5" d="M1445 62.4202V148H0V55.5908C236.501 101.486 258.646 117.376 380.82 100.174C597.506 69.6622 748.397 2.07957 967.388 0.0429995C1123.11 -1.44806 1362.7 36.163 1445 62.4202Z" fill="#FBCBD7"/>
</svg>
