<svg width="1585" height="411" viewBox="0 0 1585 411" fill="none" xmlns="http://www.w3.org/2000/svg">
<path opacity="0.76" d="M1554.5 251.572H1584.41H0C46.3568 248.222 160.09 175.425 243.5 160.89C497.5 47.388 661 58.7825 675 116.892C689 175.002 970.977 114.396 1288.16 175.002C1413.36 198.948 1487.6 248.271 1554.5 251.572Z" fill="#880000"/>
<path opacity="0.5" d="M1536 242.393L1545 251.86H0C227.5 172.86 416.371 26.7647 547 6.88974C778.682 -28.3642 800.189 83.2631 1034.34 80.9101C1200.83 79.1873 1448 212.056 1536 242.393Z" fill="#FBCBD7"/>
<path opacity="0.5" d="M1536 261.642L1545 252.893H0C227.5 325.901 276.545 285.592 407.174 303.96C638.856 336.54 800.189 408.703 1034.34 410.877C1200.83 412.469 1448 289.678 1536 261.642Z" fill="#FBCBD7"/>
</svg>
