<svg width="313" height="196" viewBox="0 0 313 196" fill="none" xmlns="http://www.w3.org/2000/svg">
<g clip-path="url(#clip0)">
<path d="M181.639 56.2291C181.353 56.8906 181.073 57.5689 180.807 58.2449L180.112 57.9835C180.38 57.2999 180.663 56.6143 180.953 55.9453L181.639 56.2291Z" fill="#E6E6E6"/>
<path d="M303.894 104.507C303.535 105.421 303.152 106.335 302.755 107.223L302.072 106.932C302.666 105.601 303.226 104.221 303.73 102.847L304.431 103.093C304.258 103.565 304.079 104.036 303.894 104.507ZM305.819 98.8621L305.102 98.6635C305.51 97.2573 305.872 95.8226 306.179 94.3985L306.908 94.5489C306.597 95.9889 306.231 97.44 305.819 98.8621ZM300.798 111.233C300.1 112.544 299.349 113.846 298.564 115.102L297.929 114.722C298.704 113.48 299.447 112.193 300.136 110.897L300.798 111.233ZM307.692 90.1727L306.954 90.0713C307.161 88.627 307.318 87.157 307.423 85.7023L308.166 85.753C308.06 87.2247 307.901 88.7117 307.692 90.1727ZM296.064 118.812C295.191 120.015 294.264 121.203 293.308 122.345L292.731 121.884C293.677 120.755 294.593 119.579 295.456 118.39L296.064 118.812ZM308.326 81.3123L307.581 81.312C307.582 79.8539 307.531 78.3779 307.43 76.9258L308.174 76.8767C308.276 78.3452 308.327 79.8375 308.326 81.3123L308.326 81.3123ZM290.304 125.689C289.267 126.765 288.18 127.819 287.072 128.82L286.566 128.285C287.661 127.295 288.736 126.253 289.762 125.189L290.304 125.689ZM307.71 72.4604L306.972 72.5595C306.768 71.1148 306.511 69.6589 306.207 68.2329L306.937 68.0841C307.244 69.5266 307.504 70.9988 307.71 72.4604V72.4604ZM283.629 131.726C282.452 132.653 281.228 133.55 279.991 134.394L279.565 133.796C280.788 132.962 281.998 132.075 283.163 131.158L283.629 131.726ZM305.859 63.7695L305.142 63.9664C304.738 62.5619 304.281 61.1536 303.781 59.7801L304.483 59.5355C304.988 60.9249 305.451 62.3493 305.859 63.7696V63.7695ZM276.175 136.811C274.882 137.57 273.545 138.296 272.201 138.968L271.862 138.319C273.191 137.655 274.513 136.937 275.792 136.186L276.175 136.811ZM302.814 55.4024L302.131 55.6929C301.536 54.355 300.887 53.0199 300.2 51.7245L300.862 51.3894C301.556 52.6994 302.213 54.0495 302.814 55.4024V55.4024ZM268.086 140.855C266.698 141.435 265.273 141.976 263.849 142.463L263.604 141.775C265.011 141.294 266.42 140.759 267.792 140.185L268.086 140.855ZM298.633 47.5148L297.996 47.8929C297.222 46.6476 296.393 45.4109 295.531 44.2175L296.14 43.7977C297.011 45.0043 297.85 46.2552 298.633 47.5148ZM259.512 143.785C258.057 144.176 256.57 144.522 255.093 144.814L254.945 144.1C256.406 143.811 257.876 143.469 259.315 143.082L259.512 143.785ZM293.391 40.255L292.813 40.7147C291.87 39.5821 290.875 38.4677 289.855 37.4019L290.399 36.9044C291.431 37.9822 292.437 39.1093 293.391 40.255H293.391ZM250.614 145.545C249.119 145.738 247.599 145.882 246.095 145.974L246.049 145.247C247.536 145.156 249.039 145.013 250.517 144.823L250.614 145.545ZM287.179 33.7622L286.671 34.2956C285.578 33.3003 284.435 32.3296 283.274 31.4104L283.743 30.8442C284.917 31.7738 286.073 32.7556 287.179 33.7622ZM241.559 146.098C240.05 146.088 238.522 146.027 237.018 145.916L237.075 145.189C238.561 145.299 240.071 145.36 241.564 145.37L241.559 146.098ZM280.113 28.1692L279.685 28.7659C278.464 27.9283 277.197 27.1221 275.92 26.3694L276.305 25.7457C277.596 26.5069 278.877 27.3223 280.113 28.1692L280.113 28.1692ZM232.502 145.427C231.009 145.214 229.505 144.948 228.03 144.635L228.188 143.923C229.646 144.232 231.133 144.496 232.609 144.706L232.502 145.427ZM272.335 23.5839L271.995 24.232C270.67 23.5673 269.302 22.9382 267.93 22.3615L268.224 21.6923C269.612 22.2752 270.995 22.9116 272.335 23.5839ZM223.625 143.546C222.179 143.136 220.726 142.671 219.306 142.165L219.562 141.481C220.965 141.981 222.402 142.44 223.833 142.846L223.625 143.546ZM263.744 20.7643C262.335 20.279 260.893 19.8354 259.458 19.4458L259.657 18.7439C261.108 19.1378 262.567 19.5864 263.991 20.0769L263.744 20.7643ZM255.09 18.4161C253.626 18.1233 252.136 17.8764 250.66 17.6829L250.759 16.961C252.252 17.1566 253.759 17.4061 255.24 17.7025L255.09 18.4161ZM246.189 17.2502C244.702 17.1569 243.193 17.1129 241.703 17.1198L241.7 16.3913C243.206 16.3844 244.733 16.4288 246.237 16.5234L246.189 17.2502ZM237.218 17.2925C235.73 17.4 234.228 17.5596 232.754 17.7662L232.648 17.0451C234.139 16.836 235.658 16.6748 237.163 16.566L237.218 17.2925ZM228.332 18.5384C226.872 18.8443 225.406 19.2032 223.975 19.6044L223.769 18.9045C225.217 18.4984 226.7 18.1354 228.176 17.8258L228.332 18.5384ZM219.701 20.9593C218.298 21.4559 216.895 22.0062 215.53 22.5953L215.229 21.9289C216.61 21.3331 218.029 20.7765 219.447 20.2741L219.701 20.9593ZM211.483 24.5059C210.161 25.1856 208.847 25.9177 207.578 26.6819L207.187 26.0618C208.47 25.2888 209.799 24.5483 211.136 23.8611L211.483 24.5059ZM203.833 29.1131C202.617 29.9632 201.417 30.8639 200.267 31.7905L199.793 31.2282C200.956 30.2911 202.17 29.3801 203.4 28.5204L203.833 29.1131ZM196.896 34.7015C195.811 35.7055 194.748 36.7589 193.738 37.8326L193.19 37.3392C194.212 36.2535 195.286 35.1879 196.384 34.1721L196.896 34.7015ZM190.808 41.1699C189.876 42.3089 188.973 43.4942 188.124 44.6932L187.511 44.2786C188.37 43.0657 189.284 41.8667 190.226 40.7149L190.808 41.1699ZM185.694 48.3894C184.932 49.6418 184.204 50.9371 183.531 52.2399L182.866 51.9107C183.547 50.5933 184.284 49.2833 185.054 48.0168L185.694 48.3894Z" fill="#BDBCBC"/>
<path d="M215.294 139.794L214.991 140.459C214.304 140.16 213.618 139.848 212.953 139.532L213.279 138.877C213.936 139.189 214.614 139.498 215.294 139.794Z" fill="#E6E6E6"/>
<path d="M193.762 84.498H15.5529V195.656H193.762V84.498Z" fill="#3F3D56"/>
<path d="M169.858 195.555C169.773 195.418 167.757 192.127 167.058 185.293C166.417 179.023 166.829 168.455 172.434 153.713C183.053 125.786 169.987 103.252 169.854 103.028L170.498 102.662C170.532 102.719 173.904 108.464 175.895 117.612C178.527 129.741 177.569 142.352 173.133 153.967C162.533 181.847 170.413 195.045 170.494 195.175L169.858 195.555Z" fill="#E6E6E6"/>
<path d="M165.706 101.387C168.381 101.387 170.549 99.2665 170.549 96.6513C170.549 94.0361 168.381 91.916 165.706 91.916C163.032 91.916 160.864 94.0361 160.864 96.6513C160.864 99.2665 163.032 101.387 165.706 101.387Z" fill="#F03D5F"/>
<path d="M180.979 118.873C183.653 118.873 185.821 116.753 185.821 114.138C185.821 111.522 183.653 109.402 180.979 109.402C178.304 109.402 176.136 111.522 176.136 114.138C176.136 116.753 178.304 118.873 180.979 118.873Z" fill="#E6E6E6"/>
<path d="M170.549 130.527C173.223 130.527 175.391 128.407 175.391 125.792C175.391 123.177 173.223 121.057 170.549 121.057C167.874 121.057 165.706 123.177 165.706 125.792C165.706 128.407 167.874 130.527 170.549 130.527Z" fill="#F03D5F"/>
<path d="M183.214 140.363C185.888 140.363 188.056 138.243 188.056 135.628C188.056 133.013 185.888 130.893 183.214 130.893C180.539 130.893 178.371 133.013 178.371 135.628C178.371 138.243 180.539 140.363 183.214 140.363Z" fill="#F03D5F"/>
<path d="M166.824 155.66C169.498 155.66 171.666 153.54 171.666 150.925C171.666 148.31 169.498 146.189 166.824 146.189C164.149 146.189 161.981 148.31 161.981 150.925C161.981 153.54 164.149 155.66 166.824 155.66Z" fill="#E6E6E6"/>
<path d="M172.784 195.728C172.784 195.728 167.941 184.072 182.469 175.33L172.784 195.728Z" fill="#E6E6E6"/>
<path d="M166.828 195.518C166.828 195.518 164.624 183.123 147.567 183.229L166.828 195.518Z" fill="#E6E6E6"/>
<path d="M118.406 109.305C122.224 110.945 125.706 113.248 128.683 116.103L131.673 113.18C128.17 109.812 124.042 107.13 119.51 105.275L118.406 109.305Z" fill="#F03D5F"/>
<path d="M71.9405 129.856C73.3647 125.516 75.6775 121.505 78.7379 118.067L75.7431 115.139C72.1651 119.097 69.4791 123.747 67.8596 128.786L71.9405 129.856Z" fill="#F03D5F"/>
<path d="M135.325 117.225L132.306 120.177C134.637 123.262 136.408 126.715 137.543 130.387L141.62 129.319C140.289 124.947 138.156 120.849 135.325 117.225Z" fill="#E6E6E6"/>
<path d="M79.6726 111.363L82.6724 114.296C86.1999 111.412 90.2843 109.25 94.683 107.939L93.5907 103.953C88.4758 105.452 83.7359 107.975 79.6726 111.363Z" fill="#F03D5F"/>
<path d="M70.3116 140.079C70.3116 138.414 70.4377 136.751 70.689 135.104L66.5954 134.031C65.7462 139.176 65.9893 144.437 67.3096 149.487L71.384 148.419C70.6702 145.694 70.3099 142.892 70.3116 140.079Z" fill="#F03D5F"/>
<path d="M113.121 172.629C110.355 173.316 107.512 173.663 104.657 173.662C103.6 173.662 102.554 173.612 101.521 173.52L100.416 177.553C105.036 178.05 109.709 177.732 114.213 176.613L113.121 172.629Z" fill="#E6E6E6"/>
<path d="M73.187 153.521L69.0659 154.601C71.0516 159.241 73.965 163.446 77.6353 166.969L80.6251 164.046C77.4817 161.034 74.9569 157.462 73.187 153.521Z" fill="#F03D5F"/>
<path d="M142.807 134.584L138.706 135.659C139.196 139.287 139.079 142.969 138.358 146.56L142.441 147.63C143.331 143.334 143.455 138.921 142.807 134.584H142.807Z" fill="#E6E6E6"/>
<path d="M100.072 106.794C104.452 106.218 108.905 106.472 113.187 107.543L114.278 103.558C109.28 102.309 104.077 102.046 98.9727 102.784L100.072 106.794Z" fill="#F03D5F"/>
<path d="M96.0708 172.6C92.0524 171.583 88.2567 169.86 84.8694 167.514L81.8425 170.473C85.7832 173.31 90.2422 175.384 94.9793 176.584L96.0708 172.6Z" fill="#E6E6E6"/>
<path d="M130.676 167.903L127.683 164.977C124.917 167.425 121.763 169.419 118.344 170.878L119.448 174.906C123.577 173.226 127.376 170.856 130.676 167.903Z" fill="#E6E6E6"/>
<path d="M136.864 151.746C135.583 155.111 133.759 158.253 131.46 161.053L134.467 163.993C137.269 160.659 139.464 156.879 140.956 152.818L136.864 151.746Z" fill="#E6E6E6"/>
<path d="M38.234 90.8086H19.441V98.0959H38.234V90.8086Z" fill="#E6E6E6"/>
<path d="M38.234 101.898H19.441V109.186H38.234V101.898Z" fill="#F03D5F"/>
<path d="M133.161 17.6592C133.161 17.6592 135.277 24.4594 134.068 26.5291C132.858 28.5987 136.184 33.0336 141.627 30.964C147.069 28.8944 147.372 26.5291 147.372 26.5291C147.372 26.5291 145.255 23.2768 144.65 16.4766L133.161 17.6592Z" fill="#FFB9B9"/>
<path d="M105.495 84.3312C105.495 84.3312 94.6097 89.6531 99.4474 96.749C102.259 100.874 107.625 108.894 111.626 114.888C114.975 119.904 117.542 125.378 119.246 131.132L120.008 133.707L123.032 137.255L129.381 130.159C129.381 130.159 120.008 113.306 120.008 110.054C120.008 106.802 112.449 96.4533 112.449 96.4533L120.008 91.7227C120.008 91.7227 111.542 82.2615 105.495 84.3312Z" fill="#FFB9B9"/>
<path d="M140.871 102.661C140.871 102.661 141.173 110.939 141.476 114.192C141.725 116.875 139.299 124.388 140.14 132.746C140.654 138.153 140.592 143.598 139.957 148.993L138.754 159.724L147.825 160.611L150.849 136.366C150.849 136.366 152.663 119.218 151.756 113.6L152.058 101.774C152.058 101.774 145.406 99.4087 140.871 102.661Z" fill="#FFB9B9"/>
<path d="M124.695 68.2176C124.695 68.2176 103.529 81.5224 103.227 85.6617C103.227 85.6617 115.321 84.479 115.624 94.8272C115.624 94.8272 122.88 92.1662 124.695 91.5749C126.509 90.9836 136.184 84.7747 136.184 84.7747C136.184 84.7747 140.115 87.7313 140.115 92.4619C140.115 97.1925 139.813 105.471 140.115 106.062C140.417 106.654 147.372 98.0795 153.116 105.471L157.047 85.0703C157.047 85.0703 158.257 72.6525 155.838 71.7655L138.906 65.5566L124.695 68.2176Z" fill="#2F2E41"/>
<path d="M137.545 21.355C142.555 21.355 146.616 17.3838 146.616 12.4851C146.616 7.58641 142.555 3.61523 137.545 3.61523C132.535 3.61523 128.474 7.58641 128.474 12.4851C128.474 17.3838 132.535 21.355 137.545 21.355Z" fill="#FFB9B9"/>
<path d="M135.277 28.0074C135.277 28.0074 145.508 30.6498 146.893 25.6328C146.893 25.6328 159.466 28.0074 161.582 35.9903C163.699 43.9731 156.442 63.1912 156.442 63.7825C156.442 64.3738 162.489 67.9218 159.768 69.6957C157.047 71.4697 154.628 69.4001 155.838 71.7654C157.047 74.1307 159.164 74.722 157.349 75.3133C155.535 75.9047 144.65 66.7391 136.184 69.1044C127.718 71.4697 123.485 69.6957 123.485 69.6957L119.689 37.6129C119.541 36.3838 119.71 35.1379 120.18 33.9891C120.651 32.8402 121.408 31.8249 122.383 31.0358C124.278 29.5107 126.792 27.863 129.23 27.4161C134.068 26.5291 134.269 26.0435 134.269 26.0435L135.277 28.0074Z" fill="#D0CDE1"/>
<path d="M125.602 79.748C125.602 79.748 128.323 94.8268 131.951 92.7572C135.579 90.6875 131.044 79.748 131.044 79.748H125.602Z" fill="#FFB9B9"/>
<path d="M138.232 81.6992C138.232 81.6992 133.517 96.3003 137.713 96.1051C141.909 95.9099 143.059 84.1593 143.059 84.1593L138.232 81.6992Z" fill="#FFB9B9"/>
<path d="M121.52 133.116C121.52 133.116 119.403 130.751 118.194 134.003C116.984 137.255 113.658 141.395 113.658 141.395C113.658 141.395 106.402 149.377 111.542 149.673C116.682 149.969 123.939 142.577 123.939 142.577L132.405 134.89C132.405 134.89 129.599 128.208 128.28 128.149C126.962 128.09 127.265 136.073 121.52 133.116Z" fill="#2F2E41"/>
<path d="M141.173 157.656C141.173 157.656 139.042 158.264 139.201 155.742C139.201 155.742 131.498 159.725 133.614 162.682C135.731 165.638 138.15 168.595 138.15 168.595C138.15 168.595 149.337 174.804 150.244 173.326C151.151 171.847 151.151 168.891 150.546 167.708C149.942 166.525 146.918 164.456 147.825 162.682C148.732 160.908 147.523 156.177 146.011 156.177C144.499 156.177 141.173 157.656 141.173 157.656Z" fill="#2F2E41"/>
<path d="M129.629 4.96932C129.629 4.96932 132.547 -1.21293 138.14 0.213747C143.732 1.64042 146.894 3.78042 147.137 5.92043C147.38 8.06044 147.015 11.2705 147.015 11.2705C147.015 11.2705 146.407 6.87155 142.517 7.82266C138.626 8.77378 132.547 8.06044 132.547 8.06044L131.574 16.6205C131.574 16.6205 130.48 15.0749 129.264 16.026C128.048 16.9771 125.738 6.87155 129.629 4.96932Z" fill="#2F2E41"/>
<path d="M156.442 35.6939C156.442 35.6939 149.186 54.912 149.791 57.2773C150.395 59.6426 149.791 59.9382 148.883 60.5295C147.976 61.1209 145.557 67.3298 145.557 67.3298C145.557 67.3298 144.046 70.8777 142.836 71.7647C141.627 72.6517 141.627 75.017 141.627 75.017C141.627 75.017 138.603 77.9736 139.208 78.5649C139.813 79.1563 139.813 80.0433 138.603 80.9302C137.394 81.8172 136.184 82.9999 136.789 83.2955C137.394 83.5912 141.627 86.8435 142.836 86.5478C144.046 86.2522 142.232 85.0695 143.743 84.4782C145.255 83.8869 146.162 82.9999 145.557 82.7042C144.953 82.4085 143.139 82.4085 144.953 81.8172C146.767 81.2259 153.116 77.3823 155.233 72.6517C157.35 67.9211 167.49 39.3 161.362 35.2795C161.362 35.2795 158.861 32.146 156.442 35.6939Z" fill="#D0CDE1"/>
<path d="M122.88 32.4414L122.757 32.4914C121.615 32.9572 120.607 33.6881 119.818 34.6209C119.03 35.5537 118.486 36.6604 118.234 37.845C117.574 40.9351 116.924 45.4046 117.438 49.5898C118.345 56.9814 118.95 60.2336 120.159 62.5989C121.368 64.9642 121.671 64.0772 121.368 65.8512C121.066 67.6252 119.554 66.1469 121.066 68.5122C122.578 70.8775 123.485 70.2862 122.88 71.4688C122.276 72.6514 121.368 72.6514 122.578 74.1298C123.787 75.6081 123.787 76.1994 124.09 76.7907C124.392 77.382 125.299 81.817 125.299 81.817C125.299 81.817 130.137 80.3387 132.858 80.93C132.858 80.93 130.439 76.7907 131.044 75.9037C131.649 75.0168 132.556 74.7211 131.649 73.8341C130.742 72.9471 129.23 73.2428 130.742 72.3558C132.253 71.4688 129.532 62.3033 129.532 62.3033L122.88 32.4414Z" fill="#D0CDE1"/>
<path d="M263.481 195.365H-49.5194V195.999H263.481V195.365Z" fill="#3F3D56"/>
<path d="M205.022 100.326L204.551 99.8911L240.103 62.998H269.042V63.6317H240.383L205.022 100.326Z" fill="#3F3D56"/>
<path d="M283.514 67.8438H249.36V68.9758H283.514V67.8438Z" fill="#F03D5F"/>
<path d="M283.514 72.6562H249.36V73.7884H283.514V72.6562Z" fill="#F03D5F"/>
<path d="M283.514 77.4668H249.36V78.5989H283.514V77.4668Z" fill="#F03D5F"/>
<path d="M279.95 160.043H245.796V161.175H279.95V160.043Z" fill="#F03D5F"/>
<path d="M279.95 164.855H245.796V165.988H279.95V164.855Z" fill="#F03D5F"/>
<path d="M279.95 169.666H245.796V170.798H279.95V169.666Z" fill="#F03D5F"/>
<path d="M265.369 154.362H231.178L231.081 154.225L204.512 116.521L205.045 116.162L231.518 153.729H265.369V154.362Z" fill="#3F3D56"/>
</g>
<defs>
<clipPath id="clip0">
<rect width="313" height="196" fill="white"/>
</clipPath>
</defs>
</svg>
