<svg width="208" height="205" viewBox="0 0 208 205" fill="none" xmlns="http://www.w3.org/2000/svg">
<g clip-path="url(#clip0)">
<path d="M4.90853 0C3.60716 0.00150313 2.35949 0.533763 1.43928 1.48C0.519072 2.42624 0.00146179 3.70918 0 5.04736V173.716C0.00146179 175.054 0.519072 176.337 1.43928 177.283C2.35949 178.23 3.60716 178.762 4.90853 178.763H129.957C131.258 178.762 132.506 178.23 133.426 177.283C134.346 176.337 134.864 175.054 134.865 173.716V5.04736C134.864 3.70918 134.346 2.42624 133.426 1.48001C132.506 0.533769 131.258 0.00151002 129.957 0H4.90853Z" fill="#E6E6E6"/>
<path d="M126.202 67.848H8.66344C7.27811 67.8464 5.94997 67.2798 4.97039 66.2725C3.99081 65.2652 3.4398 63.8995 3.43823 62.475V28.0312C3.4398 26.6067 3.99081 25.241 4.97039 24.2337C5.94997 23.2264 7.27811 22.6598 8.66344 22.6582H126.202C127.587 22.6598 128.915 23.2264 129.895 24.2337C130.874 25.241 131.425 26.6067 131.427 28.0312V62.475C131.425 63.8995 130.874 65.2653 129.895 66.2725C128.915 67.2798 127.587 67.8464 126.202 67.848Z" fill="white"/>
<path d="M126.202 120.434H8.66344C7.27811 120.432 5.94998 119.866 4.9704 118.859C3.99082 117.851 3.4398 116.486 3.43823 115.061V80.6171C3.4398 79.1926 3.99081 77.8269 4.97039 76.8196C5.94997 75.8123 7.27811 75.2457 8.66344 75.2441H126.202C127.587 75.2457 128.915 75.8123 129.895 76.8196C130.874 77.8269 131.425 79.1926 131.427 80.6171V115.061C131.425 116.486 130.874 117.851 129.895 118.859C128.915 119.866 127.587 120.432 126.202 120.434Z" fill="white"/>
<path d="M8.66366 128.156C7.36228 128.158 6.11462 128.69 5.19441 129.636C4.2742 130.582 3.75658 131.865 3.75513 133.204V167.647C3.75658 168.985 4.2742 170.268 5.19441 171.215C6.11462 172.161 7.36228 172.693 8.66366 172.695H126.202C127.503 172.693 128.751 172.161 129.671 171.215C130.591 170.268 131.109 168.985 131.11 167.647V133.204C131.109 131.865 130.591 130.582 129.671 129.636C128.751 128.69 127.503 128.158 126.202 128.156H8.66366Z" fill="white"/>
<path d="M127.871 10.5013C129.846 10.5013 131.447 8.85484 131.447 6.82387C131.447 4.79291 129.846 3.14648 127.871 3.14648C125.896 3.14648 124.295 4.79291 124.295 6.82387C124.295 8.85484 125.896 10.5013 127.871 10.5013Z" fill="white"/>
<path d="M15.3089 101.517C17.284 101.517 18.8851 99.8705 18.8851 97.8395C18.8851 95.8085 17.284 94.1621 15.3089 94.1621C13.3338 94.1621 11.7327 95.8085 11.7327 97.8395C11.7327 99.8705 13.3338 101.517 15.3089 101.517Z" fill="#E6E6E6"/>
<path d="M56.4357 100.944H28.541C27.7402 100.944 26.9723 100.617 26.406 100.034C25.8398 99.4522 25.5217 98.6625 25.5217 97.8391C25.5217 97.0156 25.8398 96.226 26.406 95.6437C26.9723 95.0615 27.7402 94.7344 28.541 94.7344H56.4357C57.2365 94.7344 58.0044 95.0615 58.5707 95.6437C59.1369 96.226 59.455 97.0156 59.455 97.8391C59.455 98.6625 59.1369 99.4522 58.5707 100.034C58.0044 100.617 57.2365 100.944 56.4357 100.944Z" fill="#E6E6E6"/>
<path d="M78.8765 101.7C80.8516 101.7 82.4528 100.054 82.4528 98.0231C82.4528 95.9921 80.8516 94.3457 78.8765 94.3457C76.9014 94.3457 75.3003 95.9921 75.3003 98.0231C75.3003 100.054 76.9014 101.7 78.8765 101.7Z" fill="#E6E6E6"/>
<path d="M120.003 101.127H92.1087C91.3079 101.127 90.5399 100.8 89.9737 100.218C89.4075 99.6359 89.0894 98.8462 89.0894 98.0227C89.0894 97.1993 89.4075 96.4096 89.9737 95.8273C90.5399 95.2451 91.3079 94.918 92.1087 94.918H120.003C120.804 94.918 121.572 95.2451 122.138 95.8273C122.705 96.4096 123.023 97.1993 123.023 98.0227C123.023 98.8462 122.705 99.6359 122.138 100.218C121.572 100.8 120.804 101.127 120.003 101.127Z" fill="#E6E6E6"/>
<path d="M129.734 5.42824L129.228 4.9082L127.871 6.30323L126.515 4.9082L126.009 5.42824L127.366 6.82327L126.009 8.21797L126.515 8.73801L127.871 7.34298L129.228 8.73801L129.734 8.21797L128.377 6.82327L129.734 5.42824Z" fill="#E6E6E6"/>
<path d="M15.3089 48.931C17.284 48.931 18.8852 47.2845 18.8852 45.2536C18.8852 43.2226 17.284 41.5762 15.3089 41.5762C13.3338 41.5762 11.7327 43.2226 11.7327 45.2536C11.7327 47.2845 13.3338 48.931 15.3089 48.931Z" fill="#E6E6E6"/>
<path d="M120.272 47.9888H35.1571C34.3569 47.988 33.5897 47.6605 33.0241 47.0783C32.4585 46.4962 32.1409 45.7069 32.1409 44.8841C32.1409 44.0612 32.4585 43.2719 33.0241 42.6898C33.5897 42.1076 34.3569 41.7801 35.1571 41.7793H120.272C121.072 41.7801 121.839 42.1076 122.405 42.6898C122.97 43.2719 123.288 44.0612 123.288 44.8841C123.288 45.7069 122.97 46.4962 122.405 47.0783C121.839 47.6605 121.072 47.988 120.272 47.9888Z" fill="#E6E6E6"/>
<path d="M105.43 47.9888H29.6138C28.8131 47.9888 28.0451 47.6617 27.4788 47.0794C26.9126 46.4972 26.5945 45.7075 26.5945 44.8841C26.5945 44.0606 26.9126 43.2709 27.4788 42.6887C28.0451 42.1064 28.8131 41.7793 29.6138 41.7793H105.43C106.23 41.7801 106.998 42.1076 107.563 42.6898C108.129 43.2719 108.447 44.0612 108.447 44.8841C108.447 45.7069 108.129 46.4962 107.563 47.0783C106.998 47.6605 106.23 47.988 105.43 47.9888Z" fill="#F03D5F"/>
<path d="M15.3089 154.105C17.284 154.105 18.8851 152.458 18.8851 150.427C18.8851 148.396 17.284 146.75 15.3089 146.75C13.3338 146.75 11.7327 148.396 11.7327 150.427C11.7327 152.458 13.3338 154.105 15.3089 154.105Z" fill="#E6E6E6"/>
<path d="M120.272 153.162H35.157C34.3562 153.162 33.5882 152.835 33.022 152.253C32.4558 151.671 32.1377 150.881 32.1377 150.058C32.1377 149.234 32.4558 148.445 33.022 147.862C33.5882 147.28 34.3562 146.953 35.157 146.953H120.272C121.072 146.953 121.84 147.28 122.407 147.862C122.973 148.445 123.291 149.234 123.291 150.058C123.291 150.881 122.973 151.671 122.407 152.253C121.84 152.835 121.072 153.162 120.272 153.162Z" fill="#E6E6E6"/>
<path d="M74.9429 153.162H29.614C28.8132 153.162 28.0453 152.835 27.479 152.253C26.9128 151.671 26.5947 150.881 26.5947 150.058C26.5947 149.234 26.9128 148.445 27.479 147.862C28.0453 147.28 28.8132 146.953 29.614 146.953H74.9429C75.7436 146.953 76.5116 147.28 77.0778 147.862C77.6441 148.445 77.9622 149.234 77.9622 150.058C77.9622 150.881 77.6441 151.671 77.0778 152.253C76.5116 152.835 75.7436 153.162 74.9429 153.162Z" fill="#F03D5F"/>
<path d="M33.4583 100.944H28.541C27.7402 100.944 26.9723 100.617 26.4061 100.034C25.8398 99.4522 25.5217 98.6625 25.5217 97.8391C25.5217 97.0156 25.8398 96.226 26.4061 95.6437C26.9723 95.0615 27.7402 94.7344 28.541 94.7344H33.4583C34.2591 94.7344 35.0271 95.0615 35.5933 95.6437C36.1595 96.226 36.4776 97.0156 36.4776 97.8391C36.4776 98.6625 36.1595 99.4522 35.5933 100.034C35.0271 100.617 34.2591 100.944 33.4583 100.944Z" fill="#F03D5F"/>
<path d="M107.487 101.127H92.1087C91.3079 101.127 90.5399 100.8 89.9737 100.218C89.4075 99.6359 89.0894 98.8462 89.0894 98.0227C89.0894 97.1993 89.4075 96.4096 89.9737 95.8273C90.5399 95.2451 91.3079 94.918 92.1087 94.918H107.487C108.287 94.9188 109.054 95.2463 109.62 95.8285C110.185 96.4106 110.503 97.1998 110.503 98.0227C110.503 98.8456 110.185 99.6348 109.62 100.217C109.054 100.799 108.287 101.127 107.487 101.127Z" fill="#F03D5F"/>
<path d="M182.97 138.336C183.434 138.288 183.881 138.136 184.281 137.891C184.681 137.646 185.024 137.314 185.286 136.918C185.547 136.522 185.721 136.072 185.796 135.6C185.87 135.127 185.842 134.644 185.715 134.183L194.986 127.509L189.518 125.283L181.553 131.962C180.815 132.233 180.199 132.773 179.822 133.48C179.445 134.186 179.334 135.011 179.508 135.796C179.683 136.582 180.132 137.275 180.77 137.743C181.408 138.211 182.191 138.422 182.97 138.336L182.97 138.336Z" fill="#A0616A"/>
<path d="M187.292 133.463C187.092 133.462 186.895 133.419 186.713 133.335C186.507 133.243 186.325 133.101 186.183 132.922C186.041 132.742 185.943 132.53 185.897 132.304L185.274 129.332C185.221 129.077 185.235 128.812 185.314 128.565C185.394 128.317 185.536 128.096 185.726 127.923L191.223 122.946L185.797 111.254C185.419 110.441 185.354 109.511 185.615 108.651C185.876 107.791 186.444 107.064 187.204 106.616C187.964 106.168 188.86 106.031 189.714 106.234C190.568 106.437 191.315 106.965 191.807 107.71L198.757 118.252C199.273 119.028 199.629 119.905 199.804 120.828C199.978 121.751 199.966 122.702 199.769 123.62C199.551 124.591 199.139 125.504 198.559 126.303C197.979 127.101 197.244 127.766 196.4 128.256L188.005 133.263C187.788 133.393 187.542 133.462 187.292 133.463Z" fill="#CCCCCC"/>
<path d="M156.49 127.107C156.877 127.372 157.316 127.548 157.777 127.62C158.237 127.693 158.707 127.66 159.154 127.526C159.6 127.391 160.013 127.157 160.362 126.841C160.712 126.525 160.99 126.134 161.176 125.695L172.458 126.603L169.614 121.311L159.336 121.26C158.599 120.986 157.79 121.001 157.062 121.3C156.334 121.599 155.738 122.162 155.387 122.883C155.037 123.604 154.955 124.432 155.158 125.21C155.362 125.989 155.835 126.663 156.49 127.107Z" fill="#A0616A"/>
<path d="M183.47 99.3944C187.766 99.3944 191.248 95.8136 191.248 91.3964C191.248 86.9793 187.766 83.3984 183.47 83.3984C179.174 83.3984 175.692 86.9793 175.692 91.3964C175.692 95.8136 179.174 99.3944 183.47 99.3944Z" fill="#A0616A"/>
<path d="M160.569 200.81L156.848 199.672L159.347 184.371L164.839 186.052L160.569 200.81Z" fill="#A0616A"/>
<path d="M160.445 204.809L148.446 201.138L148.491 200.982C148.674 200.351 148.975 199.764 149.378 199.253C149.782 198.742 150.279 198.318 150.842 198.005C151.404 197.691 152.021 197.495 152.658 197.427C153.294 197.359 153.938 197.421 154.551 197.608L154.551 197.609L161.88 199.851L160.445 204.809Z" fill="#2F2E41"/>
<path d="M201.338 200.614L197.455 200.614L195.608 185.215L199.438 185.215L201.338 200.614Z" fill="#A0616A"/>
<path d="M202.328 204.484L189.809 204.484V204.321C189.809 203.663 189.935 203.011 190.18 202.403C190.425 201.796 190.784 201.243 191.236 200.778C191.689 200.313 192.226 199.944 192.817 199.692C193.408 199.44 194.042 199.311 194.682 199.311H194.682L202.328 199.311L202.328 204.484Z" fill="#2F2E41"/>
<path d="M162 196.281H158.102C157.893 196.281 157.687 196.234 157.498 196.143C157.308 196.052 157.141 195.919 157.007 195.754C156.874 195.589 156.777 195.395 156.724 195.188C156.671 194.98 156.663 194.763 156.701 194.551L162.161 163.985C162.155 141.716 170.676 128.817 170.762 128.689L170.866 128.535L186.791 129.871L202.664 194.199C202.716 194.409 202.722 194.629 202.681 194.842C202.64 195.055 202.554 195.256 202.428 195.431C202.303 195.605 202.141 195.749 201.955 195.851C201.769 195.954 201.563 196.012 201.352 196.023L196.972 196.241C196.675 196.257 196.382 196.177 196.132 196.012C195.882 195.847 195.689 195.606 195.58 195.322L178.799 152.186C178.766 152.091 178.704 152.011 178.623 151.955C178.541 151.9 178.445 151.873 178.347 151.879C178.25 151.88 178.156 151.912 178.077 151.971C177.999 152.029 177.94 152.112 177.909 152.207L163.347 195.297C163.249 195.585 163.067 195.834 162.826 196.01C162.585 196.186 162.296 196.281 162 196.281Z" fill="#2F2E41"/>
<path d="M187.124 131.164L187.003 131.154L170.047 129.839L173.021 110.388C173.348 108.217 174.348 106.213 175.873 104.674C177.398 103.136 179.366 102.146 181.484 101.852C181.614 101.833 181.745 101.815 181.877 101.797C183.54 101.572 185.232 101.79 186.79 102.431C188.347 103.072 189.718 104.114 190.771 105.457C191.849 106.808 192.572 108.421 192.869 110.141C193.166 111.862 193.027 113.632 192.467 115.281L187.124 131.164Z" fill="#CCCCCC"/>
<path d="M178.499 126.085C177.811 126.653 177.021 127.076 176.173 127.329C175.326 127.583 174.438 127.662 173.561 127.561L163.748 126.475C163.523 126.45 163.308 126.371 163.119 126.244C162.931 126.117 162.774 125.946 162.662 125.744C162.55 125.542 162.487 125.316 162.477 125.085C162.466 124.853 162.51 124.622 162.603 124.411L163.912 121.457C164.018 121.216 164.186 121.01 164.398 120.859C164.609 120.709 164.857 120.62 165.113 120.602L172.266 120.109L174.614 107.383C174.765 106.566 175.189 105.829 175.812 105.298C176.435 104.768 177.218 104.477 178.027 104.477C178.515 104.474 178.999 104.579 179.445 104.784C179.891 104.989 180.29 105.289 180.614 105.665C181.229 106.389 181.545 107.331 181.494 108.29L181.039 120.907C181.009 121.862 180.786 122.799 180.385 123.66C179.983 124.52 179.412 125.286 178.707 125.907C178.639 125.968 178.57 126.027 178.499 126.085Z" fill="#CCCCCC"/>
<path d="M177.555 89.3997C176.587 89.7861 175.566 90.017 174.53 90.0844C173.487 90.0978 172.378 89.7264 171.808 88.9097C171.589 88.553 171.448 88.1518 171.393 87.7337C171.339 87.3156 171.374 86.8904 171.495 86.4873C171.711 85.67 172.099 84.9119 172.633 84.267C173.167 83.622 173.833 83.1063 174.583 82.7564C175.371 82.3888 176.222 82.1848 177.087 82.1562C177.952 82.1276 178.814 82.2749 179.624 82.5896C180.209 80.7603 182.413 79.7647 184.453 79.7084C188.621 79.5934 192.347 82.5153 194.157 86.0288C195.968 89.5424 196.233 93.5585 196.345 97.4577C196.373 98.4086 196.384 99.4001 195.946 100.259C195.294 101.537 193.812 102.225 192.414 102.771C188.751 104.201 184.971 105.293 181.119 106.036C182.969 104.821 183.555 102.205 182.384 100.396C181.811 99.5117 180.87 98.7751 180.717 97.7505C180.535 96.5219 181.554 95.4475 181.931 94.2583C182.122 93.6145 182.131 92.9283 181.956 92.2796C181.782 91.631 181.432 91.0467 180.947 90.5949C180.419 90.1233 179.788 89.7903 179.107 89.6244C178.427 89.4585 177.717 89.4646 177.04 89.6422" fill="#2F2E41"/>
<path d="M207.683 204.999H142.131C142.047 204.999 141.966 204.965 141.907 204.904C141.847 204.842 141.814 204.76 141.814 204.673C141.814 204.587 141.847 204.504 141.907 204.443C141.966 204.382 142.047 204.348 142.131 204.348H207.683C207.767 204.348 207.848 204.382 207.907 204.443C207.967 204.504 208 204.587 208 204.673C208 204.76 207.967 204.842 207.907 204.904C207.848 204.965 207.767 204.999 207.683 204.999Z" fill="#CCCCCC"/>
</g>
<defs>
<clipPath id="clip0">
<rect width="208" height="205" fill="white"/>
</clipPath>
</defs>
</svg>
