<svg width="217" height="225" viewBox="0 0 217 225" fill="none" xmlns="http://www.w3.org/2000/svg">
<g clip-path="url(#clip0)">
<path d="M143.881 225C176.272 225 202.53 220.821 202.53 215.665C202.53 210.51 176.272 206.33 143.881 206.33C111.491 206.33 85.2329 210.51 85.2329 215.665C85.2329 220.821 111.491 225 143.881 225Z" fill="#F2F2F2"/>
<path d="M132.966 222.279C92.3143 222.279 60.4702 217.1 60.4702 210.489C60.4702 203.878 92.3143 198.699 132.966 198.699C173.618 198.699 205.462 203.878 205.462 210.489C205.462 217.1 173.618 222.279 132.966 222.279ZM132.966 199.304C94.0225 199.304 61.1219 204.426 61.1219 210.489C61.1219 216.552 94.0225 221.674 132.966 221.674C171.91 221.674 204.81 216.552 204.81 210.489C204.81 204.426 171.91 199.304 132.966 199.304Z" fill="#F2F2F2"/>
<path d="M217 120.727C217.004 126.77 216.365 132.799 215.091 138.726C214.895 139.639 214.683 140.547 214.455 141.452C214.322 141.997 214.182 142.539 214.035 143.079C213.941 143.429 213.843 143.78 213.742 144.131C210.116 156.817 203.6 168.634 194.634 178.785C185.668 188.936 174.46 197.185 161.766 202.977C157.6 204.88 153.293 206.503 148.877 207.835C148.206 208.037 147.531 208.234 146.853 208.424H146.85C137.583 211.018 127.955 212.332 118.275 212.324C116.887 212.324 115.519 212.295 114.17 212.236C110.518 212.088 106.882 211.714 103.284 211.115C59.073 203.702 37.4155 163.309 19.5506 120.727C19.1074 119.672 18.6719 118.624 18.244 117.583C18.1397 117.326 18.0355 117.069 17.9312 116.812C-29.587 0.232083 21.9454 -29.2695 118.275 29.1291C163.92 56.7988 217 70.1394 217 120.727Z" fill="#F2F2F2"/>
<path d="M148.763 175.427L148.311 174.991C148.382 174.928 155.432 168.521 158.117 156.549C160.597 145.491 159.755 127.285 141.66 103.346C127.781 84.985 122.165 68.9438 124.967 55.6675C127.429 44.004 135.801 38.8804 135.885 38.8301L136.238 39.3381C136.156 39.3873 128.004 44.3902 125.603 55.8025C122.846 68.9078 128.427 84.7869 142.193 102.998C150.244 113.649 155.603 124.079 158.122 133.999C160.14 141.948 160.351 149.589 158.746 156.71C156.011 168.852 148.835 175.363 148.763 175.427Z" fill="#F2F2F2"/>
<path d="M26.7936 104.556C23.6282 108.713 20.7717 113.065 18.2439 117.583C18.1397 117.326 18.0354 117.069 17.9312 116.812C20.4121 112.449 23.1939 108.239 26.2592 104.209C40.0253 85.995 45.6066 70.1181 42.8502 57.0133C40.4489 45.5984 32.2967 40.5953 32.2153 40.5469L32.5672 40.0391C32.6519 40.0905 41.0256 45.2145 43.4855 56.8773C46.2876 70.1544 40.6704 86.1945 26.7936 104.556Z" fill="#F2F2F2"/>
<path d="M79.6771 203.543L79.2254 203.107C79.3148 203.028 88.2034 194.952 91.5908 179.861C94.7192 165.926 93.6625 142.983 70.8634 112.82C61.3374 100.217 54.8411 88.3102 51.555 77.4295C48.87 68.5389 48.3015 60.2741 49.8654 52.8646C52.9571 38.2152 63.4656 31.7839 63.5714 31.7207L63.9244 32.2288C63.8208 32.2908 53.5319 38.6013 50.5008 52.9995C47.0234 69.5185 54.0539 89.5284 71.397 112.473C81.5243 125.871 88.2657 138.991 91.4343 151.468C93.9724 161.463 94.2368 171.071 92.2202 180.023C88.7828 195.283 79.7677 203.462 79.6771 203.543Z" fill="white"/>
<path d="M57.8011 65.4592C71.7316 65.4592 83.0245 54.9816 83.0245 42.0568C83.0245 29.1319 71.7316 18.6543 57.8011 18.6543C43.8706 18.6543 32.5776 29.1319 32.5776 42.0568C32.5776 54.9816 43.8706 65.4592 57.8011 65.4592Z" fill="white"/>
<path d="M63.7479 63.8602C56.9507 63.8602 50.3062 61.9901 44.6545 58.4864C39.0028 54.9827 34.5979 50.0028 31.9967 44.1764C29.3955 38.35 28.7149 31.9387 30.041 25.7534C31.367 19.5681 34.6402 13.8866 39.4465 9.42719C44.2528 4.96782 50.3765 1.93095 57.0431 0.700602C63.7096 -0.529745 70.6197 0.101693 76.8995 2.51507C83.1793 4.92844 88.5468 9.01535 92.3231 14.259C96.0994 19.5026 98.115 25.6675 98.1151 31.974C98.1047 40.4277 94.4806 48.5326 88.0378 54.5103C81.5949 60.488 72.8595 63.8506 63.7479 63.8602ZM63.7479 0.692511C57.0796 0.692496 50.561 2.52712 45.0165 5.96437C39.472 9.40162 35.1506 14.2871 32.5987 20.0031C30.0469 25.719 29.3792 32.0087 30.6801 38.0767C31.981 44.1448 35.1921 49.7186 39.9073 54.0934C44.6225 58.4682 50.6301 61.4475 57.1703 62.6545C63.7105 63.8615 70.4895 63.242 76.6503 60.8744C82.811 58.5068 88.0766 54.4973 91.7813 49.3531C95.486 44.2089 97.4634 38.1609 97.4634 31.974C97.4533 23.6805 93.8979 15.7294 87.5772 9.86501C81.2565 4.00064 72.6867 0.701905 63.7479 0.692511Z" fill="white"/>
<path d="M83.0244 114.548C94.5765 114.548 103.941 105.859 103.941 95.1413C103.941 84.4232 94.5765 75.7344 83.0244 75.7344C71.4723 75.7344 62.1074 84.4232 62.1074 95.1413C62.1074 105.859 71.4723 114.548 83.0244 114.548Z" fill="white"/>
<path d="M72.3608 181.902C83.913 181.902 93.2778 173.213 93.2778 162.495C93.2778 151.777 83.913 143.088 72.3608 143.088C60.8087 143.088 51.4438 151.777 51.4438 162.495C51.4438 173.213 60.8087 181.902 72.3608 181.902Z" fill="white"/>
<path d="M214.035 143.077C213.817 142.031 213.592 140.999 213.361 139.982C213.36 139.982 213.36 139.982 213.359 139.982C213.359 139.981 213.359 139.981 213.358 139.981C213.358 139.981 213.358 139.98 213.358 139.98C213.357 139.98 213.357 139.979 213.357 139.979C210.431 127.098 206.489 116.535 201.82 107.92L189.448 103.972L198.773 102.735C195.004 96.801 190.849 91.9399 186.434 87.9949L163.711 90.4042L180.863 83.5843C149.343 61.5858 108.018 79.2554 96.7579 84.8086C95.2135 85.5674 94.236 86.1025 93.9232 86.2748C93.9199 86.2748 93.9199 86.2748 93.9167 86.2778C93.8483 86.3171 93.8157 86.3353 93.8157 86.3353L100.208 89.4157H100.212L213.742 144.129L214.035 143.077Z" fill="#F03D5F"/>
<path d="M214.035 143.079C214.182 142.538 214.322 141.996 214.455 141.453C214.123 141.002 213.758 140.509 213.361 139.983C213.36 139.983 213.36 139.983 213.359 139.983C213.359 139.983 213.359 139.983 213.358 139.983C213.358 139.982 213.358 139.982 213.358 139.982C213.357 139.981 213.357 139.981 213.357 139.98C200.266 122.613 152.278 65.865 97.0023 85.1277H96.999C95.9759 85.4844 94.9507 85.8673 93.9232 86.2765C93.92 86.2765 93.92 86.2764 93.9167 86.2795C92.9816 86.6513 92.0454 87.0463 91.1081 87.4645C90.6324 87.6731 90.1599 87.8907 89.6842 88.1114C89.2704 88.3049 88.8599 88.5014 88.4461 88.7039C88.4461 88.7039 86.0937 89.2511 83.4577 91.3128C78.2804 95.3697 72.005 105.282 80.3201 128.426C80.3201 128.426 87.7032 147.601 84.0116 156.507C80.3201 165.407 103.209 175.679 109.846 156.507C116.49 137.329 118.709 118.837 118.709 118.837C118.709 118.837 126.346 133.768 125.593 148.741C125.284 154.878 125.874 161.021 127.656 166.931C127.838 167.55 128.037 168.17 128.236 168.799C130.637 176.281 134.384 185.906 139.904 195.214C142.504 199.649 145.506 203.871 148.877 207.835C153.293 206.504 157.601 204.88 161.766 202.977C174.46 197.186 185.668 188.936 194.634 178.785C203.6 168.634 210.116 156.817 213.742 144.131L214.035 143.079Z" fill="#3F3D56"/>
<path d="M90.6573 95.5515L87.7046 72.9512L100.253 89.3876L90.6573 95.5515Z" fill="#3F3D56"/>
<path d="M84.2232 97.1804L81.2705 74.5801L93.8191 91.0165L84.2232 97.1804Z" fill="#3F3D56"/>
<path d="M77.796 118.241L46.2681 80.2188L78.199 106.821L77.796 118.241Z" fill="#F03D5F"/>
<path d="M146.948 23.3855C149.647 23.3855 151.835 21.3553 151.835 18.8509C151.835 16.3466 149.647 14.3164 146.948 14.3164C144.249 14.3164 142.061 16.3466 142.061 18.8509C142.061 21.3553 144.249 23.3855 146.948 23.3855Z" fill="#F2F2F2"/>
</g>
<defs>
<clipPath id="clip0">
<rect width="217" height="225" fill="white"/>
</clipPath>
</defs>
</svg>
