<svg width="217" height="250" viewBox="0 0 217 250" fill="none" xmlns="http://www.w3.org/2000/svg">
<path d="M199.915 57.334L28.2617 118.022L52.9964 174.131L70.6741 214.225L75.1182 224.309L114.674 236.659L116.104 237.105L157.424 250.001L177.259 243.023L204.281 233.469L217 228.972L199.915 57.334Z" fill="#F2F2F2"/>
<path d="M204.414 227.69L204.379 229.145L204.281 233.466L177.259 243.02L159.012 249.471L158.242 247.354L157.424 249.998L116.104 237.102L115.464 224.652V224.649L115.322 221.882L196.269 217.412L197.856 219.413L198.171 219.81L204.414 227.69Z" fill="#2F2E41"/>
<path d="M145.745 95.4246C145.745 95.4246 140.313 111.511 139.226 111.511C138.14 111.511 149.548 124.024 149.548 124.024L166.389 131.62L172.365 111.065C172.365 111.065 166.932 99.8932 168.019 94.084L145.745 95.4246Z" fill="#FFB8B8"/>
<path d="M154.437 101.677C165.538 101.677 174.537 94.2745 174.537 85.1432C174.537 76.0118 165.538 68.6094 154.437 68.6094C143.336 68.6094 134.337 76.0118 134.337 85.1432C134.337 94.2745 143.336 101.677 154.437 101.677Z" fill="#FFB8B8"/>
<path d="M157.153 119.554L141.093 108.082L131.621 111.958L110.977 122.682C110.977 122.682 116.41 219.204 113.693 222.779C113.693 222.779 119.669 233.95 154.98 227.247C190.292 220.544 199.527 219.651 199.527 219.651L191.921 160.665L201.157 123.576L170.135 105.732L160.413 119.554L157.153 119.554Z" fill="#F03D5F"/>
<path d="M97.3958 157.088C97.3958 157.088 89.247 178.09 95.2228 180.325C101.199 182.559 106.088 181.665 106.088 181.665L115.323 163.344L97.3958 157.088Z" fill="#FFB8B8"/>
<path d="M210.392 153.514L215.281 172.282V210.265C215.281 210.265 208.219 234.395 202.786 228.139C197.354 221.883 197.466 219.902 197.466 219.902L204.416 211.159L201.157 175.41L192.496 158.357L210.392 153.514Z" fill="#FFB8B8"/>
<path d="M173.451 68.6104C173.451 68.6104 166.932 56.992 154.437 59.6732C141.942 62.3543 134.88 66.3761 134.337 70.3978C133.793 74.4195 134.608 80.4521 134.608 80.4521C134.608 80.4521 135.966 72.1852 144.658 73.9727C153.35 75.7601 166.932 74.4195 166.932 74.4195L169.105 90.5065C169.105 90.5065 171.549 87.6019 174.266 89.3893C176.982 91.1768 182.143 72.1852 173.451 68.6104Z" fill="#2F2E41"/>
<path d="M192.638 157.204L194.603 165.607L213.856 161.405L210.32 153.648L192.638 157.204Z" fill="#3F3D56"/>
<path d="M97.0383 156.941L93.9688 165.118L113.363 168.856L114.676 160.642L97.0383 156.941Z" fill="#3F3D56"/>
<path d="M188.662 122.682L201.157 123.575C201.157 123.575 215.281 155.302 213.651 156.196C212.022 157.09 192.465 162.452 189.748 161.112C187.032 159.771 188.662 122.682 188.662 122.682Z" fill="#F03D5F"/>
<path d="M115.323 123.575L110.977 122.682C110.977 122.682 102.828 131.172 100.112 141.003C97.3955 150.834 93.5927 160.665 95.7657 160.665C97.9387 160.665 117.496 166.921 117.496 166.921L115.323 123.575Z" fill="#F03D5F"/>
<path d="M159.24 125.853C161.41 125.853 163.169 124.406 163.169 122.621C163.169 120.836 161.41 119.389 159.24 119.389C157.069 119.389 155.31 120.836 155.31 122.621C155.31 124.406 157.069 125.853 159.24 125.853Z" fill="#3F3D56"/>
<path d="M189.576 179.767L147.605 190.651L130.475 145.954C146.647 144.089 160.638 140.461 172.446 135.07C174.635 150.317 180.227 165.227 189.576 179.767Z" fill="#E6E6E6"/>
<path d="M185.647 184.615L143.676 195.498L126.545 150.802C142.718 148.936 156.708 145.308 168.517 139.918C170.706 155.164 176.298 170.075 185.647 184.615Z" fill="white"/>
<path d="M100.112 167.368C100.112 167.368 93.5927 177.198 95.2225 180.326C96.8523 183.454 110.434 185.242 112.063 185.242C113.693 185.242 133.25 181.667 133.25 181.667C133.25 181.667 163.129 170.049 154.437 164.24C145.745 158.43 129.447 172.283 129.447 172.283H116.409L109.347 168.261L100.112 167.368Z" fill="#FFB8B8"/>
<path d="M49.1404 125.195H36.7603V134.181H49.1404V125.195Z" fill="#3F3D56"/>
<path d="M24.3801 125.195H12V134.181H24.3801V125.195Z" fill="#3F3D56"/>
<path d="M12.3801 117H0V125.985H12.3801V117Z" fill="#3F3D56"/>
<path d="M73.9006 105.43H61.5205V115.613H73.9006V105.43Z" fill="#F03D5F"/>
<path d="M61.5207 115.611H49.1406V125.196H61.5207V115.611Z" fill="#3F3D56"/>
<path d="M36.7602 115.611H24.3801V125.196H36.7602V115.611Z" fill="#3F3D56"/>
<path d="M32.6607 98.0877L26.2289 92.4156L33.1245 87.125L39.5563 92.7971L32.6607 98.0877ZM27.2541 92.4449L32.6963 97.2444L38.5311 92.7678L33.0889 87.9683L27.2541 92.4449Z" fill="#3F3D56"/>
<path d="M120.748 59.7799H111.318V52.0234H120.748V59.7799ZM112.044 59.1833H120.023V52.6201H112.044V59.1833Z" fill="#3F3D56"/>
<path d="M67.1394 110.841L66.5821 110.394C69.1453 108.003 71.0881 105.207 72.2916 102.177C74.1864 97.487 75.112 90.0795 68.7606 81.4266C62.2621 72.5732 61.9697 65.3823 62.8685 60.9089C63.8468 56.0414 66.3424 53.3129 66.4481 53.1992L67.067 53.5882C67.0421 53.6149 64.5682 56.3288 63.6294 61.0512C62.7628 65.4111 63.0651 72.4278 69.4272 81.0953C75.941 89.9696 74.9761 97.5828 73.0197 102.407C70.8998 107.633 67.2921 110.713 67.1394 110.841Z" fill="#3F3D56"/>
<path d="M115.977 105.232H81.7087V105.873H115.977V105.232Z" fill="#3F3D56"/>
<path d="M115.977 109.725H81.7087V110.365H115.977V109.725Z" fill="#3F3D56"/>
<path d="M115.977 114.221H81.7087V114.861H115.977V114.221Z" fill="#3F3D56"/>
<path d="M68.4387 53.3149C75.6782 53.3149 81.547 48.4874 81.547 42.5325C81.547 36.5775 75.6782 31.75 68.4387 31.75C61.1991 31.75 55.3303 36.5775 55.3303 42.5325C55.3303 48.4874 61.1991 53.3149 68.4387 53.3149Z" fill="#3F3D56"/>
<path d="M147.453 7.73828H76.4495V33.846H147.453V7.73828Z" fill="#F2F2F2"/>
<path d="M129.085 15.9805H94.8174V16.6211H129.085V15.9805Z" fill="#3F3D56"/>
<path d="M129.085 20.4707H94.8174V21.1113H129.085V20.4707Z" fill="#3F3D56"/>
<path d="M129.085 24.9648H94.8174V25.6055H129.085V24.9648Z" fill="#3F3D56"/>
<path d="M157.284 34.1444H76.0852V0H157.284V34.1444ZM76.8134 33.5454H156.556V0.599025H76.8134V33.5454Z" fill="#3F3D56"/>
</svg>
